<?xml version="1.0" encoding="utf-8"?>
<!-- Generator: Adobe Illustrator 21.1.0, SVG Export Plug-In . SVG Version: 6.00 Build 0)  -->
<svg version="1.1" id="Layer_1" xmlns="http://www.w3.org/2000/svg" xmlns:xlink="http://www.w3.org/1999/xlink" x="0px" y="0px"
	 width="423.6px" height="624.3px" viewBox="0 0 423.6 624.3" style="enable-background:new 0 0 423.6 624.3;" xml:space="preserve"
	>
<style type="text/css">
	.st0{fill:none;stroke:#35C187;stroke-width:1.603;stroke-miterlimit:10;}
	.st1{fill:#35C187;stroke:#F4F4F5;stroke-width:1.685;stroke-miterlimit:10;}
	.st2{fill:#F4F4F5;}
	.st3{font-family:'Gibson-SemiBold';}
	.st4{font-size:11.795px;}
	.st5{font-size:13.48px;}
	.st6{fill:none;stroke:#35C187;stroke-width:1.685;stroke-miterlimit:10;}
	.st7{fill:#35C187;}
	.st8{fill:#35C187;stroke:#F4F4F5;stroke-width:1.348;stroke-miterlimit:10;}
	.st9{fill:#262B3A;}
	.st10{fill:none;stroke:#35C187;stroke-width:1.5457;stroke-miterlimit:10;}
	.st11{fill:#FFFFFF;stroke:#262B3A;stroke-width:1.685;stroke-miterlimit:10;}
	.st12{font-family:'Gibson-Regular';}
	.st13{font-size:15.165px;}
	.st14{fill:none;stroke:#262B3A;stroke-width:1.685;stroke-miterlimit:10;}
	.st15{fill:none;}
	.st16{fill:#F46540;}
	.st17{fill:#FFFFFF;}
	.st18{fill:none;stroke:#F46540;stroke-width:1.775;stroke-miterlimit:10;}
	.st19{fill:none;stroke:#F46540;stroke-width:2.3667;stroke-linecap:round;stroke-linejoin:round;stroke-miterlimit:10;}
	.st20{fill:none;stroke:#F46540;stroke-width:1.685;stroke-miterlimit:10;}
	.st21{fill:none;stroke:#262B3A;stroke-width:2;stroke-linecap:round;stroke-linejoin:round;}
	.st22{fill:none;stroke:#262B3A;stroke-width:1.775;stroke-miterlimit:10;}
	.st23{fill:none;stroke:#262B3A;stroke-width:2.3667;stroke-linecap:round;stroke-linejoin:round;stroke-miterlimit:10;}
</style>
<g>
	<path class="st0" d="M104.1,279.7H15.9c-2.8,0-5-2.2-5-5v-50.1c0-2.8,2.2-5,5-5h88.2c2.8,0,5,2.2,5,5v50.1
		C109.1,277.4,106.9,279.7,104.1,279.7z"/>
	<circle class="st1" cx="52.7" cy="242.9" r="7.6"/>
	<circle class="st1" cx="32.9" cy="242.9" r="7.6"/>
	<circle class="st1" cx="71.7" cy="242.9" r="5.9"/>
	<circle class="st1" cx="71.7" cy="261.3" r="4.2"/>
	<circle class="st1" cx="88.8" cy="261.3" r="4.2"/>
	<circle class="st1" cx="52.7" cy="261.3" r="4.2"/>
	<circle class="st1" cx="32.9" cy="261.3" r="5.9"/>
	<circle class="st1" cx="88.8" cy="242.9" r="5.9"/>
	<g>
		<rect x="38.1" y="210.3" class="st2" width="43.8" height="18.5"/>
		<g>
			<text transform="matrix(1 0 0 1 45.5533 223.3141)" class="st3 st4">SPV 1</text>
		</g>
	</g>
	<path class="st0" d="M256,279.7h-88.2c-2.8,0-5-2.2-5-5v-50.1c0-2.8,2.2-5,5-5H256c2.8,0,5,2.2,5,5v50.1
		C261,277.4,258.8,279.7,256,279.7z"/>
	<circle class="st1" cx="204.5" cy="242.9" r="7.6"/>
	<circle class="st1" cx="184.8" cy="242.9" r="7.6"/>
	<circle class="st1" cx="223.5" cy="242.9" r="5.9"/>
	<circle class="st1" cx="223.5" cy="261.3" r="4.2"/>
	<circle class="st1" cx="240.7" cy="261.3" r="4.2"/>
	<circle class="st1" cx="204.5" cy="261.3" r="4.2"/>
	<circle class="st1" cx="184.8" cy="261.3" r="5.9"/>
	<circle class="st1" cx="240.7" cy="242.9" r="5.9"/>
	<g>
		<rect x="190" y="210.3" class="st2" width="43.8" height="18.5"/>
		<g>
			<text transform="matrix(1 0 0 1 195.5648 223.3141)" class="st3 st4">SPV 2</text>
		</g>
	</g>
	<path class="st0" d="M403,279.7h-88.2c-2.8,0-5-2.2-5-5v-50.1c0-2.8,2.2-5,5-5H403c2.8,0,5,2.2,5,5v50.1
		C408,277.4,405.8,279.7,403,279.7z"/>
	<circle class="st1" cx="351.5" cy="242.9" r="7.6"/>
	<circle class="st1" cx="331.8" cy="242.9" r="7.6"/>
	<circle class="st1" cx="370.5" cy="242.9" r="5.9"/>
	<circle class="st1" cx="370.5" cy="261.3" r="4.2"/>
	<circle class="st1" cx="387.7" cy="261.3" r="4.2"/>
	<circle class="st1" cx="351.5" cy="261.3" r="4.2"/>
	<circle class="st1" cx="331.8" cy="261.3" r="5.9"/>
	<circle class="st1" cx="387.7" cy="242.9" r="5.9"/>
	<g>
		<rect x="337" y="210.3" class="st2" width="43.8" height="18.5"/>
		<g>
			<text transform="matrix(1 0 0 1 342.5782 223.3141)" class="st3 st4">SPV 3</text>
		</g>
	</g>
	<text transform="matrix(1 0 0 1 181.4508 505.4139)" class="st3 st5">Borrowers</text>
	<g>
		<g>
			<line class="st6" x1="358.9" y1="318.1" x2="358.9" y2="288.7"/>
			<g>
				<polygon class="st7" points="365.8,294.3 364.6,295.5 358.9,289.4 353.3,295.5 352,294.3 358.9,286.9 				"/>
			</g>
		</g>
	</g>
	<g>
		<g>
			<line class="st6" x1="211.9" y1="318.1" x2="211.9" y2="288.7"/>
			<g>
				<polygon class="st7" points="218.8,294.3 217.6,295.5 211.9,289.4 206.2,295.5 205,294.3 211.9,286.9 				"/>
			</g>
		</g>
	</g>
	<g>
		<circle class="st8" cx="106.5" cy="524.1" r="3.4"/>
		<g>
			<circle class="st9" cx="106.4" cy="536.2" r="2.7"/>
			<path class="st9" d="M103.1,565.6c0,0.9,0.7,1.5,1.5,1.5c0.9,0,1.5-0.7,1.5-1.5l0-12.9h0.7l0,12.9c0,0.9,0.7,1.5,1.5,1.5
				c0.9,0,1.5-0.7,1.5-1.5l0-22.3h0.7v8.2c0,1.7,2.2,1.7,2.2,0v-8.4c0-1.8-1.1-3.6-3.2-3.6l-6.2,0c-1.9,0-3.2,1.6-3.2,3.6v8.4
				c0,1.6,2.2,1.6,2.2,0v-8.2h0.7L103.1,565.6z"/>
		</g>
		<g>
			<circle class="st1" cx="50.7" cy="523.3" r="7.6"/>
			<circle class="st8" cx="65.3" cy="523.3" r="3.4"/>
			<circle class="st8" cx="79.3" cy="523.3" r="3.4"/>
			<g>
				<circle class="st9" cx="64.8" cy="536.2" r="2.7"/>
				<path class="st9" d="M61.6,565.6c0,0.9,0.7,1.5,1.5,1.5c0.9,0,1.5-0.7,1.5-1.5l0-12.9h0.7l0,12.9c0,0.9,0.7,1.5,1.5,1.5
					c0.9,0,1.5-0.7,1.5-1.5l0-22.3h0.7v8.2c0,1.7,2.2,1.7,2.2,0v-8.4c0-1.8-1.1-3.6-3.2-3.6l-6.2,0c-1.9,0-3.2,1.6-3.2,3.6v8.4
					c0,1.6,2.2,1.6,2.2,0v-8.2h0.7L61.6,565.6z"/>
			</g>
			<g>
				<circle class="st9" cx="79.2" cy="536.2" r="2.7"/>
				<path class="st9" d="M75.9,565.6c0,0.9,0.7,1.5,1.5,1.5c0.9,0,1.5-0.7,1.5-1.5l0-12.9h0.7l0,12.9c0,0.9,0.7,1.5,1.5,1.5
					c0.9,0,1.5-0.7,1.5-1.5l0-22.3h0.7v8.2c0,1.7,2.2,1.7,2.2,0v-8.4c0-1.8-1.1-3.6-3.2-3.6l-6.2,0c-1.9,0-3.2,1.6-3.2,3.6v8.4
					c0,1.6,2.2,1.6,2.2,0v-8.2h0.7L75.9,565.6z"/>
			</g>
			<g>
				<g>
					<circle class="st9" cx="92.8" cy="536.2" r="2.7"/>
					<path class="st9" d="M89.5,565.6c0,0.9,0.7,1.5,1.5,1.5c0.9,0,1.5-0.7,1.5-1.5l0-12.9h0.7l0,12.9c0,0.9,0.7,1.5,1.5,1.5
						c0.9,0,1.5-0.7,1.5-1.5l0-22.3H97v8.2c0,1.7,2.2,1.7,2.2,0v-8.4c0-1.8-1.1-3.6-3.2-3.6l-6.2,0c-1.9,0-3.2,1.6-3.2,3.6v8.4
						c0,1.6,2.2,1.6,2.2,0v-8.2h0.7L89.5,565.6z"/>
				</g>
				<circle class="st1" cx="92.9" cy="524.1" r="5.9"/>
			</g>
			<g>
				<path class="st9" d="M53,539.5c1.9,0,2.7,1.6,3,2.5l2.4,7.8c0.5,1.7-1.7,2.4-2.2,0.7l-2.1-7.1h-0.6l3.7,12.7h-3.4v9.9
					c0,1.7-2.5,1.7-2.5,0v-9.9h-1l0,9.9c0,1.7-2.5,1.7-2.5,0l0-9.9h-3.4l3.7-12.7h-0.6l-2.1,7.1c-0.5,1.6-2.6,0.9-2.2-0.8l2.4-7.8
					c0.3-0.9,1-2.5,3-2.5H53z"/>
				<circle class="st9" cx="50.7" cy="536.2" r="2.8"/>
			</g>
		</g>
		<circle class="st1" cx="22" cy="523.3" r="7.6"/>
		<circle class="st8" cx="7.7" cy="523.3" r="3.4"/>
		<g>
			<circle class="st9" cx="21.9" cy="536.2" r="2.7"/>
			<path class="st9" d="M18.6,565.6c0,0.9,0.7,1.5,1.5,1.5c0.9,0,1.5-0.7,1.5-1.5l0-12.9h0.7l0,12.9c0,0.9,0.7,1.5,1.5,1.5
				c0.9,0,1.5-0.7,1.5-1.5l0-22.3h0.7v8.2c0,1.7,2.2,1.7,2.2,0v-8.4c0-1.8-1.1-3.6-3.2-3.6l-6.2,0c-1.9,0-3.2,1.6-3.2,3.6v8.4
				c0,1.6,2.2,1.6,2.2,0v-8.2h0.7L18.6,565.6z"/>
		</g>
		<g>
			<circle class="st9" cx="36.2" cy="536.2" r="2.7"/>
			<path class="st9" d="M33,565.6c0,0.9,0.7,1.5,1.5,1.5c0.9,0,1.5-0.7,1.5-1.5l0-12.9h0.7l0,12.9c0,0.9,0.7,1.5,1.5,1.5
				c0.9,0,1.5-0.7,1.5-1.5l0-22.3h0.7v8.2c0,1.7,2.2,1.7,2.2,0v-8.4c0-1.8-1.1-3.6-3.2-3.6l-6.2,0c-1.9,0-3.2,1.6-3.2,3.6v8.4
				c0,1.6,2.2,1.6,2.2,0v-8.2H33L33,565.6z"/>
		</g>
		<circle class="st1" cx="36.4" cy="523.3" r="5.9"/>
		<g>
			<path class="st9" d="M10,539.5c1.9,0,2.7,1.6,3,2.5l2.4,7.8c0.5,1.7-1.7,2.4-2.2,0.7l-2.1-7.1h-0.6l3.7,12.7h-3.4v9.9
				c0,1.7-2.5,1.7-2.5,0v-9.9h-1l0,9.9c0,1.7-2.5,1.7-2.5,0l0-9.9H1.3l3.7-12.7H4.4l-2.1,7.1c-0.5,1.6-2.6,0.9-2.2-0.8l2.4-7.8
				c0.3-0.9,1-2.5,3-2.5H10z"/>
			<circle class="st9" cx="7.7" cy="536.2" r="2.8"/>
		</g>
	</g>
	<g>
		<circle class="st8" cx="262" cy="524.1" r="3.4"/>
		<g>
			<circle class="st9" cx="261.9" cy="536.2" r="2.7"/>
			<path class="st9" d="M258.6,565.6c0,0.9,0.7,1.5,1.5,1.5c0.9,0,1.5-0.7,1.5-1.5l0-12.9h0.7l0,12.9c0,0.9,0.7,1.5,1.5,1.5
				c0.9,0,1.5-0.7,1.5-1.5l0-22.3h0.7v8.2c0,1.7,2.2,1.7,2.2,0v-8.4c0-1.8-1.1-3.6-3.2-3.6l-6.2,0c-1.9,0-3.2,1.6-3.2,3.6v8.4
				c0,1.6,2.2,1.6,2.2,0v-8.2h0.7L258.6,565.6z"/>
		</g>
		<g>
			<circle class="st1" cx="206.2" cy="523.3" r="7.6"/>
			<circle class="st8" cx="220.8" cy="523.3" r="3.4"/>
			<circle class="st8" cx="234.8" cy="523.3" r="3.4"/>
			<g>
				<circle class="st9" cx="220.3" cy="536.2" r="2.7"/>
				<path class="st9" d="M217.1,565.6c0,0.9,0.7,1.5,1.5,1.5c0.9,0,1.5-0.7,1.5-1.5l0-12.9h0.7l0,12.9c0,0.9,0.7,1.5,1.5,1.5
					s1.5-0.7,1.5-1.5l0-22.3h0.7v8.2c0,1.7,2.2,1.7,2.2,0v-8.4c0-1.8-1.1-3.6-3.2-3.6l-6.2,0c-1.9,0-3.2,1.6-3.2,3.6v8.4
					c0,1.6,2.2,1.6,2.2,0v-8.2h0.7L217.1,565.6z"/>
			</g>
			<g>
				<circle class="st9" cx="234.7" cy="536.2" r="2.7"/>
				<path class="st9" d="M231.4,565.6c0,0.9,0.7,1.5,1.5,1.5c0.9,0,1.5-0.7,1.5-1.5l0-12.9h0.7l0,12.9c0,0.9,0.7,1.5,1.5,1.5
					c0.9,0,1.5-0.7,1.5-1.5l0-22.3h0.7v8.2c0,1.7,2.2,1.7,2.2,0v-8.4c0-1.8-1.1-3.6-3.2-3.6l-6.2,0c-1.9,0-3.2,1.6-3.2,3.6v8.4
					c0,1.6,2.2,1.6,2.2,0v-8.2h0.7L231.4,565.6z"/>
			</g>
			<g>
				<g>
					<circle class="st9" cx="248.2" cy="536.2" r="2.7"/>
					<path class="st9" d="M245,565.6c0,0.9,0.7,1.5,1.5,1.5c0.9,0,1.5-0.7,1.5-1.5l0-12.9h0.7l0,12.9c0,0.9,0.7,1.5,1.5,1.5
						c0.9,0,1.5-0.7,1.5-1.5l0-22.3h0.7v8.2c0,1.7,2.2,1.7,2.2,0v-8.4c0-1.8-1.1-3.6-3.2-3.6l-6.2,0c-1.9,0-3.2,1.6-3.2,3.6v8.4
						c0,1.6,2.2,1.6,2.2,0v-8.2h0.7L245,565.6z"/>
				</g>
				<circle class="st1" cx="248.4" cy="524.1" r="5.9"/>
			</g>
			<g>
				<path class="st9" d="M208.5,539.5c1.9,0,2.7,1.6,3,2.5l2.4,7.8c0.5,1.7-1.7,2.4-2.2,0.7l-2.1-7.1h-0.6l3.7,12.7h-3.4v9.9
					c0,1.7-2.5,1.7-2.5,0v-9.9h-1l0,9.9c0,1.7-2.5,1.7-2.5,0l0-9.9h-3.4l3.7-12.7h-0.6l-2.1,7.1c-0.5,1.6-2.6,0.9-2.2-0.8l2.4-7.8
					c0.3-0.9,1-2.5,3-2.5H208.5z"/>
				<circle class="st9" cx="206.2" cy="536.2" r="2.8"/>
			</g>
		</g>
		<circle class="st1" cx="177.5" cy="523.3" r="7.6"/>
		<circle class="st8" cx="163.2" cy="523.3" r="3.4"/>
		<g>
			<circle class="st9" cx="177.4" cy="536.2" r="2.7"/>
			<path class="st9" d="M174.1,565.6c0,0.9,0.7,1.5,1.5,1.5c0.9,0,1.5-0.7,1.5-1.5l0-12.9h0.7l0,12.9c0,0.9,0.7,1.5,1.5,1.5
				s1.5-0.7,1.5-1.5l0-22.3h0.7v8.2c0,1.7,2.2,1.7,2.2,0v-8.4c0-1.8-1.1-3.6-3.2-3.6l-6.2,0c-1.9,0-3.2,1.6-3.2,3.6v8.4
				c0,1.6,2.2,1.6,2.2,0v-8.2h0.7L174.1,565.6z"/>
		</g>
		<g>
			<circle class="st9" cx="191.7" cy="536.2" r="2.7"/>
			<path class="st9" d="M188.5,565.6c0,0.9,0.7,1.5,1.5,1.5c0.9,0,1.5-0.7,1.5-1.5l0-12.9h0.7l0,12.9c0,0.9,0.7,1.5,1.5,1.5
				c0.9,0,1.5-0.7,1.5-1.5l0-22.3h0.7v8.2c0,1.7,2.2,1.7,2.2,0v-8.4c0-1.8-1.1-3.6-3.2-3.6l-6.2,0c-1.9,0-3.2,1.6-3.2,3.6v8.4
				c0,1.6,2.2,1.6,2.2,0v-8.2h0.7L188.5,565.6z"/>
		</g>
		<circle class="st1" cx="191.9" cy="523.3" r="5.9"/>
		<g>
			<path class="st9" d="M165.5,539.5c1.9,0,2.7,1.6,3,2.5l2.4,7.8c0.5,1.7-1.7,2.4-2.2,0.7l-2.1-7.1H166l3.7,12.7h-3.4v9.9
				c0,1.7-2.5,1.7-2.5,0v-9.9h-1l0,9.9c0,1.7-2.5,1.7-2.5,0l0-9.9h-3.4l3.7-12.7h-0.6l-2.1,7.1c-0.5,1.6-2.6,0.9-2.2-0.8l2.4-7.8
				c0.3-0.9,1-2.5,3-2.5H165.5z"/>
			<circle class="st9" cx="163.2" cy="536.2" r="2.8"/>
		</g>
	</g>
	<g>
		<circle class="st8" cx="409" cy="524.1" r="3.4"/>
		<g>
			<circle class="st9" cx="408.9" cy="536.2" r="2.7"/>
			<path class="st9" d="M405.6,565.6c0,0.9,0.7,1.5,1.5,1.5c0.9,0,1.5-0.7,1.5-1.5l0-12.9h0.7l0,12.9c0,0.9,0.7,1.5,1.5,1.5
				s1.5-0.7,1.5-1.5l0-22.3h0.7v8.2c0,1.7,2.2,1.7,2.2,0v-8.4c0-1.8-1.1-3.6-3.2-3.6l-6.2,0c-1.9,0-3.2,1.6-3.2,3.6v8.4
				c0,1.6,2.2,1.6,2.2,0v-8.2h0.7L405.6,565.6z"/>
		</g>
		<g>
			<circle class="st1" cx="353.2" cy="523.3" r="7.6"/>
			<circle class="st8" cx="367.8" cy="523.3" r="3.4"/>
			<circle class="st8" cx="381.8" cy="523.3" r="3.4"/>
			<g>
				<circle class="st9" cx="367.3" cy="536.2" r="2.7"/>
				<path class="st9" d="M364.1,565.6c0,0.9,0.7,1.5,1.5,1.5c0.9,0,1.5-0.7,1.5-1.5l0-12.9h0.7l0,12.9c0,0.9,0.7,1.5,1.5,1.5
					s1.5-0.7,1.5-1.5l0-22.3h0.7v8.2c0,1.7,2.2,1.7,2.2,0v-8.4c0-1.8-1.1-3.6-3.2-3.6l-6.2,0c-1.9,0-3.2,1.6-3.2,3.6v8.4
					c0,1.6,2.2,1.6,2.2,0v-8.2h0.7L364.1,565.6z"/>
			</g>
			<g>
				<circle class="st9" cx="381.7" cy="536.2" r="2.7"/>
				<path class="st9" d="M378.4,565.6c0,0.9,0.7,1.5,1.5,1.5c0.9,0,1.5-0.7,1.5-1.5l0-12.9h0.7l0,12.9c0,0.9,0.7,1.5,1.5,1.5
					s1.5-0.7,1.5-1.5l0-22.3h0.7v8.2c0,1.7,2.2,1.7,2.2,0v-8.4c0-1.8-1.1-3.6-3.2-3.6l-6.2,0c-1.9,0-3.2,1.6-3.2,3.6v8.4
					c0,1.6,2.2,1.6,2.2,0v-8.2h0.7L378.4,565.6z"/>
			</g>
			<g>
				<g>
					<circle class="st9" cx="395.3" cy="536.2" r="2.7"/>
					<path class="st9" d="M392,565.6c0,0.9,0.7,1.5,1.5,1.5c0.9,0,1.5-0.7,1.5-1.5l0-12.9h0.7l0,12.9c0,0.9,0.7,1.5,1.5,1.5
						s1.5-0.7,1.5-1.5l0-22.3h0.7v8.2c0,1.7,2.2,1.7,2.2,0v-8.4c0-1.8-1.1-3.6-3.2-3.6l-6.2,0c-1.9,0-3.2,1.6-3.2,3.6v8.4
						c0,1.6,2.2,1.6,2.2,0v-8.2h0.7L392,565.6z"/>
				</g>
				<circle class="st1" cx="395.4" cy="524.1" r="5.9"/>
			</g>
			<g>
				<path class="st9" d="M355.5,539.5c1.9,0,2.7,1.6,3,2.5l2.4,7.8c0.5,1.7-1.7,2.4-2.2,0.7l-2.1-7.1H356l3.7,12.7h-3.4v9.9
					c0,1.7-2.5,1.7-2.5,0v-9.9h-1l0,9.9c0,1.7-2.5,1.7-2.5,0l0-9.9h-3.4l3.7-12.7h-0.6l-2.1,7.1c-0.5,1.6-2.6,0.9-2.2-0.8l2.4-7.8
					c0.3-0.9,1-2.5,3-2.5H355.5z"/>
				<circle class="st9" cx="353.2" cy="536.2" r="2.8"/>
			</g>
		</g>
		<circle class="st1" cx="324.6" cy="523.3" r="7.6"/>
		<circle class="st8" cx="310.2" cy="523.3" r="3.4"/>
		<g>
			<circle class="st9" cx="324.4" cy="536.2" r="2.7"/>
			<path class="st9" d="M321.1,565.6c0,0.9,0.7,1.5,1.5,1.5c0.9,0,1.5-0.7,1.5-1.5l0-12.9h0.7l0,12.9c0,0.9,0.7,1.5,1.5,1.5
				c0.9,0,1.5-0.7,1.5-1.5l0-22.3h0.7v8.2c0,1.7,2.2,1.7,2.2,0v-8.4c0-1.8-1.1-3.6-3.2-3.6l-6.2,0c-1.9,0-3.2,1.6-3.2,3.6v8.4
				c0,1.6,2.2,1.6,2.2,0v-8.2h0.7L321.1,565.6z"/>
		</g>
		<g>
			<circle class="st9" cx="338.7" cy="536.2" r="2.7"/>
			<path class="st9" d="M335.5,565.6c0,0.9,0.7,1.5,1.5,1.5c0.9,0,1.5-0.7,1.5-1.5l0-12.9h0.7l0,12.9c0,0.9,0.7,1.5,1.5,1.5
				s1.5-0.7,1.5-1.5l0-22.3h0.7v8.2c0,1.7,2.2,1.7,2.2,0v-8.4c0-1.8-1.1-3.6-3.2-3.6l-6.2,0c-1.9,0-3.2,1.6-3.2,3.6v8.4
				c0,1.6,2.2,1.6,2.2,0v-8.2h0.7L335.5,565.6z"/>
		</g>
		<circle class="st1" cx="338.9" cy="523.3" r="5.9"/>
		<g>
			<path class="st9" d="M312.5,539.5c1.9,0,2.7,1.6,3,2.5l2.4,7.8c0.5,1.7-1.7,2.4-2.2,0.7l-2.1-7.1H313l3.7,12.7h-3.4v9.9
				c0,1.7-2.5,1.7-2.5,0v-9.9h-1l0,9.9c0,1.7-2.5,1.7-2.5,0l0-9.9h-3.4l3.7-12.7h-0.6l-2.1,7.1c-0.5,1.6-2.6,0.9-2.2-0.8l2.4-7.8
				c0.3-0.9,1-2.5,3-2.5H312.5z"/>
			<circle class="st9" cx="310.2" cy="536.2" r="2.8"/>
		</g>
	</g>
	<g>
		<circle class="st8" cx="106.5" cy="581.3" r="3.4"/>
		<g>
			<circle class="st9" cx="106.4" cy="593.3" r="2.7"/>
			<path class="st9" d="M103.1,622.7c0,0.9,0.7,1.5,1.5,1.5c0.9,0,1.5-0.7,1.5-1.5l0-12.9h0.7l0,12.9c0,0.9,0.7,1.5,1.5,1.5
				c0.9,0,1.5-0.7,1.5-1.5l0-22.3h0.7v8.2c0,1.7,2.2,1.7,2.2,0v-8.4c0-1.8-1.1-3.6-3.2-3.6l-6.2,0c-1.9,0-3.2,1.6-3.2,3.6v8.4
				c0,1.6,2.2,1.6,2.2,0v-8.2h0.7L103.1,622.7z"/>
		</g>
		<g>
			<circle class="st1" cx="50.7" cy="580.4" r="7.6"/>
			<circle class="st8" cx="65.3" cy="580.4" r="3.4"/>
			<circle class="st8" cx="79.3" cy="580.4" r="3.4"/>
			<g>
				<circle class="st9" cx="64.8" cy="593.3" r="2.7"/>
				<path class="st9" d="M61.6,622.7c0,0.9,0.7,1.5,1.5,1.5c0.9,0,1.5-0.7,1.5-1.5l0-12.9h0.7l0,12.9c0,0.9,0.7,1.5,1.5,1.5
					c0.9,0,1.5-0.7,1.5-1.5l0-22.3h0.7v8.2c0,1.7,2.2,1.7,2.2,0v-8.4c0-1.8-1.1-3.6-3.2-3.6l-6.2,0c-1.9,0-3.2,1.6-3.2,3.6v8.4
					c0,1.6,2.2,1.6,2.2,0v-8.2h0.7L61.6,622.7z"/>
			</g>
			<g>
				<circle class="st9" cx="79.2" cy="593.3" r="2.7"/>
				<path class="st9" d="M75.9,622.7c0,0.9,0.7,1.5,1.5,1.5c0.9,0,1.5-0.7,1.5-1.5l0-12.9h0.7l0,12.9c0,0.9,0.7,1.5,1.5,1.5
					c0.9,0,1.5-0.7,1.5-1.5l0-22.3h0.7v8.2c0,1.7,2.2,1.7,2.2,0v-8.4c0-1.8-1.1-3.6-3.2-3.6l-6.2,0c-1.9,0-3.2,1.6-3.2,3.6v8.4
					c0,1.6,2.2,1.6,2.2,0v-8.2h0.7L75.9,622.7z"/>
			</g>
			<g>
				<g>
					<circle class="st9" cx="92.8" cy="593.3" r="2.7"/>
					<path class="st9" d="M89.5,622.7c0,0.9,0.7,1.5,1.5,1.5c0.9,0,1.5-0.7,1.5-1.5l0-12.9h0.7l0,12.9c0,0.9,0.7,1.5,1.5,1.5
						c0.9,0,1.5-0.7,1.5-1.5l0-22.3H97v8.2c0,1.7,2.2,1.7,2.2,0v-8.4c0-1.8-1.1-3.6-3.2-3.6l-6.2,0c-1.9,0-3.2,1.6-3.2,3.6v8.4
						c0,1.6,2.2,1.6,2.2,0v-8.2h0.7L89.5,622.7z"/>
				</g>
				<circle class="st1" cx="92.9" cy="581.3" r="5.9"/>
			</g>
			<g>
				<path class="st9" d="M53,596.6c1.9,0,2.7,1.6,3,2.5l2.4,7.8c0.5,1.7-1.7,2.4-2.2,0.7l-2.1-7.1h-0.6l3.7,12.7h-3.4v9.9
					c0,1.7-2.5,1.7-2.5,0v-9.9h-1l0,9.9c0,1.7-2.5,1.7-2.5,0l0-9.9h-3.4l3.7-12.7h-0.6l-2.1,7.1c-0.5,1.6-2.6,0.9-2.2-0.8l2.4-7.8
					c0.3-0.9,1-2.5,3-2.5H53z"/>
				<circle class="st9" cx="50.7" cy="593.3" r="2.8"/>
			</g>
		</g>
		<circle class="st1" cx="22" cy="580.4" r="7.6"/>
		<circle class="st8" cx="7.7" cy="580.4" r="3.4"/>
		<g>
			<circle class="st9" cx="21.9" cy="593.3" r="2.7"/>
			<path class="st9" d="M18.6,622.7c0,0.9,0.7,1.5,1.5,1.5c0.9,0,1.5-0.7,1.5-1.5l0-12.9h0.7l0,12.9c0,0.9,0.7,1.5,1.5,1.5
				c0.9,0,1.5-0.7,1.5-1.5l0-22.3h0.7v8.2c0,1.7,2.2,1.7,2.2,0v-8.4c0-1.8-1.1-3.6-3.2-3.6l-6.2,0c-1.9,0-3.2,1.6-3.2,3.6v8.4
				c0,1.6,2.2,1.6,2.2,0v-8.2h0.7L18.6,622.7z"/>
		</g>
		<g>
			<circle class="st9" cx="36.2" cy="593.3" r="2.7"/>
			<path class="st9" d="M33,622.7c0,0.9,0.7,1.5,1.5,1.5c0.9,0,1.5-0.7,1.5-1.5l0-12.9h0.7l0,12.9c0,0.9,0.7,1.5,1.5,1.5
				c0.9,0,1.5-0.7,1.5-1.5l0-22.3h0.7v8.2c0,1.7,2.2,1.7,2.2,0v-8.4c0-1.8-1.1-3.6-3.2-3.6l-6.2,0c-1.9,0-3.2,1.6-3.2,3.6v8.4
				c0,1.6,2.2,1.6,2.2,0v-8.2H33L33,622.7z"/>
		</g>
		<circle class="st1" cx="36.4" cy="580.4" r="5.9"/>
		<g>
			<path class="st9" d="M10,596.6c1.9,0,2.7,1.6,3,2.5l2.4,7.8c0.5,1.7-1.7,2.4-2.2,0.7l-2.1-7.1h-0.6l3.7,12.7h-3.4v9.9
				c0,1.7-2.5,1.7-2.5,0v-9.9h-1l0,9.9c0,1.7-2.5,1.7-2.5,0l0-9.9H1.3l3.7-12.7H4.4l-2.1,7.1c-0.5,1.6-2.6,0.9-2.2-0.8l2.4-7.8
				c0.3-0.9,1-2.5,3-2.5H10z"/>
			<circle class="st9" cx="7.7" cy="593.3" r="2.8"/>
		</g>
	</g>
	<g>
		<circle class="st8" cx="262" cy="581.3" r="3.4"/>
		<g>
			<circle class="st9" cx="261.9" cy="593.3" r="2.7"/>
			<path class="st9" d="M258.6,622.7c0,0.9,0.7,1.5,1.5,1.5c0.9,0,1.5-0.7,1.5-1.5l0-12.9h0.7l0,12.9c0,0.9,0.7,1.5,1.5,1.5
				c0.9,0,1.5-0.7,1.5-1.5l0-22.3h0.7v8.2c0,1.7,2.2,1.7,2.2,0v-8.4c0-1.8-1.1-3.6-3.2-3.6l-6.2,0c-1.9,0-3.2,1.6-3.2,3.6v8.4
				c0,1.6,2.2,1.6,2.2,0v-8.2h0.7L258.6,622.7z"/>
		</g>
		<g>
			<circle class="st1" cx="206.2" cy="580.4" r="7.6"/>
			<circle class="st8" cx="220.8" cy="580.4" r="3.4"/>
			<circle class="st8" cx="234.8" cy="580.4" r="3.4"/>
			<g>
				<circle class="st9" cx="220.3" cy="593.3" r="2.7"/>
				<path class="st9" d="M217.1,622.7c0,0.9,0.7,1.5,1.5,1.5c0.9,0,1.5-0.7,1.5-1.5l0-12.9h0.7l0,12.9c0,0.9,0.7,1.5,1.5,1.5
					s1.5-0.7,1.5-1.5l0-22.3h0.7v8.2c0,1.7,2.2,1.7,2.2,0v-8.4c0-1.8-1.1-3.6-3.2-3.6l-6.2,0c-1.9,0-3.2,1.6-3.2,3.6v8.4
					c0,1.6,2.2,1.6,2.2,0v-8.2h0.7L217.1,622.7z"/>
			</g>
			<g>
				<circle class="st9" cx="234.7" cy="593.3" r="2.7"/>
				<path class="st9" d="M231.4,622.7c0,0.9,0.7,1.5,1.5,1.5c0.9,0,1.5-0.7,1.5-1.5l0-12.9h0.7l0,12.9c0,0.9,0.7,1.5,1.5,1.5
					c0.9,0,1.5-0.7,1.5-1.5l0-22.3h0.7v8.2c0,1.7,2.2,1.7,2.2,0v-8.4c0-1.8-1.1-3.6-3.2-3.6l-6.2,0c-1.9,0-3.2,1.6-3.2,3.6v8.4
					c0,1.6,2.2,1.6,2.2,0v-8.2h0.7L231.4,622.7z"/>
			</g>
			<g>
				<g>
					<circle class="st9" cx="248.2" cy="593.3" r="2.7"/>
					<path class="st9" d="M245,622.7c0,0.9,0.7,1.5,1.5,1.5c0.9,0,1.5-0.7,1.5-1.5l0-12.9h0.7l0,12.9c0,0.9,0.7,1.5,1.5,1.5
						c0.9,0,1.5-0.7,1.5-1.5l0-22.3h0.7v8.2c0,1.7,2.2,1.7,2.2,0v-8.4c0-1.8-1.1-3.6-3.2-3.6l-6.2,0c-1.9,0-3.2,1.6-3.2,3.6v8.4
						c0,1.6,2.2,1.6,2.2,0v-8.2h0.7L245,622.7z"/>
				</g>
				<circle class="st1" cx="248.4" cy="581.3" r="5.9"/>
			</g>
			<g>
				<path class="st9" d="M208.5,596.6c1.9,0,2.7,1.6,3,2.5l2.4,7.8c0.5,1.7-1.7,2.4-2.2,0.7l-2.1-7.1h-0.6l3.7,12.7h-3.4v9.9
					c0,1.7-2.5,1.7-2.5,0v-9.9h-1l0,9.9c0,1.7-2.5,1.7-2.5,0l0-9.9h-3.4l3.7-12.7h-0.6l-2.1,7.1c-0.5,1.6-2.6,0.9-2.2-0.8l2.4-7.8
					c0.3-0.9,1-2.5,3-2.5H208.5z"/>
				<circle class="st9" cx="206.2" cy="593.3" r="2.8"/>
			</g>
		</g>
		<circle class="st1" cx="177.5" cy="580.4" r="7.6"/>
		<circle class="st8" cx="163.2" cy="580.4" r="3.4"/>
		<g>
			<circle class="st9" cx="177.4" cy="593.3" r="2.7"/>
			<path class="st9" d="M174.1,622.7c0,0.9,0.7,1.5,1.5,1.5c0.9,0,1.5-0.7,1.5-1.5l0-12.9h0.7l0,12.9c0,0.9,0.7,1.5,1.5,1.5
				s1.5-0.7,1.5-1.5l0-22.3h0.7v8.2c0,1.7,2.2,1.7,2.2,0v-8.4c0-1.8-1.1-3.6-3.2-3.6l-6.2,0c-1.9,0-3.2,1.6-3.2,3.6v8.4
				c0,1.6,2.2,1.6,2.2,0v-8.2h0.7L174.1,622.7z"/>
		</g>
		<g>
			<circle class="st9" cx="191.7" cy="593.3" r="2.7"/>
			<path class="st9" d="M188.5,622.7c0,0.9,0.7,1.5,1.5,1.5c0.9,0,1.5-0.7,1.5-1.5l0-12.9h0.7l0,12.9c0,0.9,0.7,1.5,1.5,1.5
				c0.9,0,1.5-0.7,1.5-1.5l0-22.3h0.7v8.2c0,1.7,2.2,1.7,2.2,0v-8.4c0-1.8-1.1-3.6-3.2-3.6l-6.2,0c-1.9,0-3.2,1.6-3.2,3.6v8.4
				c0,1.6,2.2,1.6,2.2,0v-8.2h0.7L188.5,622.7z"/>
		</g>
		<circle class="st1" cx="191.9" cy="580.4" r="5.9"/>
		<g>
			<path class="st9" d="M165.5,596.6c1.9,0,2.7,1.6,3,2.5l2.4,7.8c0.5,1.7-1.7,2.4-2.2,0.7l-2.1-7.1H166l3.7,12.7h-3.4v9.9
				c0,1.7-2.5,1.7-2.5,0v-9.9h-1l0,9.9c0,1.7-2.5,1.7-2.5,0l0-9.9h-3.4l3.7-12.7h-0.6l-2.1,7.1c-0.5,1.6-2.6,0.9-2.2-0.8l2.4-7.8
				c0.3-0.9,1-2.5,3-2.5H165.5z"/>
			<circle class="st9" cx="163.2" cy="593.3" r="2.8"/>
		</g>
	</g>
	<g>
		<circle class="st8" cx="409" cy="581.3" r="3.4"/>
		<g>
			<circle class="st9" cx="408.9" cy="593.3" r="2.7"/>
			<path class="st9" d="M405.6,622.7c0,0.9,0.7,1.5,1.5,1.5c0.9,0,1.5-0.7,1.5-1.5l0-12.9h0.7l0,12.9c0,0.9,0.7,1.5,1.5,1.5
				s1.5-0.7,1.5-1.5l0-22.3h0.7v8.2c0,1.7,2.2,1.7,2.2,0v-8.4c0-1.8-1.1-3.6-3.2-3.6l-6.2,0c-1.9,0-3.2,1.6-3.2,3.6v8.4
				c0,1.6,2.2,1.6,2.2,0v-8.2h0.7L405.6,622.7z"/>
		</g>
		<g>
			<circle class="st1" cx="353.2" cy="580.4" r="7.6"/>
			<circle class="st8" cx="367.8" cy="580.4" r="3.4"/>
			<circle class="st8" cx="381.8" cy="580.4" r="3.4"/>
			<g>
				<circle class="st9" cx="367.3" cy="593.3" r="2.7"/>
				<path class="st9" d="M364.1,622.7c0,0.9,0.7,1.5,1.5,1.5c0.9,0,1.5-0.7,1.5-1.5l0-12.9h0.7l0,12.9c0,0.9,0.7,1.5,1.5,1.5
					s1.5-0.7,1.5-1.5l0-22.3h0.7v8.2c0,1.7,2.2,1.7,2.2,0v-8.4c0-1.8-1.1-3.6-3.2-3.6l-6.2,0c-1.9,0-3.2,1.6-3.2,3.6v8.4
					c0,1.6,2.2,1.6,2.2,0v-8.2h0.7L364.1,622.7z"/>
			</g>
			<g>
				<circle class="st9" cx="381.7" cy="593.3" r="2.7"/>
				<path class="st9" d="M378.4,622.7c0,0.9,0.7,1.5,1.5,1.5c0.9,0,1.5-0.7,1.5-1.5l0-12.9h0.7l0,12.9c0,0.9,0.7,1.5,1.5,1.5
					s1.5-0.7,1.5-1.5l0-22.3h0.7v8.2c0,1.7,2.2,1.7,2.2,0v-8.4c0-1.8-1.1-3.6-3.2-3.6l-6.2,0c-1.9,0-3.2,1.6-3.2,3.6v8.4
					c0,1.6,2.2,1.6,2.2,0v-8.2h0.7L378.4,622.7z"/>
			</g>
			<g>
				<g>
					<circle class="st9" cx="395.3" cy="593.3" r="2.7"/>
					<path class="st9" d="M392,622.7c0,0.9,0.7,1.5,1.5,1.5c0.9,0,1.5-0.7,1.5-1.5l0-12.9h0.7l0,12.9c0,0.9,0.7,1.5,1.5,1.5
						s1.5-0.7,1.5-1.5l0-22.3h0.7v8.2c0,1.7,2.2,1.7,2.2,0v-8.4c0-1.8-1.1-3.6-3.2-3.6l-6.2,0c-1.9,0-3.2,1.6-3.2,3.6v8.4
						c0,1.6,2.2,1.6,2.2,0v-8.2h0.7L392,622.7z"/>
				</g>
				<circle class="st1" cx="395.4" cy="581.3" r="5.9"/>
			</g>
			<g>
				<path class="st9" d="M355.5,596.6c1.9,0,2.7,1.6,3,2.5l2.4,7.8c0.5,1.7-1.7,2.4-2.2,0.7l-2.1-7.1H356l3.7,12.7h-3.4v9.9
					c0,1.7-2.5,1.7-2.5,0v-9.9h-1l0,9.9c0,1.7-2.5,1.7-2.5,0l0-9.9h-3.4l3.7-12.7h-0.6l-2.1,7.1c-0.5,1.6-2.6,0.9-2.2-0.8l2.4-7.8
					c0.3-0.9,1-2.5,3-2.5H355.5z"/>
				<circle class="st9" cx="353.2" cy="593.3" r="2.8"/>
			</g>
		</g>
		<circle class="st1" cx="324.6" cy="580.4" r="7.6"/>
		<circle class="st8" cx="310.2" cy="580.4" r="3.4"/>
		<g>
			<circle class="st9" cx="324.4" cy="593.3" r="2.7"/>
			<path class="st9" d="M321.1,622.7c0,0.9,0.7,1.5,1.5,1.5c0.9,0,1.5-0.7,1.5-1.5l0-12.9h0.7l0,12.9c0,0.9,0.7,1.5,1.5,1.5
				c0.9,0,1.5-0.7,1.5-1.5l0-22.3h0.7v8.2c0,1.7,2.2,1.7,2.2,0v-8.4c0-1.8-1.1-3.6-3.2-3.6l-6.2,0c-1.9,0-3.2,1.6-3.2,3.6v8.4
				c0,1.6,2.2,1.6,2.2,0v-8.2h0.7L321.1,622.7z"/>
		</g>
		<g>
			<circle class="st9" cx="338.7" cy="593.3" r="2.7"/>
			<path class="st9" d="M335.5,622.7c0,0.9,0.7,1.5,1.5,1.5c0.9,0,1.5-0.7,1.5-1.5l0-12.9h0.7l0,12.9c0,0.9,0.7,1.5,1.5,1.5
				s1.5-0.7,1.5-1.5l0-22.3h0.7v8.2c0,1.7,2.2,1.7,2.2,0v-8.4c0-1.8-1.1-3.6-3.2-3.6l-6.2,0c-1.9,0-3.2,1.6-3.2,3.6v8.4
				c0,1.6,2.2,1.6,2.2,0v-8.2h0.7L335.5,622.7z"/>
		</g>
		<circle class="st1" cx="338.9" cy="580.4" r="5.9"/>
		<g>
			<path class="st9" d="M312.5,596.6c1.9,0,2.7,1.6,3,2.5l2.4,7.8c0.5,1.7-1.7,2.4-2.2,0.7l-2.1-7.1H313l3.7,12.7h-3.4v9.9
				c0,1.7-2.5,1.7-2.5,0v-9.9h-1l0,9.9c0,1.7-2.5,1.7-2.5,0l0-9.9h-3.4l3.7-12.7h-0.6l-2.1,7.1c-0.5,1.6-2.6,0.9-2.2-0.8l2.4-7.8
				c0.3-0.9,1-2.5,3-2.5H312.5z"/>
			<circle class="st9" cx="310.2" cy="593.3" r="2.8"/>
		</g>
	</g>
	<g>
		<g>
			<line class="st6" x1="57.9" y1="318.1" x2="57.9" y2="288.7"/>
			<g>
				<polygon class="st7" points="64.7,294.3 63.5,295.5 57.9,289.4 52.2,295.5 51,294.3 57.9,286.9 				"/>
			</g>
		</g>
	</g>
	<g>
		<g>
			<line class="st6" x1="358.9" y1="486.9" x2="358.9" y2="457.5"/>
			<g>
				<polygon class="st7" points="365.8,463.1 364.6,464.2 358.9,458.2 353.3,464.2 352,463.1 358.9,455.7 				"/>
			</g>
		</g>
	</g>
	<g>
		<g>
			<line class="st6" x1="211.9" y1="486.9" x2="211.9" y2="457.5"/>
			<g>
				<polygon class="st7" points="218.8,463.1 217.6,464.2 211.9,458.2 206.2,464.2 205,463.1 211.9,455.7 				"/>
			</g>
		</g>
	</g>
	<g>
		<g>
			<line class="st6" x1="57.9" y1="486.9" x2="57.9" y2="457.5"/>
			<g>
				<polygon class="st7" points="64.7,463.1 63.5,464.2 57.9,458.2 52.2,464.2 51,463.1 57.9,455.7 				"/>
			</g>
		</g>
	</g>
	<path class="st10" d="M123.8,447.3H5.9c-2.8,0-5-2.2-5-5V339.5c0-2.8,2.2-5,5-5h117.9c2.8,0,5,2.2,5,5v102.8
		C128.8,445,126.6,447.3,123.8,447.3z"/>
	<g>
		<g>
			<rect x="53.1" y="355.1" class="st11" width="21.1" height="30.3"/>
			<text transform="matrix(1 0 0 1 56.6661 368.9645)" class="st9 st12 st13">$</text>
			<line class="st14" x1="58.1" y1="373.6" x2="70.8" y2="373.6"/>
			<line class="st14" x1="58.1" y1="377.8" x2="68.3" y2="377.8"/>
		</g>
		<circle class="st1" cx="53.1" cy="385.4" r="7.6"/>
		<g>
			<g>
				<rect x="53.1" y="398.9" class="st11" width="21.1" height="30.3"/>
				<text transform="matrix(1 0 0 1 56.6666 412.7745)" class="st9 st12 st13">$</text>
				<line class="st14" x1="58.1" y1="417.4" x2="70.8" y2="417.4"/>
				<line class="st14" x1="58.1" y1="421.7" x2="68.3" y2="421.7"/>
			</g>
			<circle class="st1" cx="53.1" cy="429.2" r="4.2"/>
		</g>
		<g>
			<g>
				<rect x="87.6" y="398.9" class="st11" width="21.1" height="30.3"/>
				<text transform="matrix(1 0 0 1 91.2091 412.7745)" class="st9 st12 st13">$</text>
				<line class="st14" x1="92.7" y1="417.4" x2="105.3" y2="417.4"/>
				<line class="st14" x1="92.7" y1="421.7" x2="102.8" y2="421.7"/>
			</g>
			<circle class="st1" cx="87.6" cy="429.2" r="5.9"/>
		</g>
		<g>
			<rect x="21.1" y="355.1" class="st11" width="21.1" height="30.3"/>
			<text transform="matrix(1 0 0 1 24.6515 368.9645)" class="st9 st12 st13">$</text>
			<line class="st14" x1="26.1" y1="373.6" x2="38.8" y2="373.6"/>
			<line class="st14" x1="26.1" y1="377.8" x2="36.2" y2="377.8"/>
		</g>
		<circle class="st1" cx="21.1" cy="385.4" r="5.9"/>
		<g>
			<g>
				<rect x="87.6" y="355.1" class="st11" width="21.1" height="30.3"/>
				<text transform="matrix(1 0 0 1 91.2091 368.9642)" class="st9 st12 st13">$</text>
				<line class="st14" x1="92.7" y1="373.6" x2="105.3" y2="373.6"/>
				<line class="st14" x1="92.7" y1="377.8" x2="102.8" y2="377.8"/>
			</g>
			<circle class="st1" cx="87.6" cy="385.4" r="4.2"/>
		</g>
		<g>
			<g>
				<rect x="21.1" y="398.9" class="st11" width="21.1" height="30.3"/>
				<text transform="matrix(1 0 0 1 24.6512 412.774)" class="st9 st12 st13">$</text>
				<line class="st14" x1="26.1" y1="417.4" x2="38.8" y2="417.4"/>
				<line class="st14" x1="26.1" y1="421.7" x2="36.2" y2="421.7"/>
			</g>
			<circle class="st1" cx="21.1" cy="429.2" r="5.9"/>
		</g>
	</g>
	<rect x="7.5" y="326" class="st2" width="114.7" height="18.5"/>
	<rect x="9" y="327.5" class="st15" width="111.8" height="12.4"/>
	<text transform="matrix(1 0 0 1 10.7967 337.421)" class="st3 st4">Alternative Lender 1</text>
	<path class="st10" d="M270.9,447.3H152.9c-2.8,0-5-2.2-5-5V339.5c0-2.8,2.2-5,5-5h117.9c2.8,0,5,2.2,5,5v102.8
		C275.9,445,273.6,447.3,270.9,447.3z"/>
	<g>
		<g>
			<rect x="200.1" y="355.1" class="st11" width="21.1" height="30.3"/>
			<text transform="matrix(1 0 0 1 203.6795 368.9645)" class="st9 st12 st13">$</text>
			<line class="st14" x1="205.2" y1="373.6" x2="217.8" y2="373.6"/>
			<line class="st14" x1="205.2" y1="377.8" x2="215.3" y2="377.8"/>
		</g>
		<circle class="st1" cx="200.1" cy="385.4" r="7.6"/>
		<g>
			<g>
				<rect x="200.1" y="398.9" class="st11" width="21.1" height="30.3"/>
				<text transform="matrix(1 0 0 1 203.6803 412.7745)" class="st9 st12 st13">$</text>
				<line class="st14" x1="205.2" y1="417.4" x2="217.8" y2="417.4"/>
				<line class="st14" x1="205.2" y1="421.7" x2="215.3" y2="421.7"/>
			</g>
			<circle class="st1" cx="200.1" cy="429.2" r="4.2"/>
		</g>
		<g>
			<g>
				<rect x="234.6" y="398.9" class="st11" width="21.1" height="30.3"/>
				<text transform="matrix(1 0 0 1 238.2225 412.7745)" class="st9 st12 st13">$</text>
				<line class="st14" x1="239.7" y1="417.4" x2="252.3" y2="417.4"/>
				<line class="st14" x1="239.7" y1="421.7" x2="249.8" y2="421.7"/>
			</g>
			<circle class="st1" cx="234.6" cy="429.2" r="5.9"/>
		</g>
		<g>
			<rect x="168.1" y="355.1" class="st11" width="21.1" height="30.3"/>
			<text transform="matrix(1 0 0 1 171.6649 368.9645)" class="st9 st12 st13">$</text>
			<line class="st14" x1="173.1" y1="373.6" x2="185.8" y2="373.6"/>
			<line class="st14" x1="173.1" y1="377.8" x2="183.2" y2="377.8"/>
		</g>
		<circle class="st1" cx="168.1" cy="385.4" r="5.9"/>
		<g>
			<g>
				<rect x="234.6" y="355.1" class="st11" width="21.1" height="30.3"/>
				<text transform="matrix(1 0 0 1 238.2223 368.9642)" class="st9 st12 st13">$</text>
				<line class="st14" x1="239.7" y1="373.6" x2="252.3" y2="373.6"/>
				<line class="st14" x1="239.7" y1="377.8" x2="249.8" y2="377.8"/>
			</g>
			<circle class="st1" cx="234.6" cy="385.4" r="4.2"/>
		</g>
		<g>
			<g>
				<rect x="168.1" y="398.9" class="st11" width="21.1" height="30.3"/>
				<text transform="matrix(1 0 0 1 171.6646 412.774)" class="st9 st12 st13">$</text>
				<line class="st14" x1="173.1" y1="417.4" x2="185.8" y2="417.4"/>
				<line class="st14" x1="173.1" y1="421.7" x2="183.2" y2="421.7"/>
			</g>
			<circle class="st1" cx="168.1" cy="429.2" r="5.9"/>
		</g>
	</g>
	<rect x="154.6" y="326" class="st2" width="114.7" height="18.5"/>
	<rect x="156" y="327.5" class="st15" width="111.8" height="12.4"/>
	<text transform="matrix(1 0 0 1 156.8778 337.421)" class="st3 st4">Alternative Lender 2</text>
	<path class="st10" d="M417.9,447.3H299.9c-2.8,0-5-2.2-5-5V339.5c0-2.8,2.2-5,5-5h117.9c2.8,0,5,2.2,5,5v102.8
		C422.9,445,420.6,447.3,417.9,447.3z"/>
	<g>
		<g>
			<rect x="347.1" y="355.1" class="st11" width="21.1" height="30.3"/>
			<text transform="matrix(1 0 0 1 350.6932 368.9645)" class="st9 st12 st13">$</text>
			<line class="st14" x1="352.2" y1="373.6" x2="364.8" y2="373.6"/>
			<line class="st14" x1="352.2" y1="377.8" x2="362.3" y2="377.8"/>
		</g>
		<circle class="st1" cx="347.1" cy="385.4" r="7.6"/>
		<g>
			<g>
				<rect x="347.1" y="398.9" class="st11" width="21.1" height="30.3"/>
				<text transform="matrix(1 0 0 1 350.6937 412.7745)" class="st9 st12 st13">$</text>
				<line class="st14" x1="352.2" y1="417.4" x2="364.8" y2="417.4"/>
				<line class="st14" x1="352.2" y1="421.7" x2="362.3" y2="421.7"/>
			</g>
			<circle class="st1" cx="347.1" cy="429.2" r="4.2"/>
		</g>
		<g>
			<g>
				<rect x="381.7" y="398.9" class="st11" width="21.1" height="30.3"/>
				<text transform="matrix(1 0 0 1 385.2359 412.7745)" class="st9 st12 st13">$</text>
				<line class="st14" x1="386.7" y1="417.4" x2="399.3" y2="417.4"/>
				<line class="st14" x1="386.7" y1="421.7" x2="396.8" y2="421.7"/>
			</g>
			<circle class="st1" cx="381.7" cy="429.2" r="5.9"/>
		</g>
		<g>
			<rect x="315.1" y="355.1" class="st11" width="21.1" height="30.3"/>
			<text transform="matrix(1 0 0 1 318.6786 368.9645)" class="st9 st12 st13">$</text>
			<line class="st14" x1="320.2" y1="373.6" x2="332.8" y2="373.6"/>
			<line class="st14" x1="320.2" y1="377.8" x2="330.3" y2="377.8"/>
		</g>
		<circle class="st1" cx="315.1" cy="385.4" r="5.9"/>
		<g>
			<g>
				<rect x="381.7" y="355.1" class="st11" width="21.1" height="30.3"/>
				<text transform="matrix(1 0 0 1 385.2359 368.9642)" class="st9 st12 st13">$</text>
				<line class="st14" x1="386.7" y1="373.6" x2="399.3" y2="373.6"/>
				<line class="st14" x1="386.7" y1="377.8" x2="396.8" y2="377.8"/>
			</g>
			<circle class="st1" cx="381.7" cy="385.4" r="4.2"/>
		</g>
		<g>
			<g>
				<rect x="315.1" y="398.9" class="st11" width="21.1" height="30.3"/>
				<text transform="matrix(1 0 0 1 318.6781 412.774)" class="st9 st12 st13">$</text>
				<line class="st14" x1="320.2" y1="417.4" x2="332.8" y2="417.4"/>
				<line class="st14" x1="320.2" y1="421.7" x2="330.3" y2="421.7"/>
			</g>
			<circle class="st1" cx="315.1" cy="429.2" r="5.9"/>
		</g>
	</g>
	<rect x="301.6" y="326" class="st2" width="114.7" height="18.5"/>
	<rect x="303" y="327.5" class="st15" width="111.8" height="12.4"/>
	<text transform="matrix(1 0 0 1 303.8912 337.421)" class="st3 st4">Alternative Lender 3</text>
	<text transform="matrix(1 0 0 1 125.8678 102.047)" class="st16 st3 st4">Marketplace</text>
	<g>
		<rect x="135.6" y="109.9" class="st17" width="48.6" height="43"/>
		<path class="st16" d="M184.8,152.2v-24h-2.1v24h-30.1v-18.4h-11.3v18.4h-4.8v-24h-2.1v24H131v2.1h10.4h11.3h35.7v-2.1H184.8z
			 M150.6,135.9v7.1h-7.1v-7.1H150.6z M143.5,152.2v-7.1h7.1v7.1H143.5z"/>
		<path class="st16" d="M133.4,115.1v10.3c0,2.9,2.4,5.2,5.2,5.2c1.7,0,3.3-0.8,4.2-2.1c1,1.3,2.5,2.1,4.2,2.1
			c1.7,0,3.3-0.8,4.2-2.1c1,1.3,2.5,2.1,4.2,2.1c1.7,0,3.3-0.8,4.2-2.1c1,1.3,2.5,2.1,4.2,2.1c1.7,0,3.3-0.8,4.2-2.1
			c1,1.3,2.5,2.1,4.2,2.1s3.3-0.8,4.2-2.1c1,1.3,2.5,2.1,4.2,2.1c2.9,0,5.2-2.4,5.2-5.2v-10.3c0.5-0.2,0.9-0.4,1.3-0.8
			c0.6-0.6,1-1.5,1-2.4c0-0.9-0.3-1.7-1-2.4c-0.6-0.6-1.5-1-2.3-1h-11.6H146h-11.6c-0.9,0-1.7,0.3-2.4,1c-0.6,0.6-1,1.5-1,2.4
			c0,0.9,0.3,1.7,1,2.4C132.5,114.7,132.9,114.9,133.4,115.1z M185,110.7c0.3,0,0.7,0.1,0.9,0.4c0.2,0.2,0.4,0.6,0.4,0.9
			c0,0.3-0.1,0.7-0.4,0.9c-0.2,0.2-0.6,0.4-0.9,0.4h-11.6v-2.5H185z M173.4,115.3h10.6v10.1c0,1.8-1.4,3.2-3.2,3.2s-3.2-1.4-3.2-3.2
			h-2.1c0,1.8-1.4,3.2-3.2,3.2s-3.2-1.4-3.2-3.2h-2.1c0,1.8-1.4,3.2-3.2,3.2c-1.8,0-3.2-1.4-3.2-3.2h-2.1c0,1.8-1.4,3.2-3.2,3.2
			c-1.8,0-3.2-1.4-3.2-3.2h-2.1c0,1.8-1.4,3.2-3.2,3.2c-1.8,0-3.2-1.4-3.2-3.2h-2.1c0,1.8-1.4,3.2-3.2,3.2c-1.8,0-3.2-1.4-3.2-3.2
			v-10.1H146h1h25.3H173.4z M148.1,110.6h23.2v2.6h-23.2V110.6z M133.6,111.1c0.2-0.2,0.6-0.4,0.9-0.4H146v2.5h-11.6
			c-0.3,0-0.7-0.1-0.9-0.4c-0.2-0.2-0.4-0.6-0.4-0.9S133.3,111.3,133.6,111.1z"/>
		<circle class="st17" cx="184.2" cy="152.9" r="7"/>
		<circle class="st18" cx="184.2" cy="152.9" r="6.9"/>
		<line class="st19" x1="189.4" y1="158.5" x2="193.2" y2="162.3"/>
		<path class="st16" d="M175.9,143h-7.1v-7.1h7.1V143z M159.6,135.9h7.1v7.1h-7.1V135.9z M157.5,145.1H178v-11.2h-20.4V145.1z"/>
	</g>
	<text transform="matrix(1 0 0 1 185.401 11.3905)" class="st9 st3 st5">Investors</text>
	<g>
		<g>
			<path class="st9" d="M196.2,22.8c2.3,0,4.1,1.8,4.1,4.1c0,2.3-1.8,4.1-4.1,4.1c-2.3,0-4.1-1.8-4.1-4.1
				C192,24.7,193.9,22.8,196.2,22.8z"/>
			<path class="st9" d="M205.5,37.3v12.6c0,2.5-3.2,2.5-3.2,0V37.6h-1l0,33.4c0,1.3-1,2.3-2.3,2.3c-1.3,0-2.3-1-2.3-2.3l0-19.4h-1
				l0,19.4c0,1.3-1,2.3-2.3,2.3c-1.3,0-2.3-1-2.3-2.3l0-33.4h-1v12.3c0,2.5-3.2,2.5-3.2,0V37.3c0-3,1.8-5.4,4.7-5.4h4.1v14h1v-14
				h4.1C203.9,31.9,205.5,34.6,205.5,37.3z"/>
			<rect x="186.7" y="52.3" class="st9" width="3.3" height="9.8"/>
		</g>
		<g>
			<rect x="217.1" y="50.4" class="st9" width="3.3" height="9.8"/>
			<g>
				<path class="st9" d="M232.1,31.9c2.9,0,4,2.4,4.5,3.7l3.5,11.6c0.7,2.5-2.5,3.5-3.2,1.1l-3.2-10.7h-0.9l3.8,19h-3.4v14.8
					c0,2.5-3.8,2.5-3.8,0V56.6h-1.5l0,14.9c0,2.5-3.8,2.5-3.8,0l0-14.8h-3.4l3.8-19h-0.9l-3.2,10.7c-0.8,2.3-4,1.4-3.2-1.1l3.5-11.6
					c0.4-1.3,1.5-3.7,4.4-3.7H232.1z"/>
				<circle class="st9" cx="228.7" cy="26.9" r="4.1"/>
			</g>
			<polygon class="st2" points="227,31.6 228.7,34 230.3,31.6 			"/>
		</g>
	</g>
	<path class="st20" d="M180,44.1h-6.5c-7.4,0-13.5,6-13.5,13.5v32.3"/>
	<g>
		<g>
			<path class="st20" d="M159.9,154.3v9.6c0,7.4,6,13.5,13.5,13.5h172.7c7.4,0,13.5,6,13.5,13.5v8.2"/>
			<g>
				<polygon class="st16" points="352.7,193.5 353.9,192.3 359.6,198.4 365.2,192.3 366.5,193.5 359.6,200.9 				"/>
			</g>
		</g>
	</g>
	<g>
		<text transform="matrix(1 0 0 1 252.9432 102.047)" class="st9 st3 st4">Fund</text>
	</g>
	<g>
		<path class="st17" d="M250.6,117.8v28.3c0,0,6.8,10.8,25.7,4.6l3.7,1.9h5.6l7.9-2.5l4.6-6.2l1.3-3.8v-4.6l-2.4-6.4l-3.7-3.8
			c0,0-4.8-2.7-5.1-2.6c-0.3,0.1-5.6-0.8-5.6-0.8v-4.1c0,0-1.7-8.1-15.5-8.1C266.8,109.7,250.6,109.2,250.6,117.8z"/>
		<g transform="translate(0,-952.36218)">
			<g>
				<path class="st9" d="M266.4,1060.9c-4.6,0-8.7,0.9-11.8,2.4s-5.3,3.9-5.3,6.7c0,9.1,0,18.3,0,27.4c0,2.8,2.2,5.1,5.3,6.7
					c3.1,1.6,7.2,2.5,11.8,2.5c3.8,0,7.4-0.7,10.2-1.8c2.2,1.1,4.8,1.8,7.5,1.8c9.1,0,16.6-7.4,16.6-16.6c0-9.1-7.4-16.6-16.6-16.6
					c-0.2,0-0.4,0-0.6,0c0-1.1,0-2.3,0-3.4c0-2.9-2.2-5.2-5.3-6.7C275.1,1061.8,271,1060.9,266.4,1060.9z M266.4,1063.2
					c4.3,0,8.1,0.9,10.8,2.2c2.7,1.3,4,3.1,4,4.6c-0.5,2.4-2.3,3.8-4,4.6c-2.7,1.3-6.5,2.2-10.8,2.2s-8.1-0.9-10.8-2.2
					c-2-1-3.8-2.6-4-4.6c0-1.6,1.4-3.3,4-4.6C258.3,1064.1,262.2,1063.2,266.4,1063.2z M251.6,1074.7c0.8,0.8,1.9,1.5,3.1,2.1
					c3.1,1.5,7.2,2.4,11.8,2.4c2,0,3.9-0.2,5.6-0.5c-1.3,1.4-2.4,3.1-3.2,4.9c-0.8,0.1-1.6,0.1-2.4,0.1c-4.3,0-8.1-0.9-10.8-2.2
					s-4-3-4-4.6V1074.7z M284.1,1075.8c7.9,0,14.3,6.4,14.3,14.3c0,7.9-6.4,14.3-14.3,14.3s-14.3-6.4-14.3-14.3
					C269.9,1082.2,276.2,1075.8,284.1,1075.8z M251.6,1081.6c0.8,0.8,1.9,1.5,3,2c3.1,1.6,7.2,2.5,11.8,2.5c0.6,0,1.1,0,1.6-0.1
					c-0.3,1.3-0.5,2.7-0.5,4c0,0.2,0,0.4,0,0.6c-0.4,0-0.8,0-1.2,0c-4.3,0-8.1-0.9-10.8-2.2c-2.7-1.3-4-3-4-4.6V1081.6z
					 M251.6,1088.4c0.8,0.8,1.9,1.5,3,2c3.1,1.6,7.2,2.5,11.8,2.5c0.5,0,0.9,0,1.4,0c0.3,1.6,0.8,3.1,1.4,4.5
					c-0.9,0.1-1.9,0.1-2.8,0.1c-4.3,0-8.1-0.9-10.8-2.2c-2.7-1.3-4-3-4-4.6V1088.4z M251.6,1095.3c0.8,0.8,1.9,1.5,3,2
					c3.1,1.6,7.2,2.5,11.8,2.5c1.4,0,2.8-0.1,4.1-0.2c1,1.4,2.2,2.7,3.6,3.7c-2.3,0.7-4.9,1.1-7.7,1.1c-4.3,0-8.1-0.9-10.8-2.2
					c-2.7-1.3-4-3-4-4.6V1095.3z"/>
			</g>
		</g>
		<g>
			<path class="st9" d="M288.2,142.6c-0.7,0.5-1.8,0.9-2.5,1l0,1.1h-1.4l0-1c-1.5-0.1-3.1-0.8-4-2l1.4-1.9c0.6,0.9,2,1.6,2.8,1.6
				l0.1-3.3l-0.7-0.3c-0.7-0.3-1.3-0.6-1.8-1c-0.4-0.3-1.4-1.2-1.4-2.8c0-1.3,0.6-2.2,1.3-2.8c0.7-0.6,1.7-0.9,2.7-1l0-1.1h1.4
				l0,1.1c1.2,0.1,2.5,0.6,3.3,1.6l-1.2,1.9c-0.7-0.7-1.6-1.2-2.3-1.3l-0.1,3.1l1.2,0.5c1.6,0.7,2.6,1.8,2.6,3.5
				C289.7,141,289,142,288.2,142.6z M284.8,132.4c-0.7,0.1-1.3,0.5-1.3,1.3c0,0.7,0.5,1.1,1,1.3l0.2,0.1L284.8,132.4z M286.1,138.6
				l-0.3-0.2l-0.1,2.9c0.6-0.1,1.3-0.6,1.3-1.3C287,139.2,286.7,138.8,286.1,138.6z"/>
		</g>
	</g>
</g>
</svg>
