<?xml version="1.0" encoding="utf-8"?>
<!-- Generator: Adobe Illustrator 21.1.0, SVG Export Plug-In . SVG Version: 6.00 Build 0)  -->
<svg version="1.1" id="Layer_1" xmlns="http://www.w3.org/2000/svg" xmlns:xlink="http://www.w3.org/1999/xlink" x="0px" y="0px"
	 width="298.5px" height="795.5px" viewBox="0 0 298.5 795.5" style="enable-background:new 0 0 298.5 795.5;" xml:space="preserve"
	>
<style type="text/css">
	.st0{fill:#FFFFFF;}
	.st1{fill:none;stroke:#35C187;stroke-width:1.6357;stroke-miterlimit:10;}
	.st2{fill:#FFFFFF;stroke:#262B3A;stroke-width:1.6357;stroke-miterlimit:10;}
	.st3{fill:#262B3A;}
	.st4{fill:none;stroke:#262B3A;stroke-width:1.6357;stroke-miterlimit:10;}
	.st5{fill:#35C187;stroke:#F4F4F5;stroke-width:1.6357;stroke-miterlimit:10;}
	.st6{fill:#F4F4F5;}
	.st7{fill:none;stroke:#F46540;stroke-width:1.6357;stroke-miterlimit:10;}
	.st8{fill:#F46540;}
	.st9{fill:#35C187;}
	.st10{fill:none;stroke:#F46540;stroke-width:2.4536;stroke-miterlimit:10;}
	.st11{fill:none;stroke:#F46540;stroke-width:3.2714;stroke-linecap:round;stroke-linejoin:round;stroke-miterlimit:10;}
	.st12{fill:#35C187;stroke:#F4F4F5;stroke-width:1.3086;stroke-miterlimit:10;}
	.st13{fill:none;stroke:#35C187;stroke-width:1.6357;stroke-miterlimit:10;stroke-dasharray:9.8177,9.8177;}
	.st14{fill:none;stroke:#35C187;stroke-width:1.685;stroke-miterlimit:10;}
	.st15{fill:#35C187;stroke:#F4F4F5;stroke-width:1.685;stroke-miterlimit:10;}
	.st16{fill:#35C187;stroke:#F4F4F5;stroke-width:1.348;stroke-miterlimit:10;}
	.st17{fill:none;stroke:#35C187;stroke-width:1.5289;stroke-miterlimit:10;}
	.st18{fill:#FFFFFF;stroke:#262B3A;stroke-width:1.685;stroke-miterlimit:10;}
	.st19{fill:none;stroke:#262B3A;stroke-width:1.685;stroke-miterlimit:10;}
	.st20{fill:none;stroke:#F46540;stroke-width:1.775;stroke-miterlimit:10;}
	.st21{fill:none;stroke:#F46540;stroke-width:2.3667;stroke-linecap:round;stroke-linejoin:round;stroke-miterlimit:10;}
	.st22{fill:none;stroke:#F46540;stroke-width:1.685;stroke-miterlimit:10;}
	.st23{fill:#F4F4F5;stroke:#262B3A;stroke-width:2;stroke-miterlimit:10;}
	.st24{fill:#F4F4F5;stroke:#262B3A;stroke-width:2;stroke-linecap:round;stroke-linejoin:round;stroke-miterlimit:10;}
	.st25{fill:none;stroke:#262B3A;stroke-width:2;stroke-linecap:round;stroke-linejoin:round;}
	.st26{fill:none;stroke:#262B3A;stroke-width:2.8625;stroke-linecap:round;stroke-linejoin:round;stroke-miterlimit:10;}
</style>
<g>
	<path class="st14" d="M83.2,312H8.1c-2.8,0-5-2.2-5-5v-66.7c0-2.8,2.2-5,5-5h75.1c2.8,0,5,2.2,5,5V307C88.2,309.8,86,312,83.2,312z
		"/>
	<g>
		<g>
			<circle class="st15" cx="46.9" cy="258.7" r="7.6"/>
			<circle class="st15" cx="27.1" cy="258.7" r="7.6"/>
			<circle class="st15" cx="65.9" cy="258.7" r="5.9"/>
		</g>
		<g>
			<circle class="st15" cx="27.1" cy="295.5" r="4.2"/>
			<circle class="st15" cx="46.9" cy="295.5" r="4.2"/>
		</g>
		<g>
			<circle class="st15" cx="65.9" cy="277.1" r="4.2"/>
			<circle class="st15" cx="46.9" cy="277.1" r="5.9"/>
			<circle class="st15" cx="27.1" cy="277.1" r="5.9"/>
		</g>
	</g>
	<rect x="23.8" y="226.1" class="st6" width="43.8" height="18.5"/>
	<g>
		<g>
			<path d="M36.5,238.6c-0.6,0.5-1.3,0.7-2.2,0.7c-1.2,0-2.2-0.6-2.9-1.2l0.9-1.4c0.6,0.6,1.5,1,2.1,1c0.6,0,1.1-0.3,1.1-0.8
				c0-0.6-0.6-0.8-1-0.9c-0.4-0.1-1-0.3-1.2-0.5c-0.2-0.1-0.6-0.2-1-0.6c-0.4-0.3-0.6-0.8-0.6-1.6c0-0.8,0.4-1.4,0.8-1.8
				c0.5-0.4,1.2-0.6,2.1-0.6c0.9,0,2,0.4,2.6,1l-0.8,1.3c-0.5-0.5-1.2-0.8-1.8-0.8s-1.1,0.2-1.1,0.7c0,0.5,0.5,0.7,0.8,0.8
				c0.4,0.1,1,0.4,1.2,0.5c0.2,0.1,0.8,0.3,1.1,0.7c0.3,0.3,0.6,0.8,0.6,1.6C37.4,237.4,37.1,238.2,36.5,238.6z"/>
			<path d="M43.5,235.5c-0.5,0.4-1.3,0.6-2.1,0.6h-1v3h-1.9V231h2.9c0.8,0,1.6,0.2,2.1,0.6c0.5,0.4,0.8,1.1,0.8,1.9
				S44,235.1,43.5,235.5z M42,232.7c-0.2-0.2-0.5-0.2-0.9-0.2h-0.7v2.2h0.7c0.4,0,0.7-0.1,0.9-0.2c0.2-0.2,0.4-0.5,0.4-0.9
				S42.2,232.9,42,232.7z"/>
			<path d="M52.3,231l-3,8.1h-1.8l-3-8.1h2l1.9,5.6l1.9-5.6H52.3z"/>
			<path d="M58.7,239.1h-1.8v-6.8h-1.5V231h3.3V239.1z"/>
		</g>
	</g>
	<path class="st14" d="M184.5,312h-75.1c-2.8,0-5-2.2-5-5v-66.7c0-2.8,2.2-5,5-5h75.1c2.8,0,5,2.2,5,5V307
		C189.5,309.8,187.2,312,184.5,312z"/>
	<g>
		<g>
			<circle class="st15" cx="148.1" cy="258.7" r="7.6"/>
			<circle class="st15" cx="128.4" cy="258.7" r="7.6"/>
			<circle class="st15" cx="167.1" cy="258.7" r="5.9"/>
		</g>
		<g>
			<circle class="st15" cx="128.4" cy="295.5" r="4.2"/>
			<circle class="st15" cx="148.1" cy="295.5" r="4.2"/>
		</g>
		<g>
			<circle class="st15" cx="167.1" cy="277.1" r="4.2"/>
			<circle class="st15" cx="148.1" cy="277.1" r="5.9"/>
			<circle class="st15" cx="128.4" cy="277.1" r="5.9"/>
		</g>
	</g>
	<rect x="125" y="226.1" class="st6" width="43.8" height="18.5"/>
	<g>
		<g>
			<path d="M135.9,238.6c-0.6,0.5-1.3,0.7-2.2,0.7c-1.2,0-2.2-0.6-2.9-1.2l0.9-1.4c0.6,0.6,1.5,1,2.1,1c0.6,0,1.1-0.3,1.1-0.8
				c0-0.6-0.6-0.8-1-0.9c-0.4-0.1-1-0.3-1.2-0.5c-0.2-0.1-0.6-0.2-1-0.6c-0.4-0.3-0.6-0.8-0.6-1.6c0-0.8,0.4-1.4,0.8-1.8
				c0.5-0.4,1.2-0.6,2.1-0.6c0.9,0,2,0.4,2.6,1l-0.8,1.3c-0.5-0.5-1.2-0.8-1.8-0.8s-1.1,0.2-1.1,0.7c0,0.5,0.5,0.7,0.8,0.8
				c0.4,0.1,1,0.4,1.2,0.5c0.2,0.1,0.8,0.3,1.1,0.7c0.3,0.3,0.6,0.8,0.6,1.6C136.8,237.4,136.5,238.2,135.9,238.6z"/>
			<path d="M142.9,235.5c-0.5,0.4-1.3,0.6-2.1,0.6h-1v3h-1.9V231h2.9c0.8,0,1.6,0.2,2.1,0.6c0.5,0.4,0.8,1.1,0.8,1.9
				S143.4,235.1,142.9,235.5z M141.4,232.7c-0.2-0.2-0.5-0.2-0.9-0.2h-0.7v2.2h0.7c0.4,0,0.7-0.1,0.9-0.2c0.2-0.2,0.4-0.5,0.4-0.9
				S141.6,232.9,141.4,232.7z"/>
			<path d="M151.7,231l-3,8.1h-1.8l-3-8.1h2l1.9,5.6l1.9-5.6H151.7z"/>
			<path d="M160.9,239.1h-6l-0.2-1.2l2.8-2.5c0.8-0.7,1.2-1.2,1.2-1.9c0-0.7-0.5-1.1-1.3-1.1c-0.8,0-1.5,0.5-2,1.1l-0.8-1.2
				c0.1-0.2,1.1-1.3,2.9-1.3c1.8,0,3,1,3,2.4c0,1.4-1.1,2.3-1.7,2.9l-1.7,1.5h3.8V239.1z"/>
		</g>
	</g>
	<path class="st14" d="M285.7,312h-75.1c-2.8,0-5-2.2-5-5v-66.7c0-2.8,2.2-5,5-5h75.1c2.8,0,5,2.2,5,5V307
		C290.7,309.8,288.5,312,285.7,312z"/>
	<g>
		<g>
			<circle class="st15" cx="249.4" cy="258.7" r="7.6"/>
			<circle class="st15" cx="229.6" cy="258.7" r="7.6"/>
			<circle class="st15" cx="268.4" cy="258.7" r="5.9"/>
		</g>
		<g>
			<circle class="st15" cx="229.6" cy="295.5" r="4.2"/>
			<circle class="st15" cx="249.4" cy="295.5" r="4.2"/>
		</g>
		<g>
			<circle class="st15" cx="268.4" cy="277.1" r="4.2"/>
			<circle class="st15" cx="249.4" cy="277.1" r="5.9"/>
			<circle class="st15" cx="229.6" cy="277.1" r="5.9"/>
		</g>
	</g>
	<rect x="226.3" y="226.1" class="st6" width="43.8" height="18.5"/>
	<g>
		<g>
			<path d="M237.1,238.6c-0.6,0.5-1.3,0.7-2.2,0.7c-1.2,0-2.2-0.6-2.9-1.2l0.9-1.4c0.6,0.6,1.5,1,2.1,1c0.6,0,1.1-0.3,1.1-0.8
				c0-0.6-0.6-0.8-1-0.9c-0.4-0.1-1-0.3-1.2-0.5c-0.2-0.1-0.6-0.2-1-0.6c-0.4-0.3-0.6-0.8-0.6-1.6c0-0.8,0.4-1.4,0.8-1.8
				c0.5-0.4,1.2-0.6,2.1-0.6c0.9,0,2,0.4,2.6,1l-0.8,1.3c-0.5-0.5-1.2-0.8-1.8-0.8s-1.1,0.2-1.1,0.7c0,0.5,0.5,0.7,0.8,0.8
				c0.4,0.1,1,0.4,1.2,0.5c0.2,0.1,0.8,0.3,1.1,0.7c0.3,0.3,0.6,0.8,0.6,1.6C238.1,237.4,237.7,238.2,237.1,238.6z"/>
			<path d="M244.1,235.5c-0.5,0.4-1.3,0.6-2.1,0.6h-1v3h-1.9V231h2.9c0.8,0,1.6,0.2,2.1,0.6c0.5,0.4,0.8,1.1,0.8,1.9
				S244.7,235.1,244.1,235.5z M242.6,232.7c-0.2-0.2-0.5-0.2-0.9-0.2H241v2.2h0.7c0.4,0,0.7-0.1,0.9-0.2c0.2-0.2,0.4-0.5,0.4-0.9
				S242.9,232.9,242.6,232.7z"/>
			<path d="M253,231l-3,8.1h-1.8l-3-8.1h2l1.9,5.6l1.9-5.6H253z"/>
			<path d="M258.8,239.3c-1.7,0-2.7-0.9-3-1.4l0.9-1.1c0.3,0.4,1.2,1,2,1c0.8,0,1.4-0.4,1.4-1.1c0-0.7-0.6-1.1-1.3-1.1h-0.7v-1.3
				h0.7c0.6,0,1.1-0.3,1.1-1s-0.5-1-1.2-1s-1.3,0.3-1.9,0.8l-0.7-1.2c0.6-0.5,1.3-1,2.8-1c1.5,0,2.8,0.8,2.8,2.2
				c0,1.1-0.6,1.6-1.2,1.8v0c0.7,0.2,1.4,0.8,1.4,1.9C262,238.4,260.5,239.3,258.8,239.3z"/>
		</g>
	</g>
</g>
<g>
	<path d="M123,614.5c-0.6,0.4-1.4,0.6-2.4,0.6h-3.8v-9.3h3.2c0.8,0,1.7,0.1,2.3,0.4s1.2,0.9,1.2,2c0,1-0.7,1.8-1.4,2v0
		c1.2,0.3,1.9,1.1,1.9,2.2C124,613.4,123.6,614,123,614.5z M120.8,607.6c-0.3-0.2-0.5-0.2-1-0.2H119v2.1h0.8c0.5,0,0.8,0,1-0.2
		c0.3-0.2,0.5-0.4,0.5-0.9C121.3,608,121.1,607.7,120.8,607.6z M121.3,611.3c-0.3-0.2-0.7-0.3-1.2-0.3H119v2.4h1.2
		c0.5,0,0.8,0,1.2-0.3c0.3-0.2,0.5-0.5,0.5-0.9C121.8,611.8,121.6,611.5,121.3,611.3z"/>
	<path d="M128.4,615.2c-2.1,0-3.7-1.3-3.7-3.4c0-2.1,1.6-3.5,3.7-3.5c2.1,0,3.7,1.3,3.7,3.5C132,613.9,130.5,615.2,128.4,615.2z
		 M128.4,610c-1,0-1.5,0.7-1.5,1.7c0,1,0.6,1.7,1.5,1.7c0.9,0,1.5-0.7,1.5-1.7C129.9,610.7,129.3,610,128.4,610z"/>
	<path d="M137.5,610.4L137.5,610.4c-0.2-0.1-0.5-0.2-0.9-0.2c-0.5,0-0.8,0.3-1,0.5c-0.2,0.2-0.3,0.6-0.3,1.4v3h-2.2v-6.6h2.2l0,0.9
		h0c0.4-0.7,0.9-1.1,1.6-1.1c0.4,0,0.7,0.1,0.7,0.1L137.5,610.4z"/>
	<path d="M142.7,610.4L142.7,610.4c-0.2-0.1-0.5-0.2-0.9-0.2c-0.5,0-0.8,0.3-1,0.5c-0.2,0.2-0.3,0.6-0.3,1.4v3h-2.2v-6.6h2.2l0,0.9
		h0c0.4-0.7,0.9-1.1,1.6-1.1c0.4,0,0.7,0.1,0.7,0.1L142.7,610.4z"/>
	<path d="M146.6,615.2c-2.1,0-3.7-1.3-3.7-3.4c0-2.1,1.6-3.5,3.7-3.5c2.1,0,3.7,1.3,3.7,3.5C150.3,613.9,148.7,615.2,146.6,615.2z
		 M146.6,610c-1,0-1.5,0.7-1.5,1.7c0,1,0.6,1.7,1.5,1.7c0.9,0,1.5-0.7,1.5-1.7C148.1,610.7,147.6,610,146.6,610z"/>
	<path d="M161.5,608.4l-2.2,6.6h-2L156,611l-1.3,4.1h-2l-2.2-6.6h2.2l1.2,4.2l1.3-4.2h1.8l1.3,4.2l1.2-4.2H161.5z"/>
	<path d="M168.6,612.3h-4.7c0.1,1,0.8,1.4,1.7,1.4c0.9,0,1.6-0.4,2-0.6l0.8,1.1c-0.2,0.2-1.1,1.1-3.2,1.1c-2,0-3.5-1.3-3.5-3.5
		s1.6-3.4,3.6-3.4s3.3,1.3,3.3,3.2C168.6,611.9,168.6,612.3,168.6,612.3z M166.6,611c0-0.6-0.5-1.3-1.4-1.3c-0.9,0-1.3,0.7-1.4,1.3
		H166.6z"/>
	<path d="M174,610.4L174,610.4c-0.2-0.1-0.5-0.2-0.9-0.2c-0.5,0-0.8,0.3-1,0.5c-0.2,0.2-0.3,0.6-0.3,1.4v3h-2.2v-6.6h2.2l0,0.9h0
		c0.4-0.7,0.9-1.1,1.6-1.1c0.4,0,0.7,0.1,0.7,0.1L174,610.4z"/>
	<path d="M178.9,614.6c-0.5,0.4-1.1,0.6-2,0.6c-1,0-2-0.3-2.8-1l0.8-1.3c0.5,0.5,1.4,0.8,2,0.8s0.9-0.1,0.9-0.6c0-0.4-1-0.6-1.2-0.7
		c-0.3-0.1-0.6-0.2-0.9-0.3c-0.3-0.1-1.1-0.6-1.1-1.7c0-1.3,1.1-2.1,2.5-2.1c1.4,0,2.2,0.5,2.5,0.8l-0.7,1.3
		c-0.4-0.3-1.1-0.6-1.7-0.6c-0.5,0-0.8,0.1-0.8,0.5s0.5,0.5,1,0.6s0.7,0.2,0.9,0.3c0.3,0.1,0.6,0.3,0.9,0.5c0.2,0.2,0.5,0.6,0.5,1.3
		C179.7,613.7,179.4,614.2,178.9,614.6z"/>
</g>
<g>
	<g>
		<line class="st14" x1="250.7" y1="586.1" x2="250.7" y2="556.8"/>
		<g>
			<polygon class="st9" points="257.6,562.4 256.3,563.5 250.7,557.4 245,563.5 243.8,562.4 250.7,554.9 			"/>
		</g>
	</g>
</g>
<g>
	<g>
		<line class="st14" x1="150.5" y1="586.1" x2="150.5" y2="556.8"/>
		<g>
			<polygon class="st9" points="157.4,562.4 156.2,563.5 150.5,557.4 144.9,563.5 143.7,562.4 150.5,554.9 			"/>
		</g>
	</g>
</g>
<g>
	<g>
		<line class="st14" x1="46.9" y1="586.1" x2="46.9" y2="556.8"/>
		<g>
			<polygon class="st9" points="53.8,562.4 52.6,563.5 46.9,557.4 41.3,563.5 40.1,562.4 46.9,554.9 			"/>
		</g>
	</g>
</g>
<g>
	<g>
		<line class="st14" x1="250.7" y1="354" x2="250.7" y2="324.7"/>
		<g>
			<polygon class="st9" points="257.6,330.2 256.3,331.4 250.7,325.3 245,331.4 243.8,330.2 250.7,322.8 			"/>
		</g>
	</g>
</g>
<g>
	<g>
		<line class="st14" x1="150.5" y1="354" x2="150.5" y2="324.7"/>
		<g>
			<polygon class="st9" points="157.4,330.2 156.2,331.4 150.5,325.3 144.9,331.4 143.7,330.2 150.5,322.8 			"/>
		</g>
	</g>
</g>
<g>
	<g>
		<line class="st14" x1="46.9" y1="354" x2="46.9" y2="324.7"/>
		<g>
			<polygon class="st9" points="53.8,330.2 52.6,331.4 46.9,325.3 41.3,331.4 40.1,330.2 46.9,322.8 			"/>
		</g>
	</g>
</g>
<g>
	<g>
		<circle class="st15" cx="70.2" cy="752.5" r="7.6"/>
		<circle class="st16" cx="27.2" cy="752.5" r="3.4"/>
		<circle class="st16" cx="55.9" cy="752.5" r="3.4"/>
		<g>
			<circle class="st3" cx="27.1" cy="764.5" r="2.7"/>
			<path class="st3" d="M23.8,794c0,0.9,0.7,1.5,1.5,1.5c0.9,0,1.5-0.7,1.5-1.5l0-12.9h0.7l0,12.9c0,0.9,0.7,1.5,1.5,1.5
				c0.9,0,1.5-0.7,1.5-1.5l0-22.3h0.7v8.2c0,1.7,2.2,1.7,2.2,0v-8.4c0-1.8-1.1-3.6-3.2-3.6l-6.2,0c-1.9,0-3.2,1.6-3.2,3.6v8.4
				c0,1.6,2.2,1.6,2.2,0v-8.2h0.7L23.8,794z"/>
		</g>
		<g>
			<circle class="st3" cx="55.7" cy="764.5" r="2.7"/>
			<path class="st3" d="M52.5,794c0,0.9,0.7,1.5,1.5,1.5c0.9,0,1.5-0.7,1.5-1.5l0-12.9h0.7l0,12.9c0,0.9,0.7,1.5,1.5,1.5
				s1.5-0.7,1.5-1.5l0-22.3H60v8.2c0,1.7,2.2,1.7,2.2,0v-8.4c0-1.8-1.1-3.6-3.2-3.6l-6.2,0c-1.9,0-3.2,1.6-3.2,3.6v8.4
				c0,1.6,2.2,1.6,2.2,0v-8.2h0.7L52.5,794z"/>
		</g>
		<circle class="st15" cx="41.6" cy="752.5" r="5.9"/>
		<g>
			<path class="st3" d="M72.5,767.9c1.9,0,2.7,1.6,3,2.5l2.4,7.8c0.5,1.7-1.7,2.4-2.2,0.7l-2.1-7.1H73l3.7,12.7h-3.4v9.9
				c0,1.7-2.5,1.7-2.5,0v-9.9h-1l0,9.9c0,1.7-2.5,1.7-2.5,0l0-9.9h-3.4l3.7-12.7h-0.6l-2.1,7.1c-0.5,1.6-2.6,0.9-2.2-0.8l2.4-7.8
				c0.3-0.9,1-2.5,3-2.5H72.5z"/>
			<circle class="st3" cx="70.2" cy="764.5" r="2.8"/>
		</g>
		<g>
			<path class="st3" d="M43.9,767.9c1.9,0,2.7,1.6,3,2.5l2.4,7.8c0.5,1.7-1.7,2.4-2.2,0.7l-2.1-7.1h-0.6l3.7,12.7h-3.4v9.9
				c0,1.7-2.5,1.7-2.5,0v-9.9h-1l0,9.9c0,1.7-2.5,1.7-2.5,0l0-9.9h-3.4l3.7-12.7h-0.6l-2.1,7.1c-0.5,1.6-2.6,0.9-2.2-0.8l2.4-7.8
				c0.3-0.9,1-2.5,3-2.5H43.9z"/>
			<circle class="st3" cx="41.6" cy="764.5" r="2.8"/>
		</g>
	</g>
	<g>
		<circle class="st15" cx="28" cy="695.2" r="7.6"/>
		<circle class="st16" cx="42.6" cy="695.2" r="3.4"/>
		<circle class="st16" cx="56.6" cy="695.2" r="3.4"/>
		<g>
			<circle class="st3" cx="42.1" cy="708.1" r="2.7"/>
			<path class="st3" d="M38.9,737.5c0,0.9,0.7,1.5,1.5,1.5c0.9,0,1.5-0.7,1.5-1.5l0-12.9h0.7l0,12.9c0,0.9,0.7,1.5,1.5,1.5
				s1.5-0.7,1.5-1.5l0-22.3h0.7v8.2c0,1.7,2.2,1.7,2.2,0V715c0-1.8-1.1-3.6-3.2-3.6l-6.2,0c-1.9,0-3.2,1.6-3.2,3.6v8.4
				c0,1.6,2.2,1.6,2.2,0v-8.2h0.7L38.9,737.5z"/>
		</g>
		<g>
			<circle class="st3" cx="56.5" cy="708.1" r="2.7"/>
			<path class="st3" d="M53.2,737.5c0,0.9,0.7,1.5,1.5,1.5c0.9,0,1.5-0.7,1.5-1.5l0-12.9H57l0,12.9c0,0.9,0.7,1.5,1.5,1.5
				c0.9,0,1.5-0.7,1.5-1.5l0-22.3h0.7v8.2c0,1.7,2.2,1.7,2.2,0V715c0-1.8-1.1-3.6-3.2-3.6l-6.2,0c-1.9,0-3.2,1.6-3.2,3.6v8.4
				c0,1.6,2.2,1.6,2.2,0v-8.2h0.7L53.2,737.5z"/>
		</g>
		<g>
			<g>
				<circle class="st3" cx="70" cy="708.1" r="2.7"/>
				<path class="st3" d="M66.8,737.5c0,0.9,0.7,1.5,1.5,1.5c0.9,0,1.5-0.7,1.5-1.5l0-12.9h0.7l0,12.9c0,0.9,0.7,1.5,1.5,1.5
					s1.5-0.7,1.5-1.5l0-22.3h0.7v8.2c0,1.7,2.2,1.7,2.2,0V715c0-1.8-1.1-3.6-3.2-3.6l-6.2,0c-1.9,0-3.2,1.6-3.2,3.6v8.4
					c0,1.6,2.2,1.6,2.2,0v-8.2h0.7L66.8,737.5z"/>
			</g>
			<circle class="st15" cx="70.2" cy="696.1" r="5.9"/>
		</g>
		<g>
			<path class="st3" d="M30.3,711.4c1.9,0,2.7,1.6,3,2.5l2.4,7.8c0.5,1.7-1.7,2.4-2.2,0.7l-2.1-7.1h-0.6l3.7,12.7H31v9.9
				c0,1.7-2.5,1.7-2.5,0v-9.9h-1l0,9.9c0,1.7-2.5,1.7-2.5,0l0-9.9h-3.4l3.7-12.7h-0.6l-2.1,7.1c-0.5,1.6-2.6,0.9-2.2-0.8l2.4-7.8
				c0.3-0.9,1-2.5,3-2.5H30.3z"/>
			<circle class="st3" cx="28" cy="708.1" r="2.8"/>
		</g>
	</g>
	<g>
		<circle class="st15" cx="55.9" cy="637.9" r="7.6"/>
		<circle class="st16" cx="41.6" cy="637.9" r="3.4"/>
		<g>
			<circle class="st3" cx="27.1" cy="650.8" r="2.7"/>
			<path class="st3" d="M23.8,680.2c0,0.9,0.7,1.5,1.5,1.5c0.9,0,1.5-0.7,1.5-1.5l0-12.9h0.7l0,12.9c0,0.9,0.7,1.5,1.5,1.5
				c0.9,0,1.5-0.7,1.5-1.5l0-22.3h0.7v8.2c0,1.7,2.2,1.7,2.2,0v-8.4c0-1.8-1.1-3.6-3.2-3.6l-6.2,0c-1.9,0-3.2,1.6-3.2,3.6v8.4
				c0,1.6,2.2,1.6,2.2,0v-8.2h0.7L23.8,680.2z"/>
		</g>
		<g>
			<circle class="st3" cx="55.7" cy="650.8" r="2.7"/>
			<path class="st3" d="M52.5,680.2c0,0.9,0.7,1.5,1.5,1.5c0.9,0,1.5-0.7,1.5-1.5l0-12.9h0.7l0,12.9c0,0.9,0.7,1.5,1.5,1.5
				s1.5-0.7,1.5-1.5l0-22.3H60v8.2c0,1.7,2.2,1.7,2.2,0v-8.4c0-1.8-1.1-3.6-3.2-3.6l-6.2,0c-1.9,0-3.2,1.6-3.2,3.6v8.4
				c0,1.6,2.2,1.6,2.2,0v-8.2h0.7L52.5,680.2z"/>
		</g>
		<g>
			<circle class="st3" cx="70" cy="650.8" r="2.7"/>
			<path class="st3" d="M66.8,680.2c0,0.9,0.7,1.5,1.5,1.5c0.9,0,1.5-0.7,1.5-1.5l0-12.9h0.7l0,12.9c0,0.9,0.7,1.5,1.5,1.5
				s1.5-0.7,1.5-1.5l0-22.3h0.7v8.2c0,1.7,2.2,1.7,2.2,0v-8.4c0-1.8-1.1-3.6-3.2-3.6l-6.2,0c-1.9,0-3.2,1.6-3.2,3.6v8.4
				c0,1.6,2.2,1.6,2.2,0v-8.2h0.7L66.8,680.2z"/>
		</g>
		<circle class="st15" cx="27.2" cy="637.9" r="5.9"/>
		<circle class="st15" cx="70.2" cy="637.9" r="5.9"/>
		<g>
			<path class="st3" d="M43.9,654.1c1.9,0,2.7,1.6,3,2.5l2.4,7.8c0.5,1.7-1.7,2.4-2.2,0.7l-2.1-7.1h-0.6l3.7,12.7h-3.4v9.9
				c0,1.7-2.5,1.7-2.5,0v-9.9h-1l0,9.9c0,1.7-2.5,1.7-2.5,0l0-9.9h-3.4l3.7-12.7h-0.6l-2.1,7.1c-0.5,1.6-2.6,0.9-2.2-0.8l2.4-7.8
				c0.3-0.9,1-2.5,3-2.5H43.9z"/>
			<circle class="st3" cx="41.6" cy="650.8" r="2.8"/>
		</g>
	</g>
</g>
<g>
	<g>
		<circle class="st15" cx="170.4" cy="752.5" r="7.6"/>
		<circle class="st16" cx="127.4" cy="752.5" r="3.4"/>
		<circle class="st16" cx="156" cy="752.5" r="3.4"/>
		<g>
			<circle class="st3" cx="127.2" cy="764.5" r="2.7"/>
			<path class="st3" d="M124,794c0,0.9,0.7,1.5,1.5,1.5c0.9,0,1.5-0.7,1.5-1.5l0-12.9h0.7l0,12.9c0,0.9,0.7,1.5,1.5,1.5
				c0.9,0,1.5-0.7,1.5-1.5l0-22.3h0.7v8.2c0,1.7,2.2,1.7,2.2,0v-8.4c0-1.8-1.1-3.6-3.2-3.6l-6.2,0c-1.9,0-3.2,1.6-3.2,3.6v8.4
				c0,1.6,2.2,1.6,2.2,0v-8.2h0.7L124,794z"/>
		</g>
		<g>
			<circle class="st3" cx="155.9" cy="764.5" r="2.7"/>
			<path class="st3" d="M152.6,794c0,0.9,0.7,1.5,1.5,1.5c0.9,0,1.5-0.7,1.5-1.5l0-12.9h0.7l0,12.9c0,0.9,0.7,1.5,1.5,1.5
				s1.5-0.7,1.5-1.5l0-22.3h0.7v8.2c0,1.7,2.2,1.7,2.2,0v-8.4c0-1.8-1.1-3.6-3.2-3.6l-6.2,0c-1.9,0-3.2,1.6-3.2,3.6v8.4
				c0,1.6,2.2,1.6,2.2,0v-8.2h0.7L152.6,794z"/>
		</g>
		<circle class="st15" cx="141.7" cy="752.5" r="5.9"/>
		<g>
			<path class="st3" d="M172.7,767.9c1.9,0,2.7,1.6,3,2.5l2.4,7.8c0.5,1.7-1.7,2.4-2.2,0.7l-2.1-7.1h-0.6l3.7,12.7h-3.4v9.9
				c0,1.7-2.5,1.7-2.5,0v-9.9h-1l0,9.9c0,1.7-2.5,1.7-2.5,0l0-9.9h-3.4l3.7-12.7H167l-2.1,7.1c-0.5,1.6-2.6,0.9-2.2-0.8l2.4-7.8
				c0.3-0.9,1-2.5,3-2.5H172.7z"/>
			<circle class="st3" cx="170.4" cy="764.5" r="2.8"/>
		</g>
		<g>
			<path class="st3" d="M144,767.9c1.9,0,2.7,1.6,3,2.5l2.4,7.8c0.5,1.7-1.7,2.4-2.2,0.7l-2.1-7.1h-0.6l3.7,12.7h-3.4v9.9
				c0,1.7-2.5,1.7-2.5,0v-9.9h-1l0,9.9c0,1.7-2.5,1.7-2.5,0l0-9.9h-3.4l3.7-12.7h-0.6l-2.1,7.1c-0.5,1.6-2.6,0.9-2.2-0.8l2.4-7.8
				c0.3-0.9,1-2.5,3-2.5H144z"/>
			<circle class="st3" cx="141.7" cy="764.5" r="2.8"/>
		</g>
	</g>
	<g>
		<circle class="st15" cx="128.1" cy="695.2" r="7.6"/>
		<circle class="st16" cx="142.8" cy="695.2" r="3.4"/>
		<circle class="st16" cx="156.8" cy="695.2" r="3.4"/>
		<g>
			<circle class="st3" cx="142.3" cy="708.1" r="2.7"/>
			<path class="st3" d="M139,737.5c0,0.9,0.7,1.5,1.5,1.5c0.9,0,1.5-0.7,1.5-1.5l0-12.9h0.7l0,12.9c0,0.9,0.7,1.5,1.5,1.5
				c0.9,0,1.5-0.7,1.5-1.5l0-22.3h0.7v8.2c0,1.7,2.2,1.7,2.2,0V715c0-1.8-1.1-3.6-3.2-3.6l-6.2,0c-1.9,0-3.2,1.6-3.2,3.6v8.4
				c0,1.6,2.2,1.6,2.2,0v-8.2h0.7L139,737.5z"/>
		</g>
		<g>
			<circle class="st3" cx="156.6" cy="708.1" r="2.7"/>
			<path class="st3" d="M153.4,737.5c0,0.9,0.7,1.5,1.5,1.5c0.9,0,1.5-0.7,1.5-1.5l0-12.9h0.7l0,12.9c0,0.9,0.7,1.5,1.5,1.5
				c0.9,0,1.5-0.7,1.5-1.5l0-22.3h0.7v8.2c0,1.7,2.2,1.7,2.2,0V715c0-1.8-1.1-3.6-3.2-3.6l-6.2,0c-1.9,0-3.2,1.6-3.2,3.6v8.4
				c0,1.6,2.2,1.6,2.2,0v-8.2h0.7L153.4,737.5z"/>
		</g>
		<g>
			<g>
				<circle class="st3" cx="170.2" cy="708.1" r="2.7"/>
				<path class="st3" d="M166.9,737.5c0,0.9,0.7,1.5,1.5,1.5c0.9,0,1.5-0.7,1.5-1.5l0-12.9h0.7l0,12.9c0,0.9,0.7,1.5,1.5,1.5
					c0.9,0,1.5-0.7,1.5-1.5l0-22.3h0.7v8.2c0,1.7,2.2,1.7,2.2,0V715c0-1.8-1.1-3.6-3.2-3.6l-6.2,0c-1.9,0-3.2,1.6-3.2,3.6v8.4
					c0,1.6,2.2,1.6,2.2,0v-8.2h0.7L166.9,737.5z"/>
			</g>
			<circle class="st15" cx="170.4" cy="696.1" r="5.9"/>
		</g>
		<g>
			<path class="st3" d="M130.4,711.4c1.9,0,2.7,1.6,3,2.5l2.4,7.8c0.5,1.7-1.7,2.4-2.2,0.7l-2.1-7.1h-0.6l3.7,12.7h-3.4v9.9
				c0,1.7-2.5,1.7-2.5,0v-9.9h-1l0,9.9c0,1.7-2.5,1.7-2.5,0l0-9.9h-3.4l3.7-12.7h-0.6l-2.1,7.1c-0.5,1.6-2.6,0.9-2.2-0.8l2.4-7.8
				c0.3-0.9,1-2.5,3-2.5H130.4z"/>
			<circle class="st3" cx="128.1" cy="708.1" r="2.8"/>
		</g>
	</g>
	<g>
		<circle class="st15" cx="156" cy="637.9" r="7.6"/>
		<circle class="st16" cx="141.7" cy="637.9" r="3.4"/>
		<g>
			<circle class="st3" cx="127.2" cy="650.8" r="2.7"/>
			<path class="st3" d="M124,680.2c0,0.9,0.7,1.5,1.5,1.5c0.9,0,1.5-0.7,1.5-1.5l0-12.9h0.7l0,12.9c0,0.9,0.7,1.5,1.5,1.5
				c0.9,0,1.5-0.7,1.5-1.5l0-22.3h0.7v8.2c0,1.7,2.2,1.7,2.2,0v-8.4c0-1.8-1.1-3.6-3.2-3.6l-6.2,0c-1.9,0-3.2,1.6-3.2,3.6v8.4
				c0,1.6,2.2,1.6,2.2,0v-8.2h0.7L124,680.2z"/>
		</g>
		<g>
			<circle class="st3" cx="155.9" cy="650.8" r="2.7"/>
			<path class="st3" d="M152.6,680.2c0,0.9,0.7,1.5,1.5,1.5c0.9,0,1.5-0.7,1.5-1.5l0-12.9h0.7l0,12.9c0,0.9,0.7,1.5,1.5,1.5
				s1.5-0.7,1.5-1.5l0-22.3h0.7v8.2c0,1.7,2.2,1.7,2.2,0v-8.4c0-1.8-1.1-3.6-3.2-3.6l-6.2,0c-1.9,0-3.2,1.6-3.2,3.6v8.4
				c0,1.6,2.2,1.6,2.2,0v-8.2h0.7L152.6,680.2z"/>
		</g>
		<g>
			<circle class="st3" cx="170.2" cy="650.8" r="2.7"/>
			<path class="st3" d="M166.9,680.2c0,0.9,0.7,1.5,1.5,1.5c0.9,0,1.5-0.7,1.5-1.5l0-12.9h0.7l0,12.9c0,0.9,0.7,1.5,1.5,1.5
				c0.9,0,1.5-0.7,1.5-1.5l0-22.3h0.7v8.2c0,1.7,2.2,1.7,2.2,0v-8.4c0-1.8-1.1-3.6-3.2-3.6l-6.2,0c-1.9,0-3.2,1.6-3.2,3.6v8.4
				c0,1.6,2.2,1.6,2.2,0v-8.2h0.7L166.9,680.2z"/>
		</g>
		<circle class="st15" cx="127.4" cy="637.9" r="5.9"/>
		<circle class="st15" cx="170.4" cy="637.9" r="5.9"/>
		<g>
			<path class="st3" d="M144,654.1c1.9,0,2.7,1.6,3,2.5l2.4,7.8c0.5,1.7-1.7,2.4-2.2,0.7l-2.1-7.1h-0.6l3.7,12.7h-3.4v9.9
				c0,1.7-2.5,1.7-2.5,0v-9.9h-1l0,9.9c0,1.7-2.5,1.7-2.5,0l0-9.9h-3.4l3.7-12.7h-0.6l-2.1,7.1c-0.5,1.6-2.6,0.9-2.2-0.8l2.4-7.8
				c0.3-0.9,1-2.5,3-2.5H144z"/>
			<circle class="st3" cx="141.7" cy="650.8" r="2.8"/>
		</g>
	</g>
</g>
<g>
	<g>
		<circle class="st15" cx="274" cy="752.5" r="7.6"/>
		<circle class="st16" cx="231" cy="752.5" r="3.4"/>
		<circle class="st16" cx="259.6" cy="752.5" r="3.4"/>
		<g>
			<circle class="st3" cx="230.8" cy="764.5" r="2.7"/>
			<path class="st3" d="M227.6,794c0,0.9,0.7,1.5,1.5,1.5c0.9,0,1.5-0.7,1.5-1.5l0-12.9h0.7l0,12.9c0,0.9,0.7,1.5,1.5,1.5
				s1.5-0.7,1.5-1.5l0-22.3h0.7v8.2c0,1.7,2.2,1.7,2.2,0v-8.4c0-1.8-1.1-3.6-3.2-3.6l-6.2,0c-1.9,0-3.2,1.6-3.2,3.6v8.4
				c0,1.6,2.2,1.6,2.2,0v-8.2h0.7L227.6,794z"/>
		</g>
		<g>
			<circle class="st3" cx="259.5" cy="764.5" r="2.7"/>
			<path class="st3" d="M256.2,794c0,0.9,0.7,1.5,1.5,1.5c0.9,0,1.5-0.7,1.5-1.5l0-12.9h0.7l0,12.9c0,0.9,0.7,1.5,1.5,1.5
				s1.5-0.7,1.5-1.5l0-22.3h0.7v8.2c0,1.7,2.2,1.7,2.2,0v-8.4c0-1.8-1.1-3.6-3.2-3.6l-6.2,0c-1.9,0-3.2,1.6-3.2,3.6v8.4
				c0,1.6,2.2,1.6,2.2,0v-8.2h0.7L256.2,794z"/>
		</g>
		<circle class="st15" cx="245.3" cy="752.5" r="5.9"/>
		<g>
			<path class="st3" d="M276.3,767.9c1.9,0,2.7,1.6,3,2.5l2.4,7.8c0.5,1.7-1.7,2.4-2.2,0.7l-2.1-7.1h-0.6l3.7,12.7H277v9.9
				c0,1.7-2.5,1.7-2.5,0v-9.9h-1l0,9.9c0,1.7-2.5,1.7-2.5,0l0-9.9h-3.4l3.7-12.7h-0.6l-2.1,7.1c-0.5,1.6-2.6,0.9-2.2-0.8l2.4-7.8
				c0.3-0.9,1-2.5,3-2.5H276.3z"/>
			<circle class="st3" cx="274" cy="764.5" r="2.8"/>
		</g>
		<g>
			<path class="st3" d="M247.6,767.9c1.9,0,2.7,1.6,3,2.5l2.4,7.8c0.5,1.7-1.7,2.4-2.2,0.7l-2.1-7.1h-0.6l3.7,12.7h-3.4v9.9
				c0,1.7-2.5,1.7-2.5,0v-9.9h-1l0,9.9c0,1.7-2.5,1.7-2.5,0l0-9.9h-3.4l3.7-12.7h-0.6l-2.1,7.1c-0.5,1.6-2.6,0.9-2.2-0.8l2.4-7.8
				c0.3-0.9,1-2.5,3-2.5H247.6z"/>
			<circle class="st3" cx="245.3" cy="764.5" r="2.8"/>
		</g>
	</g>
	<g>
		<circle class="st15" cx="231.7" cy="695.2" r="7.6"/>
		<circle class="st16" cx="246.4" cy="695.2" r="3.4"/>
		<circle class="st16" cx="260.4" cy="695.2" r="3.4"/>
		<g>
			<circle class="st3" cx="245.9" cy="708.1" r="2.7"/>
			<path class="st3" d="M242.6,737.5c0,0.9,0.7,1.5,1.5,1.5c0.9,0,1.5-0.7,1.5-1.5l0-12.9h0.7l0,12.9c0,0.9,0.7,1.5,1.5,1.5
				s1.5-0.7,1.5-1.5l0-22.3h0.7v8.2c0,1.7,2.2,1.7,2.2,0V715c0-1.8-1.1-3.6-3.2-3.6l-6.2,0c-1.9,0-3.2,1.6-3.2,3.6v8.4
				c0,1.6,2.2,1.6,2.2,0v-8.2h0.7L242.6,737.5z"/>
		</g>
		<g>
			<circle class="st3" cx="260.2" cy="708.1" r="2.7"/>
			<path class="st3" d="M257,737.5c0,0.9,0.7,1.5,1.5,1.5c0.9,0,1.5-0.7,1.5-1.5l0-12.9h0.7l0,12.9c0,0.9,0.7,1.5,1.5,1.5
				s1.5-0.7,1.5-1.5l0-22.3h0.7v8.2c0,1.7,2.2,1.7,2.2,0V715c0-1.8-1.1-3.6-3.2-3.6l-6.2,0c-1.9,0-3.2,1.6-3.2,3.6v8.4
				c0,1.6,2.2,1.6,2.2,0v-8.2h0.7L257,737.5z"/>
		</g>
		<g>
			<g>
				<circle class="st3" cx="273.8" cy="708.1" r="2.7"/>
				<path class="st3" d="M270.5,737.5c0,0.9,0.7,1.5,1.5,1.5c0.9,0,1.5-0.7,1.5-1.5l0-12.9h0.7l0,12.9c0,0.9,0.7,1.5,1.5,1.5
					c0.9,0,1.5-0.7,1.5-1.5l0-22.3h0.7v8.2c0,1.7,2.2,1.7,2.2,0V715c0-1.8-1.1-3.6-3.2-3.6l-6.2,0c-1.9,0-3.2,1.6-3.2,3.6v8.4
					c0,1.6,2.2,1.6,2.2,0v-8.2h0.7L270.5,737.5z"/>
			</g>
			<circle class="st15" cx="274" cy="696.1" r="5.9"/>
		</g>
		<g>
			<path class="st3" d="M234,711.4c1.9,0,2.7,1.6,3,2.5l2.4,7.8c0.5,1.7-1.7,2.4-2.2,0.7l-2.1-7.1h-0.6l3.7,12.7h-3.4v9.9
				c0,1.7-2.5,1.7-2.5,0v-9.9h-1l0,9.9c0,1.7-2.5,1.7-2.5,0l0-9.9h-3.4l3.7-12.7h-0.6l-2.1,7.1c-0.5,1.6-2.6,0.9-2.2-0.8l2.4-7.8
				c0.3-0.9,1-2.5,3-2.5H234z"/>
			<circle class="st3" cx="231.7" cy="708.1" r="2.8"/>
		</g>
	</g>
	<g>
		<circle class="st15" cx="259.6" cy="637.9" r="7.6"/>
		<circle class="st16" cx="245.3" cy="637.9" r="3.4"/>
		<g>
			<circle class="st3" cx="230.8" cy="650.8" r="2.7"/>
			<path class="st3" d="M227.6,680.2c0,0.9,0.7,1.5,1.5,1.5c0.9,0,1.5-0.7,1.5-1.5l0-12.9h0.7l0,12.9c0,0.9,0.7,1.5,1.5,1.5
				s1.5-0.7,1.5-1.5l0-22.3h0.7v8.2c0,1.7,2.2,1.7,2.2,0v-8.4c0-1.8-1.1-3.6-3.2-3.6l-6.2,0c-1.9,0-3.2,1.6-3.2,3.6v8.4
				c0,1.6,2.2,1.6,2.2,0v-8.2h0.7L227.6,680.2z"/>
		</g>
		<g>
			<circle class="st3" cx="259.5" cy="650.8" r="2.7"/>
			<path class="st3" d="M256.2,680.2c0,0.9,0.7,1.5,1.5,1.5c0.9,0,1.5-0.7,1.5-1.5l0-12.9h0.7l0,12.9c0,0.9,0.7,1.5,1.5,1.5
				s1.5-0.7,1.5-1.5l0-22.3h0.7v8.2c0,1.7,2.2,1.7,2.2,0v-8.4c0-1.8-1.1-3.6-3.2-3.6l-6.2,0c-1.9,0-3.2,1.6-3.2,3.6v8.4
				c0,1.6,2.2,1.6,2.2,0v-8.2h0.7L256.2,680.2z"/>
		</g>
		<g>
			<circle class="st3" cx="273.8" cy="650.8" r="2.7"/>
			<path class="st3" d="M270.5,680.2c0,0.9,0.7,1.5,1.5,1.5c0.9,0,1.5-0.7,1.5-1.5l0-12.9h0.7l0,12.9c0,0.9,0.7,1.5,1.5,1.5
				c0.9,0,1.5-0.7,1.5-1.5l0-22.3h0.7v8.2c0,1.7,2.2,1.7,2.2,0v-8.4c0-1.8-1.1-3.6-3.2-3.6l-6.2,0c-1.9,0-3.2,1.6-3.2,3.6v8.4
				c0,1.6,2.2,1.6,2.2,0v-8.2h0.7L270.5,680.2z"/>
		</g>
		<circle class="st15" cx="231" cy="637.9" r="5.9"/>
		<circle class="st15" cx="274" cy="637.9" r="5.9"/>
		<g>
			<path class="st3" d="M247.6,654.1c1.9,0,2.7,1.6,3,2.5l2.4,7.8c0.5,1.7-1.7,2.4-2.2,0.7l-2.1-7.1h-0.6l3.7,12.7h-3.4v9.9
				c0,1.7-2.5,1.7-2.5,0v-9.9h-1l0,9.9c0,1.7-2.5,1.7-2.5,0l0-9.9h-3.4l3.7-12.7h-0.6l-2.1,7.1c-0.5,1.6-2.6,0.9-2.2-0.8l2.4-7.8
				c0.3-0.9,1-2.5,3-2.5H247.6z"/>
			<circle class="st3" cx="245.3" cy="650.8" r="2.8"/>
		</g>
	</g>
</g>
<g>
	<path class="st17" d="M85.5,541.6H5.8c-2.8,0-5-2.2-5-5V375.4c0-2.8,2.2-5,5-5h79.7c2.8,0,5,2.2,5,5v161.3
		C90.5,539.4,88.3,541.6,85.5,541.6z"/>
	<g>
		<g>
			<rect x="51.5" y="444.5" class="st18" width="21.1" height="30.3"/>
			<g>
				<path class="st3" d="M61.9,457.7c-0.5,0.4-1.2,0.7-1.8,0.7l0,1.1h-0.8v-1.1c-1.3,0-2.5-0.7-3.1-1.9l0.9-0.8
					c0.4,0.9,1.4,1.5,2.3,1.5l0-3.7l-0.6-0.3c-0.5-0.2-0.9-0.4-1.2-0.7c-0.4-0.3-1-1-1-2.1c0-0.8,0.4-1.5,0.9-2
					c0.5-0.4,1.2-0.7,1.9-0.8l0-1h0.8v1c0.9,0.1,1.9,0.5,2.5,1.4l-0.7,0.9c-0.4-0.7-1.1-1.1-1.8-1.2l0,3.5l0.9,0.4
					c1,0.5,1.9,1.2,1.9,2.7C63,456.5,62.5,457.2,61.9,457.7z M59.4,448.9c-0.9,0.1-1.5,0.7-1.5,1.5c0,0.9,0.7,1.3,1.2,1.5l0.2,0.1
					L59.4,448.9z M60.5,454l-0.4-0.2l0,3.5c0.7,0,1.5-0.7,1.5-1.6C61.7,454.8,61.2,454.4,60.5,454z"/>
			</g>
			<line class="st19" x1="56.6" y1="463" x2="69.2" y2="463"/>
			<line class="st19" x1="56.6" y1="467.3" x2="66.7" y2="467.3"/>
		</g>
		<g>
			<rect x="19.5" y="444.5" class="st18" width="21.1" height="30.3"/>
			<g>
				<path class="st3" d="M29.9,457.7c-0.5,0.4-1.2,0.7-1.8,0.7l0,1.1h-0.8v-1.1c-1.3,0-2.5-0.7-3.1-1.9l0.9-0.8
					c0.4,0.9,1.4,1.5,2.3,1.5l0-3.7l-0.6-0.3c-0.5-0.2-0.9-0.4-1.2-0.7c-0.4-0.3-1-1-1-2.1c0-0.8,0.4-1.5,0.9-2
					c0.5-0.4,1.2-0.7,1.9-0.8l0-1h0.8v1c0.9,0.1,1.9,0.5,2.5,1.4l-0.7,0.9c-0.4-0.7-1.1-1.1-1.8-1.2l0,3.5l0.9,0.4
					c1,0.5,1.9,1.2,1.9,2.7C31,456.5,30.5,457.2,29.9,457.7z M27.4,448.9c-0.9,0.1-1.5,0.7-1.5,1.5c0,0.9,0.7,1.3,1.2,1.5l0.2,0.1
					L27.4,448.9z M28.5,454l-0.4-0.2l0,3.5c0.7,0,1.5-0.7,1.5-1.6C29.6,454.8,29.2,454.4,28.5,454z"/>
			</g>
			<line class="st19" x1="24.6" y1="463" x2="37.2" y2="463"/>
			<line class="st19" x1="24.6" y1="467.3" x2="34.7" y2="467.3"/>
		</g>
		<g>
			<rect x="51.5" y="400.7" class="st18" width="21.1" height="30.3"/>
			<g>
				<path class="st3" d="M61.9,413.9c-0.5,0.4-1.2,0.7-1.8,0.7l0,1.1h-0.8v-1.1c-1.3,0-2.5-0.7-3.1-1.9L57,412
					c0.4,0.9,1.4,1.5,2.3,1.5l0-3.7l-0.6-0.3c-0.5-0.2-0.9-0.4-1.2-0.7c-0.4-0.3-1-1-1-2.1c0-0.8,0.4-1.5,0.9-2
					c0.5-0.4,1.2-0.7,1.9-0.8l0-1h0.8v1c0.9,0.1,1.9,0.5,2.5,1.4l-0.7,0.9c-0.4-0.7-1.1-1.1-1.8-1.2l0,3.5l0.9,0.4
					c1,0.5,1.9,1.2,1.9,2.7C63,412.7,62.5,413.4,61.9,413.9z M59.4,405.1c-0.9,0.1-1.5,0.7-1.5,1.5c0,0.9,0.7,1.3,1.2,1.5l0.2,0.1
					L59.4,405.1z M60.5,410.2l-0.4-0.2l0,3.5c0.7,0,1.5-0.7,1.5-1.6C61.7,411,61.2,410.6,60.5,410.2z"/>
			</g>
			<line class="st19" x1="56.6" y1="419.2" x2="69.2" y2="419.2"/>
			<line class="st19" x1="56.6" y1="423.4" x2="66.7" y2="423.4"/>
		</g>
		<circle class="st15" cx="51.5" cy="431" r="7.6"/>
		<g>
			<rect x="18.3" y="490.8" class="st18" width="21.1" height="30.3"/>
			<g>
				<path class="st3" d="M28.6,504.1c-0.5,0.4-1.2,0.7-1.8,0.7l0,1.1h-0.8v-1.1c-1.3,0-2.5-0.7-3.1-1.9l0.9-0.8
					c0.4,0.9,1.4,1.5,2.3,1.5l0-3.7l-0.6-0.3c-0.5-0.2-0.9-0.4-1.2-0.7c-0.4-0.3-1-1-1-2.1c0-0.8,0.4-1.5,0.9-2
					c0.5-0.4,1.2-0.7,1.9-0.8l0-1H27v1c0.9,0.1,1.9,0.5,2.5,1.4l-0.7,0.9c-0.4-0.7-1.1-1.1-1.8-1.2l0,3.5l0.9,0.4
					c1,0.5,1.9,1.2,1.9,2.7C29.7,502.8,29.2,503.6,28.6,504.1z M26.1,495.3c-0.9,0.1-1.5,0.7-1.5,1.5c0,0.9,0.7,1.3,1.2,1.5l0.2,0.1
					L26.1,495.3z M27.2,500.4l-0.4-0.2l0,3.5c0.7,0,1.5-0.7,1.5-1.6C28.4,501.1,27.9,500.7,27.2,500.4z"/>
			</g>
			<line class="st19" x1="23.3" y1="509.4" x2="35.9" y2="509.4"/>
			<line class="st19" x1="23.3" y1="513.6" x2="33.4" y2="513.6"/>
		</g>
		<g>
			<rect x="51.1" y="490.8" class="st18" width="21.1" height="30.3"/>
			<g>
				<path class="st3" d="M61.5,504.1c-0.5,0.4-1.2,0.7-1.8,0.7l0,1.1h-0.8v-1.1c-1.3,0-2.5-0.7-3.1-1.9l0.9-0.8
					c0.4,0.9,1.4,1.5,2.3,1.5l0-3.7l-0.6-0.3c-0.5-0.2-0.9-0.4-1.2-0.7c-0.4-0.3-1-1-1-2.1c0-0.8,0.4-1.5,0.9-2
					c0.5-0.4,1.2-0.7,1.9-0.8l0-1h0.8v1c0.9,0.1,1.9,0.5,2.5,1.4l-0.7,0.9c-0.4-0.7-1.1-1.1-1.8-1.2l0,3.5l0.9,0.4
					c1,0.5,1.9,1.2,1.9,2.7C62.6,502.8,62.1,503.6,61.5,504.1z M59,495.3c-0.9,0.1-1.5,0.7-1.5,1.5c0,0.9,0.7,1.3,1.2,1.5l0.2,0.1
					L59,495.3z M60.1,500.4l-0.4-0.2l0,3.5c0.7,0,1.5-0.7,1.5-1.6C61.2,501.1,60.8,500.7,60.1,500.4z"/>
			</g>
			<line class="st19" x1="56.2" y1="509.4" x2="68.8" y2="509.4"/>
			<line class="st19" x1="56.2" y1="513.6" x2="66.3" y2="513.6"/>
		</g>
		<circle class="st15" cx="18.3" cy="521.2" r="4.2"/>
		<circle class="st15" cx="51.1" cy="521.2" r="5.9"/>
		<g>
			<rect x="19.5" y="400.7" class="st18" width="21.1" height="30.3"/>
			<g>
				<path class="st3" d="M29.9,413.9c-0.5,0.4-1.2,0.7-1.8,0.7l0,1.1h-0.8v-1.1c-1.3,0-2.5-0.7-3.1-1.9L25,412
					c0.4,0.9,1.4,1.5,2.3,1.5l0-3.7l-0.6-0.3c-0.5-0.2-0.9-0.4-1.2-0.7c-0.4-0.3-1-1-1-2.1c0-0.8,0.4-1.5,0.9-2
					c0.5-0.4,1.2-0.7,1.9-0.8l0-1h0.8v1c0.9,0.1,1.9,0.5,2.5,1.4l-0.7,0.9c-0.4-0.7-1.1-1.1-1.8-1.2l0,3.5l0.9,0.4
					c1,0.5,1.9,1.2,1.9,2.7C31,412.7,30.5,413.4,29.9,413.9z M27.4,405.1c-0.9,0.1-1.5,0.7-1.5,1.5c0,0.9,0.7,1.3,1.2,1.5l0.2,0.1
					L27.4,405.1z M28.5,410.2l-0.4-0.2l0,3.5c0.7,0,1.5-0.7,1.5-1.6C29.6,411,29.2,410.6,28.5,410.2z"/>
			</g>
			<line class="st19" x1="24.6" y1="419.2" x2="37.2" y2="419.2"/>
			<line class="st19" x1="24.6" y1="423.4" x2="34.7" y2="423.4"/>
		</g>
		<circle class="st15" cx="19.5" cy="431" r="5.9"/>
		<circle class="st15" cx="19.5" cy="474.8" r="4.2"/>
		<circle class="st15" cx="51.5" cy="474.8" r="5.9"/>
	</g>
	<rect x="10.9" y="361.9" class="st6" width="69.6" height="33.5"/>
	<g>
		<path d="M23.7,373.3h-2.1l-0.6-1.6h-2.9l-0.6,1.6h-2l3.1-8.2h2L23.7,373.3z M20.6,370.2l-1-2.9l-1,2.9H20.6z"/>
		<path d="M26.2,373.3h-1.9v-8.1h1.9V373.3z"/>
		<path d="M30.9,369h-1.3v2.1c0,0.5,0.1,0.6,0.2,0.7c0.1,0.1,0.2,0.1,0.4,0.1c0.3,0,0.6-0.1,0.6-0.1l0.1,1.5c-0.1,0-0.7,0.2-1.3,0.2
			c-0.7,0-1.1-0.2-1.4-0.5c-0.3-0.3-0.4-0.8-0.4-1.7V369h-0.8v-1.4h0.8v-1.6h1.9v1.6h1.3V369z"/>
		<path d="M37.3,370.9h-4.1c0.1,0.8,0.7,1.2,1.5,1.2c0.8,0,1.4-0.3,1.7-0.6l0.7,1c-0.2,0.1-1,0.9-2.8,0.9c-1.8,0-3.1-1.1-3.1-3
			s1.4-3,3.1-3c1.7,0,2.9,1.1,2.9,2.8C37.3,370.5,37.3,370.9,37.3,370.9z M35.5,369.8c0-0.5-0.4-1.2-1.2-1.2c-0.8,0-1.2,0.6-1.2,1.2
			H35.5z"/>
		<path d="M42,369.2L42,369.2c-0.2-0.1-0.4-0.1-0.8-0.1c-0.4,0-0.7,0.2-0.9,0.4s-0.3,0.6-0.3,1.2v2.6h-1.9v-5.8h1.9l0,0.8h0
			c0.3-0.6,0.8-0.9,1.4-0.9c0.4,0,0.6,0.1,0.6,0.1L42,369.2z"/>
		<path d="M48.4,373.3h-1.9v-3c0-0.8-0.1-1.3-0.9-1.3c-0.8,0-1,0.7-1,1.5v2.9h-1.9v-5.8h1.9l0,0.8h0c0.3-0.5,0.8-0.9,1.7-0.9
			c1.7,0,2.1,1.1,2.1,2.5V373.3z"/>
		<path d="M54.9,373.3h-1.8l0-0.6c-0.2,0.2-0.7,0.7-1.7,0.7c-1,0-2.1-0.6-2.1-1.9c0-1.3,1.2-1.7,2.3-1.8l1.5-0.1v-0.1
			c0-0.6-0.4-0.9-1.2-0.9c-0.7,0-1.5,0.3-1.8,0.5l-0.5-1.2c0.5-0.2,1.4-0.6,2.5-0.6s1.7,0.2,2.2,0.7c0.4,0.4,0.7,1,0.7,2V373.3z
			 M53,370.8l-0.9,0.1c-0.6,0-0.9,0.3-0.9,0.7c0,0.4,0.4,0.7,0.9,0.7c0.5,0,0.8-0.3,1-0.5V370.8z"/>
		<path d="M59.5,369h-1.3v2.1c0,0.5,0.1,0.6,0.2,0.7c0.1,0.1,0.2,0.1,0.4,0.1c0.3,0,0.6-0.1,0.6-0.1l0.1,1.5c-0.1,0-0.7,0.2-1.3,0.2
			c-0.7,0-1.1-0.2-1.4-0.5c-0.3-0.3-0.4-0.8-0.4-1.7V369h-0.8v-1.4h0.8v-1.6h1.9v1.6h1.3V369z"/>
		<path d="M61.2,366.8c-0.6,0-1.1-0.4-1.1-1c0-0.6,0.4-1,1.1-1c0.6,0,1.1,0.4,1.1,1C62.3,366.5,61.9,366.8,61.2,366.8z M62.2,373.3
			h-1.9v-5.8h1.9V373.3z"/>
		<path d="M69.3,367.5l-2.4,5.8h-1.8l-2.4-5.8h2l1.3,3.7l1.3-3.7H69.3z"/>
		<path d="M75.4,370.9h-4.1c0.1,0.8,0.7,1.2,1.5,1.2c0.8,0,1.4-0.3,1.7-0.6l0.7,1c-0.2,0.1-1,0.9-2.8,0.9c-1.8,0-3.1-1.1-3.1-3
			s1.4-3,3.1-3c1.7,0,2.9,1.1,2.9,2.8C75.5,370.5,75.4,370.9,75.4,370.9z M73.7,369.8c0-0.5-0.4-1.2-1.2-1.2c-0.8,0-1.2,0.6-1.2,1.2
			H73.7z"/>
		<path d="M28.4,387.5h-4.7v-8.1h1.9v6.6h2.8V387.5z"/>
		<path d="M34.7,385h-4.1c0.1,0.8,0.7,1.2,1.5,1.2c0.8,0,1.4-0.3,1.7-0.6l0.7,1c-0.2,0.1-1,0.9-2.8,0.9c-1.8,0-3.1-1.1-3.1-3
			s1.4-3,3.1-3c1.7,0,2.9,1.1,2.9,2.8C34.8,384.7,34.7,385,34.7,385z M33,384c0-0.5-0.4-1.2-1.2-1.2c-0.8,0-1.2,0.6-1.2,1.2H33z"/>
		<path d="M41.3,387.5h-1.9v-3c0-0.8-0.1-1.3-0.9-1.3c-0.8,0-1,0.7-1,1.5v2.9h-1.9v-5.8h1.9l0,0.8h0c0.3-0.5,0.8-0.9,1.7-0.9
			c1.7,0,2.1,1.1,2.1,2.5V387.5z"/>
		<path d="M48.7,387.5h-1.8l0-0.8l0,0c-0.4,0.6-1.1,0.9-1.9,0.9c-1.7,0-2.7-1.3-2.7-3c0-1.7,1.1-3,2.7-3c1.1,0,1.7,0.5,1.8,0.8v-3
			h1.9V387.5z M45.5,383c-0.8,0-1.4,0.6-1.4,1.5s0.6,1.5,1.4,1.5c0.8,0,1.4-0.6,1.4-1.5S46.3,383,45.5,383z"/>
		<path d="M55.7,385h-4.1c0.1,0.8,0.7,1.2,1.5,1.2c0.8,0,1.4-0.3,1.7-0.6l0.7,1c-0.2,0.1-1,0.9-2.8,0.9c-1.8,0-3.1-1.1-3.1-3
			s1.4-3,3.1-3c1.7,0,2.9,1.1,2.9,2.8C55.7,384.7,55.7,385,55.7,385z M53.9,384c0-0.5-0.4-1.2-1.2-1.2c-0.8,0-1.2,0.6-1.2,1.2H53.9z
			"/>
		<path d="M60.4,383.4L60.4,383.4c-0.2-0.1-0.4-0.1-0.8-0.1c-0.4,0-0.7,0.2-0.9,0.4s-0.3,0.6-0.3,1.2v2.6h-1.9v-5.8h1.9l0,0.8h0
			c0.3-0.6,0.8-0.9,1.4-0.9c0.4,0,0.6,0.1,0.6,0.1L60.4,383.4z"/>
		<path d="M66.9,387.5h-1.8v-6.8h-1.5v-1.3h3.3V387.5z"/>
	</g>
	<path class="st17" d="M189.1,541.6h-79.7c-2.8,0-5-2.2-5-5V375.4c0-2.8,2.2-5,5-5h79.7c2.8,0,5,2.2,5,5v161.3
		C194.1,539.4,191.9,541.6,189.1,541.6z"/>
	<g>
		<g>
			<rect x="155.1" y="444.5" class="st18" width="21.1" height="30.3"/>
			<g>
				<path class="st3" d="M165.5,457.7c-0.5,0.4-1.2,0.7-1.8,0.7l0,1.1h-0.8v-1.1c-1.3,0-2.5-0.7-3.1-1.9l0.9-0.8
					c0.4,0.9,1.4,1.5,2.3,1.5l0-3.7l-0.6-0.3c-0.5-0.2-0.9-0.4-1.2-0.7c-0.4-0.3-1-1-1-2.1c0-0.8,0.4-1.5,0.9-2
					c0.5-0.4,1.2-0.7,1.9-0.8l0-1h0.8v1c0.9,0.1,1.9,0.5,2.5,1.4l-0.7,0.9c-0.4-0.7-1.1-1.1-1.8-1.2l0,3.5l0.9,0.4
					c1,0.5,1.9,1.2,1.9,2.7C166.6,456.5,166.1,457.2,165.5,457.7z M163,448.9c-0.9,0.1-1.5,0.7-1.5,1.5c0,0.9,0.7,1.3,1.2,1.5
					l0.2,0.1L163,448.9z M164.1,454l-0.4-0.2l0,3.5c0.7,0,1.5-0.7,1.5-1.6C165.3,454.8,164.8,454.4,164.1,454z"/>
			</g>
			<line class="st19" x1="160.2" y1="463" x2="172.8" y2="463"/>
			<line class="st19" x1="160.2" y1="467.3" x2="170.3" y2="467.3"/>
		</g>
		<g>
			<rect x="123.1" y="444.5" class="st18" width="21.1" height="30.3"/>
			<g>
				<path class="st3" d="M133.5,457.7c-0.5,0.4-1.2,0.7-1.8,0.7l0,1.1h-0.8v-1.1c-1.3,0-2.5-0.7-3.1-1.9l0.9-0.8
					c0.4,0.9,1.4,1.5,2.3,1.5l0-3.7l-0.6-0.3c-0.5-0.2-0.9-0.4-1.2-0.7c-0.4-0.3-1-1-1-2.1c0-0.8,0.4-1.5,0.9-2
					c0.5-0.4,1.2-0.7,1.9-0.8l0-1h0.8v1c0.9,0.1,1.9,0.5,2.5,1.4l-0.7,0.9c-0.4-0.7-1.1-1.1-1.8-1.2l0,3.5l0.9,0.4
					c1,0.5,1.9,1.2,1.9,2.7C134.6,456.5,134.1,457.2,133.5,457.7z M131,448.9c-0.9,0.1-1.5,0.7-1.5,1.5c0,0.9,0.7,1.3,1.2,1.5
					l0.2,0.1L131,448.9z M132.1,454l-0.4-0.2l0,3.5c0.7,0,1.5-0.7,1.5-1.6C133.2,454.8,132.8,454.4,132.1,454z"/>
			</g>
			<line class="st19" x1="128.2" y1="463" x2="140.8" y2="463"/>
			<line class="st19" x1="128.2" y1="467.3" x2="138.3" y2="467.3"/>
		</g>
		<g>
			<rect x="155.1" y="400.7" class="st18" width="21.1" height="30.3"/>
			<g>
				<path class="st3" d="M165.5,413.9c-0.5,0.4-1.2,0.7-1.8,0.7l0,1.1h-0.8v-1.1c-1.3,0-2.5-0.7-3.1-1.9l0.9-0.8
					c0.4,0.9,1.4,1.5,2.3,1.5l0-3.7l-0.6-0.3c-0.5-0.2-0.9-0.4-1.2-0.7c-0.4-0.3-1-1-1-2.1c0-0.8,0.4-1.5,0.9-2
					c0.5-0.4,1.2-0.7,1.9-0.8l0-1h0.8v1c0.9,0.1,1.9,0.5,2.5,1.4l-0.7,0.9c-0.4-0.7-1.1-1.1-1.8-1.2l0,3.5l0.9,0.4
					c1,0.5,1.9,1.2,1.9,2.7C166.6,412.7,166.1,413.4,165.5,413.9z M163,405.1c-0.9,0.1-1.5,0.7-1.5,1.5c0,0.9,0.7,1.3,1.2,1.5
					l0.2,0.1L163,405.1z M164.1,410.2l-0.4-0.2l0,3.5c0.7,0,1.5-0.7,1.5-1.6C165.3,411,164.8,410.6,164.1,410.2z"/>
			</g>
			<line class="st19" x1="160.2" y1="419.2" x2="172.8" y2="419.2"/>
			<line class="st19" x1="160.2" y1="423.4" x2="170.3" y2="423.4"/>
		</g>
		<circle class="st15" cx="155.1" cy="431" r="7.6"/>
		<g>
			<rect x="121.9" y="490.8" class="st18" width="21.1" height="30.3"/>
			<g>
				<path class="st3" d="M132.2,504.1c-0.5,0.4-1.2,0.7-1.8,0.7l0,1.1h-0.8v-1.1c-1.3,0-2.5-0.7-3.1-1.9l0.9-0.8
					c0.4,0.9,1.4,1.5,2.3,1.5l0-3.7l-0.6-0.3c-0.5-0.2-0.9-0.4-1.2-0.7c-0.4-0.3-1-1-1-2.1c0-0.8,0.4-1.5,0.9-2
					c0.5-0.4,1.2-0.7,1.9-0.8l0-1h0.8v1c0.9,0.1,1.9,0.5,2.5,1.4l-0.7,0.9c-0.4-0.7-1.1-1.1-1.8-1.2l0,3.5l0.9,0.4
					c1,0.5,1.9,1.2,1.9,2.7C133.3,502.8,132.8,503.6,132.2,504.1z M129.7,495.3c-0.9,0.1-1.5,0.7-1.5,1.5c0,0.9,0.7,1.3,1.2,1.5
					l0.2,0.1L129.7,495.3z M130.8,500.4l-0.4-0.2l0,3.5c0.7,0,1.5-0.7,1.5-1.6C132,501.1,131.5,500.7,130.8,500.4z"/>
			</g>
			<line class="st19" x1="126.9" y1="509.4" x2="139.5" y2="509.4"/>
			<line class="st19" x1="126.9" y1="513.6" x2="137" y2="513.6"/>
		</g>
		<g>
			<rect x="154.7" y="490.8" class="st18" width="21.1" height="30.3"/>
			<g>
				<path class="st3" d="M165.1,504.1c-0.5,0.4-1.2,0.7-1.8,0.7l0,1.1h-0.8v-1.1c-1.3,0-2.5-0.7-3.1-1.9l0.9-0.8
					c0.4,0.9,1.4,1.5,2.3,1.5l0-3.7l-0.6-0.3c-0.5-0.2-0.9-0.4-1.2-0.7c-0.4-0.3-1-1-1-2.1c0-0.8,0.4-1.5,0.9-2
					c0.5-0.4,1.2-0.7,1.9-0.8l0-1h0.8v1c0.9,0.1,1.9,0.5,2.5,1.4l-0.7,0.9c-0.4-0.7-1.1-1.1-1.8-1.2l0,3.5l0.9,0.4
					c1,0.5,1.9,1.2,1.9,2.7C166.2,502.8,165.7,503.6,165.1,504.1z M162.6,495.3c-0.9,0.1-1.5,0.7-1.5,1.5c0,0.9,0.7,1.3,1.2,1.5
					l0.2,0.1L162.6,495.3z M163.7,500.4l-0.4-0.2l0,3.5c0.7,0,1.5-0.7,1.5-1.6C164.8,501.1,164.4,500.7,163.7,500.4z"/>
			</g>
			<line class="st19" x1="159.8" y1="509.4" x2="172.4" y2="509.4"/>
			<line class="st19" x1="159.8" y1="513.6" x2="169.9" y2="513.6"/>
		</g>
		<circle class="st15" cx="121.9" cy="521.2" r="4.2"/>
		<circle class="st15" cx="154.7" cy="521.2" r="5.9"/>
		<g>
			<rect x="123.1" y="400.7" class="st18" width="21.1" height="30.3"/>
			<g>
				<path class="st3" d="M133.5,413.9c-0.5,0.4-1.2,0.7-1.8,0.7l0,1.1h-0.8v-1.1c-1.3,0-2.5-0.7-3.1-1.9l0.9-0.8
					c0.4,0.9,1.4,1.5,2.3,1.5l0-3.7l-0.6-0.3c-0.5-0.2-0.9-0.4-1.2-0.7c-0.4-0.3-1-1-1-2.1c0-0.8,0.4-1.5,0.9-2
					c0.5-0.4,1.2-0.7,1.9-0.8l0-1h0.8v1c0.9,0.1,1.9,0.5,2.5,1.4l-0.7,0.9c-0.4-0.7-1.1-1.1-1.8-1.2l0,3.5l0.9,0.4
					c1,0.5,1.9,1.2,1.9,2.7C134.6,412.7,134.1,413.4,133.5,413.9z M131,405.1c-0.9,0.1-1.5,0.7-1.5,1.5c0,0.9,0.7,1.3,1.2,1.5
					l0.2,0.1L131,405.1z M132.1,410.2l-0.4-0.2l0,3.5c0.7,0,1.5-0.7,1.5-1.6C133.2,411,132.8,410.6,132.1,410.2z"/>
			</g>
			<line class="st19" x1="128.2" y1="419.2" x2="140.8" y2="419.2"/>
			<line class="st19" x1="128.2" y1="423.4" x2="138.3" y2="423.4"/>
		</g>
		<circle class="st15" cx="123.1" cy="431" r="5.9"/>
		<circle class="st15" cx="123.1" cy="474.8" r="4.2"/>
		<circle class="st15" cx="155.1" cy="474.8" r="5.9"/>
	</g>
	<rect x="114.5" y="361.9" class="st6" width="69.6" height="33.5"/>
	<g>
		<path d="M127.3,373.3h-2.1l-0.6-1.6h-2.9l-0.6,1.6h-2l3.1-8.2h2L127.3,373.3z M124.2,370.2l-1-2.9l-1,2.9H124.2z"/>
		<path d="M129.8,373.3h-1.9v-8.1h1.9V373.3z"/>
		<path d="M134.5,369h-1.3v2.1c0,0.5,0.1,0.6,0.2,0.7c0.1,0.1,0.2,0.1,0.4,0.1c0.3,0,0.6-0.1,0.6-0.1l0.1,1.5
			c-0.1,0-0.7,0.2-1.3,0.2c-0.7,0-1.1-0.2-1.4-0.5c-0.3-0.3-0.4-0.8-0.4-1.7V369h-0.8v-1.4h0.8v-1.6h1.9v1.6h1.3V369z"/>
		<path d="M140.9,370.9h-4.1c0.1,0.8,0.7,1.2,1.5,1.2c0.8,0,1.4-0.3,1.7-0.6l0.7,1c-0.2,0.1-1,0.9-2.8,0.9c-1.8,0-3.1-1.1-3.1-3
			s1.4-3,3.1-3c1.7,0,2.9,1.1,2.9,2.8C140.9,370.5,140.9,370.9,140.9,370.9z M139.1,369.8c0-0.5-0.4-1.2-1.2-1.2
			c-0.8,0-1.2,0.6-1.2,1.2H139.1z"/>
		<path d="M145.6,369.2L145.6,369.2c-0.2-0.1-0.4-0.1-0.8-0.1c-0.4,0-0.7,0.2-0.9,0.4s-0.3,0.6-0.3,1.2v2.6h-1.9v-5.8h1.9l0,0.8h0
			c0.3-0.6,0.8-0.9,1.4-0.9c0.4,0,0.6,0.1,0.6,0.1L145.6,369.2z"/>
		<path d="M152,373.3h-1.9v-3c0-0.8-0.1-1.3-0.9-1.3c-0.8,0-1,0.7-1,1.5v2.9h-1.9v-5.8h1.9l0,0.8h0c0.3-0.5,0.8-0.9,1.7-0.9
			c1.7,0,2.1,1.1,2.1,2.5V373.3z"/>
		<path d="M158.5,373.3h-1.8l0-0.6c-0.2,0.2-0.7,0.7-1.7,0.7c-1,0-2.1-0.6-2.1-1.9c0-1.3,1.2-1.7,2.3-1.8l1.5-0.1v-0.1
			c0-0.6-0.4-0.9-1.2-0.9c-0.7,0-1.5,0.3-1.8,0.5l-0.5-1.2c0.5-0.2,1.4-0.6,2.5-0.6s1.7,0.2,2.2,0.7c0.4,0.4,0.7,1,0.7,2V373.3z
			 M156.6,370.8l-0.9,0.1c-0.6,0-0.9,0.3-0.9,0.7c0,0.4,0.4,0.7,0.9,0.7c0.5,0,0.8-0.3,1-0.5V370.8z"/>
		<path d="M163.1,369h-1.3v2.1c0,0.5,0.1,0.6,0.2,0.7c0.1,0.1,0.2,0.1,0.4,0.1c0.3,0,0.6-0.1,0.6-0.1l0.1,1.5
			c-0.1,0-0.7,0.2-1.3,0.2c-0.7,0-1.1-0.2-1.4-0.5c-0.3-0.3-0.4-0.8-0.4-1.7V369h-0.8v-1.4h0.8v-1.6h1.9v1.6h1.3V369z"/>
		<path d="M164.8,366.8c-0.6,0-1.1-0.4-1.1-1c0-0.6,0.4-1,1.1-1c0.6,0,1.1,0.4,1.1,1C165.9,366.5,165.5,366.8,164.8,366.8z
			 M165.8,373.3h-1.9v-5.8h1.9V373.3z"/>
		<path d="M172.9,367.5l-2.4,5.8h-1.8l-2.4-5.8h2l1.3,3.7l1.3-3.7H172.9z"/>
		<path d="M179,370.9h-4.1c0.1,0.8,0.7,1.2,1.5,1.2c0.8,0,1.4-0.3,1.7-0.6l0.7,1c-0.2,0.1-1,0.9-2.8,0.9c-1.8,0-3.1-1.1-3.1-3
			s1.4-3,3.1-3c1.7,0,2.9,1.1,2.9,2.8C179.1,370.5,179,370.9,179,370.9z M177.3,369.8c0-0.5-0.4-1.2-1.2-1.2c-0.8,0-1.2,0.6-1.2,1.2
			H177.3z"/>
		<path d="M131.1,387.5h-4.7v-8.1h1.9v6.6h2.8V387.5z"/>
		<path d="M137.4,385h-4.1c0.1,0.8,0.7,1.2,1.5,1.2c0.8,0,1.4-0.3,1.7-0.6l0.7,1c-0.2,0.1-1,0.9-2.8,0.9c-1.8,0-3.1-1.1-3.1-3
			s1.4-3,3.1-3c1.7,0,2.9,1.1,2.9,2.8C137.4,384.7,137.4,385,137.4,385z M135.7,384c0-0.5-0.4-1.2-1.2-1.2c-0.8,0-1.2,0.6-1.2,1.2
			H135.7z"/>
		<path d="M144,387.5h-1.9v-3c0-0.8-0.1-1.3-0.9-1.3c-0.8,0-1,0.7-1,1.5v2.9h-1.9v-5.8h1.9l0,0.8h0c0.3-0.5,0.8-0.9,1.7-0.9
			c1.7,0,2.1,1.1,2.1,2.5V387.5z"/>
		<path d="M151.4,387.5h-1.8l0-0.8l0,0c-0.4,0.6-1.1,0.9-1.9,0.9c-1.7,0-2.7-1.3-2.7-3c0-1.7,1.1-3,2.7-3c1.1,0,1.7,0.5,1.8,0.8v-3
			h1.9V387.5z M148.2,383c-0.8,0-1.4,0.6-1.4,1.5s0.6,1.5,1.4,1.5c0.8,0,1.4-0.6,1.4-1.5S149,383,148.2,383z"/>
		<path d="M158.3,385h-4.1c0.1,0.8,0.7,1.2,1.5,1.2c0.8,0,1.4-0.3,1.7-0.6l0.7,1c-0.2,0.1-1,0.9-2.8,0.9c-1.8,0-3.1-1.1-3.1-3
			s1.4-3,3.1-3c1.7,0,2.9,1.1,2.9,2.8C158.4,384.7,158.3,385,158.3,385z M156.6,384c0-0.5-0.4-1.2-1.2-1.2c-0.8,0-1.2,0.6-1.2,1.2
			H156.6z"/>
		<path d="M163.1,383.4L163.1,383.4c-0.2-0.1-0.4-0.1-0.8-0.1c-0.4,0-0.7,0.2-0.9,0.4s-0.3,0.6-0.3,1.2v2.6h-1.9v-5.8h1.9l0,0.8h0
			c0.3-0.6,0.8-0.9,1.4-0.9c0.4,0,0.6,0.1,0.6,0.1L163.1,383.4z"/>
		<path d="M172.4,387.5h-6l-0.2-1.2l2.8-2.5c0.8-0.7,1.2-1.2,1.2-1.9c0-0.7-0.5-1.1-1.3-1.1c-0.8,0-1.5,0.5-2,1.1l-0.8-1.3
			c0.1-0.2,1.1-1.3,2.9-1.3c1.8,0,3,1,3,2.4c0,1.4-1.1,2.3-1.7,2.9l-1.7,1.5h3.8V387.5z"/>
	</g>
	<path class="st17" d="M292.7,541.6H213c-2.8,0-5-2.2-5-5V375.4c0-2.8,2.2-5,5-5h79.7c2.8,0,5,2.2,5,5v161.3
		C297.7,539.4,295.5,541.6,292.7,541.6z"/>
	<g>
		<g>
			<rect x="258.7" y="444.5" class="st18" width="21.1" height="30.3"/>
			<g>
				<path class="st3" d="M269.1,457.7c-0.5,0.4-1.2,0.7-1.8,0.7l0,1.1h-0.8v-1.1c-1.3,0-2.5-0.7-3.1-1.9l0.9-0.8
					c0.4,0.9,1.4,1.5,2.3,1.5l0-3.7l-0.6-0.3c-0.5-0.2-0.9-0.4-1.2-0.7c-0.4-0.3-1-1-1-2.1c0-0.8,0.4-1.5,0.9-2
					c0.5-0.4,1.2-0.7,1.9-0.8l0-1h0.8v1c0.9,0.1,1.9,0.5,2.5,1.4l-0.7,0.9c-0.4-0.7-1.1-1.1-1.8-1.2l0,3.5l0.9,0.4
					c1,0.5,1.9,1.2,1.9,2.7C270.2,456.5,269.7,457.2,269.1,457.7z M266.6,448.9c-0.9,0.1-1.5,0.7-1.5,1.5c0,0.9,0.7,1.3,1.2,1.5
					l0.2,0.1L266.6,448.9z M267.7,454l-0.4-0.2l0,3.5c0.7,0,1.5-0.7,1.5-1.6C268.9,454.8,268.4,454.4,267.7,454z"/>
			</g>
			<line class="st19" x1="263.8" y1="463" x2="276.4" y2="463"/>
			<line class="st19" x1="263.8" y1="467.3" x2="273.9" y2="467.3"/>
		</g>
		<g>
			<rect x="226.7" y="444.5" class="st18" width="21.1" height="30.3"/>
			<g>
				<path class="st3" d="M237.1,457.7c-0.5,0.4-1.2,0.7-1.8,0.7l0,1.1h-0.8v-1.1c-1.3,0-2.5-0.7-3.1-1.9l0.9-0.8
					c0.4,0.9,1.4,1.5,2.3,1.5l0-3.7l-0.6-0.3c-0.5-0.2-0.9-0.4-1.2-0.7c-0.4-0.3-1-1-1-2.1c0-0.8,0.4-1.5,0.9-2
					c0.5-0.4,1.2-0.7,1.9-0.8l0-1h0.8v1c0.9,0.1,1.9,0.5,2.5,1.4l-0.7,0.9c-0.4-0.7-1.1-1.1-1.8-1.2l0,3.5l0.9,0.4
					c1,0.5,1.9,1.2,1.9,2.7C238.2,456.5,237.7,457.2,237.1,457.7z M234.6,448.9c-0.9,0.1-1.5,0.7-1.5,1.5c0,0.9,0.7,1.3,1.2,1.5
					l0.2,0.1L234.6,448.9z M235.7,454l-0.4-0.2l0,3.5c0.7,0,1.5-0.7,1.5-1.6C236.8,454.8,236.4,454.4,235.7,454z"/>
			</g>
			<line class="st19" x1="231.8" y1="463" x2="244.4" y2="463"/>
			<line class="st19" x1="231.8" y1="467.3" x2="241.9" y2="467.3"/>
		</g>
		<g>
			<rect x="258.7" y="400.7" class="st18" width="21.1" height="30.3"/>
			<g>
				<path class="st3" d="M269.1,413.9c-0.5,0.4-1.2,0.7-1.8,0.7l0,1.1h-0.8v-1.1c-1.3,0-2.5-0.7-3.1-1.9l0.9-0.8
					c0.4,0.9,1.4,1.5,2.3,1.5l0-3.7l-0.6-0.3c-0.5-0.2-0.9-0.4-1.2-0.7c-0.4-0.3-1-1-1-2.1c0-0.8,0.4-1.5,0.9-2
					c0.5-0.4,1.2-0.7,1.9-0.8l0-1h0.8v1c0.9,0.1,1.9,0.5,2.5,1.4l-0.7,0.9c-0.4-0.7-1.1-1.1-1.8-1.2l0,3.5l0.9,0.4
					c1,0.5,1.9,1.2,1.9,2.7C270.2,412.7,269.7,413.4,269.1,413.9z M266.6,405.1c-0.9,0.1-1.5,0.7-1.5,1.5c0,0.9,0.7,1.3,1.2,1.5
					l0.2,0.1L266.6,405.1z M267.7,410.2l-0.4-0.2l0,3.5c0.7,0,1.5-0.7,1.5-1.6C268.9,411,268.4,410.6,267.7,410.2z"/>
			</g>
			<line class="st19" x1="263.8" y1="419.2" x2="276.4" y2="419.2"/>
			<line class="st19" x1="263.8" y1="423.4" x2="273.9" y2="423.4"/>
		</g>
		<circle class="st15" cx="258.7" cy="431" r="7.6"/>
		<g>
			<rect x="225.5" y="490.8" class="st18" width="21.1" height="30.3"/>
			<g>
				<path class="st3" d="M235.8,504.1c-0.5,0.4-1.2,0.7-1.8,0.7l0,1.1h-0.8v-1.1c-1.3,0-2.5-0.7-3.1-1.9l0.9-0.8
					c0.4,0.9,1.4,1.5,2.3,1.5l0-3.7l-0.6-0.3c-0.5-0.2-0.9-0.4-1.2-0.7c-0.4-0.3-1-1-1-2.1c0-0.8,0.4-1.5,0.9-2
					c0.5-0.4,1.2-0.7,1.9-0.8l0-1h0.8v1c0.9,0.1,1.9,0.5,2.5,1.4l-0.7,0.9c-0.4-0.7-1.1-1.1-1.8-1.2l0,3.5l0.9,0.4
					c1,0.5,1.9,1.2,1.9,2.7C236.9,502.8,236.4,503.6,235.8,504.1z M233.3,495.3c-0.9,0.1-1.5,0.7-1.5,1.5c0,0.9,0.7,1.3,1.2,1.5
					l0.2,0.1L233.3,495.3z M234.4,500.4l-0.4-0.2l0,3.5c0.7,0,1.5-0.7,1.5-1.6C235.6,501.1,235.1,500.7,234.4,500.4z"/>
			</g>
			<line class="st19" x1="230.5" y1="509.4" x2="243.2" y2="509.4"/>
			<line class="st19" x1="230.5" y1="513.6" x2="240.6" y2="513.6"/>
		</g>
		<g>
			<rect x="258.3" y="490.8" class="st18" width="21.1" height="30.3"/>
			<g>
				<path class="st3" d="M268.7,504.1c-0.5,0.4-1.2,0.7-1.8,0.7l0,1.1H266v-1.1c-1.3,0-2.5-0.7-3.1-1.9l0.9-0.8
					c0.4,0.9,1.4,1.5,2.3,1.5l0-3.7l-0.6-0.3c-0.5-0.2-0.9-0.4-1.2-0.7c-0.4-0.3-1-1-1-2.1c0-0.8,0.4-1.5,0.9-2
					c0.5-0.4,1.2-0.7,1.9-0.8l0-1h0.8v1c0.9,0.1,1.9,0.5,2.5,1.4l-0.7,0.9c-0.4-0.7-1.1-1.1-1.8-1.2l0,3.5l0.9,0.4
					c1,0.5,1.9,1.2,1.9,2.7C269.8,502.8,269.3,503.6,268.7,504.1z M266.2,495.3c-0.9,0.1-1.5,0.7-1.5,1.5c0,0.9,0.7,1.3,1.2,1.5
					l0.2,0.1L266.2,495.3z M267.3,500.4l-0.4-0.2l0,3.5c0.7,0,1.5-0.7,1.5-1.6C268.4,501.1,268,500.7,267.3,500.4z"/>
			</g>
			<line class="st19" x1="263.4" y1="509.4" x2="276" y2="509.4"/>
			<line class="st19" x1="263.4" y1="513.6" x2="273.5" y2="513.6"/>
		</g>
		<circle class="st15" cx="225.5" cy="521.2" r="4.2"/>
		<circle class="st15" cx="258.3" cy="521.2" r="5.9"/>
		<g>
			<rect x="226.7" y="400.7" class="st18" width="21.1" height="30.3"/>
			<g>
				<path class="st3" d="M237.1,413.9c-0.5,0.4-1.2,0.7-1.8,0.7l0,1.1h-0.8v-1.1c-1.3,0-2.5-0.7-3.1-1.9l0.9-0.8
					c0.4,0.9,1.4,1.5,2.3,1.5l0-3.7l-0.6-0.3c-0.5-0.2-0.9-0.4-1.2-0.7c-0.4-0.3-1-1-1-2.1c0-0.8,0.4-1.5,0.9-2
					c0.5-0.4,1.2-0.7,1.9-0.8l0-1h0.8v1c0.9,0.1,1.9,0.5,2.5,1.4l-0.7,0.9c-0.4-0.7-1.1-1.1-1.8-1.2l0,3.5l0.9,0.4
					c1,0.5,1.9,1.2,1.9,2.7C238.2,412.7,237.7,413.4,237.1,413.9z M234.6,405.1c-0.9,0.1-1.5,0.7-1.5,1.5c0,0.9,0.7,1.3,1.2,1.5
					l0.2,0.1L234.6,405.1z M235.7,410.2l-0.4-0.2l0,3.5c0.7,0,1.5-0.7,1.5-1.6C236.8,411,236.4,410.6,235.7,410.2z"/>
			</g>
			<line class="st19" x1="231.8" y1="419.2" x2="244.4" y2="419.2"/>
			<line class="st19" x1="231.8" y1="423.4" x2="241.9" y2="423.4"/>
		</g>
		<circle class="st15" cx="226.7" cy="431" r="5.9"/>
		<circle class="st15" cx="226.7" cy="474.8" r="4.2"/>
		<circle class="st15" cx="258.7" cy="474.8" r="5.9"/>
	</g>
	<rect x="218.1" y="361.9" class="st6" width="69.6" height="33.5"/>
	<g>
		<path d="M230.9,373.3h-2.1l-0.6-1.6h-2.9l-0.6,1.6h-2l3.1-8.2h2L230.9,373.3z M227.8,370.2l-1-2.9l-1,2.9H227.8z"/>
		<path d="M233.4,373.3h-1.9v-8.1h1.9V373.3z"/>
		<path d="M238.1,369h-1.3v2.1c0,0.5,0.1,0.6,0.2,0.7c0.1,0.1,0.2,0.1,0.4,0.1c0.3,0,0.6-0.1,0.6-0.1l0.1,1.5
			c-0.1,0-0.7,0.2-1.3,0.2c-0.7,0-1.1-0.2-1.4-0.5c-0.3-0.3-0.4-0.8-0.4-1.7V369h-0.8v-1.4h0.8v-1.6h1.9v1.6h1.3V369z"/>
		<path d="M244.5,370.9h-4.1c0.1,0.8,0.7,1.2,1.5,1.2c0.8,0,1.4-0.3,1.7-0.6l0.7,1c-0.2,0.1-1,0.9-2.8,0.9c-1.8,0-3.1-1.1-3.1-3
			s1.4-3,3.1-3c1.7,0,2.9,1.1,2.9,2.8C244.5,370.5,244.5,370.9,244.5,370.9z M242.7,369.8c0-0.5-0.4-1.2-1.2-1.2
			c-0.8,0-1.2,0.6-1.2,1.2H242.7z"/>
		<path d="M249.2,369.2L249.2,369.2c-0.2-0.1-0.4-0.1-0.8-0.1c-0.4,0-0.7,0.2-0.9,0.4s-0.3,0.6-0.3,1.2v2.6h-1.9v-5.8h1.9l0,0.8h0
			c0.3-0.6,0.8-0.9,1.4-0.9c0.4,0,0.6,0.1,0.6,0.1L249.2,369.2z"/>
		<path d="M255.6,373.3h-1.9v-3c0-0.8-0.1-1.3-0.9-1.3c-0.8,0-1,0.7-1,1.5v2.9h-1.9v-5.8h1.9l0,0.8h0c0.3-0.5,0.8-0.9,1.7-0.9
			c1.7,0,2.1,1.1,2.1,2.5V373.3z"/>
		<path d="M262.1,373.3h-1.8l0-0.6c-0.2,0.2-0.7,0.7-1.7,0.7c-1,0-2.1-0.6-2.1-1.9c0-1.3,1.2-1.7,2.3-1.8l1.5-0.1v-0.1
			c0-0.6-0.4-0.9-1.2-0.9c-0.7,0-1.5,0.3-1.8,0.5l-0.5-1.2c0.5-0.2,1.4-0.6,2.5-0.6s1.7,0.2,2.2,0.7c0.4,0.4,0.7,1,0.7,2V373.3z
			 M260.2,370.8l-0.9,0.1c-0.6,0-0.9,0.3-0.9,0.7c0,0.4,0.4,0.7,0.9,0.7c0.5,0,0.8-0.3,1-0.5V370.8z"/>
		<path d="M266.7,369h-1.3v2.1c0,0.5,0.1,0.6,0.2,0.7c0.1,0.1,0.2,0.1,0.4,0.1c0.3,0,0.6-0.1,0.6-0.1l0.1,1.5
			c-0.1,0-0.7,0.2-1.3,0.2c-0.7,0-1.1-0.2-1.4-0.5c-0.3-0.3-0.4-0.8-0.4-1.7V369h-0.8v-1.4h0.8v-1.6h1.9v1.6h1.3V369z"/>
		<path d="M268.4,366.8c-0.6,0-1.1-0.4-1.1-1c0-0.6,0.4-1,1.1-1c0.6,0,1.1,0.4,1.1,1C269.5,366.5,269.1,366.8,268.4,366.8z
			 M269.4,373.3h-1.9v-5.8h1.9V373.3z"/>
		<path d="M276.5,367.5l-2.4,5.8h-1.8l-2.4-5.8h2l1.3,3.7l1.3-3.7H276.5z"/>
		<path d="M282.7,370.9h-4.1c0.1,0.8,0.7,1.2,1.5,1.2c0.8,0,1.4-0.3,1.7-0.6l0.7,1c-0.2,0.1-1,0.9-2.8,0.9c-1.8,0-3.1-1.1-3.1-3
			s1.4-3,3.1-3c1.7,0,2.9,1.1,2.9,2.8C282.7,370.5,282.7,370.9,282.7,370.9z M280.9,369.8c0-0.5-0.4-1.2-1.2-1.2
			c-0.8,0-1.2,0.6-1.2,1.2H280.9z"/>
		<path d="M234.7,387.5H230v-8.1h1.9v6.6h2.8V387.5z"/>
		<path d="M241,385h-4.1c0.1,0.8,0.7,1.2,1.5,1.2c0.8,0,1.4-0.3,1.7-0.6l0.7,1c-0.2,0.1-1,0.9-2.8,0.9c-1.8,0-3.1-1.1-3.1-3
			s1.4-3,3.1-3c1.7,0,2.9,1.1,2.9,2.8C241,384.7,241,385,241,385z M239.3,384c0-0.5-0.4-1.2-1.2-1.2c-0.8,0-1.2,0.6-1.2,1.2H239.3z"
			/>
		<path d="M247.6,387.5h-1.9v-3c0-0.8-0.1-1.3-0.9-1.3c-0.8,0-1,0.7-1,1.5v2.9h-1.9v-5.8h1.9l0,0.8h0c0.3-0.5,0.8-0.9,1.7-0.9
			c1.7,0,2.1,1.1,2.1,2.5V387.5z"/>
		<path d="M255,387.5h-1.8l0-0.8l0,0c-0.4,0.6-1.1,0.9-1.9,0.9c-1.7,0-2.7-1.3-2.7-3c0-1.7,1.1-3,2.7-3c1.1,0,1.7,0.5,1.8,0.8v-3
			h1.9V387.5z M251.8,383c-0.8,0-1.4,0.6-1.4,1.5s0.6,1.5,1.4,1.5c0.8,0,1.4-0.6,1.4-1.5S252.6,383,251.8,383z"/>
		<path d="M262,385h-4.1c0.1,0.8,0.7,1.2,1.5,1.2c0.8,0,1.4-0.3,1.7-0.6l0.7,1c-0.2,0.1-1,0.9-2.8,0.9c-1.8,0-3.1-1.1-3.1-3
			s1.4-3,3.1-3c1.7,0,2.9,1.1,2.9,2.8C262,384.7,262,385,262,385z M260.2,384c0-0.5-0.4-1.2-1.2-1.2c-0.8,0-1.2,0.6-1.2,1.2H260.2z"
			/>
		<path d="M266.7,383.4L266.7,383.4c-0.2-0.1-0.4-0.1-0.8-0.1c-0.4,0-0.7,0.2-0.9,0.4s-0.3,0.6-0.3,1.2v2.6h-1.9v-5.8h1.9l0,0.8h0
			c0.3-0.6,0.8-0.9,1.4-0.9c0.4,0,0.6,0.1,0.6,0.1L266.7,383.4z"/>
		<path d="M272.7,387.6c-1.7,0-2.7-0.9-3-1.4l0.9-1.1c0.3,0.4,1.2,1,2,1c0.8,0,1.4-0.4,1.4-1.1c0-0.7-0.6-1.1-1.3-1.1H272v-1.3h0.7
			c0.6,0,1.1-0.3,1.1-1s-0.5-1-1.2-1s-1.3,0.3-1.9,0.8l-0.7-1.2c0.6-0.5,1.3-1,2.8-1c1.5,0,2.8,0.8,2.8,2.2c0,1.1-0.6,1.6-1.2,1.8v0
			c0.7,0.2,1.4,0.8,1.4,1.9C275.8,386.7,274.3,387.6,272.7,387.6z"/>
	</g>
</g>
<g>
	<path class="st8" d="M70.5,120h-1.9l-0.3-5.5h0l-1.7,5.5h-1.5l-1.8-5.5h0L63,120h-1.9l0.6-8.1h2.4l1.7,5.4h0l1.7-5.4h2.4L70.5,120z
		"/>
	<path class="st8" d="M76.8,120H75l0-0.6c-0.2,0.2-0.7,0.7-1.7,0.7c-1,0-2.1-0.6-2.1-1.9c0-1.3,1.2-1.7,2.3-1.8l1.5-0.1v-0.1
		c0-0.6-0.4-0.9-1.2-0.9c-0.7,0-1.5,0.3-1.8,0.5l-0.5-1.2c0.5-0.2,1.4-0.6,2.5-0.6c1.1,0,1.7,0.2,2.2,0.7c0.4,0.4,0.7,1,0.7,2V120z
		 M74.9,117.4l-0.9,0.1c-0.6,0-0.9,0.3-0.9,0.7c0,0.4,0.4,0.7,0.9,0.7c0.5,0,0.8-0.3,1-0.5V117.4z"/>
	<path class="st8" d="M81.8,115.9L81.8,115.9c-0.2-0.1-0.4-0.1-0.8-0.1c-0.4,0-0.7,0.2-0.9,0.4s-0.3,0.6-0.3,1.2v2.6H78v-5.8h1.9
		l0,0.8h0c0.3-0.6,0.8-0.9,1.4-0.9c0.4,0,0.6,0.1,0.6,0.1L81.8,115.9z"/>
	<path class="st8" d="M88.6,120h-2.2l-1.4-2.3l-0.5,0.5v1.8h-1.9v-8.1h1.9v4.2l1.8-1.9h2.2l-2.1,2.2L88.6,120z"/>
	<path class="st8" d="M94.4,117.5h-4.1c0.1,0.8,0.7,1.2,1.5,1.2c0.8,0,1.4-0.3,1.7-0.6l0.7,1c-0.2,0.1-1,0.9-2.8,0.9
		c-1.8,0-3.1-1.1-3.1-3s1.4-3,3.1-3c1.7,0,2.9,1.1,2.9,2.8C94.5,117.2,94.4,117.5,94.4,117.5z M92.7,116.4c0-0.5-0.4-1.2-1.2-1.2
		c-0.8,0-1.2,0.6-1.2,1.2H92.7z"/>
	<path class="st8" d="M98.8,115.6h-1.3v2.1c0,0.5,0.1,0.6,0.2,0.7c0.1,0.1,0.2,0.1,0.4,0.1c0.3,0,0.6-0.1,0.6-0.1l0.1,1.5
		c-0.1,0-0.7,0.2-1.3,0.2c-0.7,0-1.1-0.2-1.4-0.5c-0.3-0.3-0.4-0.8-0.4-1.7v-2.3h-0.8v-1.4h0.8v-1.6h1.9v1.6h1.3V115.6z"/>
	<path class="st8" d="M103.3,120.1c-0.9,0-1.5-0.3-1.8-0.9v2.9h-1.9v-8h1.8l0,0.7h0c0.4-0.5,1-0.8,1.9-0.8c1.7,0,2.7,1.3,2.7,3
		C106,118.8,105,120.1,103.3,120.1z M102.8,115.5c-0.8,0-1.4,0.6-1.4,1.5s0.6,1.5,1.4,1.5c0.8,0,1.4-0.6,1.4-1.5
		S103.6,115.5,102.8,115.5z"/>
	<path class="st8" d="M108.9,120H107v-8.1h1.9V120z"/>
	<path class="st8" d="M115.4,120h-1.8l0-0.6c-0.2,0.2-0.7,0.7-1.7,0.7c-1,0-2.1-0.6-2.1-1.9c0-1.3,1.2-1.7,2.3-1.8l1.5-0.1v-0.1
		c0-0.6-0.4-0.9-1.2-0.9c-0.7,0-1.5,0.3-1.8,0.5l-0.5-1.2c0.5-0.2,1.4-0.6,2.5-0.6s1.7,0.2,2.2,0.7c0.4,0.4,0.7,1,0.7,2V120z
		 M113.5,117.4l-0.9,0.1c-0.6,0-0.9,0.3-0.9,0.7c0,0.4,0.4,0.7,0.9,0.7c0.5,0,0.8-0.3,1-0.5V117.4z"/>
	<path class="st8" d="M121.5,119.4c-0.1,0-0.7,0.7-2.2,0.7c-1.6,0-3.1-1.1-3.1-3c0-1.9,1.5-3,3.1-3c1.5,0,2.2,0.6,2.2,0.6l-0.4,1.4
		c-0.2-0.1-0.7-0.5-1.5-0.5c-0.8,0-1.4,0.6-1.4,1.5s0.6,1.5,1.5,1.5s1.5-0.6,1.5-0.6L121.5,119.4z"/>
	<path class="st8" d="M127.9,117.5h-4.1c0.1,0.8,0.7,1.2,1.5,1.2c0.8,0,1.4-0.3,1.7-0.6l0.7,1c-0.2,0.1-1,0.9-2.8,0.9
		c-1.8,0-3.1-1.1-3.1-3s1.4-3,3.1-3c1.7,0,2.9,1.1,2.9,2.8C127.9,117.2,127.9,117.5,127.9,117.5z M126.2,116.4
		c0-0.5-0.4-1.2-1.2-1.2c-0.8,0-1.2,0.6-1.2,1.2H126.2z"/>
</g>
<g>
	<rect x="70.1" y="127.9" class="st0" width="48.6" height="43"/>
	<path class="st8" d="M119.3,170.1v-24h-2.1v24H87.2v-18.4H75.9v18.4h-4.8v-24h-2.1v24h-3.6v2.1h10.4h11.3h35.7v-2.1H119.3z
		 M85.1,153.8v7.1H78v-7.1H85.1z M78,170.1V163h7.1v7.1H78z"/>
	<path class="st8" d="M67.9,133v10.3c0,2.9,2.4,5.2,5.2,5.2c1.7,0,3.3-0.8,4.2-2.1c1,1.3,2.5,2.1,4.2,2.1c1.7,0,3.3-0.8,4.2-2.1
		c1,1.3,2.5,2.1,4.2,2.1c1.7,0,3.3-0.8,4.2-2.1c1,1.3,2.5,2.1,4.2,2.1c1.7,0,3.3-0.8,4.2-2.1c1,1.3,2.5,2.1,4.2,2.1s3.3-0.8,4.2-2.1
		c1,1.3,2.5,2.1,4.2,2.1c2.9,0,5.2-2.4,5.2-5.2V133c0.5-0.2,0.9-0.4,1.3-0.8c0.6-0.6,1-1.5,1-2.4s-0.3-1.7-1-2.4
		c-0.6-0.6-1.5-1-2.3-1h-11.6H80.5H68.9c-0.9,0-1.7,0.3-2.4,1c-0.6,0.6-1,1.5-1,2.4c0,0.9,0.3,1.7,1,2.4
		C67,132.6,67.4,132.8,67.9,133z M119.5,128.6c0.3,0,0.7,0.1,0.9,0.4c0.2,0.2,0.4,0.6,0.4,0.9c0,0.3-0.1,0.7-0.4,0.9
		c-0.2,0.2-0.6,0.4-0.9,0.4h-11.6v-2.5H119.5z M107.9,133.2h10.6v10.1c0,1.8-1.4,3.2-3.2,3.2c-1.8,0-3.2-1.4-3.2-3.2H110
		c0,1.8-1.4,3.2-3.2,3.2c-1.7,0-3.2-1.4-3.2-3.2h-2.1c0,1.8-1.4,3.2-3.2,3.2s-3.2-1.4-3.2-3.2h-2.1c0,1.8-1.4,3.2-3.2,3.2
		c-1.8,0-3.2-1.4-3.2-3.2h-2.1c0,1.8-1.4,3.2-3.2,3.2c-1.8,0-3.2-1.4-3.2-3.2h-2.1c0,1.8-1.4,3.2-3.2,3.2c-1.8,0-3.2-1.4-3.2-3.2
		v-10.1h10.6h1h25.3H107.9z M82.6,128.5h23.2v2.6H82.6V128.5z M68,129c0.2-0.2,0.6-0.4,0.9-0.4h11.6v2.5H68.9
		c-0.3,0-0.7-0.1-0.9-0.4c-0.2-0.2-0.4-0.6-0.4-0.9C67.7,129.5,67.8,129.2,68,129z"/>
	<circle class="st0" cx="118.7" cy="170.8" r="7"/>
	<circle class="st20" cx="118.7" cy="170.8" r="6.9"/>
	<line class="st21" x1="123.9" y1="176.4" x2="127.7" y2="180.2"/>
	<path class="st8" d="M110.4,160.9h-7.1v-7.1h7.1V160.9z M94.1,153.8h7.1v7.1h-7.1V153.8z M92,163h20.4v-11.2H92V163z"/>
</g>
<g>
	<path class="st3" d="M122.9,9.3h-2.2V0h2.2V9.3z"/>
	<path class="st3" d="M131,9.3h-2.2V5.8c0-0.9-0.1-1.5-1-1.5c-0.9,0-1.2,0.8-1.2,1.7v3.3h-2.2V2.7h2.2l0,1h0c0.4-0.6,1-1.1,1.9-1.1
		c1.9,0,2.4,1.2,2.4,2.8V9.3z"/>
	<path class="st3" d="M138.8,2.7l-2.7,6.6h-2l-2.7-6.6h2.2l1.5,4.2l1.5-4.2H138.8z"/>
	<path class="st3" d="M145.9,6.5h-4.7c0.1,1,0.8,1.4,1.7,1.4c0.9,0,1.6-0.4,2-0.6l0.8,1.1c-0.2,0.2-1.1,1.1-3.2,1.1
		c-2,0-3.5-1.3-3.5-3.5s1.6-3.4,3.6-3.4s3.3,1.3,3.3,3.2C145.9,6.1,145.9,6.5,145.9,6.5z M143.9,5.3c0-0.6-0.5-1.3-1.4-1.3
		c-0.9,0-1.3,0.7-1.4,1.3H143.9z"/>
	<path class="st3" d="M151.2,8.9c-0.5,0.4-1.1,0.6-2,0.6c-1,0-2-0.3-2.8-1l0.8-1.3c0.5,0.5,1.4,0.8,2,0.8s0.9-0.1,0.9-0.6
		c0-0.4-1-0.6-1.2-0.7c-0.3-0.1-0.6-0.2-0.9-0.3c-0.3-0.1-1.1-0.6-1.1-1.7c0-1.3,1.1-2.1,2.5-2.1c1.4,0,2.2,0.5,2.5,0.8l-0.7,1.3
		C150.7,4.3,150,4,149.4,4c-0.5,0-0.8,0.1-0.8,0.5s0.5,0.5,1,0.6s0.7,0.2,0.9,0.3c0.3,0.1,0.6,0.3,0.9,0.5c0.2,0.2,0.5,0.6,0.5,1.3
		C151.9,7.9,151.7,8.5,151.2,8.9z"/>
	<path class="st3" d="M156.9,4.3h-1.5v2.4c0,0.6,0.1,0.7,0.2,0.8c0.1,0.1,0.2,0.2,0.5,0.2c0.3,0,0.6-0.1,0.6-0.1l0.1,1.7
		c-0.2,0-0.8,0.2-1.5,0.2c-0.8,0-1.3-0.2-1.6-0.6s-0.5-0.9-0.5-2V4.3h-0.9V2.7h0.9V0.9h2.2v1.8h1.5V4.3z"/>
	<path class="st3" d="M161,9.4c-2.1,0-3.7-1.3-3.7-3.4c0-2.1,1.6-3.5,3.7-3.5c2.1,0,3.7,1.3,3.7,3.5C164.6,8.1,163.1,9.4,161,9.4z
		 M161,4.2c-1,0-1.5,0.7-1.5,1.7c0,1,0.6,1.7,1.5,1.7c0.9,0,1.5-0.7,1.5-1.7C162.5,5,161.9,4.2,161,4.2z"/>
	<path class="st3" d="M170.1,4.6L170.1,4.6c-0.2-0.1-0.5-0.2-0.9-0.2c-0.5,0-0.8,0.3-1,0.5c-0.2,0.2-0.3,0.6-0.3,1.4v3h-2.2V2.7h2.2
		l0,0.9h0c0.4-0.7,0.9-1.1,1.6-1.1c0.4,0,0.7,0.1,0.7,0.1L170.1,4.6z"/>
	<path class="st3" d="M175,8.9c-0.5,0.4-1.1,0.6-2,0.6c-1,0-2-0.3-2.8-1l0.8-1.3c0.5,0.5,1.4,0.8,2,0.8s0.9-0.1,0.9-0.6
		c0-0.4-1-0.6-1.2-0.7c-0.3-0.1-0.6-0.2-0.9-0.3c-0.3-0.1-1.1-0.6-1.1-1.7c0-1.3,1.1-2.1,2.5-2.1c1.4,0,2.2,0.5,2.5,0.8l-0.7,1.3
		c-0.4-0.3-1.1-0.6-1.7-0.6c-0.5,0-0.8,0.1-0.8,0.5s0.5,0.5,1,0.6s0.7,0.2,0.9,0.3c0.3,0.1,0.6,0.3,0.9,0.5c0.2,0.2,0.5,0.6,0.5,1.3
		C175.8,7.9,175.5,8.5,175,8.9z"/>
</g>
<g>
	<g>
		<path class="st3" d="M130.7,20.7c2.3,0,4.1,1.8,4.1,4.1c0,2.3-1.8,4.1-4.1,4.1c-2.3,0-4.1-1.8-4.1-4.1
			C126.5,22.6,128.4,20.7,130.7,20.7z"/>
		<path class="st3" d="M140,35.2v12.6c0,2.5-3.2,2.5-3.2,0V35.5h-1l0,33.4c0,1.3-1,2.3-2.3,2.3c-1.3,0-2.3-1-2.3-2.3l0-19.4h-1
			l0,19.4c0,1.3-1,2.3-2.3,2.3c-1.3,0-2.3-1-2.3-2.3l0-33.4h-1v12.3c0,2.5-3.2,2.5-3.2,0V35.2c0-3,1.8-5.4,4.7-5.4h4.1v14h1v-14h4.1
			C138.4,29.8,140,32.5,140,35.2z"/>
		<rect x="121.2" y="50.2" class="st3" width="3.3" height="9.8"/>
	</g>
	<g>
		<rect x="151.6" y="48.3" class="st3" width="3.3" height="9.8"/>
		<g>
			<path class="st3" d="M166.6,29.8c2.9,0,4,2.4,4.5,3.7l3.5,11.6c0.7,2.5-2.5,3.5-3.2,1.1l-3.2-10.7h-0.9l3.8,19h-3.4v14.8
				c0,2.5-3.8,2.5-3.8,0V54.5h-1.5l0,14.9c0,2.5-3.8,2.5-3.8,0l0-14.8h-3.4l3.8-19h-0.9l-3.2,10.7c-0.8,2.3-4,1.4-3.2-1.1l3.5-11.6
				c0.4-1.3,1.5-3.7,4.4-3.7H166.6z"/>
			<circle class="st3" cx="163.2" cy="24.8" r="4.1"/>
		</g>
		<polygon class="st6" points="161.5,29.5 163.2,31.9 164.8,29.5 		"/>
	</g>
</g>
<path class="st22" d="M114.5,42h-6.5c-7.4,0-13.5,6-13.5,13.5v52.3"/>
<g>
	<g>
		<path class="st22" d="M94.4,172.2v11.6c0,7.4,6,13.5,13.5,13.5h128c7.4,0,13.5,6,13.5,13.5v6.2"/>
		<g>
			<polygon class="st8" points="242.5,211.4 243.7,210.2 249.4,216.3 255,210.2 256.3,211.4 249.4,218.8 			"/>
		</g>
	</g>
</g>
<g>
	<g>
		<path class="st3" d="M193.3,113.3h-3.2v2h3v1.5h-3v3.1h-1.9v-8.1h5.1V113.3z"/>
		<path class="st3" d="M199.8,120H198l0-0.7c-0.2,0.4-0.9,0.8-1.7,0.8c-0.8,0-1.4-0.3-1.7-0.7c-0.3-0.4-0.4-0.9-0.4-1.7v-3.5h1.9
			v3.3c0,0.7,0.2,1.1,0.9,1.1c0.7,0,1-0.5,1-1.3v-3.1h1.9V120z"/>
		<path class="st3" d="M206.8,120h-1.9v-3c0-0.8-0.1-1.3-0.9-1.3c-0.8,0-1,0.7-1,1.5v2.9H201v-5.8h1.9l0,0.8h0
			c0.3-0.5,0.8-0.9,1.7-0.9c1.7,0,2.1,1.1,2.1,2.5V120z"/>
		<path class="st3" d="M214.1,120h-1.8l0-0.8l0,0c-0.4,0.6-1.1,0.9-1.9,0.9c-1.7,0-2.7-1.3-2.7-3c0-1.7,1.1-3,2.7-3
			c1.1,0,1.7,0.5,1.8,0.8v-3h1.9V120z M210.9,115.5c-0.8,0-1.4,0.6-1.4,1.5s0.6,1.5,1.4,1.5c0.8,0,1.4-0.6,1.4-1.5
			S211.7,115.5,210.9,115.5z"/>
	</g>
</g>
<g>
	<path class="st0" d="M185.1,135.7V164c0,0,6.8,10.8,25.7,4.6l3.7,1.9h5.6l7.9-2.5l4.6-6.2l1.3-3.8v-4.6l-2.4-6.4l-3.7-3.8
		c0,0-4.8-2.7-5.1-2.6s-5.6-0.8-5.6-0.8v-4.1c0,0-1.7-8.1-15.5-8.1C201.3,127.6,185.1,127.1,185.1,135.7z"/>
	<g transform="translate(0,-952.36218)">
		<g>
			<path class="st3" d="M200.9,1078.9c-4.6,0-8.7,0.9-11.8,2.4c-3.1,1.5-5.3,3.9-5.3,6.7c0,9.1,0,18.3,0,27.4c0,2.8,2.2,5.1,5.3,6.7
				c3.1,1.6,7.2,2.5,11.8,2.5c3.8,0,7.4-0.7,10.2-1.8c2.2,1.1,4.8,1.8,7.5,1.8c9.1,0,16.6-7.4,16.6-16.6s-7.4-16.6-16.6-16.6
				c-0.2,0-0.4,0-0.6,0c0-1.1,0-2.3,0-3.4c0-2.9-2.2-5.2-5.3-6.7C209.6,1079.7,205.5,1078.9,200.9,1078.9z M200.9,1081.2
				c4.3,0,8.1,0.9,10.8,2.2c2.7,1.3,4,3.1,4,4.6c-0.5,2.4-2.3,3.8-4,4.6c-2.7,1.3-6.5,2.2-10.8,2.2s-8.1-0.9-10.8-2.2
				c-2-1-3.8-2.6-4-4.6c0-1.6,1.4-3.3,4-4.6C192.8,1082,196.7,1081.2,200.9,1081.2z M186.1,1092.6c0.8,0.8,1.9,1.5,3.1,2.1
				c3.1,1.5,7.2,2.4,11.8,2.4c2,0,3.9-0.2,5.6-0.5c-1.3,1.4-2.4,3.1-3.2,4.9c-0.8,0.1-1.6,0.1-2.4,0.1c-4.3,0-8.1-0.9-10.8-2.2
				c-2.7-1.3-4-3-4-4.6V1092.6z M218.6,1093.7c7.9,0,14.3,6.4,14.3,14.3c0,7.9-6.4,14.3-14.3,14.3s-14.3-6.4-14.3-14.3
				C204.3,1100.1,210.7,1093.7,218.6,1093.7z M186.1,1099.5c0.8,0.8,1.9,1.5,3,2c3.1,1.6,7.2,2.5,11.8,2.5c0.6,0,1.1,0,1.6-0.1
				c-0.3,1.3-0.5,2.7-0.5,4c0,0.2,0,0.4,0,0.6c-0.4,0-0.8,0-1.2,0c-4.3,0-8.1-0.9-10.8-2.2c-2.7-1.3-4-3-4-4.6V1099.5z
				 M186.1,1106.3c0.8,0.8,1.9,1.5,3,2c3.1,1.6,7.2,2.5,11.8,2.5c0.5,0,0.9,0,1.4,0c0.3,1.6,0.8,3.1,1.4,4.5
				c-0.9,0.1-1.9,0.1-2.8,0.1c-4.3,0-8.1-0.9-10.8-2.2c-2.7-1.3-4-3-4-4.6V1106.3z M186.1,1113.2c0.8,0.8,1.9,1.5,3,2
				c3.1,1.6,7.2,2.5,11.8,2.5c1.4,0,2.8-0.1,4.1-0.2c1,1.4,2.2,2.7,3.6,3.7c-2.3,0.7-4.9,1.1-7.7,1.1c-4.3,0-8.1-0.9-10.8-2.2
				s-4-3-4-4.6V1113.2z"/>
		</g>
	</g>
	<g>
		<path class="st3" d="M222.7,160.5c-0.7,0.5-1.8,0.9-2.5,1l0,1.1h-1.4l0-1c-1.5-0.1-3.1-0.8-4-2l1.4-1.9c0.6,0.9,2,1.6,2.8,1.6
			l0.1-3.3l-0.7-0.3c-0.7-0.3-1.3-0.6-1.8-1c-0.4-0.3-1.4-1.2-1.4-2.8c0-1.3,0.6-2.2,1.3-2.8c0.7-0.6,1.7-0.9,2.7-1l0-1.1h1.4l0,1.1
			c1.2,0.1,2.5,0.6,3.3,1.6l-1.2,1.9c-0.7-0.7-1.6-1.2-2.3-1.3l-0.1,3.1l1.2,0.5c1.6,0.7,2.6,1.8,2.6,3.5
			C224.2,158.9,223.5,159.9,222.7,160.5z M219.2,150.3c-0.7,0.1-1.3,0.5-1.3,1.3c0,0.7,0.5,1.1,1,1.3l0.2,0.1L219.2,150.3z
			 M220.6,156.5l-0.3-0.2l-0.1,2.9c0.6-0.1,1.3-0.6,1.3-1.3C221.5,157.1,221.2,156.8,220.6,156.5z"/>
	</g>
</g>
</svg>
