<svg class="nc-icon outline" xmlns="http://www.w3.org/2000/svg" xmlns:xlink="http://www.w3.org/1999/xlink" x="0px" y="0px" width="64px" height="64px" viewBox="0 0 64 64"><g transform="translate(0, 0)">
<line fill="none" stroke="#35c187" stroke-width="2" stroke-linecap="square" stroke-miterlimit="10" x1="2" y1="15" x2="62" y2="15" stroke-linejoin="miter"></line>
<line fill="none" stroke="#35c187" stroke-width="2" stroke-linecap="square" stroke-miterlimit="10" x1="2" y1="25" x2="62" y2="25" stroke-linejoin="miter"></line>
<path fill="none" stroke="#35c187" stroke-width="2" stroke-linecap="square" stroke-miterlimit="10" d="M28,47H6
	c-2.209,0-4-1.791-4-4V7c0-2.209,1.791-4,4-4h52c2.209,0,4,1.791,4,4v36" stroke-linejoin="miter"></path>
<line fill="none" stroke="#35c187" stroke-width="2" stroke-linecap="square" stroke-miterlimit="10" x1="10" y1="37" x2="24" y2="37" stroke-linejoin="miter"></line>
<rect data-color="color-2" x="35" y="43" fill="none" stroke="#262b3a" stroke-width="2" stroke-linecap="square" stroke-miterlimit="10" width="20" height="18" stroke-linejoin="miter"></rect>
<line data-color="color-2" fill="none" stroke="#262b3a" stroke-width="2" stroke-linecap="square" stroke-miterlimit="10" x1="45" y1="50" x2="45" y2="53" stroke-linejoin="miter"></line>
<path data-color="color-2" fill="none" stroke="#262b3a" stroke-width="2" stroke-linecap="square" stroke-miterlimit="10" d="M39,43v-5
	c0-3.4,2.6-6,6-6l0,0c3.4,0,6,2.6,6,6v5" stroke-linejoin="miter"></path>
</g></svg>