<?xml version="1.0" encoding="utf-8"?>
<!-- Generator: Adobe Illustrator 21.1.0, SVG Export Plug-In . SVG Version: 6.00 Build 0)  -->
<svg version="1.1" id="Layer_1" xmlns="http://www.w3.org/2000/svg" xmlns:xlink="http://www.w3.org/1999/xlink" x="0px" y="0px"
	 viewBox="0 0 64 64" enable-background="new 0 0 64 64" xml:space="preserve">
<g transform="translate(0, 0)">
	<path fill="none" stroke="#35C187" stroke-width="2" stroke-linecap="round" stroke-linejoin="round" stroke-miterlimit="10" d="
		M17.097,57.308c1.64-1.212,2.899-4.295,2.899-4.295s1.417-0.984,1.86-2.24s0.025-2.962,0.025-2.962s1.256-3.686,0.665-4.72
		s-3.102-1.699-3.102-1.699s-1.034-1.92-3.176-2.29C14.864,38.955,13.46,37.994,13.46,36s1.994-5.244,1.994-5.244
		s2.068-1.012,2.364-1.75s0.396-2.46,0.396-2.46s1.967-3.472,0.859-5.466c-0.353-0.636-1.994-1.108-1.994-1.108l-2.301-3.451"/>
	<path fill="none" stroke="#35C187" stroke-width="2" stroke-linecap="round" stroke-linejoin="round" stroke-miterlimit="10" d="
		M52.519,51.97c-2.509-1.203-6.898-2.207-6.898-2.207s-3.207-3.57-5.312-3.274s-4.247,2.659-4.247,2.659s0.148,4.358-0.517,4.58
		c-0.665,0.222-2.438-0.96-3.545-0.074c-1.108,0.886-0.469,3.385-0.469,3.385s-2.412,0.752-2.707,1.564s0.878,2.622,1.101,3.316"/>
	<path fill="none" stroke="#35C187" stroke-width="2" stroke-linecap="round" stroke-linejoin="round" stroke-miterlimit="10" d="
		M32.561,10.014C32.373,10.01,32.189,10,32,10C17.641,10,6,21.641,6,36s11.641,26,26,26s26-11.641,26-26
		c0-2.791-0.44-5.479-1.254-7.999"/>
	<path fill="none" stroke="#262B3A" stroke-width="2" stroke-linecap="round" stroke-linejoin="round" stroke-miterlimit="10" d="
		M56,13.688C56,20.902,44,32,44,32S32,20.902,32,13.688C32,6.292,38.201,2,44,2S56,6.292,56,13.688z"/>
	
		<circle fill="none" stroke="#262B3A" stroke-width="2" stroke-linecap="round" stroke-linejoin="round" stroke-miterlimit="10" cx="44" cy="14" r="4"/>
</g>
</svg>
