<?xml version="1.0" encoding="utf-8"?>
<!-- Generator: Adobe Illustrator 21.1.0, SVG Export Plug-In . SVG Version: 6.00 Build 0)  -->
<svg version="1.1" id="Layer_1" xmlns="http://www.w3.org/2000/svg" xmlns:xlink="http://www.w3.org/1999/xlink" x="0px" y="0px"
	 viewBox="0 0 64 64" style="enable-background:new 0 0 64 64;" xml:space="preserve">
<style type="text/css">
	.st0{fill:none;stroke:#35C187;stroke-width:2;stroke-linecap:round;stroke-linejoin:round;stroke-miterlimit:10;}
	.st1{fill:none;stroke:#262B3A;stroke-width:2;stroke-linecap:round;stroke-linejoin:round;stroke-miterlimit:10;}
</style>
<line class="st0" x1="6" y1="60" x2="14" y2="52"/>
<line class="st0" x1="58" y1="60" x2="50" y2="52"/>
<circle class="st0" cx="32" cy="36" r="24"/>
<path class="st1" d="M24.8,5.6C22.3,3.4,19.2,2,15.6,2C8.1,2,2,8.1,2,15.6c0,2.1,0.5,4.1,1.4,5.9C7.9,13.6,15.6,7.6,24.8,5.6z"/>
<path class="st1" d="M39.2,5.6C41.7,3.4,44.8,2,48.4,2C55.9,2,62,8.1,62,15.6c0,2.1-0.5,4.1-1.4,5.9C56.1,13.6,48.4,7.6,39.2,5.6z"
	/>
<line class="st1" x1="34.8" y1="33.2" x2="41" y2="27"/>
<line class="st1" x1="20" y1="24" x2="29.2" y2="33.2"/>
<circle class="st1" cx="32" cy="36" r="4"/>
</svg>
