<?xml version="1.0" encoding="utf-8"?>
<!-- Generator: Adobe Illustrator 21.1.0, SVG Export Plug-In . SVG Version: 6.00 Build 0)  -->
<svg version="1.1" id="Layer_1" xmlns="http://www.w3.org/2000/svg" xmlns:xlink="http://www.w3.org/1999/xlink" x="0px" y="0px"
	 viewBox="0 0 418.333 213.684" enable-background="new 0 0 418.333 213.684" xml:space="preserve">
<line fill="none" stroke="#44BA86" stroke-width="5" stroke-linecap="round" stroke-linejoin="round" stroke-miterlimit="10" x1="322.754" y1="10.327" x2="391.965" y2="10.327"/>
<line fill="none" stroke="#44BA86" stroke-width="5" stroke-linecap="round" stroke-linejoin="round" stroke-miterlimit="10" x1="313.136" y1="26.654" x2="364.415" y2="26.654"/>
<line fill="none" stroke="#44BA86" stroke-width="5" stroke-linecap="round" stroke-linejoin="round" stroke-miterlimit="10" x1="402.42" y1="10.327" x2="415.792" y2="10.327"/>
<line fill="none" stroke="#44BA86" stroke-width="5" stroke-linecap="round" stroke-linejoin="round" stroke-miterlimit="10" x1="96.914" y1="10.327" x2="65.114" y2="10.327"/>
<line fill="none" stroke="#44BA86" stroke-width="5" stroke-linecap="round" stroke-linejoin="round" stroke-miterlimit="10" x1="75.49" y1="26.654" x2="6.385" y2="26.654"/>
<line fill="none" stroke="#44BA86" stroke-width="5" stroke-linecap="round" stroke-linejoin="round" stroke-miterlimit="10" x1="57.875" y1="10.327" x2="44.503" y2="10.327"/>
<line fill="none" stroke="#44BA86" stroke-width="5" stroke-linecap="round" stroke-linejoin="round" stroke-miterlimit="10" x1="2.615" y1="211.158" x2="74.782" y2="211.158"/>
<line fill="none" stroke="#44BA86" stroke-width="5" stroke-linecap="round" stroke-linejoin="round" stroke-miterlimit="10" x1="312.754" y1="211.158" x2="384.921" y2="211.158"/>
<line fill="none" stroke="#262B3A" stroke-width="5" stroke-linecap="square" stroke-miterlimit="10" x1="107.424" y1="180.496" x2="107.424" y2="87.077"/>
<line fill="none" stroke="#262B3A" stroke-width="5" stroke-linecap="square" stroke-miterlimit="10" x1="118.557" y1="180.496" x2="118.557" y2="87.077"/>
<line fill="none" stroke="#262B3A" stroke-width="5" stroke-linecap="square" stroke-miterlimit="10" x1="220.212" y1="180.496" x2="220.212" y2="87.077"/>
<line fill="none" stroke="#262B3A" stroke-width="5" stroke-linecap="square" stroke-miterlimit="10" x1="234.048" y1="180.496" x2="234.048" y2="87.077"/>
<line fill="none" stroke="#262B3A" stroke-width="5" stroke-linecap="square" stroke-miterlimit="10" x1="163.818" y1="180.496" x2="163.818" y2="87.077"/>
<line fill="none" stroke="#262B3A" stroke-width="5" stroke-linecap="square" stroke-miterlimit="10" x1="151.009" y1="180.496" x2="151.009" y2="87.077"/>
<line fill="none" stroke="#262B3A" stroke-width="5" stroke-linecap="square" stroke-miterlimit="10" x1="276.606" y1="87.077" x2="276.606" y2="180.496"/>
<line fill="none" stroke="#262B3A" stroke-width="5" stroke-linecap="square" stroke-miterlimit="10" x1="262.682" y1="87.077" x2="262.682" y2="180.496"/>
<polygon fill="none" stroke="#44BA86" stroke-width="5" stroke-linecap="round" stroke-linejoin="round" stroke-miterlimit="10" points="
	192.015,3.205 86.276,59.599 86.276,84.271 297.754,84.271 297.754,59.599 "/>
<circle fill="none" stroke="#44BA86" stroke-width="5" stroke-linecap="square" stroke-miterlimit="10" cx="192.015" cy="49.025" r="14.099"/>
<rect x="86.276" y="182.961" fill="none" stroke="#44BA86" stroke-width="5" stroke-linecap="round" stroke-linejoin="round" stroke-miterlimit="10" width="211.478" height="28.197"/>
<rect opacity="0.75" fill="#FFFFFF" width="418.333" height="213.684"/>
<path fill="#FFFFFF" d="M74.823,213.684v-42.961c-5.249-3.709-9.245-9.8-9.245-18.112v-4.018l12.325-15.407v-22.844h90.699v22.844
	l12.398,15.496l-0.074,4.132c-0.02,1.17-0.24,5.331-2.186,9.779c-1.613,3.687-4.048,6.66-7.056,8.755v42.335H74.823z"/>
<line fill="none" stroke="#262B3A" stroke-width="5" stroke-linecap="square" stroke-miterlimit="10" x1="154.748" y1="137.203" x2="91.76" y2="137.203"/>
<rect x="100.143" y="175.721" fill="none" stroke="#262B3A" stroke-width="5" stroke-linecap="round" stroke-linejoin="round" stroke-miterlimit="10" width="15.407" height="15.407"/>
<polyline fill="none" stroke="#44BA86" stroke-width="5" stroke-linecap="round" stroke-linejoin="round" stroke-miterlimit="10" points="
	86.276,172.64 86.276,211.158 129.417,211.158 129.417,183.425 147.906,183.425 147.906,211.158 160.231,211.158 160.231,172.64 "/>
<path fill="none" stroke="#44BA86" stroke-width="5" stroke-linecap="round" stroke-linejoin="round" stroke-miterlimit="10" d="
	M157.15,137.203v-15.407H89.358v15.407L77.032,152.61c0,5.956,4.829,10.785,10.785,10.785c3.442,0,6.499-1.618,8.474-4.128
	c1.975,2.51,5.032,4.128,8.474,4.128c3.93,0,7.36-2.109,9.244-5.251c1.884,3.142,5.314,5.251,9.244,5.251s7.36-2.109,9.244-5.251
	c1.884,3.142,5.314,5.251,9.244,5.251c3.442,0,6.499-1.618,8.474-4.128c1.975,2.51,5.032,4.128,8.474,4.128
	c5.956,0,10.785-4.829,10.785-10.785L157.15,137.203z"/>
<g>
	<g>
		
			<line fill="none" stroke="#262B3A" stroke-width="5" stroke-linecap="round" stroke-linejoin="round" x1="183.31" y1="104.124" x2="191.795" y2="95.639"/>
		
			<line fill="none" stroke="#262B3A" stroke-width="5" stroke-linecap="round" stroke-linejoin="round" stroke-dasharray="22.3351,11.1675" x1="199.692" y1="87.743" x2="266.813" y2="20.621"/>
		
			<line fill="none" stroke="#262B3A" stroke-width="5" stroke-linecap="round" stroke-linejoin="round" x1="270.762" y1="16.673" x2="279.247" y2="8.187"/>
		<g>
			<polygon fill="#262B3A" points="209.485,106.869 209.307,101.868 184.67,102.771 185.57,78.131 180.569,77.953 179.479,107.962 
							"/>
		</g>
		<g>
			<polygon fill="#262B3A" points="281.992,34.362 276.991,34.184 277.893,9.548 253.253,10.447 253.076,5.446 283.085,4.357 			"/>
		</g>
	</g>
</g>
</svg>
