<svg class="nc-icon outline" xmlns="http://www.w3.org/2000/svg" xmlns:xlink="http://www.w3.org/1999/xlink" x="0px" y="0px" width="64px" height="64px" viewBox="0 0 64 64">
<g transform="translate(0, 0)">
<path data-cap="butt" data-color="color-2" fill="none" stroke="#262b3a" stroke-width="2" stroke-miterlimit="10" d="M38,40v8c0,3.314,5.373,6,12,6
	s12-2.686,12-6v-8" stroke-linejoin="miter" stroke-linecap="butt"></path>
<path data-cap="butt" data-color="color-2" fill="none" stroke="#262b3a" stroke-width="2" stroke-miterlimit="10" d="M38,48v8c0,3.314,5.373,6,12,6
	s12-2.686,12-6v-8" stroke-linejoin="miter" stroke-linecap="butt"></path>
<ellipse data-color="color-2" fill="none" stroke="#262b3a" stroke-width="2" stroke-linecap="square" stroke-miterlimit="10" cx="50" cy="40" rx="12" ry="6" stroke-linejoin="miter"></ellipse>
<polyline fill="none" stroke="#35c187" stroke-width="2" stroke-linecap="square" stroke-miterlimit="10" points="28,14 28,28 
	13,28 " stroke-linejoin="miter"></polyline>
<path fill="none" stroke="#35c187" stroke-width="2" stroke-linecap="square" stroke-miterlimit="10" d="M32.001,53.694
	C30.696,53.896,29.36,54,28,54C13.641,54,2,42.359,2,28S13.641,2,28,2s26,11.641,26,26" stroke-linejoin="miter"></path>
</g>
</svg>