<?xml version="1.0" encoding="utf-8"?>
<!-- Generator: Adobe Illustrator 21.1.0, SVG Export Plug-In . SVG Version: 6.00 Build 0)  -->
<svg version="1.1" id="Layer_1" xmlns="http://www.w3.org/2000/svg" xmlns:xlink="http://www.w3.org/1999/xlink" x="0px" y="0px"
	 width="879.2px" height="368.7px" viewBox="0 0 879.2 368.7" style="enable-background:new 0 0 879.2 368.7;" xml:space="preserve"
	>
<style type="text/css">
	.st0{fill:#35C187;}
	.st1{enable-background:new    ;}
	.st2{fill:#FFFFFF;}
	.st3{fill:none;stroke:#35C187;stroke-width:7.3036;stroke-linecap:round;stroke-linejoin:round;stroke-miterlimit:10;}
	.st4{fill:none;stroke:#35C187;stroke-width:7.3036;stroke-linecap:round;stroke-linejoin:round;}
</style>
<path class="st0" d="M473.2,366.4l-14.3-14.3c-2.3-2.3-2.3-6,0-8.3l14.3-14.3c2.3-2.3,6-2.3,8.3,0l14.3,14.3c2.3,2.3,2.3,6,0,8.3
	l-14.3,14.3C479.2,368.7,475.5,368.7,473.2,366.4z"/>
<g>
	<g class="st1">
		<path class="st2" d="M484.4,352.3h-2.2v3.3h-3.7v-3.3h-8.1v-2.8l7.5-10.5h4.3v10.3h2.2V352.3z M478.5,349.3v-6.4l-4.6,6.4H478.5z"
			/>
	</g>
</g>
<path class="st0" d="M700.3,366.4L686,352.1c-2.3-2.3-2.3-6,0-8.3l14.3-14.3c2.3-2.3,6-2.3,8.3,0l14.3,14.3c2.3,2.3,2.3,6,0,8.3
	l-14.3,14.3C706.3,368.7,702.6,368.7,700.3,366.4z"/>
<g>
	<g class="st1">
		<path class="st2" d="M704.1,355.9c-3.3,0-5.3-1.5-6.1-2.7l1.8-2.3c0.9,1.3,2.6,2,4.1,2s3.1-0.8,3.1-2.8c0-2-1.6-2.8-3.1-2.8
			c-1.1,0-2.3,0.3-3,0.9l-1.7-1l1.3-8.1h9.7v3h-6.9l-0.5,3c0.5-0.2,1.1-0.4,2.2-0.4c2.5,0,5.8,1.6,5.8,5.4
			C710.7,353.9,707.4,355.9,704.1,355.9z"/>
	</g>
</g>
<path class="st0" d="M17.3,110.9L3,96.6c-2.3-2.3-2.3-6,0-8.3L17.3,74c2.3-2.3,6-2.3,8.3,0l14.3,14.3c2.3,2.3,2.3,6,0,8.3
	l-14.3,14.3C23.3,113.2,19.6,113.2,17.3,110.9z"/>
<g>
	<g class="st1">
		<path class="st2" d="M24.1,100.1h-3.7V86.2h-3v-2.7h6.7V100.1z"/>
	</g>
</g>
<path class="st0" d="M245.8,110.9l-14.3-14.3c-2.3-2.3-2.3-6,0-8.3L245.8,74c2.3-2.3,6-2.3,8.3,0l14.3,14.3c2.3,2.3,2.3,6,0,8.3
	l-14.3,14.3C251.8,113.2,248.1,113.2,245.8,110.9z"/>
<g>
	<g class="st1">
		<path class="st2" d="M256.5,100.1h-12.1l-0.5-2.4l5.6-5.1c1.6-1.4,2.5-2.5,2.5-3.9s-1-2.3-2.7-2.3c-1.7,0-3.1,1.1-4,2.2l-1.6-2.5
			c0.2-0.5,2.3-2.7,6-2.7s6,2,6,4.9s-2.2,4.6-3.5,5.8l-3.4,3.1h7.7V100.1z"/>
	</g>
</g>
<path class="st0" d="M473.5,110.9l-14.3-14.3c-2.3-2.3-2.3-6,0-8.3L473.5,74c2.3-2.3,6-2.3,8.3,0l14.3,14.3c2.3,2.3,2.3,6,0,8.3
	l-14.3,14.3C479.5,113.2,475.8,113.2,473.5,110.9z"/>
<g>
	<g class="st1">
		<path class="st2" d="M477.3,100.4c-3.4,0-5.5-1.9-6-2.8l1.8-2.3c0.7,0.8,2.4,2.1,4.1,2.1c1.6,0,2.9-0.8,2.9-2.3
			c0-1.5-1.2-2.2-2.6-2.2h-1.5v-2.7h1.5c1.3,0,2.2-0.6,2.2-1.9s-1.1-1.9-2.4-1.9c-1.3,0-2.6,0.5-4,1.6l-1.4-2.4
			c1.2-1,2.7-2.1,5.7-2.1c3,0,5.8,1.6,5.8,4.4c0,2.2-1.3,3.2-2.4,3.6v0.1c1.4,0.4,2.9,1.7,2.9,3.8
			C483.8,98.6,480.8,100.4,477.3,100.4z"/>
	</g>
</g>
<line class="st3" x1="59.7" y1="92.5" x2="211.7" y2="92.5"/>
<path class="st3" d="M516.5,93.3H706c16.4,0,29.7,13.3,29.7,29.7v136.7c0,16.4-13.3,29.7-29.7,29.7H415c-16.4,0-29.7,13.3-29.7,29.7
	l0,0c0,16.4,13.3,29.7,29.7,29.7h25.5"/>
<line class="st3" x1="290" y1="92.5" x2="439.4" y2="92.5"/>
<line class="st3" x1="516" y1="347.3" x2="665.4" y2="347.3"/>
<g>
	<g>
		<path class="st4" d="M742.3,347.3h47.6c33.5,0,60.6-27.2,60.6-60.7V7.3"/>
		<g>
			<polygon class="st0" points="880.5,31.5 875.1,36.5 850.6,10.1 826.1,36.5 820.7,31.5 850.6,-0.6 			"/>
		</g>
	</g>
</g>
</svg>
