<?xml version="1.0" encoding="utf-8"?>
<!-- Generator: Adobe Illustrator 21.1.0, SVG Export Plug-In . SVG Version: 6.00 Build 0)  -->
<svg version="1.1" id="Layer_1" xmlns="http://www.w3.org/2000/svg" xmlns:xlink="http://www.w3.org/1999/xlink" x="0px" y="0px"
	 width="875.9px" height="173.5px" viewBox="0 0 875.9 173.5" style="enable-background:new 0 0 875.9 173.5;" xml:space="preserve"
	>
<style type="text/css">
	.st0{fill:none;stroke:#35C187;stroke-width:7.3036;stroke-linecap:round;stroke-linejoin:round;stroke-miterlimit:10;}
	.st1{fill:none;stroke:#35C187;stroke-width:7.3036;stroke-linecap:round;stroke-linejoin:round;}
	.st2{fill:#35C187;}
	.st3{enable-background:new    ;}
	.st4{fill:#FFFFFF;}
</style>
<line class="st0" x1="58.4" y1="153.3" x2="210.5" y2="153.3"/>
<line class="st0" x1="288.7" y1="153.3" x2="438.1" y2="153.3"/>
<line class="st0" x1="514.6" y1="153.3" x2="665.8" y2="153.3"/>
<g>
	<g>
		<path class="st1" d="M742.3,153.3h43.1c33.5,0,60.6-27.2,60.6-60.7V7.9"/>
		<g>
			<polygon class="st2" points="875.9,32.1 870.6,37.1 846,10.7 821.5,37.1 816.2,32.1 846,0 			"/>
		</g>
	</g>
</g>
<g>
	<path class="st2" d="M16,171.8L1.7,157.5c-2.3-2.3-2.3-6,0-8.3L16,134.9c2.3-2.3,6-2.3,8.3,0l14.3,14.3c2.3,2.3,2.3,6,0,8.3
		l-14.3,14.3C22,174.1,18.3,174.1,16,171.8z"/>
	<g>
		<g class="st3">
			<path class="st4" d="M22.8,161h-3.7v-13.9h-3v-2.7h6.7V161z"/>
		</g>
	</g>
</g>
<g>
	<path class="st2" d="M244.6,171.8l-14.3-14.3c-2.3-2.3-2.3-6,0-8.3l14.3-14.3c2.3-2.3,6-2.3,8.3,0l14.3,14.3c2.3,2.3,2.3,6,0,8.3
		l-14.3,14.3C250.6,174.1,246.9,174.1,244.6,171.8z"/>
	<g>
		<g class="st3">
			<path class="st4" d="M255.3,161h-12.1l-0.5-2.4l5.6-5.1c1.6-1.4,2.5-2.5,2.5-3.9s-1-2.3-2.7-2.3c-1.7,0-3.1,1.1-4,2.2l-1.6-2.5
				c0.2-0.5,2.3-2.7,6-2.7s6,2,6,4.9s-2.2,4.6-3.5,5.8l-3.4,3.1h7.7V161z"/>
		</g>
	</g>
</g>
<g>
	<path class="st2" d="M472.2,171.8l-14.3-14.3c-2.3-2.3-2.3-6,0-8.3l14.3-14.3c2.3-2.3,6-2.3,8.3,0l14.3,14.3c2.3,2.3,2.3,6,0,8.3
		l-14.3,14.3C478.2,174.1,474.5,174.1,472.2,171.8z"/>
	<g>
		<g class="st3">
			<path class="st4" d="M476.1,161.3c-3.4,0-5.5-1.9-6-2.8l1.8-2.3c0.7,0.8,2.4,2.1,4.1,2.1c1.6,0,2.9-0.8,2.9-2.3
				c0-1.5-1.2-2.2-2.6-2.2h-1.5V151h1.5c1.3,0,2.2-0.6,2.2-1.9s-1.1-1.9-2.4-1.9c-1.3,0-2.6,0.5-4,1.6l-1.4-2.4
				c1.2-1,2.7-2.1,5.7-2.1c3,0,5.8,1.6,5.8,4.4c0,2.2-1.3,3.2-2.4,3.6v0.1c1.4,0.4,2.9,1.7,2.9,3.8
				C482.5,159.5,479.5,161.3,476.1,161.3z"/>
		</g>
	</g>
</g>
<g>
	<path class="st2" d="M699.9,171.8l-14.3-14.3c-2.3-2.3-2.3-6,0-8.3l14.3-14.3c2.3-2.3,6-2.3,8.3,0l14.3,14.3c2.3,2.3,2.3,6,0,8.3
		l-14.3,14.3C705.9,174.1,702.2,174.1,699.9,171.8z"/>
	<g>
		<g class="st3">
			<path class="st4" d="M711.1,157.7h-2.2v3.3h-3.7v-3.3h-8.1v-2.8l7.5-10.5h4.3v10.3h2.2V157.7z M705.2,154.8v-6.4l-4.6,6.4H705.2z
				"/>
		</g>
	</g>
</g>
</svg>
