<?xml version="1.0" encoding="UTF-8"?>
<svg width="33px" height="497px" viewBox="0 0 33 497" version="1.1" xmlns="http://www.w3.org/2000/svg" xmlns:xlink="http://www.w3.org/1999/xlink">
    <!-- Generator: Sketch 43.2 (39069) - http://www.bohemiancoding.com/sketch -->
    <title>Group 2</title>
    <desc>Created with Sketch.</desc>
    <defs>
        <polygon id="path-1" points="29.5243902 0.47604878 29.5243902 30 0.000146341463 30 0.000146341463 0.47604878 29.5243902 0.47604878"></polygon>
        <polygon id="path-3" points="14.762122 0.475609756 0 0.475609756 0 30 14.762122 30 29.5242439 30 29.5242439 0.475609756 14.762122 0.475609756"></polygon>
        <polygon id="path-5" points="14.762122 0.475609756 0 0.475609756 0 30 14.762122 30 29.5242439 30 29.5242439 0.475609756 14.762122 0.475609756"></polygon>
    </defs>
    <g id="Investor-Page" stroke="none" stroke-width="1" fill="none" fill-rule="evenodd">
        <g id="Mobile-Portrait" transform="translate(-112.000000, -5788.000000)">
            <g id="Group-2" transform="translate(112.000000, 5788.000000)">
                <g id="Page-1" transform="translate(2.000000, 0.000000)">
                    <g id="Group-3" transform="translate(0.000000, 0.256098)" fill="#35C187">
                        <path d="M11.7254634,28.7377317 L1.26204878,18.2743171 C-0.420878049,16.5913902 -0.420878049,13.8840732 1.26204878,12.2011463 L11.7254634,1.73773171 C13.4083902,0.054804878 16.1157073,0.054804878 17.7986341,1.73773171 L28.2620488,12.2011463 C29.9449756,13.8840732 29.9449756,16.5913902 28.2620488,18.2743171 L17.7986341,28.7377317 C16.1157073,30.4206585 13.4083902,30.4206585 11.7254634,28.7377317" id="Fill-1"></path>
                    </g>
                    <polygon id="Fill-4" fill="#FFFFFF" points="16.7012927 21.0915366 13.9939756 21.0915366 13.9939756 10.9208049 11.7988537 10.9208049 11.7988537 8.94519512 16.7012927 8.94519512"></polygon>
                </g>
                <g id="Page-1" transform="translate(3.000000, 116.000000)">
                    <g id="Group-3" transform="translate(0.000000, 0.256098)" fill="#35C187">
                        <path d="M11.7254634,28.7377317 L1.26204878,18.2743171 C-0.420878049,16.5913902 -0.420878049,13.8840732 1.26204878,12.2011463 L11.7254634,1.73773171 C13.4083902,0.054804878 16.1157073,0.054804878 17.7986341,1.73773171 L28.2620488,12.2011463 C29.9449756,13.8840732 29.9449756,16.5913902 28.2620488,18.2743171 L17.7986341,28.7377317 C16.1157073,30.4206585 13.4083902,30.4206585 11.7254634,28.7377317" id="Fill-1"></path>
                    </g>
                    <path d="M19.554878,21.0915366 L10.7012195,21.0915366 L10.3353659,19.335439 L14.4329268,15.6037317 C15.6036585,14.5793415 16.2621951,13.7744634 16.2621951,12.7500732 C16.2621951,11.7256829 15.5304878,11.0671463 14.2865854,11.0671463 C13.0426829,11.0671463 12.0182927,11.8720244 11.3597561,12.6769024 L10.1890244,10.8476341 C10.3353659,10.4817805 11.8719512,8.87202439 14.5792683,8.87202439 C17.2865854,8.87202439 18.9695122,10.335439 18.9695122,12.4573902 C18.9695122,14.5793415 17.3597561,15.8232439 16.4085366,16.7012927 L13.9207317,18.9695854 L19.554878,18.9695854 L19.554878,21.0915366 Z" id="Fill-4" fill="#FFFFFF"></path>
                </g>
                <g id="Page-1" transform="translate(2.000000, 233.000000)">
                    <g id="Group-3" transform="translate(0.000000, 0.256098)">
                        <mask id="mask-2" fill="white">
                            <use xlink:href="#path-1"></use>
                        </mask>
                        <g id="Clip-2"></g>
                        <path d="M11.7257561,28.7375122 L1.26234146,18.2740976 C-0.420585366,16.5911707 -0.420585366,13.8838537 1.26234146,12.2009268 L11.7257561,1.7382439 C13.4086829,0.0553170732 16.116,0.0553170732 17.7989268,1.7382439 L28.2623415,12.2009268 C29.9452683,13.8838537 29.9452683,16.5911707 28.2623415,18.2740976 L17.7989268,28.7375122 C16.116,30.4211707 13.4086829,30.4211707 11.7257561,28.7375122" id="Fill-1" fill="#35C187" mask="url(#mask-2)"></path>
                    </g>
                    <path d="M14.5060976,21.3106829 C12.0182927,21.3106829 10.4817073,19.9211707 10.1158537,19.2619024 L11.4329268,17.5789756 C11.945122,18.1643415 13.1890244,19.115561 14.4329268,19.115561 C15.6036585,19.115561 16.554878,18.5301951 16.554878,17.4326341 C16.554878,16.3350732 15.6768293,15.822878 14.652439,15.822878 L13.554878,15.822878 L13.554878,13.848 L14.652439,13.848 C15.6036585,13.848 16.2621951,13.4082439 16.2621951,12.4570244 C16.2621951,11.5065366 15.4573171,11.0667805 14.5060976,11.0667805 C13.554878,11.0667805 12.6036585,11.4326341 11.5792683,12.2382439 L10.554878,10.4814146 C11.4329268,9.74970732 12.5304878,8.94556098 14.7256098,8.94556098 C16.9207317,8.94556098 18.9695122,10.115561 18.9695122,12.1643415 C18.9695122,13.7740976 18.0182927,14.5058049 17.2134146,14.7992195 L17.2134146,14.8716585 C18.2378049,15.1650732 19.3353659,16.115561 19.3353659,17.6521463 C19.2621951,19.9936098 17.0670732,21.3106829 14.5060976,21.3106829" id="Fill-4" fill="#FFFFFF"></path>
                </g>
                <g id="Page-1" transform="translate(2.000000, 351.000000)">
                    <g id="Group-3" transform="translate(0.000000, 0.256098)">
                        <mask id="mask-4" fill="white">
                            <use xlink:href="#path-3"></use>
                        </mask>
                        <g id="Clip-2"></g>
                        <path d="M11.7254634,28.7378049 L1.26204878,18.2743902 C-0.420878049,16.5914634 -0.420878049,13.8841463 1.26204878,12.2012195 L11.7254634,1.73780488 C13.4083902,0.0548780488 16.1157073,0.0548780488 17.7986341,1.73780488 L28.2620488,12.2012195 C29.9449756,13.8841463 29.9449756,16.5914634 28.2620488,18.2743902 L17.7986341,28.7378049 C16.1157073,30.4207317 13.4083902,30.4207317 11.7254634,28.7378049" id="Fill-1" fill="#35C187" mask="url(#mask-4)"></path>
                    </g>
                    <path d="M15.922439,16.5241463 L15.922439,11.8741463 L12.5602439,16.5241463 L15.922439,16.5241463 Z M20.1721951,18.6490244 L18.5697561,18.6490244 L18.5697561,21.0526829 L15.8521951,21.0526829 L15.8521951,18.6490244 L10,18.6490244 L10,16.5943902 L15.4519512,9 L18.5697561,9 L18.5697561,16.4721951 L20.1721951,16.4721951 L20.1721951,18.6490244 Z" id="Fill-4" fill="#FFFFFF"></path>
                </g>
                <g id="Page-1" transform="translate(0.000000, 466.000000)">
                    <g id="Group-3" transform="translate(0.000000, 0.256098)">
                        <mask id="mask-6" fill="white">
                            <use xlink:href="#path-5"></use>
                        </mask>
                        <g id="Clip-2"></g>
                        <path d="M11.7254634,28.7378049 L1.26204878,18.2743902 C-0.420878049,16.5914634 -0.420878049,13.8841463 1.26204878,12.2012195 L11.7254634,1.73780488 C13.4083902,0.0548780488 16.1157073,0.0548780488 17.7986341,1.73780488 L28.2620488,12.2012195 C29.9449756,13.8841463 29.9449756,16.5914634 28.2620488,18.2743902 L17.7986341,28.7378049 C16.1157073,30.4207317 13.4083902,30.4207317 11.7254634,28.7378049" id="Fill-1" fill="#35C187" mask="url(#mask-6)"></path>
                    </g>
                    <path d="M15.0833333,22 C12.3333333,22 10.6666667,20.75 10,19.75 L11.5,17.8333333 C12.25,18.9166667 13.6666667,19.5 14.9166667,19.5 C16.1666667,19.5 17.5,18.8333333 17.5,17.1666667 C17.5,15.5 16.1666667,14.8333333 14.9166667,14.8333333 C14,14.8333333 13,15.0833333 12.4166667,15.5833333 L11,14.75 L12.0833333,8 L20.1666667,8 L20.1666667,10.5 L14.4166667,10.5 L14,13 C14.4166667,12.8333333 14.9166667,12.6666667 15.8333333,12.6666667 C17.9166667,12.6666667 20.6666667,14 20.6666667,17.1666667 C20.5833333,20.3333333 17.8333333,22 15.0833333,22 Z" id="Shape" fill="#FFFFFF" fill-rule="nonzero"></path>
                </g>
                <path d="M17,43 L17,103" id="Line" stroke="#35C187" stroke-width="3" stroke-linecap="round" stroke-linejoin="round"></path>
                <path d="M17,160 L17,220" id="Line-Copy" stroke="#35C187" stroke-width="3" stroke-linecap="round" stroke-linejoin="round"></path>
                <path d="M17,277 L17,337" id="Line-Copy-2" stroke="#35C187" stroke-width="3" stroke-linecap="round" stroke-linejoin="round"></path>
                <path d="M16,394 L16,454" id="Line-Copy-2" stroke="#35C187" stroke-width="3" stroke-linecap="round" stroke-linejoin="round"></path>
            </g>
        </g>
    </g>
</svg>