<?xml version="1.0" encoding="UTF-8"?>
<svg width="601px" height="339px" viewBox="0 0 601 339" version="1.1" xmlns="http://www.w3.org/2000/svg" xmlns:xlink="http://www.w3.org/1999/xlink">
    <!-- Generator: Sketch 43.2 (39069) - http://www.bohemiancoding.com/sketch -->
    <title>signup-journey-fund-ipad</title>
    <desc>Created with Sketch.</desc>
    <defs></defs>
    <g id="Investor-Page" stroke="none" stroke-width="1" fill="none" fill-rule="evenodd">
        <g id="Tablet-Portrait" transform="translate(-219.000000, -5117.000000)">
            <g id="signup-journey-fund-ipad" transform="translate(219.000000, 5117.000000)">
                <g id="Group" transform="translate(211.360856, 301.333333)" fill-rule="nonzero">
                    <path d="M15.070948,35.8292683 L1.92981651,22.6918699 C-0.183792049,20.5788618 -0.183792049,17.1796748 1.92981651,15.0666667 L15.070948,1.92926829 C17.1845566,-0.183739837 20.5847095,-0.183739837 22.698318,1.92926829 L35.8394495,15.0666667 C37.9530581,17.1796748 37.9530581,20.5788618 35.8394495,22.6918699 L22.698318,35.8292683 C20.5847095,37.9422764 17.1845566,37.9422764 15.070948,35.8292683 Z" id="Shape" fill="#35C187"></path>
                    <path d="M18.5629969,26.1829268 C15.4385321,26.1829268 13.5087156,24.4373984 13.0492355,23.6105691 L14.7033639,21.497561 C15.3466361,22.2325203 16.9088685,23.4268293 18.4711009,23.4268293 C19.9414373,23.4268293 21.1360856,22.6918699 21.1360856,21.3138211 C21.1360856,19.9357724 20.0333333,19.2926829 18.746789,19.2926829 L17.3683486,19.2926829 L17.3683486,16.8121951 L18.746789,16.8121951 C19.9414373,16.8121951 20.7685015,16.2609756 20.7685015,15.0666667 C20.7685015,13.8723577 19.7576453,13.3211382 18.5629969,13.3211382 C17.3683486,13.3211382 16.1737003,13.7804878 14.887156,14.7910569 L13.6006116,12.5861789 C14.7033639,11.6674797 16.0818043,10.6569106 18.838685,10.6569106 C21.5955657,10.6569106 24.1686544,12.1268293 24.1686544,14.699187 C24.1686544,16.7203252 22.9740061,17.6390244 21.9631498,18.0065041 L21.9631498,18.098374 C23.2496942,18.4658537 24.6281346,19.6601626 24.6281346,21.5894309 C24.5362385,24.5292683 21.7793578,26.1829268 18.5629969,26.1829268 Z" id="Shape" fill="#FFFFFF"></path>
                </g>
                <path d="M15.6223242,103.169919 L2.48119266,90.0325203 C0.367584098,87.9195122 0.367584098,84.5203252 2.48119266,82.4073171 L15.6223242,69.2699187 C17.7359327,67.1569106 21.1360856,67.1569106 23.2496942,69.2699187 L36.3908257,82.4073171 C38.5044343,84.5203252 38.5044343,87.9195122 36.3908257,90.0325203 L23.2496942,103.169919 C21.1360856,105.282927 17.7359327,105.282927 15.6223242,103.169919 Z" id="Shape" fill="#35C187" fill-rule="nonzero"></path>
                <path d="M21.8712538,93.2479675 L18.4711009,93.2479675 L18.4711009,80.4780488 L15.7142202,80.4780488 L15.7142202,77.997561 L21.8712538,77.997561 L21.8712538,93.2479675 Z" id="Shape" fill="#FFFFFF" fill-rule="nonzero"></path>
                <path d="M225.60474,103.169919 L212.463609,90.0325203 C210.35,87.9195122 210.35,84.5203252 212.463609,82.4073171 L225.60474,69.2699187 C227.718349,67.1569106 231.118502,67.1569106 233.23211,69.2699187 L246.373242,82.4073171 C248.48685,84.5203252 248.48685,87.9195122 246.373242,90.0325203 L233.23211,103.169919 C231.118502,105.282927 227.718349,105.282927 225.60474,103.169919 Z" id="Shape" fill="#35C187" fill-rule="nonzero"></path>
                <path d="M235.437615,93.2479675 L224.318196,93.2479675 L223.858716,91.0430894 L229.004893,86.3577236 C230.475229,85.0715447 231.302294,84.0609756 231.302294,82.7747967 C231.302294,81.4886179 230.383333,80.6617886 228.821101,80.6617886 C227.258869,80.6617886 225.972324,81.6723577 225.14526,82.6829268 L223.674924,80.3861789 C223.858716,79.9268293 225.788532,77.9056911 229.188685,77.9056911 C232.588838,77.9056911 234.702446,79.7430894 234.702446,82.4073171 C234.702446,85.0715447 232.680734,86.6333333 231.486086,87.7357724 L228.361621,90.5837398 L235.437615,90.5837398 L235.437615,93.2479675 Z" id="Shape" fill="#FFFFFF" fill-rule="nonzero"></path>
                <path d="M54.5862385,86.2658537 L194.268196,86.2658537" id="Shape" stroke="#35C187" stroke-width="7.3036" stroke-linecap="round" stroke-linejoin="round"></path>
                <g id="Group" transform="translate(419.964832, 301.333333)" fill-rule="nonzero">
                    <path d="M15.162844,35.8292683 L2.02171254,22.6918699 C-0.0918960245,20.5788618 -0.0918960245,17.1796748 2.02171254,15.0666667 L15.162844,1.92926829 C17.2764526,-0.183739837 20.6766055,-0.183739837 22.7902141,1.92926829 L35.9313456,15.0666667 C38.0449541,17.1796748 38.0449541,20.5788618 35.9313456,22.6918699 L22.7902141,35.8292683 C20.6766055,37.9422764 17.2764526,37.9422764 15.162844,35.8292683 Z" id="Shape" fill="#35C187"></path>
                    <path d="M25.4551988,22.8756098 L23.4334862,22.8756098 L23.4334862,25.9073171 L20.0333333,25.9073171 L20.0333333,22.8756098 L12.5897554,22.8756098 L12.5897554,20.303252 L19.4819572,10.6569106 L23.4334862,10.6569106 L23.4334862,20.1195122 L25.4551988,20.1195122 L25.4551988,22.8756098 L25.4551988,22.8756098 Z M20.0333333,20.1195122 L20.0333333,14.2398374 L15.8061162,20.1195122 L20.0333333,20.1195122 Z" id="Shape" fill="#FFFFFF"></path>
                </g>
                <path d="M266.222783,86.2658537 L440.365749,86.2658537 C455.436697,86.2658537 467.658869,98.4845528 467.658869,113.55122 L467.658869,239.137398 C467.658869,254.204065 455.436697,266.422764 440.365749,266.422764 L172.948318,266.422764 C157.87737,266.422764 145.655199,278.641463 145.655199,293.70813 L145.655199,293.70813 C145.655199,308.774797 157.87737,320.993496 172.948318,320.993496 L196.381804,320.993496" id="Shape" stroke="#35C187" stroke-width="7.3036" stroke-linecap="round" stroke-linejoin="round"></path>
                <path d="M265.763303,319.615447 L403.055963,319.615447" id="Shape" stroke="#35C187" stroke-width="7.3036" stroke-linecap="round" stroke-linejoin="round"></path>
                <g id="Group" transform="translate(473.264526, 0.000000)">
                    <path d="M0.459480122,319.615447 L44.2019878,319.615447 C74.987156,319.615447 99.8909786,294.626829 99.8909786,263.850407 L99.8909786,7.25772358" id="Shape" stroke="#35C187" stroke-width="7.3036" stroke-linecap="round" stroke-linejoin="round"></path>
                    <polygon id="Shape" fill="#35C187" fill-rule="nonzero" points="127.459786 29.4902439 122.497401 34.0837398 99.9828746 9.8300813 77.4683486 34.0837398 72.5059633 29.4902439 99.9828746 0"></polygon>
                </g>
            </g>
        </g>
    </g>
</svg>