<?xml version="1.0" encoding="utf-8"?>
<!-- Generator: Adobe Illustrator 21.1.0, SVG Export Plug-In . SVG Version: 6.00 Build 0)  -->
<svg version="1.1" id="Layer_1" xmlns="http://www.w3.org/2000/svg" xmlns:xlink="http://www.w3.org/1999/xlink" x="0px" y="0px"
	 viewBox="0 0 64 64" enable-background="new 0 0 64 64" xml:space="preserve">
<g>
	<path fill="none" stroke="#35C187" stroke-width="1.977" stroke-miterlimit="10" d="M28.464,45.688L10.507,27.731
		c-1.953-1.953-1.953-5.118,0-7.071L28.464,2.702c1.953-1.953,5.118-1.953,7.071,0L53.493,20.66c1.953,1.953,1.953,5.118,0,7.071
		L35.536,45.688C33.583,47.641,30.417,47.641,28.464,45.688z"/>
	<g>
		
			<path fill="none" stroke="#262B3A" stroke-width="1.977" stroke-linecap="round" stroke-linejoin="round" stroke-dasharray="4.1548,4.1548" d="
			M28.464,61.298L10.507,43.34c-1.953-1.953-1.953-5.118,0-7.071l17.957-17.957c1.953-1.953,5.118-1.953,7.071,0l17.957,17.957
			c1.953,1.953,1.953,5.118,0,7.071L35.536,61.298C33.583,63.25,30.417,63.25,28.464,61.298z"/>
	</g>
</g>
</svg>
