<?xml version="1.0" encoding="utf-8"?>
<!-- Generator: Adobe Illustrator 21.1.0, SVG Export Plug-In . SVG Version: 6.00 Build 0)  -->
<svg version="1.1" id="Layer_1" xmlns="http://www.w3.org/2000/svg" xmlns:xlink="http://www.w3.org/1999/xlink" x="0px" y="0px"
	 viewBox="0 0 60 60" enable-background="new 0 0 60 60" xml:space="preserve">
<path fill="none" stroke="#262B3A" stroke-width="1.7246" stroke-linecap="round" stroke-linejoin="round" stroke-miterlimit="10" d="
	M4.662,28.918c0,0,6.036-8.335,8.623-1.006s3.018,13.94,5.892,13.94s3.017-21.977,7.761-21.988s3.018,21.988,8.335,21.988
	s3.162-29.318,10.204-29.318s2.772,27.593,10.081,27.593"/>
<g>
	<path fill="#35C187" d="M55.557,55.505H5.544v-6.518H3.82v7.381c0,0.476,0.386,0.862,0.862,0.862h51.737
		c0.476,0,0.862-0.386,0.862-0.862V23.225h-1.725V55.505z"/>
	<path fill="#35C187" d="M56.419,3.768H4.682c-0.476,0-0.862,0.386-0.862,0.862v32.801h1.725V5.492h50.013v3.402h1.725V4.63
		C57.282,4.154,56.896,3.768,56.419,3.768z"/>
</g>
<g>
	<g>
		<polyline fill="none" stroke="#35C187" stroke-width="1.7246" stroke-linecap="round" stroke-linejoin="round" points="
			4.02,43.478 26.756,36.284 35.566,22.465 56.393,14.942 		"/>
		<g>
			<g>
				
					<ellipse transform="matrix(0.9534 -0.3017 0.3017 0.9534 -12.9073 3.284)" fill="#FFFFFF" cx="4.178" cy="43.428" rx="2.918" ry="2.918"/>
				<path fill="#35C187" d="M5.175,46.58c1.738-0.55,2.704-2.411,2.154-4.149s-2.411-2.704-4.149-2.154
					c-1.738,0.55-2.704,2.411-2.154,4.149S3.437,47.13,5.175,46.58C6.913,46.03,3.437,47.13,5.175,46.58z M3.415,41.016
					c1.33-0.421,2.754,0.318,3.175,1.649c0.421,1.33-0.318,2.754-1.649,3.175c-1.33,0.421-2.754-0.318-3.175-1.649
					C1.345,42.861,2.084,41.437,3.415,41.016C4.745,40.595,2.084,41.437,3.415,41.016z"/>
			</g>
		</g>
		<g>
			
				<ellipse transform="matrix(0.9405 -0.3398 0.3398 0.9405 -1.747 20.0046)" fill="#35C187" cx="56.256" cy="14.991" rx="2.918" ry="2.918"/>
		</g>
	</g>
</g>
<path fill="none" stroke="#262B3A" stroke-width="1.7246" stroke-linecap="round" stroke-linejoin="round" stroke-miterlimit="10" d="
	M35.273,41.852c5.317,0,3.162-29.318,10.204-29.318"/>
<path fill="none" stroke="#262B3A" stroke-width="1.7246" stroke-linecap="round" stroke-linejoin="round" stroke-miterlimit="10" d="
	M19.177,41.852c2.874,0,3.017-21.977,7.761-21.988"/>
</svg>
