<?xml version="1.0" encoding="utf-8"?>
<!-- Generator: Adobe Illustrator 21.1.0, SVG Export Plug-In . SVG Version: 6.00 Build 0)  -->
<svg version="1.1" id="Layer_1" xmlns="http://www.w3.org/2000/svg" xmlns:xlink="http://www.w3.org/1999/xlink" x="0px" y="0px"
	 viewBox="0 0 64 64" enable-background="new 0 0 64 64" xml:space="preserve">
<g transform="translate(0, 0)">
	
		<polyline fill="none" stroke="#35C187" stroke-width="2" stroke-linecap="round" stroke-linejoin="round" stroke-miterlimit="10" points="
		28.1,46 2,46 2,2 62,2 62,29 	"/>
	
		<circle fill="none" stroke="#262B3A" stroke-width="2" stroke-linecap="round" stroke-linejoin="round" stroke-miterlimit="10" cx="32" cy="24" r="6"/>
	<path fill="none" stroke="#262B3A" stroke-width="2" stroke-linecap="round" stroke-linejoin="round" stroke-miterlimit="10" d="
		M54,24v-6c-4.5,0-8-3.5-8-8H18c0,4.5-3.5,8-8,8l0.2,11.5c4.5,0,7.8,4,7.8,8.5h10.2"/>
	<path fill="none" stroke="#35C187" stroke-width="2" stroke-linecap="round" stroke-linejoin="round" stroke-miterlimit="10" d="
		M42.1,34.4c0.2-0.9,0.9-1.7,1.9-2.4"/>
	<path fill="none" stroke="#35C187" stroke-width="2" stroke-linecap="round" stroke-linejoin="round" stroke-miterlimit="10" d="
		M60,44c1.3,0.8,2,1.9,2,3c0,2.8-4.5,5-10,5c-1.5,0-2.9-0.2-4.1-0.4"/>
	<path fill="none" stroke="#35C187" stroke-width="2" stroke-linecap="round" stroke-linejoin="round" stroke-miterlimit="10" d="
		M60,38c1.3,0.8,2,1.9,2,3c0,2.8-4.5,5-10,5c-1.5,0-2.8-0.2-4.1-0.4"/>
	<path fill="none" stroke="#35C187" stroke-width="2" stroke-linecap="round" stroke-linejoin="round" stroke-miterlimit="10" d="
		M60,32c1.3,0.8,2,1.9,2,3c0,2.8-4.5,5-10,5c-1.5,0-2.9-0.2-4.1-0.4"/>
	
		<ellipse fill="none" stroke="#35C187" stroke-width="2" stroke-linecap="round" stroke-linejoin="round" stroke-miterlimit="10" cx="52" cy="29" rx="10" ry="5"/>
	<path fill="none" stroke="#35C187" stroke-width="2" stroke-linecap="round" stroke-linejoin="round" stroke-miterlimit="10" d="
		M46,54c1.3,0.8,2,1.9,2,3c0,2.8-4.5,5-10,5s-10-2.2-10-5c0-1.1,0.7-2.2,2-3"/>
	<path fill="none" stroke="#35C187" stroke-width="2" stroke-linecap="round" stroke-linejoin="round" stroke-miterlimit="10" d="
		M46,48c1.3,0.8,2,1.9,2,3c0,2.8-4.5,5-10,5s-10-2.2-10-5c0-1.1,0.7-2.2,2-3"/>
	<path fill="none" stroke="#35C187" stroke-width="2" stroke-linecap="round" stroke-linejoin="round" stroke-miterlimit="10" d="
		M46,42c1.3,0.8,2,1.9,2,3c0,2.8-4.5,5-10,5s-10-2.2-10-5c0-1.1,0.7-2.2,2-3"/>
	
		<ellipse fill="none" stroke="#35C187" stroke-width="2" stroke-linecap="round" stroke-linejoin="round" stroke-miterlimit="10" cx="38" cy="39" rx="10" ry="5"/>
</g>
</svg>
