<?xml version="1.0" encoding="utf-8"?>
<!-- Generator: Adobe Illustrator 21.1.0, SVG Export Plug-In . SVG Version: 6.00 Build 0)  -->
<svg version="1.1" id="Layer_1" xmlns="http://www.w3.org/2000/svg" xmlns:xlink="http://www.w3.org/1999/xlink" x="0px" y="0px"
	 viewBox="0 0 239.819 45.377" style="enable-background:new 0 0 239.819 45.377;" xml:space="preserve">
<style type="text/css">
	.st0{fill:#9D9FA2;}
</style>
<g>
	<path class="st0" d="M36.46,19.196c-7.157,2.425-13.426,6.422-19.384,10.964c-3.176,2.421-6.156,5.074-8.883,7.989
		c-0.887,0.949-1.354,0.814-2.177-0.085c-4.305-4.706-4.314-5.11,0.62-8.779c11.474-8.534,24.345-13.533,38.542-15.122
		c1.19-0.133,2.409-0.018,3.931-0.018c-0.909,1.022-1.946,1.151-2.845,1.384c-1.407,0.364-1.772,1.086-1.498,2.48
		c1.162,5.904,0.273,11.439-2.889,16.644c-5.04,8.297-16.236,12.686-25.549,9.876c-2.895-0.873-2.903-0.924-1.184-3.285
		c6.101-8.378,13.113-15.831,21.823-21.568c0.066-0.164,0.328-0.322,0.18-0.481C36.97,19.003,36.693,19.092,36.46,19.196z"/>
	<path class="st0" d="M0.12,24.597C-1.054,13.589,6.541,3.037,17.105,0.608c11.869-2.729,22.109,4.184,25.242,11.695
		C27.254,12.676,13.224,16.623,0.12,24.597z"/>
	<path class="st0" d="M221.862,16.557c2.721-4.314,7.714-6.299,12.578-5.002c2.968,0.791,5.068,3.153,5.211,6.723
		c0.237,5.929,0.119,11.872,0.168,17.809c0.014,1.712-1.264,0.921-2.028,1.062c-1.123,0.207-1.489-0.316-1.474-1.453
		c0.057-4.272,0.03-8.545,0.017-12.818c-0.003-1.157,0.011-2.324-0.119-3.47c-0.405-3.574-2.813-5.362-6.363-4.794
		c-4.757,0.761-8.181,4.526-8.345,9.411c-0.129,3.834-0.113,7.677-0.022,11.512c0.034,1.419-0.498,1.678-1.758,1.664
		c-1.206-0.013-1.795-0.156-1.786-1.623c0.066-10.718,0.063-21.437,0.016-32.155c-0.012-2.797,1.967-1.159,3.05-1.519
		c0.534,4.319,0.057,8.657,0.264,12.98C221.298,15.434,220.641,16.377,221.862,16.557z"/>
	<path class="st0" d="M122.708,16.225c2.848-4.183,6.883-5.513,11.718-4.791c3.479,0.519,5.818,3.065,5.994,7.194
		c0.247,5.785,0.081,11.587,0.138,17.381c0.017,1.676-1.179,1.037-1.977,1.145c-0.964,0.13-1.61,0.007-1.59-1.307
		c0.074-4.78,0.034-9.562,0.026-14.343c-0.01-6.462-4.359-8.959-9.985-5.657c-3.015,1.769-4.689,4.508-4.791,8.024
		c-0.111,3.836-0.112,7.679-0.025,11.515c0.033,1.444-0.415,1.795-1.826,1.835c-1.574,0.044-1.715-0.631-1.706-1.91
		c0.048-6.809,0.022-13.618,0.022-20.428c0-3.066,0-3.066,3.09-3.003c0.517,1.102,0.093,2.272,0.245,3.398
		C122.097,15.69,121.759,16.427,122.708,16.225z"/>
	<path class="st0" d="M63.775,24.815c0.062-5.512,2.192-9.693,6.99-12.079c4.738-2.356,9.491-2.069,14.032,0.813
		c1.301,0.825,1.626,1.596,0.533,2.888c-0.641,0.758-0.985,1.013-1.846,0.283c-1.642-1.393-3.614-2.122-5.768-2.242
		c-4.422-0.246-8.187,2.222-9.659,6.279c-1.59,4.382-0.225,9.355,3.28,11.947c3.601,2.663,8.842,2.604,12.491-0.457
		c1.513-1.269,1.897-0.628,2.608,0.618c0.655,1.147-0.107,1.581-0.794,2.076c-4.639,3.34-9.668,3.824-14.767,1.436
		C66.004,34.096,63.883,29.894,63.775,24.815z"/>
	<path class="st0" d="M203.112,22.935c0-2.027-0.067-4.057,0.024-6.08c0.058-1.272-0.233-1.941-1.655-1.736
		c-1.05,0.151-1.747-0.021-1.75-1.436c-0.002-1.375,0.606-1.623,1.701-1.462c1.431,0.211,1.943-0.357,1.816-1.793
		c-0.115-1.293,0.073-2.613-0.051-3.904c-0.135-1.404,0.437-1.715,1.724-1.669c1.146,0.041,1.956,0.049,1.809,1.582
		c-0.137,1.435,0.036,2.896-0.046,4.339c-0.066,1.169,0.393,1.542,1.51,1.455c1.007-0.078,2.028,0.025,3.038-0.029
		c1.053-0.056,1.75,0.015,1.733,1.43c-0.016,1.333-0.565,1.503-1.699,1.521c-4.566,0.071-4.565,0.106-4.565,4.624
		c0,2.751-0.029,5.502,0.007,8.252c0.051,3.917,1.608,5.781,5.488,6.115c1.522,0.131,1.082,0.98,1.146,1.741
		c0.073,0.861-0.015,1.62-1.198,1.573c-4.288-0.169-8.161-1.683-8.845-7.371c-0.283-2.352-0.047-4.767-0.047-7.154
		C203.206,22.935,203.159,22.935,203.112,22.935z"/>
	<path class="st0" d="M187.04,16.565c1.351-3.041,3.626-4.747,7.002-4.962c1.256-0.08,1.712,0.404,1.585,1.622
		c-0.098,0.931,0.373,2.002-1.399,1.956c-2.601-0.067-4.487,1.395-5.821,3.561c-1.323,2.149-1.914,4.517-1.935,7.023
		c-0.026,3.038-0.153,6.086,0.044,9.112c0.131,2.018-0.589,2.522-2.429,2.323c-0.907-0.098-1.262-0.336-1.259-1.276
		c0.025-7.596,0.043-15.192-0.014-22.788c-0.01-1.358,0.72-1.349,1.643-1.283c0.849,0.061,2.003-0.397,1.885,1.236
		c-0.093,1.296-0.049,2.603-0.066,3.904C186.908,17.523,186.822,16.771,187.04,16.565z"/>
	<path class="st0" d="M150.828,24.622c0,3.617-0.09,7.237,0.041,10.849c0.058,1.609-0.679,1.669-1.926,1.739
		c-1.447,0.081-1.635-0.535-1.627-1.767c0.047-7.306,0.054-14.612-0.005-21.918c-0.01-1.298,0.285-1.769,1.667-1.722
		c1.29,0.044,1.942,0.191,1.89,1.752C150.745,17.241,150.828,20.933,150.828,24.622z"/>
	<path class="st0" d="M150.899,4.002c0.197,1.389,0.138,2.263-1.755,2.284c-1.921,0.022-2.073-0.779-2.027-2.288
		c0.04-1.325-0.053-2.249,1.854-2.24C150.852,1.767,151.224,2.467,150.899,4.002z"/>
	<path class="st0" d="M187.04,16.565c0.096,0.621-0.134,1.209-0.744,1.193c-0.491-0.012-0.11-0.491-0.02-0.765
		C186.531,16.851,186.786,16.708,187.04,16.565z"/>
	<path class="st0" d="M107.597,12.307c-4.202-2.048-9.922-1.131-13.342,2.139c-4.768,4.56-5.468,12.661-1.565,18.105
		c3.789,5.285,11.414,6.803,17.565,3.497c2.857-1.535,2.857-1.535,0.942-4.376c-0.801,0.524-1.503,1.041-2.256,1.466
		c-6.151,3.469-13.323,0.575-14.832-5.946c-0.373-1.61-0.29-2.473,1.831-2.409c5.214,0.158,10.436,0.032,15.654,0.068
		c1.012,0.007,1.557-0.127,1.644-1.355C113.569,18.79,111.258,14.091,107.597,12.307z M108.676,21.869
		c-4.831-0.019-9.662-0.01-14.509-0.01c0.668-5.378,5.429-8.685,10.452-7.389c2.667,0.689,4.952,3.667,5.015,6.41
		C109.652,21.662,109.405,21.872,108.676,21.869z"/>
	<path class="st0" d="M176.088,19.569c-0.072-4.165-2.684-7.335-6.577-8.06c-3.59-0.669-7.047-0.161-10.294,1.587
		c-0.958,0.516-1.726,0.897-0.872,2.256c0.742,1.181,1.239,1.408,2.473,0.607c1.06-0.688,2.37-1.088,3.625-1.358
		c4.471-0.96,7.571,0.991,8.127,4.874c0.217,1.518-0.15,2.004-1.753,1.995c-3.694-0.02-7.391,0.225-10.767,1.98
		c-3.175,1.651-4.649,4.531-4.13,7.88c0.511,3.295,2.84,5.598,6.345,6.227c4.234,0.76,7.68-0.521,10.486-4.657
		c0,1.347,0.073,2.006-0.015,2.644c-0.198,1.436,0.514,1.668,1.759,1.654c1.162-0.013,1.667-0.252,1.65-1.558
		C176.074,30.284,176.181,24.925,176.088,19.569z M172.275,28.099c-1.234,4.757-4.941,7.428-8.946,6.45
		c-2.094-0.511-3.456-1.732-3.755-3.935c-0.292-2.149,0.669-3.818,2.82-4.846c2.193-1.048,4.545-1.338,6.615-1.31
		C173.006,24.294,173.2,24.535,172.275,28.099z"/>
</g>
</svg>
