<?xml version="1.0" encoding="UTF-8"?>
<svg width="180px" height="35px" viewBox="0 0 180 35" version="1.1" xmlns="http://www.w3.org/2000/svg" xmlns:xlink="http://www.w3.org/1999/xlink">
    <!-- Generator: Sketch 44.1 (41455) - http://www.bohemiancoding.com/sketch -->
    <title>ceniarth-logo</title>
    <desc>Created with Sketch.</desc>
    <defs></defs>
    <g id="Home-Page" stroke="none" stroke-width="1" fill="none" fill-rule="evenodd">
        <g id="Tablet-Portrait" transform="translate(-211.000000, -3735.000000)" fill-rule="nonzero" fill="#9D9FA2">
            <g id="Investors-Copy" transform="translate(0.000000, 3105.000000)">
                <g id="ceniarth-logo" transform="translate(211.000000, 630.000000)">
                    <path d="M27.2540294,14.5362794 C21.9041367,16.3726243 17.2180283,19.3993752 12.764394,22.8388303 C10.3903184,24.6721462 8.16275373,26.6811454 6.12430781,28.8885457 C5.46127095,29.6071813 5.11218615,29.5049518 4.4969896,28.8241789 C1.27898092,25.2605339 1.27225337,24.9546026 4.96044265,22.1762316 C13.5373141,15.7138119 23.1584499,11.9282909 33.7707773,10.7250117 C34.6603081,10.6242967 35.5715166,10.7113811 36.7092191,10.7113811 C36.0297372,11.4852964 35.2545746,11.5829824 34.5825676,11.7594229 C33.5308282,12.035064 33.2579889,12.5818026 33.4628053,13.6374169 C34.331406,18.1082543 33.6668741,22.2996643 31.3032635,26.2411799 C27.5358388,32.52413 19.1667737,35.8477251 12.2052603,33.7198367 C10.0412336,33.0587525 10.0352536,33.0201325 11.3202145,31.2322519 C15.880742,24.8879641 21.1222465,19.2441377 27.6330144,14.8997621 C27.6823497,14.7755722 27.878196,14.6559258 27.7675653,14.5355221 C27.6352569,14.3901291 27.428198,14.4575248 27.2540294,14.5362794 Z" id="Shape"></path>
                    <path d="M0.0897005904,18.6262171 C-0.787870186,10.290347 4.88942968,2.2997854 12.7860717,0.460411433 C21.6582076,-1.60613923 29.3126579,3.62876906 31.6545909,9.31651622 C20.3724991,9.59897258 9.88500507,12.5878606 0.0897005904,18.6262171 Z" id="Shape"></path>
                    <path d="M165.842937,12.5378817 C167.876898,9.27108088 171.60919,7.76792842 175.245054,8.750089 C177.463648,9.34907821 179.033408,11.137716 179.140302,13.8411187 C179.31746,18.3308874 179.229255,22.8312577 179.265882,27.3270845 C179.276348,28.6235062 178.321036,28.024517 177.749943,28.13129 C176.910494,28.2880419 176.636908,27.8919972 176.64812,27.0309976 C176.690728,23.7960014 176.670545,20.5602481 176.660828,17.3244947 C176.658585,16.4483499 176.66905,15.5646326 176.571875,14.6968176 C176.269135,11.9903859 174.469143,10.6364128 171.815501,11.066534 C168.25962,11.6428056 165.700163,14.4938731 165.577572,18.1930669 C165.481144,21.0963851 165.493104,24.0065185 165.561127,26.9105939 C165.586542,27.9851397 165.18887,28.1812689 164.247014,28.1706673 C163.345523,28.160823 162.905242,28.0525354 162.91197,26.9416414 C162.961305,18.8253754 162.959063,10.7083521 162.92393,2.59208608 C162.91496,0.474042035 164.394272,1.71442678 165.20382,1.44181475 C165.602988,4.71240189 165.246428,7.99737688 165.401161,11.270993 C165.421344,11.6874836 164.930233,12.4015757 165.842937,12.5378817 Z" id="Shape"></path>
                    <path d="M91.7248338,12.2864729 C93.8537278,9.1188725 96.8699101,8.11172249 100.484096,8.65846106 C103.084666,9.05147674 104.83308,10.9794496 104.964641,14.1061582 C105.149275,18.4868821 105.025189,22.8804794 105.067797,27.2680186 C105.080504,28.537179 104.186488,28.0532927 103.589979,28.1350763 C102.869385,28.2335195 102.386496,28.1403771 102.401447,27.1453432 C102.456762,23.5256612 102.426862,19.9044647 102.420882,16.2840254 C102.413407,11.3906394 99.1625077,9.49977209 94.957045,12.0002302 C92.7033177,13.3398155 91.4519945,15.4139387 91.375749,18.0764495 C91.2927759,20.9812822 91.2920284,23.8914156 91.3570613,26.7962483 C91.381729,27.8897255 91.0468468,28.1555222 89.9921174,28.1858124 C88.8155446,28.2191317 88.7101464,27.7079841 88.716874,26.7394541 C88.7527542,21.5833004 88.7333191,16.4271467 88.7333191,11.2702358 C88.7333191,8.94848997 88.7333191,8.94848997 91.0431093,8.99619708 C91.4295693,9.8306928 91.1126272,10.7166819 91.226248,11.5693518 C91.2681083,11.8813411 91.0154516,12.4394385 91.7248338,12.2864729 Z" id="Shape"></path>
                    <path d="M47.6721263,18.7912989 C47.7184716,14.6173057 49.3106571,11.4512199 52.8971857,9.64440791 C56.438864,7.86031361 59.9917549,8.07764598 63.3861747,10.2600568 C64.3586786,10.8847927 64.6016177,11.4686368 63.7845949,12.4470111 C63.3054442,13.0210108 63.0483025,13.214111 62.4047008,12.6613144 C61.1772977,11.6064573 59.703218,11.0544179 58.0930924,10.9635473 C54.7876256,10.7772624 51.9732696,12.6461693 50.8729424,15.7183555 C49.6844095,19.0366497 50.7047538,22.802482 53.3247585,24.7652887 C56.0165237,26.7818605 59.934197,26.7371824 62.6618425,24.4192228 C63.7928174,23.4582654 64.0798593,23.9436663 64.6113353,24.8872068 C65.100951,25.755779 64.5313523,26.084428 64.0178164,26.4592695 C60.5501411,28.9885034 56.7909388,29.3550151 52.9794112,27.5466887 C49.3383148,25.8193885 47.7528568,22.6374003 47.6721263,18.7912989 Z" id="Shape"></path>
                    <path d="M151.827219,17.3676583 C151.827219,15.8327011 151.777137,14.2954721 151.84516,12.7635439 C151.888515,11.8003147 151.670991,11.2937107 150.608039,11.4489481 C149.823159,11.5632937 149.302148,11.4330458 149.299905,10.361529 C149.29841,9.3203025 149.752893,9.1325031 150.571411,9.25442126 C151.641091,9.4142022 152.023813,8.98408099 151.92888,7.89666188 C151.842917,6.91753033 151.983448,5.91795288 151.890757,4.94033584 C151.789844,3.87714891 152.217417,3.6416424 153.179456,3.67647616 C154.036096,3.70752365 154.641575,3.71358169 154.531692,4.8744546 C154.429284,5.96111645 154.558602,7.06746695 154.497307,8.16018685 C154.447972,9.0454187 154.791076,9.32787505 155.626039,9.26199381 C156.378777,9.20292787 157.141979,9.2809252 157.896959,9.2400334 C158.684082,9.19762708 159.205093,9.25139223 159.192385,10.322909 C159.180425,11.3323308 158.770045,11.4610642 157.922375,11.4746948 C154.509267,11.52846 154.510015,11.5549639 154.510015,14.9762449 C154.510015,17.0594552 154.488337,19.1426655 154.515247,21.2251185 C154.55337,24.1912889 155.717235,25.6028134 158.617554,25.8557368 C159.755257,25.9549373 159.426354,26.5978473 159.474195,27.1741189 C159.528763,27.826116 159.462982,28.400873 158.578684,28.365282 C155.373383,28.2373058 152.478296,27.0908208 151.967003,22.7835506 C151.755459,21.0024854 151.93187,19.173713 151.93187,17.3661437 C151.897485,17.3676583 151.862352,17.3676583 151.827219,17.3676583 Z" id="Shape"></path>
                    <path d="M139.81332,12.5439398 C140.823199,10.2411254 142.523773,8.94924723 145.04735,8.78643727 C145.986216,8.72585681 146.327078,9.09236855 146.232145,10.0147059 C146.15889,10.7197109 146.510964,11.5307317 145.186386,11.495898 C143.242125,11.4451618 141.832331,12.5522696 140.83516,14.1924853 C139.846211,15.8198277 139.404435,17.6130091 139.388738,19.5106917 C139.369302,21.8112344 139.274369,24.1193496 139.421628,26.4108052 C139.519551,27.9389471 138.981347,28.3206039 137.605938,28.1699101 C136.927951,28.095699 136.662587,27.9154722 136.66483,27.2036518 C136.683517,21.451538 136.696972,15.6994241 136.654365,9.94731017 C136.646889,8.918957 137.192568,8.92577231 137.882515,8.97575118 C138.517147,9.02194377 139.379767,8.67512069 139.291562,9.91171916 C139.222044,10.8931225 139.254934,11.8828556 139.242227,12.8680452 C139.71465,13.2693907 139.650364,12.6999344 139.81332,12.5439398 Z" id="Shape"></path>
                    <path d="M112.744672,18.6451485 C112.744672,21.3841422 112.677397,24.1254076 112.77532,26.860615 C112.818675,28.0790394 112.267764,28.1244747 111.335625,28.1774826 C110.253986,28.2388203 110.113455,27.7723508 110.119435,26.8394119 C110.154568,21.3069021 110.1598,15.7743924 110.115697,10.2418826 C110.108222,9.25896479 110.328736,8.90229738 111.361788,8.9378884 C112.326069,8.97120764 112.813443,9.08252422 112.774572,10.2646003 C112.682629,13.0558446 112.744672,15.8516324 112.744672,18.6451485 Z" id="Shape"></path>
                    <path d="M112.797745,3.0305371 C112.945003,4.08236519 112.900901,4.74420663 111.485874,4.76010899 C110.049917,4.77676862 109.936296,4.17020685 109.970681,3.02750807 C110.000582,2.02414434 109.931064,1.32444013 111.356555,1.33125543 C112.762612,1.33807073 113.040684,1.86814968 112.797745,3.0305371 Z" id="Shape"></path>
                    <path d="M139.81332,12.5439398 C139.885081,13.0141955 139.713155,13.4594619 139.257177,13.4473458 C138.890152,13.4382587 139.174951,13.0755332 139.242227,12.8680452 C139.43284,12.7605149 139.623454,12.6522273 139.81332,12.5439398 Z" id="Shape"></path>
                    <path d="M80.4292869,9.31954524 C77.2882712,7.76868568 73.0125431,8.46308911 70.4560763,10.9393151 C66.8919728,14.3924008 66.3687194,20.5269288 69.2862311,24.6494285 C72.1185272,28.6515246 77.8182522,29.8010387 82.416155,27.2975515 C84.5517766,26.1351641 84.5517766,26.1351641 83.1203046,23.9838008 C82.5215532,24.3806028 81.9968047,24.772104 81.4339335,25.0939376 C76.8360308,27.7208575 71.4749255,25.5293596 70.3469405,20.5912955 C70.0681212,19.3721139 70.1301641,18.7186023 71.7156221,18.7670667 C75.6131127,18.8867131 79.5165834,18.7912989 83.4170641,18.8185601 C84.1735391,18.8238609 84.5809292,18.7223886 84.6459622,17.7924787 C84.8933863,14.2288336 83.1659024,10.6704893 80.4292869,9.31954524 Z M81.2358447,16.5604237 C77.6246485,16.5460359 74.0134522,16.5528512 70.3902958,16.5528512 C70.8896291,12.4803303 74.4485,9.97608589 78.2032173,10.9574892 C80.1968129,11.4792383 81.9048616,13.7343457 81.9519544,15.8114979 C81.9654095,16.4036718 81.7807758,16.5626955 81.2358447,16.5604237 Z" id="Shape"></path>
                    <path d="M131.626646,14.8187357 C131.572826,11.664766 129.620343,9.26426558 126.710307,8.71525524 C124.026764,8.20865121 121.442639,8.59333708 119.015491,9.91701995 C118.299381,10.3077639 117.725297,10.5962783 118.363667,11.6253887 C118.918315,12.5197076 119.289825,12.6916046 120.212246,12.0850429 C121.004601,11.564051 121.983833,11.2611487 122.921952,11.0566897 C126.264046,10.3297243 128.581311,11.80713 128.996924,14.7475537 C129.159133,15.8970678 128.884798,16.265094 127.686548,16.2582787 C124.925265,16.2431336 122.161739,16.4286613 119.638163,17.7576449 C117.264834,19.007874 116.163012,21.1887702 116.550967,23.7248194 C116.932942,26.2199768 118.673881,27.9639365 121.293886,28.4402503 C124.458822,29.0157646 127.034724,28.0457201 129.132222,24.9137108 C129.132222,25.9337341 129.18679,26.4327656 129.12101,26.9158947 C128.973004,28.0033138 129.505227,28.1789971 130.435871,28.1683955 C131.304472,28.1585512 131.681962,27.9775671 131.669254,26.9885912 C131.616181,22.93273 131.696164,18.874597 131.626646,14.8187357 Z M128.77641,21.2781264 C127.853989,24.8803915 125.082988,26.9030214 122.089231,26.1624253 C120.523956,25.7754677 119.505854,24.8508586 119.28235,23.1826244 C119.064079,21.555282 119.782431,20.2914223 121.390314,19.5129635 C123.029592,18.7193596 124.787724,18.4997554 126.335059,18.5209586 C129.322836,18.3967687 129.467852,18.5792673 128.77641,21.2781264 Z" id="Shape"></path>
                </g>
            </g>
        </g>
    </g>
</svg>