<?xml version="1.0" encoding="utf-8"?>
<!-- Generator: Adobe Illustrator 21.1.0, SVG Export Plug-In . SVG Version: 6.00 Build 0)  -->
<svg version="1.1" id="Layer_1" xmlns="http://www.w3.org/2000/svg" xmlns:xlink="http://www.w3.org/1999/xlink" x="0px" y="0px"
	 viewBox="0 0 252.305 45.804" style="enable-background:new 0 0 252.305 45.804;" xml:space="preserve">
<style type="text/css">
	.st0{fill:#9D9FA2;}
</style>
<g>
	<path class="st0" d="M252.305,0c-0.006,1.734-0.017,3.468-0.017,5.202c-0.001,13.007-0.001,26.013-0.001,39.02
		c0,0.34,0,0.681,0,1.087c-15.078,0-30.114,0-45.201,0c-0.022-0.212-0.061-0.413-0.061-0.613c-0.002-14.82-0.001-29.639,0-44.459
		c0-0.079,0.008-0.157,0.013-0.236C222.127,0,237.216,0,252.305,0z M245.884,38.98c0.021-0.306,0.047-0.513,0.047-0.72
		c0.002-10.383-0.006-20.766,0.018-31.148c0.002-0.734-0.32-0.783-0.899-0.782c-10.278,0.012-20.555,0.008-30.833,0.011
		c-0.278,0-0.555,0.028-0.828,0.043c0,10.914,0,21.732,0,32.597C224.231,38.98,235.022,38.98,245.884,38.98z"/>
	<path class="st0" d="M126.571,45.343c0-6.188,0-12.297,0-18.451c0.183-0.023,0.332-0.057,0.48-0.057
		c2.416,0.004,4.836-0.067,7.246,0.053c1.182,0.059,2.4,0.336,3.507,0.761c1.611,0.619,2.427,1.935,2.505,3.678
		c0.079,1.754-0.704,3.023-2.192,3.892c-0.291,0.17-0.593,0.321-1.004,0.542c0.347,0.127,0.583,0.221,0.823,0.301
		c1.828,0.606,2.92,1.827,3.065,3.777c0.151,2.025-0.607,3.711-2.453,4.546c-1.253,0.568-2.714,0.842-4.1,0.917
		C131.862,45.443,129.261,45.343,126.571,45.343z M130.087,37.283c0,1.779,0,3.522,0,5.287c1.645,0,3.244,0.097,4.825-0.028
		c1.52-0.12,2.357-1.161,2.393-2.63c0.032-1.311-0.81-2.452-2.247-2.592C133.433,37.161,131.781,37.283,130.087,37.283z
		 M130.072,34.378c1.561,0,3.033,0.065,4.496-0.02c1.196-0.069,1.931-0.844,2.067-1.921c0.148-1.179-0.392-2.187-1.512-2.56
		c-1.654-0.55-3.357-0.183-5.05-0.284C130.072,31.265,130.072,32.782,130.072,34.378z"/>
	<path class="st0" d="M0,45.504c0-6.363,0-12.478,0-18.576c0.076-0.045,0.12-0.094,0.162-0.093c2.808,0.044,5.642-0.13,8.419,0.188
		c4.641,0.532,7.224,3.473,7.387,8.142c0.053,1.529-0.096,3.109-0.441,4.599c-0.599,2.589-2.357,4.208-4.877,5
		c-0.425,0.134-0.861,0.295-1.299,0.317C6.264,45.241,3.175,45.365,0,45.504z M3.598,36.082c0,1.942,0.002,3.884-0.002,5.826
		c-0.001,0.368,0.008,0.69,0.521,0.665c1.23-0.061,2.475-0.005,3.687-0.179c2.026-0.291,3.51-1.374,4.102-3.415
		c0.538-1.854,0.554-3.737,0.005-5.593c-0.486-1.644-1.54-2.879-3.209-3.281c-1.408-0.339-2.897-0.342-4.348-0.508
		c-0.576-0.066-0.781,0.137-0.77,0.739C3.62,32.25,3.598,34.166,3.598,36.082z"/>
	<path class="st0" d="M91.322,26.901c0,2.472,0,4.896,0,7.32c0.911-1.054,1.939-1.724,3.281-1.948
		c2.626-0.439,5.621,1.324,5.525,4.613c-0.082,2.78-0.017,5.563-0.017,8.417c-1.158,0-2.266,0-3.451,0
		c-0.013-0.286-0.036-0.565-0.036-0.844c-0.003-2.311,0.003-4.623-0.004-6.934c-0.005-1.816-0.742-2.787-2.194-2.917
		c-1.583-0.141-2.794,0.824-3.045,2.525c-0.118,0.799-0.095,1.621-0.1,2.434c-0.013,1.889-0.004,3.778-0.004,5.737
		c-1.161,0-2.27,0-3.436,0c0-6.119,0-12.225,0-18.402C88.944,26.901,90.055,26.901,91.322,26.901z"/>
	<path class="st0" d="M106.469,39.706c-0.231,1.961,0.718,3.493,2.272,3.797c1.731,0.339,2.845-0.405,3.425-2.311
		c1.057,0,2.122,0,3.236,0c0.01,1.242-0.433,2.229-1.264,3.07c-1.615,1.636-7.007,2.365-9.473-0.235
		c-2.7-2.846-2.309-8.799,0.859-10.842c2.37-1.528,4.968-1.587,7.411-0.203c2.355,1.334,2.829,3.695,2.828,6.198
		c0,0.566-0.364,0.527-0.745,0.527c-2.575-0.004-5.149-0.002-7.724-0.002C107.015,39.706,106.735,39.706,106.469,39.706z
		 M106.574,37.501c1.843,0,3.636,0,5.421,0c0.232-1.778-0.798-3.119-2.428-3.224C107.819,34.164,106.564,35.485,106.574,37.501z"/>
	<path class="st0" d="M30.953,39.711c-3.227,0-6.287,0-9.332,0c-0.255,1.922,0.701,3.482,2.252,3.79
		c1.742,0.345,2.9-0.425,3.438-2.357c0.523,0,1.071,0,1.618,0c0.519,0,1.039,0,1.637,0c-0.056,1.582-0.589,2.867-1.909,3.566
		c-2.565,1.358-5.236,1.517-7.839,0.087c-1.468-0.807-2.223-2.207-2.553-3.812c-0.469-2.287-0.39-4.539,1.043-6.493
		c1.748-2.382,4.281-2.717,6.945-2.23c2.529,0.462,3.948,2.174,4.44,4.641C30.869,37.786,30.865,38.704,30.953,39.711z
		 M27.226,37.502c-0.017-1.17-0.218-2.207-1.253-2.834c-0.945-0.572-1.967-0.583-2.91,0.002c-1.024,0.635-1.32,1.663-1.398,2.832
		C23.56,37.502,25.355,37.502,27.226,37.502z"/>
	<path class="st0" d="M155.28,45.32c-0.974,0-1.93,0-2.909,0c-0.057-0.532-0.108-1.013-0.179-1.672
		c-1.529,2.137-3.558,2.382-5.732,1.989c-1.76-0.318-2.853-1.503-3.107-3.136c-0.288-1.849,0.409-3.576,2.051-4.302
		c1.171-0.517,2.501-0.714,3.781-0.934c0.894-0.153,1.824-0.103,2.719-0.143c0.349-1.537-0.239-2.633-1.528-2.943
		c-1.719-0.413-2.763,0.231-3.202,2.047c-0.523,0-1.068,0-1.613,0c-0.52,0-1.039,0-1.541,0c-0.235-1.373,0.454-2.782,1.792-3.338
		c2.659-1.105,5.33-1.049,7.892,0.34c1,0.542,1.634,1.423,1.642,2.609c0.021,3.02,0.009,6.04,0.006,9.06
		C155.352,45.024,155.31,45.15,155.28,45.32z M150.644,38.974c-0.906,0.221-1.849,0.35-2.709,0.689
		c-0.897,0.353-1.299,1.344-1.127,2.288c0.156,0.863,0.829,1.439,1.83,1.568c1.9,0.244,3.215-0.9,3.378-2.937
		C152.134,39.091,152.134,39.091,150.644,38.974z"/>
	<path class="st0" d="M158.942,32.571c1.134,0,2.229,0,3.41,0c0,0.571,0,1.108,0,1.799c0.217-0.179,0.321-0.241,0.394-0.328
		c1.376-1.644,3.174-2.069,5.187-1.707c1.873,0.336,3.145,1.594,3.216,3.471c0.118,3.144,0.032,6.295,0.032,9.506
		c-1.141,0-2.255,0-3.497,0c0-0.314,0-0.618,0-0.923c-0.002-2.39,0.026-4.781-0.016-7.171c-0.027-1.52-0.836-2.451-2.12-2.601
		c-1.448-0.169-2.644,0.63-3.018,2.065c-0.117,0.451-0.166,0.931-0.17,1.399c-0.018,2.127-0.037,4.256,0.008,6.382
		c0.015,0.715-0.172,0.992-0.913,0.924c-0.677-0.062-1.365-0.026-2.048-0.01c-0.389,0.009-0.571-0.113-0.57-0.537
		c0.013-3.992,0.011-7.985,0.017-11.977C158.855,32.79,158.897,32.716,158.942,32.571z"/>
	<path class="st0" d="M42.427,32.558c1.227,0,2.3,0,3.456,0c0.019,0.271,0.053,0.523,0.053,0.776
		c0.003,3.755-0.013,7.51,0.017,11.265c0.005,0.645-0.208,0.816-0.811,0.786c-0.858-0.043-1.72-0.011-2.637-0.011
		c-0.032-0.59-0.061-1.1-0.089-1.61c-0.778,1.06-1.774,1.666-3.009,1.912c-3.345,0.666-5.802-1.318-5.817-4.716
		c-0.011-2.547-0.003-5.094,0-7.641c0-0.23,0.029-0.46,0.048-0.735c1.158,0,2.27,0,3.488,0c0,0.527,0,1.018,0,1.508
		c0,2.127-0.005,4.254,0.002,6.381c0.006,1.867,0.735,2.771,2.298,2.875c1.59,0.105,2.791-0.91,2.94-2.628
		c0.106-1.226,0.052-2.466,0.058-3.699C42.433,35.557,42.427,34.094,42.427,32.558z"/>
	<path class="st0" d="M70.291,36.022c-0.976,0-1.867,0.025-2.754-0.021c-0.178-0.009-0.445-0.259-0.494-0.444
		c-0.228-0.862-0.853-1.145-1.637-1.229c-0.887-0.095-1.759-0.06-2.38,0.696c-0.419,0.51-0.283,1.209,0.33,1.55
		c0.497,0.276,1.059,0.455,1.61,0.613c1.059,0.302,2.15,0.504,3.195,0.847c1.825,0.598,2.719,1.752,2.767,3.415
		c0.047,1.624-0.819,2.95-2.513,3.639c-2.341,0.953-4.727,0.919-7.075,0.026c-1.365-0.519-2.136-1.766-2.126-3.126
		c0.003-0.387,0.108-0.586,0.531-0.578c0.814,0.016,1.63-0.021,2.442,0.024c0.181,0.01,0.468,0.246,0.502,0.419
		c0.215,1.093,0.959,1.577,1.956,1.603c0.685,0.018,1.435-0.095,2.045-0.384c0.378-0.18,0.739-0.794,0.751-1.224
		c0.011-0.386-0.387-0.897-0.746-1.151c-0.408-0.288-0.969-0.373-1.474-0.509c-1.013-0.274-2.043-0.49-3.045-0.797
		c-0.467-0.143-0.92-0.396-1.322-0.68c-1.923-1.358-1.972-3.834-0.125-5.284c1.86-1.46,5.925-1.775,7.969-0.6
		C69.875,33.505,70.42,34.529,70.291,36.022z"/>
	<path class="st0" d="M84.937,36.807c-1.109,0-2.174,0-3.261,0c-0.042-0.171-0.076-0.294-0.102-0.419
		c-0.297-1.422-0.931-2.029-2.228-2.129c-1.259-0.098-2.293,0.576-2.682,1.857c-0.567,1.862-0.511,3.741,0.098,5.584
		c0.457,1.384,1.426,1.975,2.841,1.83c1.155-0.118,1.799-0.83,2.031-2.247c0.021-0.128,0.034-0.258,0.062-0.464
		c1.09,0,2.17,0,3.249,0c0.15,1.799-0.713,3.38-2.387,4.169c-2.105,0.993-4.282,1.061-6.416,0.122
		c-2.299-1.012-3.098-3.038-3.268-5.355c-0.072-0.983-0.015-2.009,0.188-2.972c0.684-3.247,3.369-5.011,6.992-4.69
		c1.225,0.109,2.378,0.429,3.369,1.197C84.485,34.113,85.035,35.367,84.937,36.807z"/>
	<path class="st0" d="M53.918,28.798c0,1.125,0.03,2.071-0.011,3.013c-0.026,0.603,0.14,0.859,0.789,0.816
		c0.803-0.053,1.612-0.013,2.46-0.013c0,0.848,0,1.597,0,2.455c-1.067,0-2.102,0-3.238,0c0,1.229-0.001,2.35,0,3.471
		c0.001,0.946-0.026,1.893,0.012,2.838c0.058,1.447,0.626,1.972,2.072,1.973c0.366,0,0.731-0.041,1.157-0.067
		c0,0.687,0,1.377,0,2.254c-1.295,0.033-2.582,0.196-3.839,0.067c-1.778-0.182-2.643-1.127-2.726-2.909
		c-0.099-2.125-0.052-4.256-0.067-6.384c-0.003-0.365,0-0.73,0-1.226c-0.93,0-1.802,0-2.706,0c0-0.879,0-1.626,0-2.473
		c0.725,0,1.402-0.022,2.076,0.008c0.485,0.021,0.72-0.177,0.621-0.64c-0.256-1.196,0.391-1.755,1.385-2.158
		C52.551,29.561,53.155,29.191,53.918,28.798z"/>
	<path class="st0" d="M178.119,45.336c-1.159,0-2.228,0-3.367,0c0-6.156,0-12.282,0-18.456c1.121,0,2.21,0,3.367,0
		C178.119,33.031,178.119,39.14,178.119,45.336z"/>
	<path class="st0" d="M188.197,45.371c-1.549,0-2.882,0.018-4.214-0.018c-0.211-0.006-0.474-0.208-0.613-0.394
		c-1.691-2.273-3.364-4.56-5.098-6.921c0.967-1.093,2.059-2.101,2.872-3.298c1.257-1.85,2.871-2.589,5.048-2.214
		c0.292,0.05,0.601,0.007,1.123,0.007c-1.771,1.875-3.383,3.582-5.067,5.364C184.198,40.348,186.134,42.779,188.197,45.371z"/>
	<path class="st0" d="M242.251,10.95c-1.968,2.7-3.84,5.267-5.711,7.834c-3.652,5.01-7.312,10.014-10.943,15.04
		c-0.369,0.51-0.753,0.689-1.366,0.679c-2.102-0.035-4.204-0.013-6.307-0.013c-0.255,0-0.51,0-0.907,0
		c0.212-0.327,0.337-0.543,0.483-0.744c5.4-7.41,10.804-14.816,16.195-22.232c0.303-0.417,0.609-0.626,1.157-0.617
		c2.181,0.035,4.362,0.014,6.543,0.016C241.626,10.913,241.854,10.932,242.251,10.95z"/>
</g>
</svg>
