<?xml version="1.0" encoding="UTF-8"?>
<svg width="189px" height="35px" viewBox="0 0 189 35" version="1.1" xmlns="http://www.w3.org/2000/svg" xmlns:xlink="http://www.w3.org/1999/xlink">
    <!-- Generator: Sketch 44.1 (41455) - http://www.bohemiancoding.com/sketch -->
    <title>deutsche-bank-logo</title>
    <desc>Created with Sketch.</desc>
    <defs></defs>
    <g id="Home-Page" stroke="none" stroke-width="1" fill="none" fill-rule="evenodd">
        <g id="Tablet-Portrait" transform="translate(-423.000000, -3728.000000)" fill-rule="nonzero" fill="#9D9FA2">
            <g id="Investors-Copy" transform="translate(0.000000, 3105.000000)">
                <g id="deutsche-bank-logo" transform="translate(423.000000, 623.000000)">
                    <path d="M188.599229,0 C188.594744,1.31308129 188.586521,2.62616258 188.586521,3.93924387 C188.585774,13.7888681 188.585774,23.637735 188.585774,33.4873592 L188.585774,34.3104961 L154.797804,34.3104961 C154.781359,34.1499579 154.752206,33.9977495 154.752206,33.8462984 C154.750711,22.6237697 154.751459,11.4019983 154.752206,0.179469588 C154.752206,0.119646392 154.758186,0.0605804517 154.761924,0.000757255647 C166.041025,0 177.320127,0 188.599229,0 Z M183.7995,29.5178251 C183.815197,29.2861049 183.834633,29.129353 183.834633,28.972601 C183.836128,21.1100157 183.830148,13.2474303 183.848088,5.38560216 C183.849583,4.82977651 183.608886,4.79267099 183.176081,4.79342824 C175.493225,4.80251531 167.811117,4.79948629 160.128262,4.80175805 C159.920455,4.80175805 159.713396,4.82296121 159.509327,4.83432005 L159.509327,29.5185824 C167.613776,29.5178251 175.680101,29.5178251 183.7995,29.5178251 Z" id="Shape"></path>
                    <path d="M94.6124453,34.3362428 L94.6124453,20.3641188 C94.7492387,20.346702 94.8606169,20.3209553 94.9712476,20.3209553 C96.7772195,20.3239843 98.5861814,20.2702191 100.387668,20.3610898 C101.271219,20.4057679 102.18168,20.6155277 103.009168,20.9373614 C104.213398,21.4061026 104.823362,22.402651 104.881668,23.7225476 C104.940721,25.050774 104.355424,26.0117315 103.243137,26.6697866 C103.025613,26.7985201 102.799867,26.9128657 102.492642,27.0802192 C102.752026,27.1763906 102.928438,27.2475727 103.107839,27.3081531 C104.474278,27.76705 105.290553,28.6916592 105.398941,30.1683077 C105.511815,31.7017504 104.945206,32.9784834 103.565312,33.6107919 C102.628688,34.0409131 101.536583,34.2484011 100.500542,34.3051953 C98.5674938,34.4119683 96.6232335,34.3362428 94.6124453,34.3362428 Z M97.2406726,28.2327623 L97.2406726,32.2363729 C98.4703182,32.2363729 99.6655785,32.3098267 100.847384,32.2151697 C101.983591,32.124299 102.609253,31.3359959 102.636163,30.2235874 C102.660083,29.2308252 102.030684,28.3667965 100.95652,28.2607807 C99.741824,28.1403771 98.5069459,28.2327623 97.2406726,28.2327623 Z M97.22946,26.0329346 C98.3963152,26.0329346 99.4966424,26.0821562 100.590242,26.0177895 C101.484258,25.9655389 102.033674,25.3786657 102.135335,24.5631014 C102.245966,23.670297 101.842313,22.9069833 101.005107,22.624527 C99.7687342,22.2080363 98.4957333,22.4859492 97.2302075,22.4094663 C97.22946,23.6755978 97.22946,24.8243546 97.22946,26.0329346 Z" id="Shape"></path>
                    <path d="M0,34.4581609 L0,20.39138 C0.0568103739,20.3573035 0.0897005904,20.320198 0.121095797,20.3209553 C2.22008961,20.3542745 4.33851856,20.222512 6.41433972,20.4633193 C9.88351006,20.8661793 11.8143153,23.0932682 11.9361586,26.6288948 C11.9757763,27.7867387 11.8643981,28.9832026 11.6065089,30.1115135 C11.1587535,32.0720484 9.8446398,33.2980453 7.9609274,33.8977918 C7.64323781,33.999264 7.31732567,34.1211822 6.98991851,34.1378418 C4.68237082,34.2590027 2.37332812,34.3529024 0,34.4581609 Z M2.6895227,27.3232982 C2.6895227,28.7938887 2.69101771,30.2644792 2.68802769,31.7350696 C2.68728019,32.0137397 2.69400773,32.257576 3.07747776,32.2386446 C3.99690881,32.192452 4.92755243,32.2348584 5.8335284,32.1030959 C7.34797337,31.8827345 8.45727067,31.0626266 8.89979358,29.5170678 C9.30195123,28.1131159 9.31391131,26.6872035 8.90353111,25.281737 C8.54024372,24.0368087 7.75237353,23.101598 6.50478782,22.7971812 C5.45230089,22.5404716 4.33926606,22.5381998 3.25463642,22.4124954 C2.82407359,22.3625165 2.67083508,22.5162394 2.67905763,22.9721073 C2.70596781,24.4214946 2.6895227,25.8723964 2.6895227,27.3232982 Z" id="Shape"></path>
                    <path d="M68.2636443,20.3709341 L68.2636443,25.9140455 C68.9446213,25.115898 69.7130564,24.6085367 70.716208,24.4389115 C72.6791559,24.1064763 74.9179331,25.441518 74.8461727,27.9321318 C74.7848773,30.0373025 74.8334651,32.1447449 74.8334651,34.3059526 L72.2538256,34.3059526 C72.244108,34.0893774 72.2269154,33.8781031 72.2269154,33.6668288 C72.2246729,31.916811 72.2291579,30.1660359 72.2239254,28.4160181 C72.2201879,27.0408419 71.6692768,26.3055466 70.5838996,26.2071034 C69.4005993,26.1003304 68.4953709,26.8310821 68.3077471,28.1191739 C68.2195415,28.7242212 68.2367342,29.3466853 68.2329966,29.9623342 C68.2232791,31.3927901 68.2300066,32.823246 68.2300066,34.3067098 L65.6615797,34.3067098 L65.6615797,20.3716914 C66.4860776,20.3709341 67.3165556,20.3709341 68.2636443,20.3709341 Z" id="Shape"></path>
                    <path d="M79.5861014,30.0675927 C79.4134277,31.552571 80.1228099,32.7126867 81.2844325,32.9428924 C82.5783636,33.1996021 83.411084,32.6362039 83.8446369,31.1928746 L86.2635628,31.1928746 C86.2710379,32.1333861 85.9398932,32.8807974 85.3187166,33.5176494 C84.1114962,34.7565197 80.0809496,35.308559 78.2376025,33.3396943 C76.2193392,31.1845448 76.5116136,26.6766019 78.8797092,25.1295286 C80.6512959,23.972442 82.5933137,23.9277639 84.4194682,24.9758057 C86.1798423,25.9859848 86.5341596,27.7738653 86.5334121,29.6692762 C86.5334121,30.0978829 86.2613203,30.06835 85.9765209,30.06835 C84.0516958,30.0653209 82.1276181,30.0668354 80.2027929,30.0668354 C79.9942391,30.0675927 79.7849377,30.0675927 79.5861014,30.0675927 Z M79.6645894,28.397844 L83.7168136,28.397844 C83.8902347,27.0514435 83.1203046,26.0359636 81.9018716,25.9564518 C80.595233,25.8708819 79.6571143,26.8712166 79.6645894,28.397844 Z" id="Shape"></path>
                    <path d="M23.1375198,30.071379 L16.1618039,30.071379 C15.9711901,31.5268243 16.6858048,32.7081431 17.845185,32.9413779 C19.1473385,33.2026311 20.0129492,32.6195442 20.4151069,31.1565263 L21.6245698,31.1565263 L22.8482354,31.1565263 C22.8063751,32.3545048 22.407955,33.3275783 21.4212485,33.8569 C19.5038984,34.8852531 17.5073127,35.0056568 15.5615574,33.9227812 C14.4642202,33.3116759 13.899854,32.251518 13.6531774,31.0361227 C13.3025976,29.304279 13.3616505,27.5989393 14.432825,26.1192618 C15.7394636,24.3154788 17.6328936,24.0617982 19.6242467,24.4305817 C21.5146866,24.7804338 22.5753961,26.0768554 22.9431685,27.9450051 C23.0747294,28.6136619 23.0717394,29.3088225 23.1375198,30.071379 Z M20.351569,28.3986013 C20.3388614,27.5126121 20.1886129,26.727338 19.4149453,26.2525388 C18.7085531,25.8193885 17.9446031,25.8110587 17.239706,26.2540533 C16.4742609,26.7349106 16.2529995,27.5133694 16.1946941,28.3986013 L20.351569,28.3986013 Z" id="Shape"></path>
                    <path d="M116.072564,34.3188259 L113.898072,34.3188259 C113.855464,33.9159659 113.817342,33.5517259 113.764269,33.0526945 C112.621334,34.6709498 111.104646,34.8564774 109.479571,34.5588759 C108.163962,34.3180686 107.346939,33.4207207 107.157073,32.1841222 C106.941791,30.7839565 107.462802,29.476176 108.690205,28.9264084 C109.565534,28.5349073 110.559715,28.3857279 111.516522,28.2191317 C112.184791,28.1032716 112.879971,28.1411343 113.548987,28.1108441 C113.809867,26.9469422 113.370334,26.11699 112.4068,25.8822407 C111.121839,25.5694942 110.341444,26.0571668 110.013289,27.4323431 L108.807564,27.4323431 L107.655659,27.4323431 C107.479995,26.392631 107.995026,25.3256578 108.995187,24.9046237 C110.982803,24.0678562 112.979389,24.1102625 114.894496,25.1620906 C115.642001,25.5725232 116.115919,26.2396654 116.121899,27.1377706 C116.137597,29.4246827 116.128627,31.7115947 116.126384,33.9985068 C116.126384,34.0946782 116.094989,34.1900924 116.072564,34.3188259 Z M112.607131,29.5132816 C111.929892,29.6806351 111.224995,29.778321 110.58214,30.0350307 C109.911628,30.302342 109.611132,31.0527823 109.739702,31.7676316 C109.856313,32.4211433 110.359384,32.8573225 111.107636,32.9550085 C112.527896,33.1397789 113.510865,32.2734784 113.632708,30.7309486 C113.720914,29.6018805 113.720914,29.6018805 112.607131,29.5132816 Z" id="Shape"></path>
                    <path d="M118.809927,24.6645737 L121.358919,24.6645737 L121.358919,26.0268766 C121.521127,25.8913278 121.598868,25.844378 121.653436,25.7784967 C122.682003,24.5335684 124.026016,24.2117348 125.530744,24.4858613 C126.930821,24.7402992 127.881647,25.6929268 127.93472,27.1142957 C128.022925,29.4951074 127.95864,31.88122 127.95864,34.3127679 L125.344615,34.3127679 L125.344615,33.6138209 C125.34312,31.8039799 125.36405,29.9933816 125.332655,28.1835407 C125.312472,27.0325121 124.707741,26.3275071 123.747945,26.2139187 C122.665557,26.0859425 121.771542,26.6909898 121.491975,27.7776516 C121.404517,28.1191739 121.367889,28.4826566 121.364899,28.8370523 C121.351444,30.447735 121.337241,32.0599323 121.370879,33.6698578 C121.382091,34.2112956 121.242308,34.4210554 120.688407,34.369562 C120.182346,34.3226122 119.668063,34.3498734 119.157517,34.3619895 C118.866737,34.3688048 118.730692,34.2764196 118.731439,33.9553432 C118.741157,30.9323786 118.739662,27.9086569 118.744147,24.8856923 C118.744894,24.8304126 118.776289,24.7743757 118.809927,24.6645737 Z" id="Shape"></path>
                    <path d="M31.7143913,24.6547293 L34.2977683,24.6547293 C34.3119709,24.8599456 34.337386,25.050774 34.337386,25.2423597 C34.3396285,28.0858547 34.3276685,30.9293496 34.3500936,33.7728446 C34.3538311,34.2612745 34.1946126,34.3907652 33.7438671,34.3680475 C33.1025079,34.3354855 32.4581587,34.3597177 31.7726966,34.3597177 C31.7487765,33.9129369 31.7270988,33.5267365 31.7061687,33.1405361 C31.1246099,33.9432271 30.380095,34.402124 29.4569264,34.5884089 C26.9565224,35.0927412 25.1199028,33.590346 25.1086903,31.0171913 C25.1004677,29.0884611 25.1064478,27.159731 25.1086903,25.2310009 C25.1086903,25.0568321 25.1303679,24.8826633 25.1445705,24.674418 L27.7518677,24.674418 L27.7518677,25.8163595 C27.7518677,27.4270423 27.7481301,29.037725 27.7533627,30.6484078 C27.7578477,32.0622041 28.3027788,32.7467632 29.471129,32.8255178 C30.6596618,32.9050296 31.5574152,32.1364151 31.6687935,30.8354499 C31.748029,29.9070545 31.7076637,28.9680575 31.7121487,28.0343613 C31.7188763,26.925739 31.7143913,25.817874 31.7143913,24.6547293 Z" id="Shape"></path>
                    <path d="M52.5428684,27.2778629 C51.8133036,27.2778629 51.1472767,27.2967943 50.4842398,27.2619605 C50.3511839,27.2551452 50.1516001,27.0658313 50.1149724,26.925739 C49.9445413,26.2729847 49.4773507,26.0586813 48.8913068,25.9950718 C48.22827,25.9231325 47.5764457,25.9496365 47.1122451,26.5221218 C46.7990405,26.9083221 46.9007012,27.4376438 47.3589217,27.695868 C47.7304317,27.9048706 48.1505294,28.0404193 48.5624047,28.1600657 C49.3540124,28.3887569 50.1695402,28.5417226 50.9506829,28.8014613 C52.3148794,29.2543001 52.9831488,30.1281732 53.019029,31.3874893 C53.0541617,32.6172725 52.4068225,33.6213934 51.1405491,34.1431426 C49.3906401,34.8648072 47.6070934,34.8390605 45.8519518,34.1628312 C44.8316076,33.7698156 44.2552813,32.8255178 44.2627564,31.7956501 C44.2649989,31.5025922 44.3434869,31.3518983 44.6596815,31.3579563 C45.2681505,31.3700724 45.8781145,31.342054 46.4850885,31.3761305 C46.6203869,31.383703 46.8349208,31.5624153 46.860336,31.6934206 C47.0210495,32.521101 47.5771932,32.8876127 48.3224556,32.9073014 C48.8344964,32.920932 49.3951251,32.8353621 49.8511031,32.6165152 C50.13366,32.4802092 50.4035093,32.0152542 50.4124793,31.6896343 C50.4207019,31.3973336 50.1231949,31.010376 49.8548407,30.818033 C49.5498587,30.5999434 49.1305084,30.5355767 48.7530184,30.4325899 C47.9957959,30.2251019 47.2258659,30.0615347 46.4768659,29.8290572 C46.1277811,29.7207696 45.7891614,29.5291839 45.4886644,29.3141233 C44.0512125,28.2857702 44.0145847,26.4108052 45.3952263,25.3127845 C46.7855855,24.2071913 49.824193,23.9686557 51.352093,24.8584311 C52.2319063,25.3718504 52.6392965,26.1472802 52.5428684,27.2778629 Z" id="Shape"></path>
                    <path d="M63.4908254,27.8723086 L61.0532119,27.8723086 C61.0218167,27.7428179 60.9964015,27.6496754 60.9769664,27.5550185 C60.7549574,26.4782009 60.2810393,26.0185468 59.3115254,25.9428212 C58.3704167,25.8686101 57.5974966,26.3790004 57.3067172,27.3490449 C56.8828819,28.7590549 56.9247422,30.1819383 57.3799727,31.5775605 C57.7215824,32.6256023 58.4459147,33.0731404 59.5036342,32.9633383 C60.3670024,32.8739821 60.8483955,32.3348161 61.0218167,31.2617849 C61.0375143,31.1648561 61.0472318,31.0664129 61.068162,30.9104182 L63.4968055,30.9104182 C63.6089312,32.2727211 62.9638345,33.4699423 61.7125112,34.067417 C60.1390134,34.8193719 58.5116951,34.8708653 56.9165196,34.1598022 C55.1980058,33.3934595 54.6007494,31.8592596 54.4736736,30.1046982 C54.4198532,29.3603159 54.462461,28.5833716 54.6142045,27.8541344 C55.1254979,25.3953254 57.1325486,24.0595264 59.8407589,24.3026055 C60.7564524,24.3851463 61.6183256,24.6274681 62.359103,25.2090405 C63.1529532,25.8322619 63.5640809,26.7818605 63.4908254,27.8723086 Z" id="Shape"></path>
                    <path d="M40.3039703,21.8074481 C40.3039703,22.6593607 40.3263954,23.3757246 40.2957477,24.0890594 C40.2763126,24.5456845 40.4003984,24.739542 40.8855291,24.70698 C41.4857756,24.6668454 42.0905071,24.6971357 42.7243912,24.6971357 L42.7243912,26.5561983 L40.3039703,26.5561983 C40.3039703,27.4868655 40.3032228,28.335749 40.3039703,29.1846326 C40.3047178,29.9009965 40.2845352,30.6181176 40.3129404,31.3337241 C40.3562956,32.4294731 40.7808784,32.8270323 41.8617705,32.8277895 C42.1353574,32.8277895 42.4081966,32.7967421 42.7266337,32.7770534 L42.7266337,34.4839076 C41.7586149,34.5088971 40.796576,34.6323297 39.8569624,34.5346438 C38.5278986,34.3968232 37.8813068,33.6812166 37.8192639,32.3317871 C37.745261,30.7226188 37.7803937,29.1089071 37.7691811,27.497467 C37.7669386,27.2210687 37.7691811,26.9446704 37.7691811,26.5690716 L35.7464328,26.5690716 L35.7464328,24.6963784 C36.2883739,24.6963784 36.7944347,24.6797188 37.298253,24.7024364 C37.6607929,24.7183388 37.8364566,24.5684022 37.7624536,24.2177928 C37.5710923,23.3121151 38.054728,22.8888092 38.7977479,22.5836351 C39.2821311,22.3852342 39.733624,22.1050496 40.3039703,21.8074481 Z" id="Shape"></path>
                    <path d="M133.144829,34.330942 L130.62798,34.330942 L130.62798,20.3550318 L133.144829,20.3550318 L133.144829,34.330942 Z" id="Shape"></path>
                    <path d="M140.678183,34.3574459 C139.520298,34.3574459 138.523874,34.3710765 137.528198,34.3438153 C137.370474,34.3392718 137.17388,34.1863062 137.069977,34.0454566 C135.805946,32.3242145 134.555371,30.5923709 133.259197,28.8044903 C133.982034,27.9768099 134.79831,27.2134962 135.406031,26.3070612 C136.345645,24.9061382 137.552118,24.3465263 139.179436,24.6304972 C139.397708,24.6683599 139.628687,24.6357979 140.018884,24.6357979 C138.695053,26.0556523 137.490075,27.3482877 136.231277,28.6977172 C137.688911,30.5537508 139.136081,32.3946393 140.678183,34.3574459 Z" id="Shape"></path>
                    <path d="M181.083814,8.29194933 C179.612725,10.3365396 178.213396,12.2804148 176.814814,14.2242901 C174.084926,18.0181409 171.349058,21.8074481 168.634868,25.613415 C168.359038,25.9996154 168.071996,26.1351641 167.613776,26.1275916 C166.04252,26.1010876 164.471265,26.1177472 162.899262,26.1177472 L162.221275,26.1177472 C162.379746,25.8701247 162.473184,25.7065574 162.58232,25.554349 C166.618847,19.9430847 170.658363,14.3348494 174.688162,8.71904151 C174.914656,8.40326591 175.143393,8.24499948 175.553026,8.25181478 C177.183334,8.27831873 178.813642,8.26241636 180.44395,8.26393087 C180.616624,8.26393087 180.787055,8.27831873 181.083814,8.29194933 Z" id="Shape"></path>
                </g>
            </g>
        </g>
    </g>
</svg>