<?xml version="1.0" encoding="UTF-8"?>
<svg width="206px" height="40px" viewBox="0 0 206 40" version="1.1" xmlns="http://www.w3.org/2000/svg" xmlns:xlink="http://www.w3.org/1999/xlink">
    <!-- Generator: Sketch 43.2 (39069) - http://www.bohemiancoding.com/sketch -->
    <title>Lendable Logo</title>
    <desc>Created with Sketch.</desc>
    <defs></defs>
    <g id="Symbols" stroke="none" stroke-width="1" fill="none" fill-rule="evenodd">
        <g id="TABLET-NAV">
            <g id="Navigation-Copy">
                <g id="Lendable-Logo" transform="translate(0.571429, 0.000000)">
                    <g id="logo">
                        <g id="Group" transform="translate(45.777778, 5.714286)" fill-rule="nonzero" fill="#262B3A">
                            <path d="M16.8805556,21.8095238 L16.8805556,28 L2.47962963,28 C1.43055556,28 0.572222222,27.1428571 0.572222222,26.0952381 L0.572222222,2 C0.572222222,0.952380952 1.43055556,0.0952380952 2.47962963,0.0952380952 L6.96203704,0.0952380952 L6.96203704,21.9047619 L16.8805556,21.9047619 L16.8805556,21.8095238 Z" id="Shape"></path>
                            <path d="M28.2296296,23.2380952 C29.8509259,23.2380952 31.2814815,22.5714286 32.0444444,21.7142857 L36.812963,24.4761905 C34.8101852,27.2380952 31.8537037,28.5714286 28.1342593,28.5714286 C21.2675926,28.5714286 17.0712963,24 17.0712963,18 C17.0712963,12 21.362963,7.42857143 27.7527778,7.42857143 C33.5703704,7.42857143 37.9574074,11.9047619 37.9574074,18 C37.9574074,18.8571429 37.862037,19.6190476 37.6712963,20.3809524 L23.4611111,20.3809524 C24.2240741,22.4761905 26.0361111,23.2380952 28.2296296,23.2380952 Z M31.9490741,15.9047619 C31.2814815,13.6190476 29.4694444,12.7619048 27.7527778,12.7619048 C25.4638889,12.7619048 23.937963,13.9047619 23.3657407,15.9047619 L31.9490741,15.9047619 Z" id="Shape"></path>
                            <path d="M58.5574074,15.7142857 L58.5574074,28 L52.5490741,28 L52.5490741,16.5714286 C52.5490741,14.0952381 51.0231481,12.952381 49.1157407,12.952381 C46.9222222,12.952381 45.3962963,14.1904762 45.3962963,17.047619 L45.3962963,27.9047619 L39.387963,27.9047619 L39.387963,7.9047619 L45.3962963,7.9047619 L45.3962963,9.80952381 C46.4453704,8.28571429 48.4481481,7.33333333 51.1185185,7.33333333 C55.1240741,7.42857143 58.5574074,10.2857143 58.5574074,15.7142857 Z" id="Shape"></path>
                            <path d="M81.637037,0 L81.637037,28 L75.6287037,28 L75.6287037,26.0952381 C74.2935185,27.6190476 72.3861111,28.5714286 69.7157407,28.5714286 C64.4703704,28.5714286 60.1787037,24 60.1787037,18 C60.1787037,12 64.4703704,7.42857143 69.7157407,7.42857143 C72.3861111,7.42857143 74.3888889,8.38095238 75.6287037,9.9047619 L75.6287037,2 C75.6287037,0.952380952 76.487037,0.0952380952 77.5361111,0.0952380952 L81.637037,0.0952380952 L81.637037,0 Z M75.6287037,18 C75.6287037,15.047619 73.6259259,13.1428571 70.8601852,13.1428571 C68.0944444,13.1428571 66.0916667,15.047619 66.0916667,18 C66.0916667,20.952381 68.0944444,22.8571429 70.8601852,22.8571429 C73.6259259,22.8571429 75.6287037,20.952381 75.6287037,18 Z" id="Shape"></path>
                            <path d="M105.193519,8 L105.193519,28 L99.1851852,28 L99.1851852,26.0952381 C97.85,27.6190476 95.9425926,28.5714286 93.2722222,28.5714286 C88.0268519,28.5714286 83.7351852,24 83.7351852,18 C83.7351852,12 88.0268519,7.42857143 93.2722222,7.42857143 C95.9425926,7.42857143 97.9453704,8.38095238 99.1851852,9.9047619 L99.1851852,8 L105.193519,8 L105.193519,8 Z M99.1851852,18 C99.1851852,15.047619 97.1824074,13.1428571 94.4166667,13.1428571 C91.6509259,13.1428571 89.6481481,15.047619 89.6481481,18 C89.6481481,20.952381 91.6509259,22.8571429 94.4166667,22.8571429 C97.1824074,22.8571429 99.1851852,20.952381 99.1851852,18 Z" id="Shape"></path>
                            <path d="M128.65463,18 C128.65463,23.9047619 124.362963,28.5714286 119.117593,28.5714286 C116.447222,28.5714286 114.444444,27.6190476 113.20463,26.0952381 L113.20463,28 L107.196296,28 L107.196296,0 L111.201852,0 C112.250926,0 113.109259,0.857142857 113.109259,1.9047619 L113.109259,9.80952381 C114.444444,8.28571429 116.351852,7.33333333 119.022222,7.33333333 C124.362963,7.42857143 128.65463,12.0952381 128.65463,18 Z M122.646296,18 C122.646296,15.047619 120.643519,13.1428571 117.877778,13.1428571 C115.112037,13.1428571 113.109259,15.047619 113.109259,18 C113.109259,20.952381 115.112037,22.8571429 117.877778,22.8571429 C120.643519,22.8571429 122.646296,20.952381 122.646296,18 Z" id="Shape"></path>
                            <path d="M130.657407,0 L134.662963,0 C135.712037,0 136.57037,0.857142857 136.57037,1.9047619 L136.57037,26 C136.57037,27.047619 135.712037,27.9047619 134.662963,27.9047619 L130.657407,27.9047619 L130.657407,0 Z" id="Shape"></path>
                            <path d="M149.636111,23.2380952 C151.257407,23.2380952 152.687963,22.5714286 153.450926,21.7142857 L158.219444,24.4761905 C156.216667,27.2380952 153.260185,28.5714286 149.540741,28.5714286 C142.674074,28.5714286 138.477778,24 138.477778,18 C138.477778,12 142.769444,7.42857143 149.159259,7.42857143 C154.976852,7.42857143 159.363889,11.9047619 159.363889,18 C159.363889,18.8571429 159.268519,19.6190476 159.077778,20.3809524 L144.867593,20.3809524 C145.630556,22.4761905 147.442593,23.2380952 149.636111,23.2380952 Z M153.355556,15.9047619 C152.687963,13.6190476 150.875926,12.7619048 149.159259,12.7619048 C146.87037,12.7619048 145.344444,13.9047619 144.772222,15.9047619 L153.355556,15.9047619 Z" id="Shape"></path>
                        </g>
                        <g id="Group" fill-rule="nonzero">
                            <path d="M36.7175926,16.5714286 L26.9898148,6.85714286 L26.9898148,6.85714286 L23.5564815,3.42857143 L23.4611111,3.52380952 L23.4611111,3.52380952 L20.2185185,6.76190476 L20.2185185,6.76190476 L19.0740741,7.9047619 L19.0740741,7.9047619 L15.6407407,11.3333333 L15.6407407,11.3333333 L7.91574074,19.047619 C7.43888889,19.5238095 7.43888889,20.3809524 7.91574074,20.952381 L10.3953704,23.4285714 L15.6407407,28.6666667 L14.5916667,29.7142857 L5.91296296,21.047619 C5.34074074,20.4761905 5.34074074,19.5238095 5.91296296,18.952381 L22.412037,2.38095238 L22.412037,2.28571429 C20.5046296,0.476190476 17.4527778,0.476190476 15.6407407,2.38095238 L1.43055556,16.5714286 L1.43055556,16.5714286 C-0.476851852,18.4761905 -0.476851852,21.5238095 1.43055556,23.4285714 L11.1583333,33.1428571 L11.1583333,33.1428571 L14.4962963,36.4761905 L14.5916667,36.4761905 L14.5916667,36.4761905 L14.5916667,36.4761905 L17.9296296,33.1428571 L17.9296296,33.1428571 L19.0740741,32 L19.0740741,32 L22.5074074,28.5714286 L22.5074074,28.5714286 L30.2324074,20.8571429 C30.7092593,20.3809524 30.7092593,19.5238095 30.2324074,18.952381 L27.7527778,16.4761905 C27.7527778,16.4761905 27.7527778,16.4761905 27.6574074,16.4761905 L27.6574074,16.4761905 L22.412037,11.2380952 L23.4611111,10.1904762 L32.0444444,18.7619048 C32.6166667,19.3333333 32.6166667,20.3809524 32.0444444,20.952381 L15.7361111,37.5238095 L15.7361111,37.7142857 C17.6435185,39.5238095 20.6,39.5238095 22.5074074,37.6190476 L36.7175926,23.4285714 L36.7175926,23.4285714 C38.625,21.5238095 38.625,18.4761905 36.7175926,16.5714286 Z M24.3194444,20 L19.0740741,25.2380952 L13.8287037,20 L19.0740741,14.7619048 L24.3194444,20 Z" id="Shape" fill="#35C187"></path>
                            <rect id="Rectangle-path" fill="#39A671" transform="translate(21.313804, 13.683929) rotate(45.000000) translate(-21.313804, -13.683929) " x="20.5508487" y="11.2553804" width="1.52591129" height="4.85709628"></rect>
                            <rect id="Rectangle-path" fill="#39A671" transform="translate(25.854435, 9.118205) rotate(45.000000) translate(-25.854435, -9.118205) " x="25.0914797" y="6.68965662" width="1.52591129" height="4.85709628"></rect>
                            <rect id="Rectangle-path" fill="#39A671" transform="translate(16.756512, 26.399700) rotate(45.000000) translate(-16.756512, -26.399700) " x="15.9935564" y="23.9711519" width="1.52591129" height="4.85709628"></rect>
                            <rect id="Rectangle-path" fill="#39A671" transform="translate(12.283127, 30.897433) rotate(45.000000) translate(-12.283127, -30.897433) " x="11.5201711" y="28.4688845" width="1.52591129" height="4.85709628"></rect>
                        </g>
                    </g>
                </g>
            </g>
        </g>
    </g>
</svg>