<?xml version="1.0" encoding="UTF-8"?>
<svg width="205px" height="39px" viewBox="0 0 205 39" version="1.1" xmlns="http://www.w3.org/2000/svg" xmlns:xlink="http://www.w3.org/1999/xlink">
    <!-- Generator: Sketch 43.2 (39069) - http://www.bohemiancoding.com/sketch -->
    <title>Page 1</title>
    <desc>Created with Sketch.</desc>
    <defs>
        <polygon id="path-1" points="21.162375 21.1986938 21.162375 0.06069375 0.3458 0.06069375 0.3458 21.1986938 21.162375 21.1986938"></polygon>
        <polygon id="path-3" points="8.95768999e-05 38.1875 38.1699417 38.1875 38.1699417 0.00104916239 8.95768999e-05 0.00104916239"></polygon>
    </defs>
    <g id="About-Page" stroke="none" stroke-width="1" fill="none" fill-rule="evenodd">
        <g id="Desktop" transform="translate(-115.000000, -27.000000)">
            <g id="Page-1" transform="translate(115.000000, 27.000000)">
                <path d="M62.2812125,27.4720875 L62.2812125,33.6373375 L47.8235875,33.6373375 C46.7429625,33.6373375 45.8670875,32.7614625 45.8670875,31.6808375 L45.8670875,7.5707125 C45.8670875,6.4900875 46.7429625,5.6142125 47.8235875,5.6142125 L52.2728375,5.6142125 L52.2728375,27.4720875 L62.2812125,27.4720875 Z" id="Fill-1" fill="#262B3A"></path>
                <path d="M77.31165,21.5469313 C76.6714,19.2256188 74.8700875,18.3846813 73.0679625,18.3846813 C70.787275,18.3846813 69.2654625,19.5059313 68.7048375,21.5469313 L77.31165,21.5469313 Z M73.6294,28.8342438 C75.2698375,28.8342438 76.6714,28.1923688 77.4717125,27.3116188 L82.276025,30.0741188 C80.3138375,32.7968063 77.352275,34.1975563 73.54815,34.1975563 C66.7028375,34.1975563 62.45915,29.5947438 62.45915,23.6293688 C62.45915,17.6648063 66.783275,13.0595563 73.107775,13.0595563 C78.9537125,13.0595563 83.277025,17.5843688 83.277025,23.6293688 C83.277025,24.4703063 83.1974,25.2706188 83.0373375,26.0311188 L68.8250875,26.0311188 C69.584775,28.1119313 71.4267125,28.8342438 73.6294,28.8342438 L73.6294,28.8342438 Z" id="Fill-3" fill="#262B3A"></path>
                <path d="M104.010725,21.3461625 L104.010725,33.6376625 L98.004725,33.6376625 L98.004725,22.2269125 C98.004725,19.744725 96.4439125,18.5852875 94.5215375,18.5852875 C92.3196625,18.5852875 90.7986625,19.8657875 90.7986625,22.708725 L90.7986625,33.6376625 L84.7942875,33.6376625 L84.7942875,13.6192875 L90.7986625,13.6192875 L90.7986625,15.50185 C91.8792875,14.0206625 93.8821,13.059475 96.5235375,13.059475 C100.56735,13.059475 104.010725,15.9430375 104.010725,21.3461625" id="Fill-5" fill="#262B3A"></path>
                <path d="M121.061363,23.629775 C121.061363,20.6259625 119.059363,18.7442125 116.296863,18.7442125 C113.53355,18.7442125 111.532363,20.6259625 111.532363,23.629775 C111.532363,26.63115 113.53355,28.5129 116.296863,28.5129 C119.059363,28.5129 121.061363,26.63115 121.061363,23.629775 L121.061363,23.629775 Z M127.06655,5.6142125 L127.06655,33.6373375 L121.061363,33.6373375 L121.061363,31.7555875 C119.740238,33.2765875 117.77805,34.19715 115.095988,34.19715 C109.8513,34.19715 105.527988,29.5943375 105.527988,23.629775 C105.527988,17.6644 109.8513,13.0599625 115.095988,13.0599625 C117.77805,13.0599625 119.740238,13.980525 121.061363,15.501525 L121.061363,7.5707125 C121.061363,6.4900875 121.937238,5.6142125 123.017863,5.6142125 L127.06655,5.6142125 Z" id="Fill-7" fill="#262B3A"></path>
                <path d="M144.606394,23.629775 C144.606394,20.6259625 142.603581,18.7442125 139.842706,18.7442125 C137.079394,18.7442125 135.077394,20.6259625 135.077394,23.629775 C135.077394,26.63115 137.079394,28.5129 139.842706,28.5129 C142.603581,28.5129 144.606394,26.63115 144.606394,23.629775 L144.606394,23.629775 Z M150.611581,13.619775 L150.611581,33.6373375 L144.606394,33.6373375 L144.606394,31.7555875 C143.285269,33.2765875 141.323894,34.19715 138.641019,34.19715 C133.396331,34.19715 129.073019,29.5943375 129.073019,23.629775 C129.073019,17.6644 133.396331,13.0599625 138.641019,13.0599625 C141.323894,13.0599625 143.285269,13.980525 144.606394,15.501525 L144.606394,13.619775 L150.611581,13.619775 Z" id="Fill-9" fill="#262B3A"></path>
                <path d="M168.150613,23.629775 C168.150613,20.6259625 166.150238,18.7442125 163.38855,18.7442125 C160.625238,18.7442125 158.62405,20.6259625 158.62405,23.629775 C158.62405,26.63115 160.625238,28.5129 163.38855,28.5129 C166.150238,28.5129 168.150613,26.63115 168.150613,23.629775 M174.1558,23.629775 C174.1558,29.5943375 169.8333,34.19715 164.588613,34.19715 C161.90655,34.19715 159.945175,33.2765875 158.62405,31.7555875 L158.62405,33.6373375 L152.618863,33.6373375 L152.618863,5.6142125 L156.66755,5.6142125 C157.748175,5.6142125 158.62405,6.4900875 158.62405,7.5707125 L158.62405,15.501525 C159.945175,13.980525 161.90655,13.0599625 164.588613,13.0599625 C169.8333,13.0599625 174.1558,17.6644 174.1558,23.629775" id="Fill-11" fill="#262B3A"></path>
                <path d="M176.162188,5.6138875 L180.210063,5.6138875 C181.290688,5.6138875 182.167375,6.4897625 182.167375,7.5703875 L182.167375,31.681325 C182.167375,32.76195 181.290688,33.637825 180.210063,33.637825 L176.162188,33.637825 L176.162188,5.6138875 Z" id="Fill-13" fill="#262B3A"></path>
                <g id="Group-17" transform="translate(183.625000, 12.998862)">
                    <mask id="mask-2" fill="white">
                        <use xlink:href="#path-1"></use>
                    </mask>
                    <g id="Clip-16"></g>
                    <path d="M15.1974875,8.54806875 C14.5572375,6.22675625 12.755925,5.38581875 10.9538,5.38581875 C8.6731125,5.38581875 7.1521125,6.50706875 6.5914875,8.54806875 L15.1974875,8.54806875 Z M11.51605,15.8353813 C13.1564875,15.8353813 14.5572375,15.1935063 15.35755,14.3127563 L20.1634875,17.0752563 C18.2004875,19.7979438 15.2381125,21.1986938 11.4356125,21.1986938 C4.5894875,21.1986938 0.3458,16.5958813 0.3458,10.6305063 C0.3458,4.66594375 4.669925,0.06069375 10.9936125,0.06069375 C16.8403625,0.06069375 21.1628625,4.58550625 21.1628625,10.6305063 C21.1628625,11.4714438 21.08405,12.2717563 20.9239875,13.0322563 L6.710925,13.0322563 C7.4706125,15.1130688 9.31255,15.8353813 11.51605,15.8353813 L11.51605,15.8353813 Z" id="Fill-15" fill="#262B3A" mask="url(#mask-2)"></path>
                </g>
                <g id="Group-20" transform="translate(0.000000, 0.811363)">
                    <mask id="mask-4" fill="white">
                        <use xlink:href="#path-3"></use>
                    </mask>
                    <g id="Clip-19"></g>
                    <path d="M24.3071563,19.0943187 L19.0844063,24.3162562 L13.8632813,19.0943187 L19.0844063,13.8723812 L24.3071563,19.0943187 Z M36.7497813,15.6590687 L27.0241563,5.93263125 L27.0257813,5.93100625 L23.5962188,2.50225625 L23.5222813,2.57538125 C23.5206563,2.57700625 23.5174063,2.57700625 23.5157813,2.57863125 L20.2397813,5.85463125 C20.2381563,5.85625625 20.2389688,5.85869375 20.2373438,5.86031875 L19.0844063,7.01325625 L19.0827813,7.01163125 L15.6540313,10.4411937 L15.6556563,10.4428187 L7.94259375,18.1550687 C7.42503125,18.6734437 7.42503125,19.5151937 7.94259375,20.0335687 L10.4337188,22.5238812 L15.6556563,27.7458187 L14.5750313,28.8264437 L5.91296875,20.1635687 C5.32228125,19.5728812 5.32228125,18.6157562 5.91296875,18.0250687 L22.4619688,1.47525625 C22.4920313,1.44600625 22.4912188,1.39644375 22.4619688,1.36800625 C20.5639688,-0.47230625 17.5333438,-0.45443125 15.6572813,1.42163125 L1.39628125,15.6826312 L1.40359375,15.6899437 C-0.47328125,17.5855062 -0.46759375,20.6421312 1.41984375,22.5295687 L11.1714688,32.2811937 C11.1722813,32.2820062 11.1706563,32.2836312 11.1714688,32.2844437 L14.5457813,35.6595687 C14.5612188,35.6741937 14.5855938,35.6741937 14.6010313,35.6595687 L14.6221563,35.6376312 C14.6245938,35.6360062 14.6270313,35.6368187 14.6286563,35.6351937 L17.9550313,32.3088187 C17.9566563,32.3071937 17.9558438,32.3047562 17.9574688,32.3031312 L19.0844063,31.1753812 L19.0868438,31.1770062 L22.5164063,27.7474437 L22.5139688,27.7458187 L30.2156563,20.0441312 C30.7405313,19.5192562 30.7405313,18.6693812 30.2156563,18.1445062 L27.7635313,15.6923812 C27.7480938,15.6769437 27.7237188,15.6769437 27.7090938,15.6923812 L27.7367188,15.6647562 L22.5139688,10.4428187 L23.5945938,9.36219375 L32.2322813,17.9998812 C32.8359688,18.6043812 32.8359688,19.5842562 32.2322813,20.1887562 L15.7336563,36.6865687 C15.6905938,36.7304437 15.6914063,36.8043812 15.7352813,36.8466312 C17.6349063,38.6609437 20.6452188,38.6341312 22.5123438,36.7670062 L36.7741563,22.5060062 L36.7668438,22.4986937 C38.6429063,20.6031312 38.6380313,17.5465062 36.7497813,15.6590687 L36.7497813,15.6590687 Z" id="Fill-18" fill="#FFFFFF" mask="url(#mask-4)"></path>
                </g>
                <polygon id="Fill-21" fill="#D3D3D3" points="20.1645438 15.7610375 19.0847313 14.6804125 22.5126688 11.252475 23.5932938 12.3331"></polygon>
                <polygon id="Fill-23" fill="#D3D3D3" points="24.6737563 11.251825 23.5939438 10.1712 27.0218813 6.7432625 28.1025063 7.8238875"></polygon>
                <polygon id="Fill-25" fill="#D3D3D3" points="15.6473688 28.5555562 14.5675563 27.4749312 17.9971188 24.0453687 19.0769313 25.1259937"></polygon>
                <polygon id="Fill-27" fill="#D3D3D3" points="11.1389688 33.0639563 10.0591563 31.9833313 13.4887188 28.5545812 14.5685313 29.6343937"></polygon>
            </g>
        </g>
    </g>
</svg>