<?xml version="1.0" encoding="utf-8"?>
<!-- Generator: Adobe Illustrator 21.1.0, SVG Export Plug-In . SVG Version: 6.00 Build 0)  -->
<svg version="1.1" id="Layer_1" xmlns="http://www.w3.org/2000/svg" xmlns:xlink="http://www.w3.org/1999/xlink" x="0px" y="0px"
	 width="80px" height="80px" viewBox="0 0 80 80" style="enable-background:new 0 0 80 80;" xml:space="preserve">
<style type="text/css">
	.st0{fill:#262B3A;}
	.st1{fill:#35C187;}
	.st2{fill:#39A671;}
</style>
<g>
	<path class="st1" d="M77,32.8L56.6,12.4l0,0l-7.2-7.2l-0.2,0.2c0,0,0,0,0,0l-6.9,6.9c0,0,0,0,0,0L40,14.7l0,0l-7.2,7.2l0,0L16.6,38
		c-1.1,1.1-1.1,2.8,0,3.9l5.2,5.2l10.9,10.9l-2.3,2.3L12.4,42.2c-1.2-1.2-1.2-3.2,0-4.5L47.1,3.1c0.1-0.1,0.1-0.2,0-0.2
		C43.1-1,36.7-1,32.8,3L2.9,32.9l0,0C-1,36.8-1,43.2,3,47.2l20.4,20.4c0,0,0,0,0,0l7.1,7.1c0,0,0.1,0,0.1,0l0,0c0,0,0,0,0,0l7-7
		c0,0,0,0,0,0l2.4-2.4l0,0l7.2-7.2l0,0L63.3,42c1.1-1.1,1.1-2.9,0-4l-5.1-5.1c0,0-0.1,0-0.1,0l0.1-0.1L47.2,21.9l2.3-2.3l18.1,18.1
		c1.3,1.3,1.3,3.3,0,4.6L33,76.9c-0.1,0.1-0.1,0.2,0,0.3c4,3.8,10.3,3.7,14.2-0.2l29.9-29.9l0,0C81,43.2,81,36.8,77,32.8z M50.9,40
		L40,50.9L29.1,40L40,29.1L50.9,40z"/>
	<rect x="43.1" y="21.5" transform="matrix(0.7073 0.707 -0.707 0.7073 31.8933 -23.8324)" class="st2" width="3.2" height="10.2"/>
	<rect x="52.6" y="12.1" transform="matrix(0.7073 0.707 -0.707 0.7073 27.9815 -33.279)" class="st2" width="3.2" height="10.2"/>
	<rect x="33.7" y="48.3" transform="matrix(0.7073 0.707 -0.707 0.7073 48.0707 -9.2941)" class="st2" width="3.2" height="10.2"/>
	<rect x="24.2" y="57.8" transform="matrix(0.7073 0.707 -0.707 0.7073 51.9818 0.1511)" class="st2" width="3.2" height="10.2"/>
</g>
</svg>
