<?xml version="1.0" encoding="utf-8"?>
<!-- Generator: Adobe Illustrator 21.1.0, SVG Export Plug-In . SVG Version: 6.00 Build 0)  -->
<svg version="1.1" id="Layer_1" xmlns="http://www.w3.org/2000/svg" xmlns:xlink="http://www.w3.org/1999/xlink" x="0px" y="0px"
	 viewBox="0 0 203.979 112.327" enable-background="new 0 0 203.979 112.327" xml:space="preserve">
<g>
	<path fill="#8DC63F" d="M142.051,82.637h-9.404l-5.842-11.894h-2.613v11.894h-9.023V51.542h12.491c7.6,0,12.728,2.293,12.728,8.78
		c0,4.281-2.233,7.178-5.412,8.735L142.051,82.637z M127.517,64.776c2.136,0,3.847-1.256,3.847-3.763
		c0-2.942-1.424-3.589-4.273-3.589h-2.899v7.352H127.517z"/>
	<path fill="#8DC63F" d="M153.685,70.397c0,2.942,0.189,6.098,4.179,6.098c3.894,0,4.037-2.81,4.037-6.182V51.542h9.023v19.894
		c0,6.962-2.944,11.635-13.203,11.635c-9.689,0-13.062-4.716-13.062-11.677V51.542h9.025V70.397z"/>
	<polygon fill="#8DC63F" points="203.978,51.542 203.978,82.637 194.955,82.637 194.955,70.182 185.645,70.182 185.645,82.637 
		176.622,82.637 176.622,51.542 185.645,51.542 185.645,63.695 194.955,63.695 194.955,51.542 	"/>
	<path fill="#FBB040" d="M4.446,78.532l17.89-5.021c-1.538-2.588-2.74-5.374-3.607-8.281L4.446,78.532z"/>
	<path fill="#FBB040" d="M0.001,39.71l18.404,8.987c-0.45-1.965,0.442-5.269,1.766-8.35L0.001,39.71z"/>
	<path fill="#FBB040" d="M17.315,52.281L7.113,58.087l10.502,2.246c-0.279-1.806-0.429-3.646-0.429-5.507
		C17.187,53.966,17.258,53.126,17.315,52.281"/>
	<path fill="#FBB040" d="M11.845,29.395l9.057,9.44c1.523-3.138,3.475-6.022,5.789-8.583L11.845,29.395z"/>
	<path fill="#FBB040" d="M37.934,9.484l0.492,12.075c2.064-0.965,4.23-1.741,6.478-2.311L37.934,9.484z"/>
	<path fill="#FBB040" d="M33.396,24.368l-14.725-10.44l8.86,15.4C29.314,27.487,31.267,25.809,33.396,24.368"/>
	<path fill="#FBB040" d="M58.263,18.354L53.049,0L50.098,18.28c1.262-0.13,2.542-0.204,3.838-0.204
		C55.403,18.076,56.84,18.188,58.263,18.354"/>
	<path fill="#FBB040" d="M85.053,10.076L71.739,22.701c2.822,1.574,5.411,3.51,7.718,5.739L85.053,10.076z"/>
	<path fill="#FBB040" d="M69.346,9.484l-7.161,9.561c3.247,0.751,6.342,1.901,9.2,3.447L69.346,9.484z"/>
	<path fill="#268F3B" d="M32.641,108.631h-0.838c-0.174,0-0.262-0.116-0.262-0.35V92.924c0-0.233,0.087-0.35,0.262-0.35h4.285
		c0.857,0,1.534,0.329,2.031,0.986c0.497,0.659,0.745,1.561,0.745,2.709v2.273c0,0.933-0.168,1.702-0.503,2.31
		c-0.335,0.608-0.801,1.011-1.397,1.212v0.099l2.162,6.067c0.112,0.267,0.049,0.4-0.187,0.4h-0.838c-0.212,0-0.367-0.116-0.466-0.35
		l-2.087-6.042h-2.459c-0.124,0-0.186,0.074-0.186,0.224v5.817C32.902,108.515,32.815,108.631,32.641,108.631 M33.088,100.715h2.814
		c1.068,0,1.602-0.716,1.602-2.148v-2.221c0-1.449-0.535-2.172-1.602-2.172h-2.814c-0.124,0-0.186,0.074-0.186,0.224v6.093
		C32.902,100.641,32.964,100.715,33.088,100.715"/>
	<path fill="#268F3B" d="M44.902,108.631h-0.97c-0.857,0-1.53-0.325-2.021-0.974c-0.491-0.649-0.736-1.557-0.736-2.722v-5.343
		c0-1.165,0.245-2.072,0.736-2.721c0.491-0.651,1.164-0.974,2.021-0.974h4.044c0.173,0,0.261,0.116,0.261,0.349v12.036
		c0,0.234-0.087,0.35-0.261,0.35h-0.839c-0.173,0-0.261-0.116-0.261-0.35v-0.974h-0.074
		C46.492,108.19,45.858,108.631,44.902,108.631 M46.876,104.736v-7.018c0-0.149-0.063-0.224-0.186-0.224h-2.608
		c-1.032,0-1.547,0.724-1.547,2.172v5.194c0,1.448,0.515,2.172,1.547,2.172h1.061c0.559,0,0.988-0.2,1.287-0.599
		C46.728,106.034,46.876,105.467,46.876,104.736"/>
	<path fill="#268F3B" d="M49.504,112.327H48.74c-0.173,0-0.261-0.117-0.261-0.35v-0.923c0-0.234,0.087-0.351,0.261-0.351h0.429
		c1.156,0,1.733-0.783,1.733-2.347V96.245c0-0.233,0.087-0.349,0.262-0.349h0.838c0.174,0,0.261,0.116,0.261,0.349v12.361
		c0,1.148-0.246,2.055-0.736,2.721C51.034,111.993,50.361,112.327,49.504,112.327 M50.901,93.799v-2.348
		c0-0.233,0.081-0.349,0.242-0.349h0.857c0.174,0,0.261,0.116,0.261,0.349v2.348c0,0.234-0.086,0.35-0.261,0.35h-0.857
		C50.982,94.148,50.901,94.032,50.901,93.799"/>
	<path fill="#268F3B" d="M66.218,92.574h0.839c0.173,0,0.261,0.11,0.261,0.325v12.036c0,1.165-0.242,2.072-0.727,2.722
		c-0.484,0.649-1.155,0.974-2.012,0.974H62.51c-0.857,0-1.531-0.325-2.022-0.974c-0.491-0.65-0.736-1.557-0.736-2.722V92.924
		c0-0.233,0.086-0.35,0.261-0.35h0.839c0.173,0,0.261,0.117,0.261,0.35v11.937c0,1.448,0.516,2.172,1.547,2.172h1.751
		c1.043,0,1.565-0.724,1.565-2.172V92.924C65.976,92.691,66.057,92.574,66.218,92.574"/>
	<path fill="#268F3B" d="M73.206,108.631h-3.318c-0.173,0-0.261-0.116-0.261-0.35v-0.873c0-0.217,0.087-0.325,0.261-0.325h3.131
		c0.969,0,1.452-0.483,1.452-1.448v-0.474c0-0.883-0.316-1.49-0.95-1.824l-2.199-1.247c-0.634-0.35-1.087-0.762-1.36-1.237
		c-0.274-0.475-0.41-1.103-0.41-1.885c0-2.048,0.839-3.072,2.516-3.072h3.056c0.173,0,0.261,0.117,0.261,0.35v0.874
		c0,0.217-0.087,0.324-0.261,0.324h-2.814c-0.448,0-0.786,0.125-1.015,0.375c-0.231,0.249-0.346,0.541-0.346,0.873v0.425
		c0,0.699,0.354,1.232,1.062,1.598l2.199,1.323c0.646,0.333,1.084,0.774,1.314,1.324c0.229,0.55,0.345,1.307,0.345,2.272
		C75.87,107.632,74.981,108.631,73.206,108.631"/>
	<path fill="#268F3B" d="M79.15,108.631h-0.839c-0.174,0-0.261-0.116-0.261-0.35V91.425c0-0.232,0.086-0.349,0.261-0.349h0.839
		c0.173,0,0.261,0.117,0.261,0.349v5.794h0.074c0.311-0.883,0.944-1.324,1.901-1.324h1.043c0.844,0,1.504,0.324,1.975,0.974
		c0.472,0.65,0.708,1.557,0.708,2.722v8.689c0,0.234-0.086,0.35-0.261,0.35h-0.838c-0.174,0-0.262-0.116-0.262-0.35v-8.615
		c0-1.448-0.522-2.172-1.565-2.172h-1.043c-0.559,0-0.988,0.2-1.286,0.6c-0.299,0.4-0.448,0.965-0.448,1.698v8.49
		C79.41,108.515,79.323,108.631,79.15,108.631"/>
	<path fill="#268F3B" d="M91.131,108.631h-0.969c-0.857,0-1.531-0.325-2.021-0.974c-0.491-0.649-0.737-1.557-0.737-2.722v-5.343
		c0-1.165,0.246-2.072,0.737-2.721c0.49-0.651,1.164-0.974,2.021-0.974h4.044c0.173,0,0.261,0.116,0.261,0.349v12.036
		c0,0.234-0.087,0.35-0.261,0.35h-0.839c-0.173,0-0.261-0.116-0.261-0.35v-0.974h-0.074
		C92.722,108.19,92.088,108.631,91.131,108.631 M93.106,104.736v-7.018c0-0.149-0.063-0.224-0.186-0.224h-2.609
		c-1.031,0-1.546,0.724-1.546,2.172v5.194c0,1.448,0.515,2.172,1.546,2.172h1.062c0.559,0,0.988-0.2,1.286-0.599
		C92.957,106.034,93.106,105.467,93.106,104.736"/>
	<path fill="#268F3B" d="M98.137,108.631h-0.839c-0.173,0-0.261-0.116-0.261-0.35V96.245c0-0.233,0.087-0.35,0.261-0.35h0.839
		c0.174,0,0.262,0.117,0.262,0.35v0.974h0.073c0.311-0.883,0.944-1.324,1.901-1.324h1.043c0.845,0,1.504,0.324,1.976,0.974
		c0.472,0.65,0.708,1.557,0.708,2.722v8.689c0,0.234-0.087,0.35-0.262,0.35h-0.838c-0.174,0-0.261-0.116-0.261-0.35v-8.615
		c0-1.448-0.522-2.172-1.566-2.172h-1.043c-0.558,0-0.988,0.2-1.286,0.6c-0.298,0.4-0.447,0.965-0.447,1.698v8.49
		C98.399,108.515,98.311,108.631,98.137,108.631"/>
	<path fill="#268F3B" d="M110.175,107.957h-1.044c-0.844,0-1.504-0.325-1.976-0.974c-0.472-0.649-0.707-1.557-0.707-2.722v-4.669
		c0-1.165,0.245-2.072,0.736-2.722c0.49-0.65,1.164-0.974,2.021-0.974h4.044c0.173,0,0.261,0.117,0.261,0.349v12.387
		c0,1.148-0.246,2.052-0.736,2.709c-0.491,0.657-1.164,0.986-2.021,0.986h-3.429c-0.186,0-0.28-0.116-0.28-0.35v-0.923
		c0-0.234,0.094-0.35,0.28-0.35h3.261c1.043,0,1.565-0.717,1.565-2.147v-1.924h-0.074
		C111.752,107.516,111.118,107.957,110.175,107.957 M112.15,104.061v-6.343c0-0.149-0.063-0.224-0.186-0.224h-2.59
		c-1.044,0-1.565,0.724-1.565,2.172v4.52c0,1.447,0.521,2.172,1.565,2.172h1.043c0.559,0,0.988-0.2,1.286-0.599
		C112.001,105.36,112.15,104.794,112.15,104.061"/>
	<path fill="#268F3B" d="M119.621,108.631h-0.969c-0.857,0-1.531-0.325-2.021-0.974c-0.491-0.649-0.736-1.557-0.736-2.722v-5.343
		c0-1.165,0.245-2.072,0.736-2.721c0.49-0.651,1.164-0.974,2.021-0.974h4.044c0.173,0,0.261,0.116,0.261,0.349v12.036
		c0,0.234-0.087,0.35-0.261,0.35h-0.839c-0.173,0-0.261-0.116-0.261-0.35v-0.974h-0.074
		C121.212,108.19,120.578,108.631,119.621,108.631 M121.597,104.736v-7.018c0-0.149-0.063-0.224-0.186-0.224h-2.609
		c-1.031,0-1.546,0.724-1.546,2.172v5.194c0,1.448,0.515,2.172,1.546,2.172h1.062c0.559,0,0.988-0.2,1.286-0.599
		C121.448,106.034,121.597,105.467,121.597,104.736"/>
	<path fill="#268F3B" d="M131.547,108.631h-0.838c-0.174,0-0.262-0.116-0.262-0.35V92.925c0-0.233,0.087-0.351,0.262-0.351h0.838
		c0.174,0,0.261,0.118,0.261,0.351v6.567c0,0.15,0.063,0.224,0.186,0.224h4.622c0.123,0,0.186-0.074,0.186-0.224v-6.567
		c0-0.233,0.086-0.351,0.26-0.351h0.839c0.173,0,0.261,0.118,0.261,0.351v15.356c0,0.234-0.087,0.35-0.261,0.35h-0.839
		c-0.174,0-0.26-0.116-0.26-0.35v-6.743c0-0.15-0.063-0.224-0.186-0.224h-4.622c-0.123,0-0.186,0.074-0.186,0.224v6.743
		C131.807,108.515,131.721,108.631,131.547,108.631"/>
	<path fill="#268F3B" d="M145.094,108.631h-1.602c-0.857,0-1.531-0.325-2.022-0.974c-0.49-0.649-0.736-1.557-0.736-2.722v-5.343
		c0-1.165,0.246-2.072,0.736-2.722c0.491-0.65,1.165-0.974,2.022-0.974h1.602c0.857,0,1.531,0.324,2.022,0.974
		c0.49,0.65,0.736,1.557,0.736,2.722v5.343c0,1.165-0.246,2.073-0.736,2.722C146.625,108.306,145.951,108.631,145.094,108.631
		 M143.64,107.033h1.305c1.043,0,1.565-0.716,1.565-2.148v-5.243c0-1.432-0.522-2.148-1.565-2.148h-1.305
		c-1.043,0-1.565,0.716-1.565,2.148v5.243C142.075,106.317,142.597,107.033,143.64,107.033"/>
	<path fill="#268F3B" d="M153.87,108.631h-1.043c-0.845,0-1.505-0.325-1.976-0.974c-0.472-0.649-0.708-1.557-0.708-2.722v-8.689
		c0-0.233,0.087-0.35,0.261-0.35h0.839c0.173,0,0.261,0.117,0.261,0.35v8.615c0,1.448,0.516,2.172,1.547,2.172h1.062
		c0.558,0,0.988-0.2,1.286-0.599c0.298-0.4,0.447-0.967,0.447-1.698v-8.491c0-0.233,0.087-0.35,0.262-0.35h0.839
		c0.173,0,0.261,0.117,0.261,0.35v12.036c0,0.234-0.087,0.35-0.261,0.35h-0.839c-0.174,0-0.262-0.116-0.262-0.35v-0.974h-0.073
		C155.46,108.19,154.826,108.631,153.87,108.631"/>
	<path fill="#268F3B" d="M163,108.631h-3.318c-0.173,0-0.261-0.116-0.261-0.35v-0.873c0-0.217,0.087-0.325,0.261-0.325h3.131
		c0.969,0,1.454-0.483,1.454-1.448v-0.474c0-0.883-0.317-1.49-0.951-1.824l-2.199-1.247c-0.634-0.35-1.087-0.762-1.36-1.237
		c-0.273-0.475-0.41-1.103-0.41-1.885c0-2.048,0.839-3.072,2.516-3.072h3.056c0.173,0,0.261,0.117,0.261,0.35v0.874
		c0,0.217-0.087,0.324-0.261,0.324h-2.814c-0.448,0-0.786,0.125-1.015,0.375c-0.231,0.249-0.346,0.541-0.346,0.873v0.425
		c0,0.699,0.354,1.232,1.062,1.598l2.199,1.323c0.646,0.333,1.084,0.774,1.314,1.324c0.23,0.55,0.345,1.307,0.345,2.272
		C165.665,107.632,164.776,108.631,163,108.631"/>
	<path fill="#268F3B" d="M174.367,108.631h-3.95c-0.857,0-1.531-0.325-2.022-0.974c-0.49-0.649-0.736-1.557-0.736-2.721v-5.344
		c0-1.165,0.246-2.072,0.736-2.721c0.491-0.651,1.165-0.974,2.022-0.974h1.565c0.857,0,1.528,0.323,2.012,0.974
		c0.485,0.649,0.727,1.556,0.727,2.721v3.172c0,0.249-0.087,0.373-0.262,0.373h-5.273c-0.124,0-0.186,0.075-0.186,0.225v1.524
		c0,1.448,0.521,2.172,1.565,2.172h3.801c0.173,0,0.26,0.116,0.26,0.35v0.897C174.628,108.523,174.54,108.631,174.367,108.631
		 M169.187,101.814h4.025c0.124,0,0.186-0.083,0.186-0.249v-1.924c0-1.432-0.521-2.147-1.565-2.147h-1.266
		c-1.044,0-1.565,0.715-1.565,2.147v1.924C169.001,101.731,169.062,101.814,169.187,101.814"/>
	<path fill="#268F3B" d="M188.174,108.631h-5.981c-0.174,0-0.262-0.116-0.262-0.35V92.925c0-0.233,0.087-0.351,0.262-0.351h0.839
		c0.173,0,0.261,0.118,0.261,0.351v13.834c0,0.15,0.062,0.224,0.186,0.224h4.696c0.174,0,0.262,0.124,0.262,0.375v0.923
		C188.436,108.515,188.349,108.631,188.174,108.631"/>
	<path fill="#268F3B" d="M190.504,97.494h-1.025c-0.174,0-0.26-0.108-0.26-0.325v-0.924c0-0.233,0.086-0.349,0.26-0.349h1.025
		c0.123,0,0.186-0.074,0.186-0.224v-2.148c0-0.233,0.087-0.349,0.261-0.349h0.839c0.161,0,0.242,0.116,0.242,0.349v2.148
		c0,0.15,0.068,0.224,0.204,0.224h1.976c0.186,0,0.28,0.116,0.28,0.349v0.924c0,0.217-0.094,0.325-0.28,0.325h-1.976
		c-0.136,0-0.204,0.074-0.204,0.224v7.192c0,1.415,0.545,2.122,1.64,2.122h0.726c0.186,0,0.28,0.116,0.28,0.35v0.923
		c0,0.217-0.094,0.325-0.28,0.325h-0.894c-0.857,0-1.541-0.321-2.049-0.962c-0.51-0.64-0.765-1.535-0.765-2.684v-7.267
		C190.69,97.569,190.627,97.494,190.504,97.494"/>
	<path fill="#268F3B" d="M200.248,108.631h-1.098c-0.845,0-1.504-0.325-1.976-0.974c-0.472-0.649-0.708-1.557-0.708-2.722v-5.343
		c0-1.165,0.236-2.072,0.708-2.721c0.472-0.651,1.13-0.974,1.976-0.974h1.098c0.969,0,1.61,0.441,1.92,1.323h0.073v-5.794
		c0-0.232,0.081-0.349,0.243-0.349h0.856c0.163,0,0.243,0.117,0.243,0.349v16.856c0,0.234-0.081,0.35-0.243,0.35h-0.856
		c-0.163,0-0.243-0.116-0.243-0.35v-0.974h-0.073C201.858,108.19,201.217,108.631,200.248,108.631 M202.242,104.736v-4.944
		c0-0.733-0.149-1.298-0.447-1.698c-0.298-0.4-0.727-0.6-1.286-0.6h-1.137c-1.031,0-1.546,0.724-1.546,2.172v5.194
		c0,1.448,0.515,2.172,1.546,2.172h1.137c0.558,0,0.988-0.2,1.286-0.599C202.093,106.034,202.242,105.467,202.242,104.736"/>
	<path fill="#FBB040" d="M83.841,67.582c0.39-0.908,0.739-1.838,1.046-2.786c-3.054,0.911-6.526,1.383-10.462,1.181
		c-5.01-0.256-9.88-0.146-14.559,0.289c1.205,0.089,2.429,0.199,3.694,0.356C72.347,67.709,78.922,67.884,83.841,67.582"/>
	<path fill="#FBB040" d="M71.433,36.04c2.599-0.721,5.042-1.442,7.349-2.16c-5.944-7.015-14.807-11.476-24.721-11.476
		c-17.895,0-32.401,14.505-32.401,32.399c0,4.688,1.001,9.139,2.791,13.162C30.607,58.172,43.97,43.663,71.433,36.04"/>
	<path fill="#FBB040" d="M31.048,77.61c5.871,5.923,14.012,9.592,23.012,9.592c8.404,0,16.06-3.198,21.818-8.446
		c-2.123,0.015-4.398-0.235-6.824-0.83C55.113,74.505,41.789,74.695,31.048,77.61"/>
	<path fill="#FBB040" d="M86.341,52.167c-0.142-1.766-0.416-3.496-0.829-5.171c-0.585,0.114-1.176,0.222-1.782,0.316
		c-12.56,1.936-24.054,5.545-34.04,10.294c4.832-1.4,10.35-2.433,16.663-2.853C74.713,54.195,81.232,53.263,86.341,52.167"/>
	<path fill="#FBB040" d="M104.462,43.339c0.029-0.071,0.04-0.111,0.04-0.111S104.486,43.273,104.462,43.339"/>
	<path fill="#FBB040" d="M104.007,47.084c-0.345,0.791-0.878,1.914-1.628,3.223l4.603-2.593L104.007,47.084z"/>
	<path fill="#FBB040" d="M103.788,47.037l-0.94-0.199c-0.368,0.687-0.801,1.439-1.308,2.238
		C102.641,48.292,103.348,47.586,103.788,47.037"/>
	<path fill="#FBB040" d="M93.041,44.764c-1.094,0.45-2.24,0.857-3.439,1.22c0.418,1.682,0.708,3.412,0.885,5.177
		c5.525-1.511,8.895-3.195,10.936-4.623L93.041,44.764z"/>
	<path fill="#FBB040" d="M104.462,43.339c-0.149,0.37-0.793,1.628-3.039,3.2l1.425,0.301
		C103.819,45.033,104.329,43.702,104.462,43.339"/>
	<path fill="#8DC63F" d="M101.423,46.538c-2.042,1.428-5.411,3.112-10.937,4.623c-1.266,0.347-2.641,0.683-4.145,1.006
		c-5.109,1.096-11.627,2.028-19.988,2.586c-6.312,0.42-11.83,1.452-16.663,2.853c-22.467,6.511-29.793,21.148-29.793,21.148
		c1.257-1.089,2.625-2.122,4.064-3.12c3.042-2.405,7.862-5.398,14.681-7.393c10.275-3.678,22.544-5.56,35.784-4.885
		c14.916,0.765,23.179-8.071,27.116-14.279c0.506-0.8,0.94-1.551,1.308-2.238L101.423,46.538z"/>
	<path fill="#FBB040" d="M98.032,63.113c0.036-0.056,0.052-0.088,0.052-0.088S98.062,63.061,98.032,63.113"/>
	<path fill="#8DC63F" d="M83.841,67.582c-4.919,0.302-11.494,0.127-20.281-0.959c-1.265-0.157-2.489-0.267-3.694-0.356
		c-8.541-0.639-15.571,0.319-21.226,1.975c-5.532,1.979-10.478,4.481-14.68,7.393c-2.77,2.191-4.076,3.893-4.076,3.893
		c11.717-6.771,29.851-8.96,49.169-4.219c18.542,4.548,28.231-10.946,28.978-12.195C97.663,63.685,95.105,66.89,83.841,67.582"/>
	<path fill="#FBB040" d="M38.641,68.241c-6.819,1.995-11.639,4.987-14.68,7.393C28.163,72.722,33.109,70.22,38.641,68.241"/>
	<path fill="#FBB040" d="M116.036,11.957c0.018-0.1,0.022-0.153,0.022-0.153S116.05,11.868,116.036,11.957"/>
	<path fill="#FBB040" d="M80.949,29.996c0.735,0.801,1.422,1.642,2.084,2.503c4.342-1.457,8.123-2.894,11.398-4.293L80.949,29.996z"
		/>
	<path fill="#8DC63F" d="M94.43,28.207c-3.275,1.397-7.055,2.836-11.397,4.293c-1.367,0.458-2.77,0.918-4.252,1.38
		c-2.306,0.718-4.75,1.439-7.349,2.16C43.97,43.662,30.607,58.172,24.45,67.966c-3.68,5.855-4.785,10.024-4.785,10.024
		C31.697,62.267,54.969,49.127,83.73,44.692c27.593-4.254,31.993-30.601,32.306-32.734C115.836,13.052,113.818,19.93,94.43,28.207"
		/>
</g>
</svg>
