<?xml version="1.0" encoding="utf-8"?>
<!-- Generator: Adobe Illustrator 21.1.0, SVG Export Plug-In . SVG Version: 6.00 Build 0)  -->
<svg version="1.1" id="Layer_1" xmlns="http://www.w3.org/2000/svg" xmlns:xlink="http://www.w3.org/1999/xlink" x="0px" y="0px"
	 width="245.3px" height="88.9px" viewBox="0 0 245.3 88.9" style="enable-background:new 0 0 245.3 88.9;" xml:space="preserve">
<style type="text/css">
	.st0{fill:#9D9FA2;}
</style>
<g>
	<path class="st0" d="M53.9,54.1c-0.8,0.4-1.2-0.1-1.5-0.8c-0.4-1.3-0.7-2.7-1.2-4c-1.3-3.3-3.1-6.2-6.3-7.9c-0.6-0.4-1.4-0.6-2.5-1
		c0.2,3,0.4,5.6,0.7,8.3c0.1,0.4,0.8,0.9,1.4,1.1c0.7,0.3,1.6,0.2,2.3,0.4c0.4,0.1,0.6,0.5,0.9,0.8c-0.4,0.3-0.7,0.8-1.1,0.8
		c-1.7,0-3.4-0.3-5-0.2c-2.7,0-5.4,0.2-8.1,0.2c-0.5,0-1-0.4-1.4-0.6c0.4-0.3,0.8-0.8,1.2-0.9c3.5-0.6,3.5-0.6,3.7-4.3
		c0.1-1.6,0.1-3.2,0.1-4.8c0-0.1-0.1-0.3-0.1-0.6c-1.7,0.4-3.1,1.3-4.3,2.5c-1.8,1.8-2.9,4-3.6,6.4c-2,7-2.1,14.1-0.4,21.2
		c0.3,1.2,0.7,2.4,1.3,3.6c3.4,7.3,11.5,8.9,17.5,3.4c2.5-2.3,3.9-5.3,4.9-8.5c0.2-0.7,0.3-1.5,0.6-2.2c0.1-0.3,0.6-0.4,0.9-0.7
		c0.2,0.3,0.5,0.6,0.5,0.9c0.1,4.3,0.1,8.6,0.1,12.9c0,0.3-0.3,0.6-0.4,0.9c-0.3-0.2-0.7-0.3-1-0.5C53,80.1,53,80,53,79.8
		c-0.5-2.7-1.7-2.1-3.4-1.1c-2.9,1.7-5.9,3.2-9.4,3.5c-8.5,0.7-15.3-4.1-17.8-12.7c-1.6-5.5-1.6-11-0.2-16.5
		c0.1-0.4,0.2-0.9,0.4-1.6c-2.4-0.1-4.6-0.2-6.9-0.2c-2.3,0-4.7,0.3-7,0.3c-0.5,0-1.3-0.4-1.3-0.7c-0.2-0.9,0.5-1,1.2-1.1
		c1.2-0.1,2.4-0.3,3.6-0.4c1-0.1,1.6-0.7,1.7-1.7c0.1-1.1,0.2-2.2,0.2-3.4c0-10.7,0-21.4,0.1-32.1c0-1.4-0.5-1.9-1.8-1.7
		c-1,0.1-2.1,0.1-3.1,0.3c-3.5,0.6-5.8,2.6-6.8,6.1c-0.4,1.4-0.5,2.7-0.8,4.1c-0.1,0.5-0.1,1.1-0.3,1.5c-0.2,0.3-0.6,0.5-1,0.8
		C0.3,22.9,0,22.5,0,22.2c0.1-3.4,0.2-6.7,0.3-10.1C0.4,8.3,0,8.8,3.7,8.8c8.4,0,16.8,0,25.2,0c6.6,0,13.3,0,19.9,0
		c3.2,0,6.2,0.6,9.1,2c4.3,2.1,6.4,5.7,5.9,10c-0.5,4.2-3.6,7.4-8.1,8.4c-0.6,0.1-1.2,0.2-1.8,0.7c0.3,0.1,0.5,0.2,0.8,0.3
		c1.2,0.3,2.5,0.5,3.6,1c3.1,1.2,4.8,3.6,5.2,6.9c0.1,1.1,0.1,2.1,0.1,3.2c0,1.7-0.1,3.5-0.1,5.2c0.1,3,1.3,3.9,4.2,3.4
		c0.6-0.1,1.3,0,1.9,0c-0.5,0.5-0.9,1.3-1.5,1.4c-1.7,0.4-3.5,0.9-5.2,0.9c-3-0.1-4.8-2-5.1-5c-0.1-0.6-0.1-1.1-0.1-1.7
		c0-1.9,0-3.7,0.1-5.6c0-6-2.4-8.7-8.4-9c-1.8-0.1-3.6,0-5.3,0.1c-1.2,0-1.8,0.6-1.7,1.9c0.1,1.6,0,3.2,0.1,4.8c0,0.4,0.3,1,0.7,1.1
		c2,1,4.1,1.8,6.1,2.8c1.8,0.9,2.5,0.7,3.1-1.2c0.1-0.4,0.1-0.8,0.3-1.1c0.1-0.2,0.5-0.4,0.8-0.4c0.1,0,0.4,0.4,0.3,0.6
		c-0.8,4.8-0.3,9.6,0.2,14.4C54,54,54,54,53.9,54.1z M33,10.5c0,0.7,0,1.1,0,1.6c0.1,3.3,0.3,6.6,0.4,9.9c0,0.4-0.3,0.8-0.4,1.2
		c-0.4-0.3-0.8-0.5-1.1-0.9c-0.2-0.3-0.2-0.8-0.3-1.2c-0.3-1.8-0.6-3.7-1.1-5.5c-0.7-2.6-2.5-4.2-5.1-4.8c-1.1-0.2-2.3-0.4-3.5-0.4
		c-1.9-0.1-2.2,0.2-2.2,2.1c0,11,0.1,22,0.1,33.1c0,0.7,0.1,1.4,0.2,2.1c0.2,1.2,1.1,1.5,2.1,1.7c1,0.2,1.5-0.2,1.9-1.1
		c2.6-5,6.6-8.3,12.1-9.6c1-0.2,1.1-0.8,1.1-1.6c0-7,0-13.9-0.1-20.9c0-1.2-0.1-2.3-0.2-3.5c-0.1-1.3-0.7-2.1-2.1-2.1
		C34.3,10.7,33.8,10.6,33,10.5z M46.8,29.3c1.2-0.1,2.3-0.1,3.5-0.3c5.2-0.8,8-4.4,7.6-9.7c-0.1-0.8-0.2-1.7-0.4-2.5
		c-0.9-3.7-3.3-5.9-7-6.4c-2.2-0.3-4.4,0-6.6,0c-1.1,0-1.5,0.6-1.5,1.7c0,4.2,0,8.5,0,12.8C42.5,29.2,42.5,29.2,46.8,29.3z"/>
	<path class="st0" d="M85.9,88.9c-0.8,0-1.5,0-2.3,0c0-29.6,0-59.2,0-88.9c0.7,0,1.4,0,2.3,0C85.9,29.6,85.9,59.2,85.9,88.9z"/>
	<path class="st0" d="M103.6,35.7c2.9,0,5.6-0.1,8.3,0c1.8,0.1,3.4,0.9,4.3,2.5c1.2,2.1,0.4,4.9-1.8,6c-0.8,0.4-1.6,0.7-2.6,1
		c1.8,2.3,3.5,4.6,5.3,6.9c-0.1,0.1-0.2,0.3-0.3,0.4c-0.5-0.3-1.2-0.5-1.6-1c-1.5-1.8-2.8-3.6-4.2-5.4c-0.4-0.4-1-0.7-1.6-0.8
		c-1.5-0.1-3,0-4.6,0c0,2.2,0,4.2,0,6.2c0,0.3-0.4,0.6-0.5,0.9c-0.2-0.3-0.5-0.6-0.5-0.9C103.6,46.3,103.6,41.1,103.6,35.7z
		 M104.9,36.8c0,2.6,0,5,0,7.4c2.5,0,5,0.2,7.4-0.1c2.1-0.2,3.3-1.9,3.3-3.7c0-1.9-1.3-3.4-3.5-3.5
		C109.7,36.7,107.3,36.8,104.9,36.8z"/>
	<path class="st0" d="M140.6,35.8c2.4,0,4.7-0.2,7,0c4.4,0.5,7.4,3.9,7.4,8.1c0,4.4-2.9,7.8-7.3,8.3c-2.3,0.3-4.6,0-7.1,0
		C140.6,46.8,140.6,41.4,140.6,35.8z M141.6,51.3c2.1,0,4,0.2,5.9,0c4-0.5,6.5-3.6,6.4-7.4c-0.2-3.9-3.1-6.8-7.1-7.1
		c-1.4-0.1-2.8-0.1-4.2,0c-0.3,0-0.9,0.5-0.9,0.8C141.6,42.1,141.6,46.6,141.6,51.3z"/>
	<path class="st0" d="M158.5,16.3c1.8,2.4,3.6,4.7,5.4,6.9c-0.1,0.1-0.2,0.3-0.2,0.4c-0.5-0.3-1.2-0.5-1.6-0.9
		c-1.5-1.8-2.8-3.7-4.3-5.5c-0.4-0.4-1-0.8-1.6-0.8c-1.5-0.1-3,0-4.6,0c0,2.4,0,4.6,0,6.9c-0.1,0.1-0.2,0.2-0.3,0.3
		c-0.3-0.3-0.8-0.5-0.8-0.8c0-5.3,0-10.5,0-15.8c0,0,0-0.1,0.1-0.1c2.8,0,5.7-0.2,8.5,0.1c2.6,0.2,4.3,2,4.4,4.3
		c0.1,2.4-1.2,4-3.8,4.8C159.3,16.1,159,16.2,158.5,16.3z M151.6,15.2c2.6,0,5,0.2,7.5-0.1c2-0.2,3.2-1.9,3.3-3.6
		c0-1.7-1.1-3.3-3-3.5c-2.5-0.2-5.1-0.1-7.7-0.1C151.6,10.4,151.6,12.8,151.6,15.2z"/>
	<path class="st0" d="M125.7,23.3c0-5.5,0-11,0-16.5c0.9-0.4,1.1,0,1.1,0.8c0,2.2,0,4.4,0,6.7c3.6,0,7.2,0,10.9,0c0-2.5,0-5,0-7.4
		c1.1-0.1,1.2-0.1,1.2,0.7c0,5,0,10,0,15c0,0.3-0.5,0.6-0.7,0.9c-0.1-0.1-0.3-0.2-0.4-0.2c0-2.2,0-4.4,0-6.6c0-1-0.3-1.3-1.3-1.3
		c-2.8,0.1-5.7,0.1-8.5,0c-0.9,0-1.2,0.3-1.2,1.2c0.1,1.9,0,3.8,0,5.7C126.9,23.3,126.7,23.6,125.7,23.3z"/>
	<path class="st0" d="M179.3,38c-0.4,0-0.9,0.1-1.2-0.1c-3.3-2-6.9-1.9-9.3,0.3c-2.6,2.4-3.2,6.6-1.5,9.8c2.3,4.4,7.8,4.6,11.3,2.1
		c0.3-0.2,0.5-0.6,0.5-0.9c0.1-1.4,0-2.8,0-4.4c-1.6,0-3.2,0-4.7,0c-0.3,0-0.6-0.3-0.9-0.5c0.3-0.2,0.6-0.5,1-0.5c1.9,0,3.7,0,5.7,0
		c0,2.1,0,4,0,6c0,0.3-0.3,0.8-0.6,1c-3,2.4-7.8,2.6-10.9,0.5c-3-2.1-4.2-6.5-2.9-10.2c2-5.7,8.9-7.5,13.7-3.5
		C179.3,37.6,179.3,37.8,179.3,38z"/>
	<path class="st0" d="M174.3,23.5c0-5.6,0-11.1,0-16.8c0.9,0,1.7,0,2.5,0c2.8,0,5.5,0,8.3,0c0.4,0,0.7,0.3,1.1,0.5
		c-0.4,0.2-0.7,0.5-1.1,0.5c-2.7,0-5.3,0-8,0c-0.5,0-1,0-1.6,0c0,2.3,0,4.5,0,6.7c2.9,0,5.7,0,8.5,0c0.4,0,0.8,0.3,1.2,0.5
		c-0.1,0.2-0.1,0.3-0.2,0.5c-3.1,0-6.2,0-9.5,0c0,2.3,0,4.5,0,7c1.4,0,2.8,0,4.2,0c1.9,0,3.8,0,5.7,0c0.3,0,0.5,0.3,0.8,0.5
		c-0.3,0.2-0.5,0.5-0.8,0.5C181.8,23.5,178.1,23.5,174.3,23.5z"/>
	<path class="st0" d="M203.3,51.8c-0.3,0.2-0.5,0.6-0.8,0.6c-3.7,0-7.5,0-11.3,0c0-5.6,0-11.1,0-16.7c3.9,0,7.8,0,11.6,0
		c0,0.9,0,0.9-0.9,0.9c-2.7,0-5.3,0-8,0c-0.5,0-1,0-1.6,0c0,2.3,0,4.4,0,6.7c1.5,0,3,0,4.6,0c1.4,0,2.7,0,4.1,0
		c0.3,0,0.6,0.3,0.9,0.5c-0.3,0.2-0.6,0.5-1,0.5c-2.3,0-4.7,0-7,0c-0.5,0-1,0-1.6,0c0,2.3,0,4.5,0,6.9c3.6,0,7.1,0,10.7,0
		C203.1,51.5,203.2,51.6,203.3,51.8z"/>
	<path class="st0" d="M154.5,75.2c0,2.2,0,4.1,0,6.1c-0.1,0.1-0.2,0.2-0.4,0.3c-0.3-0.3-0.8-0.5-0.8-0.8c0-5.3,0-10.6,0-16.1
		c2.9,0.1,5.6,0.1,8.3,0.4c2.4,0.3,3.8,2.2,4,4.4c0.1,2.4-1,4.3-3.3,5.1c-1.2,0.4-2.6,0.5-3.8,0.6C157.2,75.3,155.9,75.2,154.5,75.2
		z M154.5,74.2c1.5,0,2.9,0.1,4.3,0c1.2-0.1,2.4-0.3,3.5-0.7c1.5-0.7,2.3-2,2.2-3.7c-0.1-1.7-1-3.1-2.7-3.4
		c-2.4-0.4-4.8-0.5-7.3-0.7C154.5,68.6,154.5,71.3,154.5,74.2z"/>
	<path class="st0" d="M198,14.5c3,0,5.8,0,8.5,0c0.4,0,0.8,0.3,1.2,0.5c0,0.2-0.1,0.4-0.1,0.5c-3.2,0-6.3,0-9.6,0c0,2.2,0,4.2,0,6.3
		c0,0.2,0.7,0.6,1.1,0.7c2.7,0.1,5.4,0,8.1,0c0.5,0,1,0,1.5,0c0.1,0.1,0.1,0.2,0.2,0.4c-0.3,0.2-0.5,0.6-0.8,0.6
		c-3.7,0-7.5,0-11.3,0c0-5.6,0-11.1,0-16.7c2.5,0,4.9,0,7.3,0c1.2,0,2.3,0,3.5,0c0.4,0,0.7,0.3,1,0.5c-0.3,0.2-0.7,0.4-1,0.4
		c-2.4,0-4.9,0-7.3,0c-2.8,0-2.4-0.4-2.5,2.5C198,11.6,198,13,198,14.5z"/>
	<path class="st0" d="M126.6,81.2c2.5-5.3,4.9-10.6,7.4-15.9c0.1-0.3,0.6-0.7,0.8-0.7c0.4,0,0.8,0.4,1,0.7
		c2.5,5.3,4.9,10.6,7.4,15.9c-0.1,0.1-0.2,0.2-0.3,0.4c-0.4-0.3-1-0.5-1.2-0.9c-0.5-0.9-0.9-1.8-1.3-2.8c-0.3-0.9-0.8-1.2-1.8-1.2
		c-2.6,0.1-5.1,0.1-7.7,0c-0.8,0-1.3,0.2-1.6,1c-0.4,1-0.9,2.1-1.4,3.1c-0.2,0.4-0.7,0.6-1.1,0.9C126.8,81.5,126.7,81.4,126.6,81.2z
		 M139.3,75.7c-1.5-3.3-3-6.5-4.5-9.9c-1.6,3.5-3,6.6-4.5,9.9C133.4,75.7,136.2,75.7,139.3,75.7z"/>
	<path class="st0" d="M223.7,81.6c-0.4-0.3-0.8-0.6-1.2-0.9c-0.1,0-0.1-0.2-0.1-0.2c-0.7-3.4-2.8-4.3-6.1-3.8
		c-1.5,0.2-3.1,0.1-4.6,0c-0.8,0-1.2,0.2-1.5,0.9c-0.4,1-0.9,2.1-1.4,3.1c-0.2,0.4-0.7,0.6-1.1,0.9c-0.1-0.1-0.2-0.2-0.3-0.3
		c2-4.2,3.9-8.5,5.9-12.7c0.5-1.1,1-2.3,1.6-3.4c0.4-0.9,1.2-0.9,1.7,0c2.5,5.4,5,10.7,7.5,16.1C223.9,81.4,223.8,81.5,223.7,81.6z
		 M215.7,65.8c-1.6,3.5-3,6.6-4.5,9.9c3.1,0,6,0,9,0C218.7,72.4,217.3,69.2,215.7,65.8z"/>
	<path class="st0" d="M117.7,67.1c-0.2,0.2-0.4,0.5-0.5,0.6c-1.4-0.7-2.6-1.6-4-2c-3.3-1-6.7,0.6-8.2,3.7c-1.6,3.2-0.9,7.3,1.8,9.6
		c2.6,2.2,6.3,2.3,9.1,0.2c0.3-0.2,0.6-0.6,0.9-0.7c0.3-0.1,0.7,0,1.3,0c-2.9,3.7-8.6,4.2-12,1.3c-3.7-3.1-4.1-9.1-0.8-12.7
		C108.3,63.6,114.1,63.6,117.7,67.1z"/>
	<path class="st0" d="M193.5,81.3c0-5.1,0-10.2,0-15.5c-2,0-3.9,0-5.8,0c-0.1-0.1-0.1-0.3-0.2-0.4c0.3-0.2,0.5-0.6,0.8-0.6
		c3.8,0,7.7,0,11.5,0c0.3,0,0.6,0.4,0.8,0.6c-0.1,0.1-0.1,0.3-0.2,0.4c-1.9,0-3.8,0-5.8,0c0,0.7-0.1,1.3-0.1,1.8c0,4.3,0,8.6,0,12.9
		C194.7,81.2,194.6,81.8,193.5,81.3z"/>
	<path class="st0" d="M109.4,23.3c-1.1,0.4-1.1-0.2-1.1-0.9c0-4.3,0-8.6,0-12.9c0-0.5,0-1,0-1.8c-1.6,0-3.1,0-4.7,0
		c-0.4,0-0.8-0.3-1.2-0.5c0.4-0.2,0.7-0.4,1.1-0.4c3.9,0,7.7,0,11.6,0c0.1,0.1,0.2,0.3,0.2,0.4c-0.3,0.2-0.6,0.6-0.9,0.6
		c-1.3,0.1-2.5,0.1-3.8,0c-1-0.1-1.4,0.3-1.4,1.3c0.1,4.5,0,9,0,13.5C109.4,22.8,109.4,23,109.4,23.3z"/>
	<path class="st0" d="M234.2,81.5c0-5.7,0-11.1,0-16.6c1-0.4,1.1,0.1,1.1,0.9c0,4.4,0,8.9,0,13.3c0,1.1,0.3,1.5,1.4,1.4
		c2.5-0.1,5,0,7.6,0c0.3,0,0.7,0.3,1,0.5c-0.3,0.2-0.7,0.4-1,0.4C241,81.5,237.7,81.5,234.2,81.5z"/>
	<path class="st0" d="M128.1,35.5c0.2,0.3,0.7,0.6,0.7,0.9c0,5.1,0,10.2,0,15.3c0,0.3-0.4,0.5-0.5,0.8c-0.2-0.3-0.5-0.6-0.6-0.9
		c0-5.2,0-10.4,0-15.7C127.8,35.7,127.9,35.6,128.1,35.5z"/>
	<path class="st0" d="M177.1,64.9c0,5.4,0,10.9,0,16.4c-0.8,0.4-1.1,0.2-1.1-0.7c0-5,0-10.1,0-15.1c0-0.3,0.5-0.6,0.7-0.9
		C176.9,64.7,177,64.8,177.1,64.9z"/>
</g>
</svg>
