<?xml version="1.0" encoding="UTF-8"?>
<svg width="171px" height="62px" viewBox="0 0 171 62" version="1.1" xmlns="http://www.w3.org/2000/svg" xmlns:xlink="http://www.w3.org/1999/xlink">
    <!-- Generator: Sketch 44.1 (41455) - http://www.bohemiancoding.com/sketch -->
    <title>Page 1</title>
    <desc>Created with Sketch.</desc>
    <defs>
        <polygon id="path-1" points="0 51.8064775 0 0.611918134 48.3803488 0.611918134 48.3803488 51.8064775"></polygon>
        <polygon id="path-3" points="0 61.9303371 170.513415 61.9303371 170.513415 0 0 0"></polygon>
    </defs>
    <g id="Home-Page" stroke="none" stroke-width="1" fill="none" fill-rule="evenodd">
        <g id="Tablet-Portrait" transform="translate(-654.000000, -3709.000000)">
            <g id="Page-1" transform="translate(654.000000, 3709.000000)">
                <g id="Group-3" transform="translate(0.000000, 5.503371)">
                    <mask id="mask-2" fill="white">
                        <use xlink:href="#path-1"></use>
                    </mask>
                    <g id="Clip-2"></g>
                    <path d="M32.5315683,14.9079348 C33.3657146,14.8382719 34.1303488,14.8382719 34.9644951,14.6989461 C38.5791293,14.1416427 40.5254707,11.6337775 40.247422,7.9416427 C40.1779098,7.38433933 40.1083976,6.75737303 39.9693732,6.20006966 C39.3437634,3.62254157 37.6754707,2.0899573 35.1035195,1.7416427 C33.5742512,1.53265393 32.0449829,1.7416427 30.5157146,1.7416427 C29.7510805,1.7416427 29.4730317,2.15962022 29.4730317,2.92591236 L29.4730317,11.8427663 C29.5425439,14.8382719 29.5425439,14.8382719 32.5315683,14.9079348 M22.9388854,1.81130562 L22.9388854,2.92591236 C23.0083976,5.22478876 23.147422,7.52366517 23.2169341,9.82254157 C23.2169341,10.1011933 23.0083976,10.3798449 22.9388854,10.6584966 C22.6608366,10.4495079 22.3827878,10.310182 22.1742512,10.0315303 C22.0352268,9.82254157 22.0352268,9.47422697 21.9657146,9.19557528 C21.757178,7.9416427 21.5486415,6.61804719 21.2010805,5.36411461 C20.7144951,3.55287865 19.4632756,2.43827191 17.6559585,2.02029438 C16.8913244,1.88096854 16.057178,1.7416427 15.2230317,1.7416427 C13.9023,1.67197978 13.6937634,1.88096854 13.6937634,3.20456404 C13.6937634,10.8674854 13.7632756,18.5304067 13.7632756,26.262991 C13.7632756,26.7506315 13.8327878,27.2382719 13.9023,27.7259124 C14.0413244,28.5618674 14.6669341,28.7708562 15.3620561,28.910182 C16.057178,29.0495079 16.404739,28.7708562 16.6827878,28.1438899 C18.4901049,24.6607438 21.2705927,22.3618674 25.0937634,21.4562494 C25.7888854,21.3169236 25.8583976,20.8989461 25.8583976,20.3416427 C25.8583976,15.4652382 25.8583976,10.6584966 25.7888854,5.78209213 C25.7888854,4.94613708 25.7193732,4.17984494 25.649861,3.34388989 C25.5803488,2.43827191 25.1632756,1.88096854 24.1901049,1.88096854 C23.8425439,1.95063146 23.4949829,1.88096854 22.9388854,1.81130562 M37.4669341,32.1843393 C36.9108366,32.462991 36.6327878,32.1146764 36.4242512,31.627036 C36.1462024,30.721418 35.9376659,29.7461371 35.5901049,28.8405191 C34.6864463,26.5416427 33.4352268,24.521418 31.2108366,23.3371483 C30.7937634,23.0584966 30.2376659,22.9191708 29.4730317,22.6405191 C29.6120561,24.7304067 29.7510805,26.5416427 29.9596171,28.4225416 C30.0291293,28.7011933 30.5157146,29.0495079 30.9327878,29.1888337 C31.4193732,29.3978225 32.0449829,29.3281596 32.5315683,29.4674854 C32.8096171,29.5371483 32.9486415,29.8158 33.157178,30.0247888 C32.8791293,30.2337775 32.6705927,30.5820921 32.3925439,30.5820921 C31.2108366,30.5820921 30.0291293,30.3731034 28.9169341,30.4427663 C27.0401049,30.4427663 25.1632756,30.5820921 23.2864463,30.5820921 C22.9388854,30.5820921 22.5913244,30.3034404 22.3132756,30.1641146 C22.5913244,29.9551258 22.8693732,29.6068112 23.147422,29.5371483 C25.5803488,29.1191708 25.5803488,29.1191708 25.7193732,26.5416427 C25.7888854,25.427036 25.7888854,24.3124292 25.7888854,23.1978225 C25.7888854,23.1281596 25.7193732,22.9888337 25.7193732,22.7798449 C24.5376659,23.0584966 23.5644951,23.6854629 22.7303488,24.521418 C21.4791293,25.7753506 20.7144951,27.3079348 20.2279098,28.9798449 C18.8376659,33.8562494 18.7681537,38.8023169 19.949861,43.7483843 C20.1583976,44.5843393 20.4364463,45.4202944 20.8535195,46.2562494 C23.2169341,51.3416427 28.847422,52.4562494 33.0181537,48.6247888 C34.7559585,47.0225416 35.7291293,44.9326539 36.4242512,42.7034404 C36.5632756,42.2158 36.6327878,41.6584966 36.8413244,41.1708562 C36.9108366,40.9618674 37.2583976,40.8922045 37.4669341,40.6832157 C37.6059585,40.8922045 37.8144951,41.1011933 37.8144951,41.310182 C37.8840073,44.3056876 37.8840073,47.3011933 37.8840073,50.2966989 C37.8840073,50.5056876 37.6754707,50.7146764 37.6059585,50.9236652 C37.397422,50.7843393 37.1193732,50.7146764 36.9108366,50.5753506 C36.8413244,50.2966989 36.8413244,50.227036 36.8413244,50.0877101 C36.4937634,48.2068112 35.6596171,48.6247888 34.4779098,49.321418 C32.4620561,50.5056876 30.3766902,51.5506315 27.9437634,51.7596202 C22.0352268,52.2472607 17.3083976,48.9034404 15.5705927,42.9124292 C14.4583976,39.0809685 14.4583976,35.2495079 15.4315683,31.4180472 C15.5010805,31.1393955 15.5705927,30.7910809 15.7096171,30.3034404 C14.0413244,30.2337775 12.5120561,30.1641146 10.9132756,30.1641146 C9.31449512,30.1641146 7.64620244,30.3731034 6.04742195,30.3731034 C5.69986098,30.3731034 5.14376341,30.0944517 5.14376341,29.8854629 C5.00473902,29.2584966 5.49132439,29.1888337 5.97790976,29.1191708 C6.8120561,29.0495079 7.64620244,28.910182 8.48034878,28.8405191 C9.17547073,28.7708562 9.5925439,28.3528787 9.6620561,27.6562494 C9.73156829,26.8899573 9.80108049,26.1236652 9.80108049,25.2877101 C9.80108049,17.8337775 9.80108049,10.3798449 9.87059268,2.92591236 C9.87059268,1.95063146 9.52303171,1.60231685 8.61937317,1.7416427 C7.92425122,1.81130562 7.15961707,1.81130562 6.46449512,1.95063146 C4.03156829,2.36860899 2.4327878,3.76186742 1.73766585,6.20006966 C1.45961707,7.17535056 1.39010488,8.08096854 1.18156829,9.05624944 C1.1120561,9.40456404 1.1120561,9.82254157 0.973031707,10.1011933 C0.834007317,10.310182 0.555958537,10.4495079 0.277909756,10.6584966 C0.208397561,10.4495079 -0.00013902439,10.1708562 -0.00013902439,9.96186742 C0.0693731707,7.59332809 0.138885366,5.29445169 0.208397561,2.92591236 C0.277909756,0.278721348 -0.00013902439,0.627035955 2.5718122,0.627035955 L20.0888854,0.627035955 L33.9218122,0.627035955 C36.1462024,0.627035955 38.2315683,1.04501348 40.247422,2.02029438 C43.2364463,3.48321573 44.6962024,5.9910809 44.3486415,8.98658652 C44.0010805,11.9124292 41.8462024,14.1416427 38.7181537,14.8382719 C38.3010805,14.9079348 37.8840073,14.9775978 37.4669341,15.3259124 C37.6754707,15.3955753 37.8144951,15.4652382 38.0230317,15.5349011 C38.857178,15.7438899 39.7608366,15.8832157 40.5254707,16.2315303 C42.6803488,17.0674854 43.8620561,18.7393955 44.1401049,21.0382719 C44.2096171,21.804564 44.2096171,22.5011933 44.2096171,23.2674854 C44.2096171,24.4517551 44.1401049,25.7056876 44.1401049,26.8899573 C44.2096171,28.9798449 45.0437634,29.6068112 47.0596171,29.2584966 C47.4766902,29.1888337 47.9632756,29.2584966 48.3803488,29.2584966 C48.0327878,29.6068112 47.754739,30.1641146 47.3376659,30.2337775 C46.1559585,30.5124292 44.904739,30.8607438 43.7230317,30.8607438 C41.6376659,30.7910809 40.3864463,29.4674854 40.1779098,27.3775978 C40.1083976,26.9596202 40.1083976,26.6113056 40.1083976,26.1933281 C40.1083976,24.8697326 40.1083976,23.6158 40.1779098,22.2922045 C40.1779098,18.1124292 38.5096171,16.2315303 34.3388854,16.0225416 C33.0876659,15.9528787 31.8364463,16.0225416 30.654739,16.0922045 C29.8205927,16.0922045 29.4035195,16.510182 29.4730317,17.4158 C29.5425439,18.5304067 29.4730317,19.6450135 29.5425439,20.7596202 C29.5425439,21.0382719 29.7510805,21.4562494 30.0291293,21.5259124 C31.4193732,22.2225416 32.8791293,22.7798449 34.2693732,23.4764742 C35.5205927,24.1034404 36.007178,23.9641146 36.4242512,22.6405191 C36.4937634,22.3618674 36.4937634,22.0832157 36.6327878,21.874227 C36.7023,21.7349011 36.9803488,21.5955753 37.1888854,21.5955753 C37.2583976,21.5955753 37.4669341,21.874227 37.397422,22.0135528 C36.8413244,25.357373 37.1888854,28.7011933 37.5364463,32.0450135 C37.5364463,32.1146764 37.5364463,32.1146764 37.4669341,32.1843393" id="Fill-1" fill="#9D9FA2" mask="url(#mask-2)"></path>
                </g>
                <mask id="mask-4" fill="white">
                    <use xlink:href="#path-3"></use>
                </mask>
                <g id="Clip-5"></g>
                <polygon id="Fill-4" fill="#9D9FA2" mask="url(#mask-4)" points="58.1121951 61.9303371 59.7109756 61.9303371 59.7109756 0 58.1121951 0"></polygon>
                <path d="M72.9182232,25.6360247 L72.9182232,30.7910809 C74.656028,30.7910809 76.3938329,30.9304067 78.0621256,30.721418 C79.5218817,30.5820921 80.356028,29.3978225 80.356028,28.1438899 C80.356028,26.8202944 79.4523695,25.7753506 77.9231012,25.7056876 C76.2548085,25.5663618 74.5865159,25.6360247 72.9182232,25.6360247 M72.0145646,24.8697326 C74.0304183,24.8697326 75.9072476,24.8000697 77.7840768,24.8697326 C79.0352963,24.9393955 80.1474915,25.4966989 80.7731012,26.6113056 C81.6072476,28.074227 81.05115,30.0247888 79.5218817,30.7910809 C78.9657841,31.0697326 78.4096866,31.2787213 77.7145646,31.4877101 C78.9657841,33.0899573 80.1474915,34.6922045 81.398711,36.2944517 C81.3291988,36.3641146 81.2596866,36.5034404 81.1901744,36.5731034 C80.8426134,36.3641146 80.356028,36.2247888 80.0779793,35.8764742 C79.0352963,34.6225416 78.1316378,33.368609 77.1584671,32.1146764 C76.8804183,31.8360247 76.4633451,31.627036 76.046272,31.557373 C75.003589,31.4877101 73.9609061,31.557373 72.848711,31.557373 L72.848711,35.8764742 C72.848711,36.0854629 72.5706622,36.2944517 72.50115,36.5034404 C72.3621256,36.2944517 72.153589,36.0854629 72.153589,35.8764742 C72.0145646,32.2540022 72.0145646,28.6315303 72.0145646,24.8697326" id="Fill-6" fill="#9D9FA2" mask="url(#mask-4)"></path>
                <path d="M98.4289902,35.7368 C99.8894415,35.7368 101.209478,35.8761258 102.53021,35.7368 C105.310698,35.3884854 107.048502,33.2289348 106.979685,30.5824404 C106.840661,27.8648899 104.824112,25.8446652 102.043624,25.6356764 C101.071149,25.5660135 100.097283,25.5660135 99.1241122,25.6356764 C98.9155756,25.6356764 98.4991976,25.983991 98.4991976,26.1929798 C98.4289902,29.3278112 98.4289902,32.4633393 98.4289902,35.7368 L98.4289902,35.7368 Z M97.7338683,24.9390472 C99.402161,24.9390472 101.000941,24.7997213 102.599722,24.9390472 C105.658259,25.2873618 107.743624,27.6559011 107.743624,30.5824404 C107.743624,33.6469124 105.727771,36.0154517 102.669929,36.3637663 C101.071149,36.5727551 99.4716732,36.3637663 97.7338683,36.3637663 L97.7338683,24.9390472 Z" id="Fill-7" fill="#9D9FA2" mask="url(#mask-4)"></path>
                <path d="M105.38021,10.588764 C107.188222,10.588764 108.85582,10.7280899 110.593624,10.5191011 C111.983868,10.3797753 112.818015,9.19550562 112.888222,8.01123596 C112.888222,6.82696629 112.122893,5.71235955 110.802856,5.57303371 C109.065051,5.43370787 107.257039,5.50337079 105.450417,5.50337079 C105.38021,7.24494382 105.38021,8.91685393 105.38021,10.588764 M110.176551,11.3550562 C111.427771,13.0269663 112.67899,14.6292135 113.930905,16.1617978 C113.860698,16.2314607 113.79188,16.3707865 113.79188,16.4404494 C113.44432,16.2314607 112.957039,16.0921348 112.67899,15.8134831 C111.636307,14.5595506 110.732649,13.2359551 109.689966,11.9820225 C109.412612,11.7033708 108.994844,11.4247191 108.578466,11.4247191 C107.535783,11.3550562 106.4931,11.4247191 105.38021,11.4247191 L105.38021,16.2314607 C105.310698,16.3011236 105.24188,16.3707865 105.171673,16.4404494 C104.963137,16.2314607 104.615576,16.0921348 104.615576,15.8831461 L104.615576,4.87640449 C104.615576,4.87640449 104.615576,4.80674157 104.685088,4.80674157 C106.632124,4.80674157 108.647283,4.66741573 110.593624,4.87640449 C112.401637,5.01573034 113.583344,6.26966292 113.652161,7.87191011 C113.721673,9.54382022 112.818015,10.658427 111.011393,11.2157303 C110.732649,11.2157303 110.524112,11.2853933 110.176551,11.3550562" id="Fill-8" fill="#9D9FA2" mask="url(#mask-4)"></path>
                <path d="M87.3769683,16.2315303 L87.3769683,4.73714831 C88.0018829,4.45849663 88.1416024,4.73714831 88.1416024,5.29445169 L88.1416024,9.96186742 L95.7184317,9.96186742 L95.7184317,4.80681124 C96.4830659,4.73714831 96.552578,4.73714831 96.552578,5.29445169 L96.552578,15.7438899 C96.552578,15.9528787 96.2050171,16.1618674 96.0659927,16.3708562 C95.9957854,16.3011933 95.8574561,16.2315303 95.7879439,16.2315303 L95.7879439,11.6337775 C95.7879439,10.9371483 95.5794073,10.7281596 94.8842854,10.7281596 C92.9379439,10.7978225 90.9220902,10.7978225 88.9757488,10.7281596 C88.3494439,10.7281596 88.1416024,10.9371483 88.1416024,11.5641146 C88.2111146,12.8877101 88.1416024,14.2113056 88.1416024,15.5349011 C88.2111146,16.2315303 88.0720902,16.4405191 87.3769683,16.2315303" id="Fill-9" fill="#9D9FA2" mask="url(#mask-4)"></path>
                <path d="M124.635227,26.4717708 C124.357873,26.4717708 124.010312,26.5414337 123.80108,26.4021079 C121.507178,25.0088494 119.004739,25.0785124 117.336446,26.6110966 C115.529129,28.2830067 115.112056,31.2088494 116.293763,33.4380629 C117.892544,36.5032315 121.715715,36.6432539 124.148641,34.9016809 C124.357873,34.7616584 124.496202,34.4830067 124.496202,34.274018 C124.565715,33.2987371 124.496202,32.3234562 124.496202,31.2088494 L121.229824,31.2088494 C121.020593,31.2088494 120.812056,30.9998607 120.60352,30.8605348 C120.812056,30.721209 121.020593,30.5122202 121.298641,30.5122202 L125.260837,30.5122202 L125.260837,34.6919955 C125.260837,34.9016809 125.052995,35.2499955 124.843763,35.3886247 C122.758398,37.0605348 119.421812,37.1998607 117.266934,35.7369393 C115.181568,34.274018 114.347422,31.2088494 115.25108,28.6313213 C116.641324,24.6605348 121.437666,23.4066022 124.774251,26.1931191 C124.635227,26.1931191 124.635227,26.3324449 124.635227,26.4717708" id="Fill-10" fill="#9D9FA2" mask="url(#mask-4)"></path>
                <path d="M121.159617,16.3706472 L121.159617,4.6672764 L122.897422,4.6672764 L128.666934,4.6672764 C128.944983,4.6672764 129.15352,4.87626517 129.431568,5.01559101 C129.15352,5.15491685 128.944983,5.36390562 128.666934,5.36390562 L123.105959,5.36390562 L121.993763,5.36390562 L121.993763,10.0313213 L127.9023,10.0313213 C128.181044,10.0313213 128.458398,10.2403101 128.736446,10.379636 C128.666934,10.5189618 128.666934,10.5886247 128.597422,10.7279506 L121.993763,10.7279506 L121.993763,15.6043551 L124.913276,15.6043551 L128.876166,15.6043551 C129.084007,15.6043551 129.223727,15.8133438 129.431568,15.9526697 C129.223727,16.0919955 129.084007,16.3009843 128.876166,16.3009843 C126.373032,16.3706472 123.80108,16.3706472 121.159617,16.3706472" id="Fill-11" fill="#9D9FA2" mask="url(#mask-4)"></path>
                <path d="M141.318154,36.0851146 C141.109617,36.2244404 140.970593,36.5037888 140.762056,36.5037888 L132.907178,36.5037888 L132.907178,24.8693843 L140.970593,24.8693843 C140.970593,25.4963506 140.970593,25.4963506 140.345678,25.4963506 L134.784702,25.4963506 L133.671812,25.4963506 L133.671812,30.1637663 L136.870068,30.1637663 L139.719373,30.1637663 C139.92791,30.1637663 140.136446,30.3727551 140.345678,30.5120809 C140.136446,30.6514067 139.92791,30.8603955 139.650556,30.8603955 L134.784702,30.8603955 L133.671812,30.8603955 L133.671812,35.6671371 L141.109617,35.6671371 C141.179129,35.8761258 141.248641,35.9464854 141.318154,36.0851146" id="Fill-12" fill="#9D9FA2" mask="url(#mask-4)"></path>
                <path d="M107.396341,51.6898876 C108.439024,51.6898876 109.412195,51.7595506 110.385366,51.6898876 C111.219512,51.6202247 112.053659,51.4808989 112.818293,51.2022472 C113.860976,50.7146067 114.417073,49.8089888 114.347561,48.6247191 C114.278049,47.4404494 113.652439,46.4651685 112.470732,46.2561798 C110.802439,45.9775281 109.134146,45.9078652 107.396341,45.7685393 L107.396341,51.6898876 Z M107.396341,52.3865169 L107.396341,56.6359551 C107.326829,56.705618 107.257317,56.7752809 107.118293,56.8449438 C106.909756,56.6359551 106.562195,56.4966292 106.562195,56.2876404 L106.562195,45.0719101 C108.578049,45.141573 110.454878,45.141573 112.331707,45.3505618 C114,45.5595506 114.973171,46.8831461 115.112195,48.4157303 C115.181707,50.0876404 114.417073,51.411236 112.818293,51.9685393 C111.984146,52.247191 111.010976,52.3168539 110.176829,52.3865169 C109.273171,52.4561798 108.369512,52.3865169 107.396341,52.3865169 L107.396341,52.3865169 Z" id="Fill-13" fill="#9D9FA2" mask="url(#mask-4)"></path>
                <path d="M137.634146,10.1009843 L143.542683,10.1009843 C143.820732,10.1009843 144.09878,10.309973 144.376829,10.4492989 C144.376829,10.5886247 144.307317,10.7279506 144.307317,10.7976135 L137.634146,10.7976135 L137.634146,15.1863775 C137.634146,15.3257034 138.120732,15.6043551 138.39878,15.674018 C140.27561,15.7436809 142.152439,15.674018 144.029268,15.674018 L145.071951,15.674018 C145.141463,15.7436809 145.141463,15.8133438 145.210976,15.9526697 C145.002439,16.0919955 144.863415,16.3706472 144.654878,16.3706472 L136.8,16.3706472 L136.8,4.73693933 L141.87439,4.73693933 L144.307317,4.73693933 C144.585366,4.73693933 144.793902,4.94592809 145.002439,5.08525393 C144.793902,5.22457978 144.515854,5.36390562 144.307317,5.36390562 L139.232927,5.36390562 C137.286585,5.36390562 137.564634,5.08525393 137.495122,7.10547865 C137.634146,8.08075955 137.634146,9.05604045 137.634146,10.1009843" id="Fill-14" fill="#9D9FA2" mask="url(#mask-4)"></path>
                <path d="M96.8303488,52.7348315 C95.7876659,50.4359551 94.7449829,48.2067416 93.7023,45.8382022 C92.5901049,48.2764045 91.6169341,50.4359551 90.5742512,52.7348315 L96.8303488,52.7348315 Z M88.0023,56.5662921 C89.7401049,52.8741573 91.4083976,49.1820225 93.1462024,45.4898876 C93.2157146,45.2808989 93.5632756,45.0022472 93.7023,45.0022472 C93.9803488,45.0022472 94.2583976,45.2808989 94.397422,45.4898876 C96.1352268,49.1820225 97.8035195,52.8741573 99.5413244,56.5662921 C99.4718122,56.6359551 99.4023,56.705618 99.3334829,56.8449438 C99.054739,56.6359551 98.638361,56.4966292 98.4986415,56.2179775 C98.1510805,55.5910112 97.8730317,54.9640449 97.595678,54.2674157 C97.3864463,53.6404494 97.0388854,53.4314607 96.3437634,53.4314607 C94.5364463,53.5011236 92.7986415,53.5011236 90.9920195,53.4314607 C90.4352268,53.4314607 90.0876659,53.5707865 89.8791293,54.1280899 C89.6017756,54.8247191 89.2542146,55.5910112 88.9066537,56.2876404 C88.7669341,56.5662921 88.4193732,56.705618 88.1413244,56.9146067 C88.1413244,56.7752809 88.0718122,56.705618 88.0023,56.5662921 L88.0023,56.5662921 Z" id="Fill-15" fill="#9D9FA2" mask="url(#mask-4)"></path>
                <path d="M149.937944,45.8379236 C148.825054,48.2761258 147.852578,50.436373 146.809895,52.7345528 L153.065993,52.7345528 C152.02331,50.436373 151.050139,48.2064629 149.937944,45.8379236 M155.49892,56.8453618 C155.220871,56.6356764 154.942822,56.4266876 154.664773,56.2176989 C154.595261,56.2176989 154.595261,56.078373 154.595261,56.078373 C154.108676,53.7105303 152.648224,53.0828674 150.355017,53.431182 C149.312334,53.5712045 148.200139,53.5008449 147.157456,53.431182 C146.601359,53.431182 146.32331,53.5712045 146.114773,54.0588449 C145.836724,54.7554742 145.489163,55.5210697 145.141602,56.2176989 C145.001883,56.4970472 144.654322,56.6356764 144.376968,56.8453618 C144.306761,56.7750022 144.237944,56.706036 144.168432,56.6356764 C145.558676,53.7105303 146.879407,50.7143281 148.269651,47.789182 C148.617212,47.0221933 148.964773,46.1862382 149.381846,45.4199461 C149.659895,44.7929798 150.215298,44.7929798 150.562859,45.4199461 C152.300663,49.1824404 154.038468,52.8745753 155.776273,56.6356764 C155.637944,56.706036 155.568432,56.7750022 155.49892,56.8453618" id="Fill-16" fill="#9D9FA2" mask="url(#mask-4)"></path>
                <path d="M81.8159927,46.7440989 C81.6769683,46.8827281 81.5379439,47.0924135 81.4684317,47.1620764 C80.495261,46.6737393 79.6611146,46.0474697 78.6879439,45.768818 C76.3940415,45.0721888 74.0306268,46.1860989 72.9879439,48.3463461 C71.8757488,50.5755596 72.3623341,53.4317393 74.2391634,55.0332899 C76.0464805,56.5665708 78.6184317,56.6355371 80.5647732,55.1733124 C80.7733098,55.0332899 80.9818463,54.7553348 81.1903829,54.6849753 C81.3989195,54.616009 81.6769683,54.6849753 82.0940415,54.6849753 C80.0781878,57.2632 76.1159927,57.6115146 73.752578,55.5905933 C71.1806268,53.4317393 70.902578,49.251964 73.1964805,46.7440989 C75.2818463,44.3058966 79.3135537,44.3058966 81.8159927,46.7440989" id="Fill-17" fill="#9D9FA2" mask="url(#mask-4)"></path>
                <path d="M134.506098,56.6356764 L134.506098,45.8379236 L130.47439,45.8379236 C130.404878,45.7682607 130.404878,45.6289348 130.335366,45.5599685 C130.543902,45.4199461 130.682927,45.1412944 130.891463,45.1412944 L138.885366,45.1412944 C139.093902,45.1412944 139.302439,45.4199461 139.441463,45.5599685 C139.371951,45.6289348 139.371951,45.7682607 139.302439,45.8379236 L135.270732,45.8379236 C135.270732,46.325564 135.20122,46.7442382 135.20122,47.0925528 L135.20122,56.078373 C135.340244,56.5660135 135.270732,56.983991 134.506098,56.6356764" id="Fill-18" fill="#9D9FA2" mask="url(#mask-4)"></path>
                <path d="M76.046272,16.2315303 C75.2816378,16.510182 75.2816378,16.0922045 75.2816378,15.604564 L75.2816378,6.61804719 L75.2816378,5.36411461 L72.0145646,5.36411461 C71.7365159,5.36411461 71.4584671,5.15512584 71.1804183,5.0158 C71.4584671,4.87647416 71.6670037,4.73714831 71.9450524,4.73714831 L80.0084671,4.73714831 C80.0779793,4.80681124 80.1474915,4.94613708 80.1474915,5.0158 C79.9389549,5.15512584 79.7304183,5.43377753 79.5218817,5.43377753 C78.6182232,5.50344045 77.7840768,5.50344045 76.8804183,5.43377753 C76.1852963,5.36411461 75.9072476,5.64276629 75.9072476,6.33939551 C75.9767598,9.47422697 75.9072476,12.6090584 75.9072476,15.7438899 C76.046272,15.8832157 76.046272,16.0225416 76.046272,16.2315303" id="Fill-19" fill="#9D9FA2" mask="url(#mask-4)"></path>
                <path d="M162.7977,56.7751416 L162.7977,45.2110966 C163.492822,44.9324449 163.562334,45.2807596 163.562334,45.8380629 L163.562334,55.1039281 C163.562334,55.8695236 163.770176,56.1488719 164.535505,56.0785124 C166.27331,56.0088494 168.011115,56.0785124 169.818432,56.0785124 C170.026273,56.0785124 170.305017,56.2875011 170.513554,56.426827 C170.305017,56.5661528 170.026273,56.7054787 169.818432,56.7054787 C167.524529,56.7751416 165.230627,56.7751416 162.7977,56.7751416" id="Fill-20" fill="#9D9FA2" mask="url(#mask-4)"></path>
                <path d="M89.0448439,24.7301978 C89.1838683,24.9391865 89.5314293,25.1481753 89.5314293,25.357164 L89.5314293,36.015591 C89.5314293,36.2245798 89.2540756,36.3639056 89.1838683,36.5728944 C89.0448439,36.3639056 88.8363073,36.1549169 88.7674902,35.9466247 L88.7674902,25.0088494 C88.8363073,24.8695236 88.9065146,24.7998607 89.0448439,24.7301978" id="Fill-21" fill="#9D9FA2" mask="url(#mask-4)"></path>
                <path d="M123.10582,45.2113753 L123.10582,56.6353978 C122.549722,56.9147461 122.341185,56.7754202 122.341185,56.1484539 L122.341185,45.6293528 C122.341185,45.420364 122.688746,45.2113753 122.828466,45.0023865 C122.96749,45.0720494 123.036307,45.1410157 123.10582,45.2113753" id="Fill-22" fill="#9D9FA2" mask="url(#mask-4)"></path>
            </g>
        </g>
    </g>
</svg>