<?xml version="1.0" encoding="utf-8"?>
<!-- Generator: Adobe Illustrator 21.1.0, SVG Export Plug-In . SVG Version: 6.00 Build 0)  -->
<svg version="1.1" id="Layer_1" xmlns="http://www.w3.org/2000/svg" xmlns:xlink="http://www.w3.org/1999/xlink" x="0px" y="0px"
	 width="173px" height="36px" viewBox="0 0 173 36" style="enable-background:new 0 0 173 36;" xml:space="preserve">
<style type="text/css">
	.st0{opacity:0.45;}
	.st1{fill:#383838;}
</style>
<g class="st0">
	<path class="st1" d="M141.9,1.4h-8.9v34h8.9c5.8,0,10.5-4.7,10.5-10.5V11.9C152.5,6.1,147.7,1.4,141.9,1.4z M149.4,25
		c0,4.1-3.3,7.4-7.4,7.4h-5.8V4.4h5.8c4.1,0,7.4,3.3,7.4,7.4V25z"/>
	<path class="st1" d="M142,5.4h-4.9v25.9h4.9c3.5,0,6.4-2.9,6.4-6.4V11.8C148.4,8.3,145.5,5.4,142,5.4z M145.3,25
		c0,1.9-1.5,3.4-3.4,3.4h-1.7V8.5h1.7c1.9,0,3.4,1.5,3.4,3.4V25z"/>
	<g>
		<path class="st1" d="M14.3,6.3c-0.2-0.2-0.5-0.2-0.7,0c-0.2,0.3-0.6,0.4-0.9,0.4c-0.4,0-0.7-0.1-0.9-0.4c-0.3-0.3-0.4-0.6-0.4-0.9
			c0-0.4,0.1-0.7,0.4-0.9c0.2-0.2,0.2-0.5,0-0.7c-0.2-0.2-0.5-0.2-0.7,0c-0.4,0.4-0.7,1-0.7,1.7C10.3,6,10.5,6.6,11,7
			c0.4,0.4,1,0.7,1.7,0.7h0c0.6,0,1.2-0.2,1.7-0.7C14.5,6.8,14.5,6.5,14.3,6.3z"/>
		<path class="st1" d="M25.3,1.4h-9C15.3,0.5,14,0,12.6,0C11.2,0,10,0.5,9,1.4H0V5h7.3c0,0.1,0,0.2,0,0.3c0,0.9,0.2,1.8,0.6,2.5
			v15.9c-0.5,0.1-0.8,0.5-0.8,1c0,0.5,0.4,1,1,1h1v7c0,1.7,1.6,3.2,3.5,3.2h0.2c1.9,0,3.5-1.5,3.5-3.2v-7h0.9c0.5,0,1-0.4,1-1
			c0-0.5-0.4-0.9-0.9-1V8.1C17.7,7.3,18,6.3,18,5.3c0-0.1,0-0.2,0-0.3l7.3,0V1.4z M13.1,31.9c0,0.3-0.2,0.5-0.5,0.5
			c-0.3,0-0.5-0.2-0.5-0.5v-14c0-0.3,0.2-0.5,0.5-0.5c0.3,0,0.5,0.2,0.5,0.5V31.9z M14.4,14c-0.5-0.3-1.1-0.5-1.7-0.5h-0.2
			c-0.7,0-1.3,0.2-1.9,0.5v-3.8c0.6,0.2,1.3,0.4,1.9,0.4c0.6,0,1.2-0.1,1.8-0.3V14z M12.6,8.6c-1.8,0-3.2-1.5-3.2-3.2
			c0-1.8,1.5-3.2,3.2-3.2c1.8,0,3.3,1.5,3.3,3.2C15.9,7.1,14.4,8.6,12.6,8.6z"/>
	</g>
	<path class="st1" d="M41.9,1.4v24.8c0,0.3-0.1,2.7-2.1,2.7c-2,0-2.1-2.4-2.1-2.7V1.4h-7.2v24.8c0,5.6,4,9.8,9.2,9.8
		c5.3,0,9.2-4.2,9.2-9.8V1.4H41.9z M46,26.2c0,3.8-2.6,6.7-6.2,6.7c-3.5,0-6.2-2.9-6.2-6.7V4.5h1v21.7c0,2.9,1.8,5.7,5.2,5.7
		c3.4,0,5.2-2.9,5.2-5.7V4.5h1V26.2z"/>
	<path class="st1" d="M67.5,14.8V22h1.9v4.1c0,0.3-0.1,2.7-2.1,2.7c-2.1,0-2.1-2.4-2.1-2.7V8.6h5.8V1.4H58v24.7c0,5.6,4,9.9,9.3,9.9
		c5.3,0,9.3-4.2,9.3-9.9V14.8H67.5z M73.4,26c0,3.9-2.7,6.8-6.2,6.8c-3.5,0-6.2-2.9-6.2-6.8V4.5h6.8v1H62V26c0,2.9,1.8,5.8,5.2,5.8
		c3.4,0,5.2-2.9,5.2-5.8v-7.1h-1.9v-1h2.9V26z"/>
	<path class="st1" d="M97.1,8.6V1.4H84.5v33.9h12.6v-7.2h-5.4V22h5.4v-7.2h-5.4V8.6H97.1z M94,17.9v1h-5.4v12.4H94v1h-6.4V4.6H94v1
		h-5.4v12.4H94z"/>
	<path class="st1" d="M117.2,1.4v9.5l0.1,2c-0.8-0.9-1.5-1.9-2.1-2.9c-0.9-1.6-1.5-3.1-1.5-4.2V1.4h-7.2v34h7.2V21.6l-0.2-2.4
		c0.5,1.3,2.7,2.9,3.7,3.5v12.6h7.2v-34H117.2z M121.3,32.3h-1V20.7c-5-2.7-8.2-7.5-9.7-11.3v22.8h-1V4.4h1l0,0.7c0,2,1,4.7,2.6,7.4
		c1.9,3,4.4,5.6,7.1,7.2V4.4h1V32.3z"/>
	<path class="st1" d="M173,8.6V1.4h-12.6v34H173v-7.2h-5.4V22h5.4v-7.2h-5.4V8.6H173z M169.9,17.9v1h-5.4v12.4h5.4v1h-6.4V4.5h6.4v1
		h-5.4v12.4H169.9z"/>
</g>
</svg>
