<?xml version="1.0" encoding="iso-8859-1"?>
<!-- Generator: Adobe Illustrator 18.1.1, SVG Export Plug-In . SVG Version: 6.00 Build 0)  -->
<!DOCTYPE svg PUBLIC "-//W3C//DTD SVG 1.1//EN" "http://www.w3.org/Graphics/SVG/1.1/DTD/svg11.dtd">
<svg version="1.1" id="Layer_1" xmlns="http://www.w3.org/2000/svg" xmlns:xlink="http://www.w3.org/1999/xlink" x="0px" y="0px"
	 viewBox="0 0 901.556 203.423" style="enable-background:new 0 0 901.556 203.423;" xml:space="preserve">
<g>
	<path style="fill:#F05A28;" d="M34.377,68.676l32.196-32.195l32.195,32.195H86.89v38.126c3.19,1.629,6.634,5.17,9.782,10.03
		c-4.274-8.352-5.186-15.663-1.667-18.616c3.515-2.949,10.542-0.791,18.013,4.851c-6.876-6.388-10.232-12.946-7.934-16.926
		c2.294-3.973,9.635-4.348,18.585-1.602c-8.645-3.651-14.042-8.667-13.244-13.192c0.796-4.514,7.554-7.38,16.894-7.862
		c-9.361-0.478-16.137-3.344-16.935-7.865c-0.797-4.518,4.582-9.526,13.205-13.175c-8.967,2.759-16.325,2.388-18.622-1.591
		c-2.294-3.972,1.048-10.518,7.902-16.897c-7.483,5.659-14.524,7.828-18.043,4.875c-3.514-2.949-2.61-10.243,1.65-18.582
		c-5.097,7.881-10.974,12.325-15.291,10.753c-4.308-1.569-5.956-8.721-4.81-18.003c-2.095,9.136-6.095,15.311-10.686,15.311
		c-4.584,0-8.58-6.157-10.678-15.272c1.156,9.301-0.491,16.473-4.805,18.043c-4.311,1.569-10.177-2.859-15.268-10.716
		c4.275,8.352,5.186,15.663,1.667,18.616c-3.515,2.949-10.541,0.791-18.013-4.851c6.875,6.387,10.231,12.946,7.934,16.926
		c-2.294,3.972-9.635,4.348-18.586,1.601c8.645,3.651,14.042,8.667,13.245,13.192c-0.796,4.514-7.554,7.38-16.894,7.862
		c9.361,0.478,16.137,3.344,16.935,7.866c0.797,4.518-4.582,9.526-13.205,13.175c8.967-2.759,16.325-2.388,18.622,1.591
		c2.293,3.972-1.048,10.518-7.903,16.897c7.483-5.66,14.524-7.828,18.043-4.875c3.515,2.949,2.61,10.243-1.649,18.581
		c3.347-5.176,7.03-8.854,10.388-10.334V68.676H34.377z"/>
	<path style="fill:#3A3A3A;" d="M86.89,160.737v-53.935c-1.968-1.005-3.841-1.286-5.486-0.686c-4.314,1.57-5.961,8.741-4.805,18.043
		c-2.098-9.114-6.093-15.271-10.677-15.271c-4.591,0-8.591,6.175-10.687,15.311c1.146-9.282-0.502-16.435-4.81-18.003
		c-1.482-0.539-3.149-0.355-4.903,0.419v90.373h107.933v-36.25H86.89z"/>
	<g>
		<path style="fill:#3A3A3A;" d="M160.401,145.864V145.5c0-28.746,20.559-51.488,49.669-51.488
			c34.022,0,49.668,24.926,49.668,53.854c0,2.182,0,4.729-0.183,7.094h-65.86c2.729,10.734,10.553,16.194,21.287,16.194
			c8.187,0,14.737-3.093,21.833-10.008l19.102,15.83c-9.46,12.006-23.105,20.012-42.754,20.012
			C182.234,196.987,160.401,176.429,160.401,145.864z M227.354,137.313c-1.274-10.915-7.643-17.83-17.103-17.83
			c-9.096,0-15.282,7.096-17.102,17.83H227.354z"/>
		<path style="fill:#3A3A3A;" d="M274.466,96.195h34.569v13.827c6.367-8.187,15.464-16.011,29.472-16.011
			c20.923,0,33.476,13.827,33.476,36.205v64.405h-34.567v-53.307c0-10.734-5.641-16.556-13.827-16.556
			c-8.37,0-14.554,5.822-14.554,16.556v53.307h-34.569V96.195z"/>
		<path style="fill:#3A3A3A;" d="M386.167,145.864V145.5c0-32.02,20.013-51.488,43.301-51.488c14.918,0,23.65,6.732,30.2,14.191
			V61.809h34.567v132.814h-34.567v-13.099c-6.732,8.187-15.282,15.282-30.019,15.282
			C406.361,196.806,386.167,177.338,386.167,145.864z M460.214,145.5v-0.364c0-12.916-8.915-22.195-20.012-22.195
			c-11.099,0-20.197,9.096-20.197,22.195v0.364c0,13.101,9.098,22.378,20.197,22.378C451.299,167.878,460.214,158.6,460.214,145.5z"
			/>
		<path style="fill:#3A3A3A;" d="M507.873,166.423v-0.364c0-20.376,15.465-30.929,38.57-30.929c9.096,0,18.011,1.819,23.652,3.821
			v-1.638c0-10.189-6.367-16.011-19.649-16.011c-10.37,0-18.375,2.002-27.107,5.458l-7.096-24.379
			c11.097-4.548,22.924-7.641,39.844-7.641c17.647,0,29.655,4.184,37.477,12.008c7.46,7.277,10.553,17.466,10.553,31.293v56.581
			h-34.203v-10.189c-6.732,7.46-16.011,12.372-28.929,12.372C522.245,196.806,507.873,186.072,507.873,166.423z M570.459,158.963
			v-4.548c-3.457-1.455-8.37-2.546-13.463-2.546c-10.008,0-15.83,4.911-15.83,12.189v0.364c0,6.732,5.095,10.734,12.191,10.734
			C563.363,175.156,570.459,168.787,570.459,158.963z"/>
		<path style="fill:#3A3A3A;" d="M656.326,182.615v12.008h-34.569V61.809h34.569v47.485c6.732-8.187,15.099-15.282,29.836-15.282
			c23.471,0,43.665,19.468,43.665,50.942v0.364c0,32.02-20.195,51.488-43.482,51.488
			C671.425,196.806,662.693,190.075,656.326,182.615z M695.805,145.5v-0.364c0-12.916-8.915-22.195-20.195-22.195
			c-11.099,0-20.014,9.279-20.014,22.195v0.364c0,13.101,8.915,22.378,20.014,22.378C686.89,167.878,695.805,158.782,695.805,145.5z
			"/>
		<path style="fill:#3A3A3A;" d="M745.465,61.809h34.567v132.814h-34.567V61.809z"/>
		<path style="fill:#3A3A3A;" d="M795.309,145.864V145.5c0-28.746,20.559-51.488,49.669-51.488
			c34.022,0,49.668,24.926,49.668,53.854c0,2.182,0,4.729-0.183,7.094h-65.86c2.729,10.734,10.553,16.194,21.287,16.194
			c8.187,0,14.737-3.093,21.833-10.008l19.102,15.83c-9.461,12.006-23.105,20.012-42.754,20.012
			C817.142,196.987,795.309,176.429,795.309,145.864z M862.262,137.313c-1.274-10.915-7.643-17.83-17.103-17.83
			c-9.096,0-15.282,7.096-17.102,17.83H862.262z"/>
	</g>
</g>
</svg>
