<?xml version="1.0" encoding="utf-8"?>
<!-- Generator: Adobe Illustrator 21.1.0, SVG Export Plug-In . SVG Version: 6.00 Build 0)  -->
<svg version="1.1" id="Layer_1" xmlns="http://www.w3.org/2000/svg" xmlns:xlink="http://www.w3.org/1999/xlink" x="0px" y="0px"
	 viewBox="0 0 217.392 40" enable-background="new 0 0 217.392 40" xml:space="preserve">
<g>
	<g>
		<g>
			<path fill="#262B3A" d="M68.117,27.926v6.459H52.972c-1.132,0-2.049-0.918-2.049-2.049V7.079c0-1.132,0.918-2.049,2.049-2.049
				h4.66v22.896H68.117z"/>
			<path fill="#262B3A" d="M80.004,29.353c1.719,0,3.187-0.672,4.026-1.595l5.033,2.894c-2.055,2.852-5.159,4.319-9.142,4.319
				c-7.171,0-11.616-4.821-11.616-11.07s4.529-11.072,11.155-11.072c6.123,0,10.652,4.739,10.652,11.072
				c0,0.881-0.083,1.719-0.251,2.516H74.971C75.768,28.596,77.697,29.353,80.004,29.353z M83.861,21.719
				c-0.67-2.432-2.558-3.312-4.445-3.312c-2.39,0-3.984,1.175-4.57,3.312H83.861z"/>
			<path fill="#262B3A" d="M111.828,21.509v12.875h-6.29V22.432c0-2.6-1.635-3.815-3.649-3.815c-2.307,0-3.9,1.341-3.9,4.319v11.448
				h-6.29V13.415h6.29v1.971c1.132-1.551,3.229-2.558,5.996-2.558C108.221,12.829,111.828,15.849,111.828,21.509z"/>
			<path fill="#262B3A" d="M135.979,5.029v29.355h-6.29v-1.971c-1.384,1.593-3.439,2.558-6.248,2.558
				c-5.494,0-10.023-4.821-10.023-11.07s4.529-11.072,10.023-11.072c2.809,0,4.864,0.965,6.248,2.558V7.079
				c0-1.132,0.918-2.049,2.049-2.049H135.979z M129.689,23.901c0-3.146-2.096-5.118-4.991-5.118s-4.991,1.971-4.991,5.118
				c0,3.144,2.096,5.116,4.991,5.116S129.689,27.045,129.689,23.901z"/>
			<path fill="#262B3A" d="M160.642,13.415v20.969h-6.29v-1.971c-1.384,1.593-3.438,2.558-6.248,2.558
				c-5.494,0-10.023-4.821-10.023-11.07s4.529-11.072,10.023-11.072c2.81,0,4.864,0.965,6.248,2.558v-1.971H160.642z
				 M154.352,23.901c0-3.146-2.097-5.118-4.991-5.118c-2.894,0-4.991,1.971-4.991,5.118c0,3.144,2.096,5.116,4.991,5.116
				C152.255,29.016,154.352,27.045,154.352,23.901z"/>
			<path fill="#262B3A" d="M185.305,23.901c0,6.248-4.527,11.07-10.021,11.07c-2.81,0-4.864-0.965-6.248-2.558v1.971h-6.29V5.029
				h4.241c1.132,0,2.049,0.918,2.049,2.049v8.308c1.384-1.593,3.438-2.558,6.248-2.558
				C180.778,12.829,185.305,17.652,185.305,23.901z M179.014,23.901c0-3.146-2.095-5.118-4.989-5.118
				c-2.894,0-4.991,1.971-4.991,5.118c0,3.144,2.096,5.116,4.991,5.116C176.919,29.016,179.014,27.045,179.014,23.901z"/>
			<path fill="#262B3A" d="M187.406,5.029h4.241c1.132,0,2.049,0.918,2.049,2.049v25.256c0,1.132-0.918,2.049-2.049,2.049h-4.241
				V5.029z"/>
			<path fill="#262B3A" d="M207.286,29.353c1.719,0,3.186-0.672,4.025-1.595l5.034,2.894c-2.055,2.852-5.16,4.319-9.142,4.319
				c-7.171,0-11.616-4.821-11.616-11.07s4.529-11.072,11.154-11.072c6.124,0,10.652,4.739,10.652,11.072
				c0,0.881-0.082,1.719-0.25,2.516h-14.889C203.049,28.596,204.979,29.353,207.286,29.353z M211.143,21.719
				c-0.67-2.432-2.558-3.312-4.445-3.312c-2.39,0-3.983,1.175-4.569,3.312H211.143z"/>
		</g>
	</g>
	<g>
		<path fill="#44BA86" d="M38.495,16.401L28.307,6.214l0.002-0.002L24.717,2.62L24.64,2.697c-0.002,0.002-0.005,0.001-0.006,0.003
			l-3.432,3.432C21.2,6.133,21.2,6.136,21.199,6.138l-1.208,1.208l-0.002-0.002l-3.592,3.592l0.002,0.002l-8.079,8.079
			c-0.543,0.543-0.543,1.424,0,1.968l2.608,2.608l5.47,5.47l-1.132,1.132L6.194,21.12c-0.619-0.619-0.619-1.622,0-2.241
			L23.529,1.544c0.031-0.031,0.03-0.083-0.001-0.113c-1.988-1.927-5.162-1.909-7.127,0.056L1.462,16.426l0.007,0.007
			c-1.965,1.985-1.96,5.187,0.018,7.165l10.215,10.215c0.001,0.001-0.001,0.003,0,0.004l3.535,3.535
			c0.016,0.016,0.041,0.016,0.057,0l0.023-0.023c0.002-0.002,0.004-0.001,0.006-0.003l3.484-3.484
			c0.002-0.002,0.001-0.004,0.003-0.006l1.181-1.181l0.002,0.002l3.592-3.592l-0.002-0.002l8.067-8.067c0.55-0.55,0.55-1.441,0-1.99
			l-2.568-2.568c-0.016-0.016-0.041-0.016-0.057,0l0.029-0.029l-5.47-5.47l1.132-1.132l9.047,9.048c0.633,0.633,0.633,1.66,0,2.293
			L16.481,38.428c-0.046,0.046-0.045,0.123,0.002,0.167c1.99,1.9,5.143,1.872,7.099-0.083L38.52,23.574l-0.007-0.007
			C40.478,21.581,40.473,18.379,38.495,16.401z M25.462,20l-5.47,5.47L14.521,20l5.47-5.47L25.462,20z"/>
		
			<rect x="21.552" y="10.758" transform="matrix(0.7071 0.7071 -0.7071 0.7071 15.9492 -11.9107)" opacity="0.35" fill="#44BA86" width="1.6" height="5.078"/>
		
			<rect x="26.275" y="6.035" transform="matrix(0.7071 0.7071 -0.7071 0.7071 13.9928 -16.634)" opacity="0.35" fill="#44BA86" width="1.6" height="5.078"/>
		
			<rect x="16.821" y="24.158" transform="matrix(0.7071 0.7071 -0.7071 0.7071 24.0399 -4.6402)" opacity="0.35" fill="#44BA86" width="1.6" height="5.08"/>
		
			<rect x="12.098" y="28.881" transform="matrix(0.7071 0.7071 -0.7071 0.7071 25.9961 0.0824)" opacity="0.35" fill="#44BA86" width="1.6" height="5.08"/>
	</g>
</g>
</svg>
